<svg width="121" height="117" viewBox="0 0 121 117" fill="none" xmlns="http://www.w3.org/2000/svg">
<path d="M116.5 57.5C116.5 87.1845 91.346 111.5 60 111.5C28.654 111.5 3.5 87.1845 3.5 57.5C3.5 27.8155 28.654 3.5 60 3.5C91.346 3.5 116.5 27.8155 116.5 57.5Z" fill="#DB00FF" fill-opacity="0.35" stroke="#DB00FF" stroke-width="7"/>
<path d="M49.8721 96.2642L64.8334 72.5966L68.378 74.617L55.5967 94.836L59.9754 97.3318L57.7953 100.781L49.8721 96.2642ZM31.4858 69.7321C35.8887 62.7671 45.3176 60.4146 52.4763 64.4951C59.6698 68.5954 61.8825 77.5837 57.4796 84.5487C53.0553 91.5476 43.6825 93.886 36.4891 89.7857C29.3304 85.7052 27.0615 76.731 31.4858 69.7321ZM53.8307 82.4688C55.3482 80.0683 55.8286 77.2145 55.125 74.5137C54.4427 71.7791 52.7128 69.5053 50.2108 68.0791C47.7087 66.6529 44.7819 66.2725 41.9196 66.9866C39.0786 67.6669 36.6869 69.4312 35.1694 71.8318C33.6306 74.2662 33.1154 77.1002 33.8191 79.8009C34.5013 82.5355 36.2312 84.8094 38.7333 86.2356C41.2353 87.6618 44.1621 88.0422 47.0245 87.3281C49.8654 86.6477 52.2918 84.9032 53.8307 82.4688Z" fill="#490E6D"/>
<path d="M105.105 46.8984L109.034 49.0509L89.7945 70.4053L77.6214 63.7366L92.16 39.8069L95.7733 41.7864L83.374 62.195L88.7063 65.1162L105.105 46.8984ZM60.2956 31.5999C65.0575 28.1487 71.6197 27.5063 77.0221 30.4659C84.2838 34.4441 86.6738 43.3625 82.3746 50.4389C78.0753 57.5152 68.7483 60.0147 61.4866 56.0365C54.2249 52.0583 51.8349 43.1399 56.1342 36.0636C56.3834 35.6533 56.6677 35.2623 56.9313 34.9055L79.3128 47.1668C80.2926 45.0153 80.467 42.6504 79.8659 40.4075C79.136 37.6839 77.3672 35.4391 74.8413 34.0554C72.3155 32.6717 69.3836 32.3412 66.5352 33.1045C65.6767 33.3632 64.8325 33.6753 64.0728 34.0792L60.2956 31.5999ZM63.6674 52.4471C66.1932 53.8308 69.1252 54.1612 71.9735 53.3979C73.8724 52.889 75.6075 51.8803 76.9631 50.5726L58.7211 40.5791C58.2074 42.348 58.1563 44.2792 58.6429 46.0949C59.3727 48.8185 61.1416 51.0633 63.6674 52.4471ZM34.4318 35.3829L40.8164 38.8806L53.2158 18.472L56.794 20.4323L44.3947 40.8409L50.7794 44.3386L48.6401 47.8597L32.2925 38.904L34.4318 35.3829Z" fill="#490E6D"/>
</svg>
