<svg width="129" height="130" viewBox="0 0 129 130" fill="none" xmlns="http://www.w3.org/2000/svg">
<path d="M125.5 65C125.5 98.991 98.1639 126.5 64.5 126.5C30.8361 126.5 3.5 98.991 3.5 65C3.5 31.009 30.8361 3.5 64.5 3.5C98.1639 3.5 125.5 31.009 125.5 65Z" fill="#DB00FF" fill-opacity="0.35" stroke="#DB00FF" stroke-width="7"/>
<path d="M24.4586 80V64.4H44.4186V56.08H24.4586V52H48.9386V68.48H29.0186V75.92H48.9386V80H24.4586ZM92.9986 51.64V56.32L71.8786 65.96L92.9986 75.56V80.28L71.0786 70.36V80H66.9586V52H71.0786V61.6L92.9986 51.64ZM96.607 80V52H110.327V56.12H100.807V80H96.607Z" fill="#490E6D"/>
</svg>
