<svg width="129" height="126" viewBox="0 0 129 126" fill="none" xmlns="http://www.w3.org/2000/svg">
<path d="M125.5 63C125.5 95.7838 98.2675 122.5 64.5 122.5C30.7325 122.5 3.5 95.7838 3.5 63C3.5 30.2162 30.7325 3.5 64.5 3.5C98.2675 3.5 125.5 30.2162 125.5 63Z" fill="#DB00FF" fill-opacity="0.35" stroke="#DB00FF" stroke-width="7"/>
<path d="M38.5022 61.96V46.36H58.4622V38.04H38.5022V33.96H62.9822V50.44H43.0622V57.88H62.9822V61.96H38.5022ZM93.3841 47.92C93.3841 56.16 86.6641 62.88 78.4241 62.88C70.1441 62.88 63.4641 56.16 63.4641 47.92C63.4641 39.64 70.1441 32.96 78.4241 32.96C86.6641 32.96 93.3841 39.64 93.3841 47.92ZM67.6641 47.92C67.6641 50.76 68.7841 53.48 70.8241 55.48C72.8641 57.52 75.5441 58.64 78.4241 58.64C81.3041 58.64 83.9841 57.52 86.0241 55.48C88.0641 53.48 89.1441 50.76 89.1441 47.92C89.1441 45.04 88.0641 42.32 86.0241 40.32C83.9841 38.28 81.3041 37.16 78.4241 37.16C75.5441 37.16 72.8641 38.28 70.8241 40.32C68.7841 42.32 67.6641 45.04 67.6641 47.92Z" fill="#490E6D"/>
<path d="M36.6611 107.36H32.1811L37.5411 79.3603H51.4211V107.36H47.3011V83.4804H41.2211L36.6611 107.36ZM82.9464 99.2404C80.6664 104.56 75.3864 108.28 69.2264 108.28C60.9464 108.28 54.2664 101.6 54.2664 93.3204C54.2664 85.0404 60.9464 78.3604 69.2264 78.3604C77.5064 78.3604 84.1864 85.0404 84.1864 93.3204C84.1864 93.8004 84.1464 94.2804 84.1064 94.7204H58.5864C58.8664 97.0804 59.9464 99.2404 61.6264 100.92C63.6664 102.96 66.3464 104.08 69.2264 104.08C72.1064 104.08 74.7864 102.96 76.8264 100.92C77.4264 100.28 77.9864 99.6004 78.4264 98.8804L82.9464 99.2404ZM69.2264 82.5604C66.3464 82.5604 63.6664 83.6804 61.6264 85.7204C60.2664 87.0804 59.3064 88.8004 58.8264 90.6004H79.6264C79.1464 88.8004 78.1864 87.0804 76.8264 85.7204C74.7864 83.6804 72.1064 82.5604 69.2264 82.5604ZM103.106 83.4804H95.8264V107.36H91.7464V83.4804H84.4664V79.3603H103.106V83.4804Z" fill="#490E6D"/>
</svg>
