<svg width="150" height="150" viewBox="0 0 150 150" fill="none" xmlns="http://www.w3.org/2000/svg">
<circle cx="75" cy="75" r="71.5" fill="#DB00FF" fill-opacity="0.35" stroke="#DB00FF" stroke-width="7"/>
<path d="M8.17023 75V64.08H22.1422V58.256H8.17023V55.4H25.3062V66.936H11.3622V72.144H25.3062V75H8.17023ZM41.7744 66.32H27.8304V55.4H44.9664V58.256H31.0224V63.464H44.9664V75H27.8304V72.144H41.7744V66.32ZM66.2477 65.172C66.2477 70.94 61.5437 75.644 55.7757 75.644C49.9797 75.644 45.3037 70.94 45.3037 65.172C45.3037 59.376 49.9797 54.7 55.7757 54.7C61.5437 54.7 66.2477 59.376 66.2477 65.172ZM48.2437 65.172C48.2437 67.16 49.0277 69.064 50.4557 70.464C51.8837 71.892 53.7597 72.676 55.7757 72.676C57.7917 72.676 59.6677 71.892 61.0957 70.464C62.5237 69.064 63.2797 67.16 63.2797 65.172C63.2797 63.156 62.5237 61.252 61.0957 59.852C59.6677 58.424 57.7917 57.64 55.7757 57.64C53.7597 57.64 51.8837 58.424 50.4557 59.852C49.0277 61.252 48.2437 63.156 48.2437 65.172ZM99.0055 65.172C99.0055 70.94 94.3015 75.644 88.5335 75.644C82.7375 75.644 78.0615 70.94 78.0615 65.172C78.0615 59.376 82.7375 54.7 88.5335 54.7C94.3015 54.7 99.0055 59.376 99.0055 65.172ZM81.0015 65.172C81.0015 67.16 81.7855 69.064 83.2135 70.464C84.6415 71.892 86.5175 72.676 88.5335 72.676C90.5495 72.676 92.4255 71.892 93.8535 70.464C95.2815 69.064 96.0375 67.16 96.0375 65.172C96.0375 63.156 95.2815 61.252 93.8535 59.852C92.4255 58.424 90.5495 57.64 88.5335 57.64C86.5175 57.64 84.6415 58.424 83.2135 59.852C81.7855 61.252 81.0015 63.156 81.0015 65.172ZM120.826 65.172C120.826 70.94 116.122 75.644 110.354 75.644C104.558 75.644 99.8818 70.94 99.8818 65.172C99.8818 59.376 104.558 54.7 110.354 54.7C116.122 54.7 120.826 59.376 120.826 65.172ZM102.822 65.172C102.822 67.16 103.606 69.064 105.034 70.464C106.462 71.892 108.338 72.676 110.354 72.676C112.37 72.676 114.246 71.892 115.674 70.464C117.102 69.064 117.858 67.16 117.858 65.172C117.858 63.156 117.102 61.252 115.674 59.852C114.246 58.424 112.37 57.64 110.354 57.64C108.338 57.64 106.462 58.424 105.034 59.852C103.606 61.252 102.822 63.156 102.822 65.172ZM142.646 65.172C142.646 70.94 137.942 75.644 132.174 75.644C126.378 75.644 121.702 70.94 121.702 65.172C121.702 59.376 126.378 54.7 132.174 54.7C137.942 54.7 142.646 59.376 142.646 65.172ZM124.642 65.172C124.642 67.16 125.426 69.064 126.854 70.464C128.282 71.892 130.158 72.676 132.174 72.676C134.19 72.676 136.066 71.892 137.494 70.464C138.922 69.064 139.678 67.16 139.678 65.172C139.678 63.156 138.922 61.252 137.494 59.852C136.066 58.424 134.19 57.64 132.174 57.64C130.158 57.64 128.282 58.424 126.854 59.852C125.426 61.252 124.642 63.156 124.642 65.172Z" fill="#490E6D"/>
<path d="M40.8848 96.576C40.8848 101.52 36.8528 105.552 31.9088 105.552C26.9408 105.552 22.9328 101.52 22.9328 96.576C22.9328 91.608 26.9408 87.6 31.9088 87.6C36.8528 87.6 40.8848 91.608 40.8848 96.576ZM25.4528 96.576C25.4528 98.28 26.1248 99.912 27.3488 101.112C28.5728 102.336 30.1808 103.008 31.9088 103.008C33.6368 103.008 35.2448 102.336 36.4688 101.112C37.6928 99.912 38.3408 98.28 38.3408 96.576C38.3408 94.848 37.6928 93.216 36.4688 92.016C35.2448 90.792 33.6368 90.12 31.9088 90.12C30.1808 90.12 28.5728 90.792 27.3488 92.016C26.1248 93.216 25.4528 94.848 25.4528 96.576ZM59.9784 98.928C58.9464 102.72 55.4664 105.528 51.3144 105.528C46.3704 105.528 42.3624 101.52 42.3624 96.576C42.3624 91.632 46.3704 87.624 51.3144 87.624C55.5144 87.624 59.0424 90.504 60.0264 94.392H57.3864C57.0504 93.504 56.5464 92.712 55.8744 92.016C54.6504 90.816 53.0424 90.144 51.3144 90.144C49.6104 90.144 47.9784 90.816 46.7784 92.016C45.5544 93.24 44.8824 94.848 44.8824 96.576C44.8824 98.304 45.5544 99.912 46.7784 101.136C47.9784 102.336 49.6104 103.008 51.3144 103.008C53.0424 103.008 54.6504 102.336 55.8744 101.136C56.5224 100.488 57.0024 99.744 57.3144 98.928H59.9784ZM79.4629 96.576C79.4629 101.52 75.4309 105.552 70.4869 105.552C65.5189 105.552 61.5109 101.52 61.5109 96.576C61.5109 91.608 65.5189 87.6 70.4869 87.6C75.4309 87.6 79.4629 91.608 79.4629 96.576ZM64.0309 96.576C64.0309 98.28 64.7029 99.912 65.9269 101.112C67.1509 102.336 68.7589 103.008 70.4869 103.008C72.2149 103.008 73.8229 102.336 75.0469 101.112C76.2709 99.912 76.9189 98.28 76.9189 96.576C76.9189 94.848 76.2709 93.216 75.0469 92.016C73.8229 90.792 72.2149 90.12 70.4869 90.12C68.7589 90.12 67.1509 90.792 65.9269 92.016C64.7029 93.216 64.0309 94.848 64.0309 96.576ZM83.4662 90.696V94.728H93.2342V105H80.9942V88.2H93.2342V90.696H83.4662ZM83.4662 97.2V102.504H90.7382V97.2H83.4662ZM111.906 100.128C110.538 103.32 107.37 105.552 103.674 105.552C98.7064 105.552 94.6984 101.544 94.6984 96.576C94.6984 91.608 98.7064 87.6 103.674 87.6C108.642 87.6 112.65 91.608 112.65 96.576C112.65 96.864 112.626 97.152 112.602 97.416H97.2904C97.4584 98.832 98.1064 100.128 99.1144 101.136C100.338 102.36 101.946 103.032 103.674 103.032C105.402 103.032 107.01 102.36 108.234 101.136C108.594 100.752 108.93 100.344 109.194 99.912L111.906 100.128ZM103.674 90.12C101.946 90.12 100.338 90.792 99.1144 92.016C98.2984 92.832 97.7224 93.864 97.4344 94.944H109.914C109.626 93.864 109.05 92.832 108.234 92.016C107.01 90.792 105.402 90.12 103.674 90.12ZM118.802 84V86.232H122.426V84H118.802ZM122.642 90.456L121.058 105H114.362V88.2H116.93L116.906 102.768H118.73L120.386 88.2H127.082V105H124.466V90.456H122.642Z" fill="#490E6D"/>
</svg>
