<svg width="135" height="126" viewBox="0 0 135 126" fill="none" xmlns="http://www.w3.org/2000/svg">
<path d="M131.5 63C131.5 95.6374 103.078 122.5 67.5 122.5C31.9224 122.5 3.5 95.6374 3.5 63C3.5 30.3626 31.9224 3.5 67.5 3.5C103.078 3.5 131.5 30.3626 131.5 63Z" fill="#DB00FF" fill-opacity="0.35" stroke="#DB00FF" stroke-width="7"/>
<path d="M81.1351 83.631L86.9492 102.684L72.0284 107.237L64.8834 83.8227L68.7857 82.6319L74.5998 101.685L81.7159 99.513L75.9018 80.4604L91.6642 75.6503L98.8092 99.0643L94.9069 100.255L89.0928 81.2026L81.1351 83.631ZM51.6791 41.7863L56.1553 40.4203L71.5399 57.8071L74.5576 34.8047L79.072 33.4271L75.9819 57.288L85.2021 54.4743L86.4046 58.4149L59.6238 66.5874L58.4213 62.6468L67.6033 59.8448L51.6791 41.7863ZM77.751 30.0575L50.9702 38.2299L46.9657 25.1073L50.9063 23.9048L53.685 33.0103L76.5252 26.0404L77.751 30.0575Z" fill="#490E6D"/>
</svg>
