<svg width="310" height="485" viewBox="0 0 310 485" fill="none" xmlns="http://www.w3.org/2000/svg">
<path d="M32.139 41.3639C39.4212 28.1011 50.8863 7.45906 50.8863 7.45906C50.8863 7.45906 57.422 12.0703 62.2685 12.8838C71.4177 14.4195 75.4307 6.59277 84.3635 4.06858C98.7985 -0.0103892 122.528 0 122.528 0C122.528 0 123.253 6.21252 123.867 10.1714C124.733 15.7641 123.12 19.9371 126.545 24.4115C130.205 29.1934 135.407 27.5335 140.605 30.5143C148.53 35.0582 149.778 47.3607 158.683 45.4324C161.542 44.8134 163.223 44.0416 165.378 42.042C169.405 38.3074 164.44 30.8017 169.396 28.48C174.288 26.1879 177.071 31.9844 182.117 33.9048C188.542 36.3499 192.064 38.3283 198.856 39.3296C204.807 40.207 214.255 39.3296 214.255 39.3296C214.255 39.3296 223.292 65.4998 229.655 82.0496C238.413 104.828 240.854 119.03 253.758 139.688C260.049 149.758 267.477 153.031 271.836 164.099C273.645 168.694 271.314 173.286 275.184 176.305C279.119 179.375 282.964 176.829 287.905 176.305C296.872 175.355 310 169.524 310 169.524C310 169.524 306.739 186.705 303.305 197.326C299.041 210.511 295.812 217.699 289.244 229.875C279.465 248.003 266.163 253.474 258.445 272.595C255.346 280.272 252.745 284.65 252.419 292.938C252.043 302.5 256.614 307.282 258.445 316.671C260.287 326.113 262.515 331.485 261.793 341.082C261.325 347.297 260.864 350.947 258.445 356.679C253.865 367.527 243.414 368.102 237.689 378.378C234.516 384.074 231.636 387.434 231.663 393.974C231.685 399.25 236.142 401.602 235.681 406.858C235.439 409.612 234.805 411.123 233.672 413.639C230.985 419.604 224.161 419.568 222.29 425.844C221.081 429.901 222.806 432.489 222.29 436.694C221.859 440.2 221.39 442.159 220.281 445.509C216.773 456.105 203.542 468.564 203.542 468.564C203.542 468.564 199.185 483.295 191.491 484.839C186.451 485.85 183.895 481.79 178.769 481.448C174.044 481.133 171.276 484.105 166.717 482.804C160.486 481.027 158.999 476.004 155.335 470.599C147.937 459.682 149.383 450.829 145.962 438.05C140.683 418.337 139.264 406.885 133.91 387.193C131.669 378.951 128.527 374.695 127.884 366.172C127.009 354.572 132.495 348.559 133.91 337.014C135.071 327.538 135.972 322.122 135.249 312.602C133.847 294.148 122.521 286.158 119.849 267.848C118.777 260.494 118.804 256.289 118.51 248.861C118.133 239.336 125.612 230.707 118.51 224.45C114.06 220.529 108.321 224.873 103.78 221.059C99.7297 217.658 102.179 211.738 97.7544 208.854C94.8208 206.942 92.5285 207.09 89.0503 206.819C78.9803 206.035 74.6723 213.554 64.9467 216.313C54.2258 219.353 47.0932 225.419 36.8258 221.059C28.4553 217.505 26.9627 210.713 21.4263 203.429C15.3218 195.397 11.5266 190.948 7.36588 181.73C2.64626 171.273 0.0605632 164.747 0.000889209 153.25C-0.0511406 143.225 6.13177 138.154 5.35724 128.16C4.97998 123.292 3.79022 120.706 2.67907 115.954C1.68522 111.705 0.043073 109.472 0.000889209 105.105C-0.0679808 97.9749 3.87846 94.6868 6.69633 88.1525C14.9401 69.0364 22.1291 59.5945 32.139 41.3639Z" fill="#8000FF"/>
</svg>
