<svg width="360" height="76" viewBox="0 0 360 76" fill="none" xmlns="http://www.w3.org/2000/svg">
<path d="M359.647 75.0733L0.315918 75.4114L0.248451 3.69991L359.579 3.36185L359.647 75.0733Z" fill="#8000FF"/>
<path d="M91.7995 61.0232L85.6795 61.0239L85.6852 19.0239L113.345 19.0207L113.34 61.0207L107.16 61.0214L107.162 43.1414L91.8019 43.1432L91.7995 61.0232ZM91.8044 25.2032L91.8028 36.9632L107.163 36.9614L107.164 25.2014L91.8044 25.2032ZM124.148 25.1994L124.147 36.9594L145.687 36.8968L145.686 43.0768L124.146 43.1394L124.143 61.0194L118.023 61.0201L118.029 19.0201L145.689 19.0168L145.688 25.1968L124.148 25.1994ZM156.667 61.0155L150.367 61.0163L150.373 19.0163L161.953 19.0149C166.093 19.0144 169.812 20.694 172.812 23.5136C175.752 26.3333 177.311 30.2931 177.311 34.3131C177.31 38.4531 175.75 42.2933 172.809 45.2336C171.309 46.7338 169.509 47.814 167.589 48.5943L177.667 61.0131L169.507 61.014L160.389 49.6751L156.669 49.6755L156.667 61.0155ZM156.672 25.3155L156.669 43.3755L161.949 43.3749C166.929 43.3743 171.07 39.2938 171.071 34.3138C171.071 29.2738 166.932 25.3143 161.952 25.3149L156.672 25.3155ZM192.16 25.1914L192.156 55.1314L197.616 55.1307L197.616 61.0107L180.636 61.0127L180.636 55.1327L186.156 55.1321L186.16 25.1921L180.64 25.1927L180.641 19.0127L197.621 19.0107L197.62 25.1907L192.16 25.1914ZM242.313 45.8254C239.732 55.3057 231.031 62.3268 220.651 62.328C208.291 62.3294 198.273 52.3106 198.274 39.9506C198.276 27.5906 208.297 17.5694 220.657 17.568C231.157 17.5667 239.976 24.7657 242.435 34.4854L235.835 34.4862C234.995 32.2663 233.736 30.2864 232.056 28.5466C228.996 25.547 224.976 23.8675 220.656 23.868C216.396 23.8685 212.316 25.549 209.316 28.5493C206.255 31.6097 204.575 35.6299 204.574 39.9499C204.574 44.2699 206.253 48.2897 209.313 51.3493C212.312 54.349 216.392 56.0285 220.652 56.028C224.972 56.0275 228.992 54.347 232.053 51.3466C233.673 49.7264 234.873 47.8663 235.653 45.8262L242.313 45.8254ZM252.698 61.0042L246.578 61.0049L246.584 19.0049L274.244 19.0016L274.238 61.0017L268.058 61.0024L268.06 43.1224L252.7 43.1242L252.698 61.0042ZM252.703 25.1842L252.701 36.9442L268.061 36.9424L268.063 25.1824L252.703 25.1842Z" fill="#AFA4F6"/>
</svg>
