<svg width="412" height="75" viewBox="0 0 412 75" fill="none" xmlns="http://www.w3.org/2000/svg">
<path d="M411.118 73.8551L0.328125 74.2416L0.259335 1.124L411.049 0.737527L411.118 73.8551Z" fill="#B871FF"/>
<path d="M103.911 59.9974L97.7908 59.9974L97.7908 17.9974L125.451 17.9974L125.451 59.9974L119.271 59.9974L119.271 42.1174L103.911 42.1174L103.911 59.9974ZM103.911 24.1774L103.911 35.9374L119.271 35.9374L119.271 24.1774L103.911 24.1774ZM144.971 59.9974L140.771 23.5174L137.171 23.5174L137.171 59.9974L130.811 59.9974L130.811 17.9974L146.591 17.9974L150.491 54.2374L153.971 54.2374L157.871 17.9974L173.651 17.9974L173.651 59.9974L167.051 59.9974L167.171 23.6374L163.631 23.6374L159.311 59.9974L144.971 59.9974ZM220.942 47.8174C217.522 55.7974 209.602 61.3774 200.362 61.3774C187.942 61.3774 177.922 51.3574 177.922 38.9374C177.922 26.5174 187.942 16.4974 200.362 16.4974C212.782 16.4974 222.802 26.5174 222.802 38.9374C222.802 39.6574 222.742 40.3774 222.682 41.0374L184.402 41.0374C184.822 44.5774 186.442 47.8174 188.962 50.3374C192.022 53.3974 196.042 55.0774 200.362 55.0774C204.682 55.0774 208.702 53.3974 211.762 50.3374C212.662 49.3774 213.502 48.3574 214.162 47.2774L220.942 47.8174ZM200.362 22.7974C196.042 22.7974 192.022 24.4774 188.962 27.5374C186.922 29.5774 185.482 32.1574 184.762 34.8574L215.962 34.8574C215.242 32.1574 213.802 29.5774 211.762 27.5374C208.702 24.4774 204.682 22.7974 200.362 22.7974ZM233.231 59.9974L226.931 59.9974L226.931 17.9974L238.511 17.9974C242.651 17.9974 246.371 19.6774 249.371 22.4974C252.311 25.3174 253.871 29.2774 253.871 33.2974C253.871 37.4374 252.311 41.2774 249.371 44.2174C247.871 45.7174 246.071 46.7974 244.151 47.5774L254.231 59.9974L246.071 59.9974L236.951 48.6574L233.231 48.6574L233.231 59.9974ZM233.231 24.2974L233.231 42.3574L238.511 42.3574C243.491 42.3574 247.631 38.2774 247.631 33.2974C247.631 28.2574 243.491 24.2974 238.511 24.2974L233.231 24.2974ZM268.72 24.1774L268.72 54.1174L274.18 54.1174L274.18 59.9974L257.2 59.9974L257.2 54.1174L262.72 54.1174L262.72 24.1774L257.2 24.1774L257.2 17.9974L274.18 17.9974L274.18 24.1774L268.72 24.1774ZM318.876 44.8174C316.296 54.2974 307.596 61.3174 297.216 61.3174C284.856 61.3174 274.836 51.2974 274.836 38.9374C274.836 26.5774 284.856 16.5574 297.216 16.5574C307.716 16.5574 316.536 23.7574 318.996 33.4774L312.396 33.4774C311.556 31.2574 310.296 29.2774 308.616 27.5374C305.556 24.5374 301.536 22.8574 297.216 22.8574C292.956 22.8574 288.876 24.5374 285.876 27.5374C282.816 30.5974 281.136 34.6174 281.136 38.9374C281.136 43.2574 282.816 47.2774 285.876 50.3374C288.876 53.3374 292.956 55.0174 297.216 55.0174C301.536 55.0174 305.556 53.3374 308.616 50.3374C310.236 48.7174 311.436 46.8574 312.216 44.8174L318.876 44.8174ZM329.262 59.9974L323.142 59.9974L323.142 17.9974L350.802 17.9974L350.802 59.9974L344.622 59.9974L344.622 42.1174L329.262 42.1174L329.262 59.9974ZM329.262 24.1774L329.262 35.9374L344.622 35.9374L344.622 24.1774L329.262 24.1774Z" fill="#510082"/>
</svg>
