<svg width="444" height="731" viewBox="0 0 444 731" fill="none" xmlns="http://www.w3.org/2000/svg">
<path d="M200.891 329.677C208.921 329.181 215.077 328.827 223.226 328.332C222.23 337.181 221.353 344.732 220.556 352.26C219.141 365.475 226.772 372.319 237.372 368.401C241.416 366.891 246.198 368.166 253.45 368.166C257.993 363.611 265.205 356.366 272.418 349.122C273.195 349.641 273.952 350.136 274.729 350.656C274.37 355.776 274.011 360.897 273.673 366.018C274.091 366.183 274.49 366.325 274.908 366.49C275.565 364.484 276.183 362.478 276.88 360.496C279.032 354.478 282.041 352.425 287.819 355.045C294.433 358.042 302.044 358.278 308.32 361.912C317.545 367.222 325.973 374.49 334.759 380.909C337.907 383.221 341.174 387.752 344.143 387.493C356.576 386.431 364.585 391.528 368.012 406.159C368.769 409.368 371.12 412.035 373.033 415.48C369.924 420.483 366.836 425.391 363.31 431.031C370.562 434.5 376.4 435.657 383.034 430.111C392.1 422.513 393.694 433.84 397.519 440.778C414.215 432.117 425.452 447.621 438.801 454.111C444.061 456.659 444.878 470.96 439.438 477.379C428.759 489.956 424.775 504.729 424.854 522.027C424.874 527.761 422.882 533.519 421.945 539.277C419.873 551.855 415.968 560.586 402.719 560.516C392.558 560.445 386.939 569.743 387.019 581.848C387.139 599.712 378.791 613.14 369.665 625.364C367.016 628.927 359.345 627.228 353.507 628.007C353.766 628.597 354.424 630.532 355.32 632.325C362.792 647.381 362.214 648.089 348.526 653.045C345.279 654.225 343.386 660.667 339.581 666.755C339.262 666.732 336.293 666.472 331.89 666.071C337.748 673.717 339.262 680.513 333.424 688.206C332.209 689.787 333.584 695.38 335.018 698.259C337.807 703.852 338.883 725.562 334.62 728.465C331.193 730.801 324.777 730.848 321.39 728.489C317.186 725.562 314.596 719.238 311.608 714.117C308.519 708.807 305.83 703.215 302.761 697.315V671.947C301.725 671.9 300.689 671.853 299.673 671.805C299.335 675.628 298.976 679.475 298.637 683.298C297.8 683.392 296.964 683.486 296.127 683.581C294.812 671.097 293.019 658.661 292.282 646.13C290.369 613.683 289.193 581.164 287.121 548.74C286.205 534.298 278.534 524.858 268.134 517.803C263.173 514.428 257.853 510.298 254.805 504.847C246.337 489.603 238.487 473.792 231.514 457.556C229.761 453.474 232.152 446.866 232.889 438.583C226.314 430.394 232.191 421.923 238.846 414.465C248.609 403.539 247.832 390.702 244.345 377.487C243.688 375.009 239.165 371.611 237.352 372.248C223.764 377.086 215.954 373.428 208.602 358.231C207.048 355.021 204.657 351.481 201.907 350.113C194.037 346.172 185.829 343.718 180.828 333.971C179.513 331.423 174.114 330.314 170.866 330.88C153.572 333.83 142.853 319.624 130.361 309.996C129.345 309.217 128.03 307.164 128.289 306.22C132.652 289.701 120.618 280.828 115.857 268.628C111.991 258.693 107.608 249.017 103.464 239.201C102.368 239.625 101.272 240.027 100.177 240.451C104.201 254.728 108.246 269.005 112.27 283.282C110.935 283.967 109.581 284.627 108.246 285.312C104.998 277.548 100.954 270.091 98.7222 261.926C96.4509 253.596 96.1122 244.534 94.5781 235.873C94.0003 232.569 93.2033 227.826 91.2309 226.575C77.3241 217.82 80.5119 203.072 83.2016 190.423C85.5526 179.355 91.6891 169.397 96.2716 159.037C98.8019 153.303 101.591 147.71 104.779 140.984C106.771 141.48 109.74 142.235 113.526 143.203C113.864 139.45 114.163 136.123 114.422 133.22H104.102C104.759 130.2 106.034 127.156 105.974 124.159C105.715 111.321 112.39 97.1385 103.843 85.9057C93.3229 72.0771 79.9341 74.8617 65.0311 75.5697C42.7365 76.6552 26.0802 92.4897 5.93727 97.7993C5.0407 98.0353 4.0246 97.6341 0 97.1857C9.00554 91.7817 15.6601 87.7936 22.3744 83.7583C18.3896 81.1625 14.9428 78.9443 12.2132 77.1744C16.0585 70.732 18.7682 65.1864 22.3345 60.6083C24.307 58.0833 27.5944 56.3606 30.5232 55.6763C35.5639 54.4964 40.8039 54.402 45.984 51.7118C41.7403 50.8386 37.4965 49.9655 32.0175 48.8328C39.7678 39.0159 47.558 37.3168 57.5199 43.6176C57.3007 39.0395 57.1613 35.8537 57.0019 32.6679C57.4203 32.0779 57.7391 31.252 58.277 30.9688C84.3174 17.4706 111.115 13.624 138.769 22.851C153.054 27.6178 166.981 28.019 181.844 24.5501C197.444 20.9159 213.722 21.5531 227.529 34.3906C229.083 35.8301 231.972 35.1929 234.204 35.7121C238.089 36.6324 241.934 37.6943 247.553 39.1574C248.31 38.0719 250.242 35.3345 253.171 31.2048C247.174 29.5765 242.811 28.3966 238.826 27.3111C237.67 22.3082 236.575 17.565 235.06 11.0283C229.362 12.4678 223.186 14.0252 216.751 15.6535C218.683 6.42656 230 -1.00696 240.261 0.196552C244.126 0.64492 248.27 1.89566 251.577 4.2083C259.925 10.0371 267.735 18.0133 276.681 5.7658C277.598 7.93684 277.936 8.33802 277.877 8.6448C276.94 14.8984 277.657 24.2433 274.569 26.6267C270.485 29.7417 263.412 27.4055 257.554 29.4586C271.262 31.2992 284.471 41.3993 299.454 31.7476C298.916 28.4674 298.378 25.1873 297.721 21.0575C299.912 19.5944 302.303 17.9897 306.467 15.2051C300.271 14.4264 296.067 13.9072 290.847 13.2701C301.825 2.08444 314.895 0.880918 323.502 9.28193C323.303 9.54151 317.505 34.9333 317.704 36.2548C325.136 32.7387 332.428 29.2933 342.151 24.6916C337.867 39.535 332.727 47.1809 320.155 44.2783C322.028 48.408 323.323 51.2634 324.618 54.1424C314.656 60.6555 314.337 60.4431 307.643 42.6264C307.563 54.4964 300.151 52.1601 294.931 54.2604C290.608 55.983 286.304 58.1305 282.36 60.8207C275.585 65.4224 269.07 70.5668 262.296 75.6169C264.289 83.0425 273.932 91.9312 291.226 102.283C290.349 105.351 288.775 108.56 288.695 111.793C288.616 115.191 290.01 118.613 290.747 122.035C293.895 120.69 299.095 120.218 299.813 117.834C302.443 109.127 308.619 106.224 314.098 101.41C317.485 98.4365 318.063 91.2389 320.394 86.2597C324.179 78.1419 327.447 69.2453 332.787 62.8266C335.078 60.0656 342.768 60.8915 346.574 63.2986C350.758 65.9416 353.428 72.1479 356.396 77.08C357.592 79.0622 357.851 81.8232 358.927 85.6697C364.545 81.6108 369.227 78.2363 376.161 73.2334C377.097 79.5106 378.173 84.6078 378.512 89.7523C378.89 95.4867 378.591 101.268 378.591 106.625C383.612 108.631 387.696 110.283 393.634 112.643C376.22 125.881 389.31 133.48 398.874 143.58H366.199C371.279 137.114 375.125 132.229 379.468 126.707C358.11 125.055 341.374 128.642 327.766 138.483C335.217 136.784 340.557 135.557 347.57 133.952C345.857 140.182 344.621 144.713 343.067 150.353C346.912 151.887 350.399 153.303 355.659 155.426C347.889 159.839 341.613 163.403 335.317 166.99C334.759 166.329 334.201 165.668 333.623 165.007C334.879 162.482 336.134 159.957 337.588 157.031C336.692 156.795 335.815 156.229 335.078 156.418C332.169 157.149 328.802 157.22 326.511 159.108C310.99 171.827 295.708 184.948 280.347 197.927C279.53 198.611 278.116 199.272 278.056 200.051C276.641 219.213 261.519 222.328 252.135 232.357C248.111 236.652 247.294 245.902 246.297 253.147C245.361 259.991 246.098 267.188 246.098 274.221C244.484 274.527 242.871 274.858 241.257 275.164C239.862 269.808 237.77 264.522 237.212 259.047C236.455 251.424 236.176 245.95 227.111 246.422C220.078 246.776 212.646 240.64 207.327 251.259C206.928 252.038 203.581 251.165 201.748 250.481C185.809 244.463 167.957 258.103 166.244 278.114C165.646 285.099 165.905 292.226 166.204 299.282C166.523 306.739 168.196 313.394 175.787 314.739C183.418 316.084 190.411 316.202 193.639 305.394C196.687 295.176 203.242 295.27 212.188 298.102C208.402 308.603 204.876 318.397 200.752 329.818L200.891 329.677Z" fill="#B871FF"/>
<path d="M395.879 56.7932C393.151 59.1698 390.462 61.6176 387.674 63.8753C386.917 64.4694 385.264 64.113 384.985 64.7784C382.376 70.8386 378.393 75.3065 373.573 69.6979C370.486 66.0855 368.036 58.7658 368.952 54.1315C369.649 50.4954 375.963 48.4277 379.767 45.6234C380.325 45.2194 380.783 44.6491 381.281 44.1738C379.627 28.9638 374.728 25.5654 362.121 28.0608C356.046 29.2728 349.514 27.0626 340.133 26.0882C344.773 18.9348 347.382 14.9421 349.972 10.9258C350.489 12.1378 351.007 13.3499 351.525 14.5382C354.572 13.849 357.62 13.2311 360.647 12.4706C374.29 8.97707 385.563 15.7502 395.262 25.6366C401.854 32.3623 406.814 41.3932 412.51 49.3784C412.251 50.638 411.992 51.8975 411.733 53.1333C406.296 53.5136 400.859 53.8938 395.421 54.2741L395.899 56.7694L395.879 56.7932Z" fill="#B871FF"/>
</svg>
