<svg width="260" height="273" viewBox="0 0 260 273" fill="none" xmlns="http://www.w3.org/2000/svg">
<path d="M141.582 220.411C134.819 222.891 129.492 224.851 124.026 226.883C116.605 225.253 108.586 223.482 99.7483 221.521C101.863 212.617 104.815 204.02 93.0055 203.76C94.6413 200.382 95.7385 198.091 96.8556 195.777C96.1574 195.115 95.4592 194.454 94.761 193.793C93.2648 196.816 91.7686 199.815 89.7138 203.972C87.6191 200.099 85.9434 198.115 85.3849 195.753C83.4498 187.439 78.4426 183.802 71.9391 185.03C62.9421 186.731 54.1244 189.848 45.287 192.659C34.1553 196.178 23.1634 200.477 11.912 203.311C8.62042 204.138 4.63061 201.067 0.959961 199.792C2.03722 196.343 3.57334 192.99 4.11196 189.447C5.12937 182.644 5.96715 175.748 6.1467 168.875C6.28634 163.466 4.7703 158.01 4.87004 152.578C5.34882 130.258 16.3807 116.441 35.3723 113.89C43.1924 112.835 47.9136 109.072 49.5361 102.6C54.6032 97.7581 58.2739 95.6561 60.1891 92.2077C66.473 80.8234 70.3831 79.0282 82.3725 82.7836C90.2524 76.4302 96.9553 69.9822 104.516 65.4946C107.109 63.9594 112.236 66.5103 115.269 68.8722C116.506 69.8406 114.91 75.2966 115.289 78.6268C115.767 82.7129 116.845 86.728 117.922 90.6488C118.161 91.4991 119.538 91.9005 120.376 92.5146C135.597 103.781 139.228 101.206 141.103 79.5242C141.622 73.6667 145.113 68.14 147.526 61.7393C151.377 69.6752 154.17 75.2256 156.743 80.8942C157.98 83.6103 159.775 86.6336 159.715 89.4678C159.157 110.701 171.286 125.392 178.288 142.823C180.782 149.035 180.343 158.553 178.288 165.308C174.717 177.023 172.044 189.092 160.035 195.942C151.796 200.642 146.749 213.184 141.602 220.387L141.582 220.411Z" fill="#47008D"/>
<path d="M101.273 2.28761C112.603 -4.24998 113.481 7.8103 116.353 14.1355C117.949 14.2771 118.907 14.6783 119.166 14.3479C128.023 2.85401 136.859 6.37059 146.274 13.5926C151.52 17.6048 157.784 19.6818 163.189 23.4344C166.78 25.9126 170.51 29.1696 172.684 33.2054C177.571 42.3156 181.501 52.1573 186.348 62.8015C173.881 64.5008 170.271 47.5314 160.576 41.0882C159.04 43.6844 157.325 45.5961 156.687 47.8854C155.031 53.951 152.218 54.6826 147.611 52.1809C142.085 49.1835 136.301 46.7997 130.077 43.8968C136.6 34.2438 131.414 26.8566 123.195 24.8977C112.125 22.2543 105.522 15.5516 101.293 2.28761H101.273Z" fill="#47008D"/>
<path d="M233.321 240.237C229.255 244.539 225.593 249.547 221.061 252.974C211.654 260.096 201.902 266.61 192.009 272.687C190.472 273.635 187.437 271.01 185.07 270.013C186.425 267.121 187.174 262.77 189.197 261.579C203.096 253.582 217.278 246.241 231.359 238.682C232.006 239.192 232.653 239.703 233.281 240.213L233.321 240.237Z" fill="#47008D"/>
<path d="M235.893 239.805C239.783 233.755 244.71 228.273 247.232 221.491C249.226 216.174 248.288 209.226 248.757 200.932C252.745 209.392 255.854 215.985 259.999 224.776C253.899 230.116 246.352 236.757 238.786 243.397C237.809 242.192 236.851 241.01 235.873 239.805H235.893Z" fill="#47008D"/>
<path d="M109.074 241.266C117.129 239.759 123.416 238.571 129.203 237.498C126.746 247.114 116.921 254.949 106.347 253.921C107.346 249.284 108.324 244.761 109.094 241.289L109.074 241.266Z" fill="#47008D"/>
</svg>
