<svg width="512" height="74" viewBox="0 0 512 74" fill="none" xmlns="http://www.w3.org/2000/svg">
<path d="M511.692 73.0415L0.0683594 73.5228L0.000231303 1.1083L511.624 0.62696L511.692 73.0415Z" fill="#47008D"/>
<g filter="url(#filter0_d_396_7030)">
<path d="M151.596 60.9974H145.476V18.9974H173.136V60.9974H166.956V43.1174H151.596V60.9974ZM151.596 25.1774V36.9374H166.956V25.1774H151.596ZM199.767 18.9974H205.947V60.9974H178.347V18.9974H184.467V54.8174H199.767V18.9974ZM237.543 42.3374H210.723V18.9974H243.723V25.1174H216.843V36.2174H243.723V60.9974H210.723V54.8774H237.543V42.3374ZM275.02 25.1774H264.1V60.9974H257.98V25.1774H247.06V18.9974H275.02V25.1774ZM286.542 60.9974H280.242V18.9974H291.822C295.962 18.9974 299.682 20.6774 302.682 23.4974C305.622 26.3174 307.182 30.2774 307.182 34.2974C307.182 38.4374 305.622 42.2774 302.682 45.2174C301.182 46.7174 299.382 47.7974 297.462 48.5774L307.542 60.9974H299.382L290.262 49.6574H286.542V60.9974ZM286.542 25.2974V43.3574H291.822C296.802 43.3574 300.942 39.2774 300.942 34.2974C300.942 29.2574 296.802 25.2974 291.822 25.2974H286.542ZM317.182 60.9974H311.062V18.9974H338.722V60.9974H332.542V43.1174H317.182V60.9974ZM317.182 25.1774V36.9374H332.542V25.1774H317.182ZM350.233 55.1174H364.513V60.9974H343.933V18.9974H350.233V55.1174ZM379.628 25.1774V55.1174H385.088V60.9974H368.108V55.1174H373.628V25.1774H368.108V18.9974H385.088V25.1774H379.628ZM396.577 60.9974H390.457V18.9974H418.117V60.9974H411.937V43.1174H396.577V60.9974ZM396.577 25.1774V36.9374H411.937V25.1774H396.577Z" fill="#E0B9FF"/>
</g>
<defs>
<filter id="filter0_d_396_7030" x="141.477" y="18.9974" width="280.64" height="50" filterUnits="userSpaceOnUse" color-interpolation-filters="sRGB">
<feFlood flood-opacity="0" result="BackgroundImageFix"/>
<feColorMatrix in="SourceAlpha" type="matrix" values="0 0 0 0 0 0 0 0 0 0 0 0 0 0 0 0 0 0 127 0" result="hardAlpha"/>
<feOffset dy="4"/>
<feGaussianBlur stdDeviation="2"/>
<feComposite in2="hardAlpha" operator="out"/>
<feColorMatrix type="matrix" values="0 0 0 0 0 0 0 0 0 0 0 0 0 0 0 0 0 0 0.25 0"/>
<feBlend mode="normal" in2="BackgroundImageFix" result="effect1_dropShadow_396_7030"/>
<feBlend mode="normal" in="SourceGraphic" in2="effect1_dropShadow_396_7030" result="shape"/>
</filter>
</defs>
</svg>
