<svg width="470" height="467" viewBox="0 0 470 467" fill="none" xmlns="http://www.w3.org/2000/svg">
<path d="M469.501 218.165C469.722 221.548 469.87 224.951 469.944 228.373L464.946 228.481C464.982 230.15 465 231.823 465 233.5C465 235.177 464.982 236.85 464.946 238.519L469.944 238.627C469.87 242.049 469.722 245.452 469.501 248.835L464.512 248.51C464.294 251.85 464.004 255.17 463.643 258.469L468.613 259.013C468.242 262.411 467.797 265.788 467.28 269.141L462.338 268.379C461.828 271.687 461.247 274.972 460.596 278.231L465.499 279.211C464.829 282.564 464.087 285.891 463.275 289.19L458.42 287.995C457.62 291.241 456.751 294.46 455.814 297.65L460.611 299.059C459.648 302.336 458.615 305.584 457.513 308.8L452.783 307.179C451.7 310.339 450.549 313.468 449.333 316.564L453.986 318.393C452.738 321.569 451.422 324.712 450.039 327.82L445.471 325.787C444.114 328.838 442.691 331.853 441.205 334.832L445.68 337.064C444.157 340.116 442.569 343.131 440.917 346.106L436.545 343.68C434.926 346.598 433.244 349.477 431.501 352.315L435.762 354.931C433.977 357.838 432.131 360.702 430.224 363.523L426.082 360.723C424.213 363.488 422.285 366.21 420.3 368.887L424.316 371.865C422.286 374.603 420.196 377.296 418.05 379.941L414.168 376.791C412.066 379.381 409.909 381.925 407.697 384.421L411.439 387.737C409.18 390.287 406.864 392.788 404.496 395.237L400.901 391.762C398.584 394.16 396.214 396.507 393.794 398.802L397.234 402.43C394.763 404.774 392.24 407.065 389.667 409.302L386.387 405.528C383.871 407.715 381.307 409.848 378.696 411.927L381.81 415.839C379.146 417.959 376.434 420.023 373.676 422.029L370.735 417.986C368.04 419.946 365.3 421.85 362.518 423.695L365.281 427.862C362.444 429.743 359.564 431.565 356.641 433.325L354.061 429.042C351.208 430.76 348.314 432.419 345.382 434.016L347.773 438.407C344.785 440.034 341.758 441.598 338.693 443.098L336.495 438.607C333.506 440.07 330.479 441.47 327.418 442.806L329.418 447.389C326.301 448.749 323.15 450.044 319.964 451.272L318.166 446.606C315.061 447.803 311.925 448.934 308.757 449.999L310.35 454.739C307.128 455.822 303.875 456.837 300.593 457.783L299.208 452.979C296.012 453.9 292.788 454.754 289.537 455.539L290.711 460.399C287.408 461.197 284.078 461.926 280.723 462.583L279.761 457.676C276.498 458.316 273.21 458.887 269.899 459.387L270.646 464.331C267.292 464.838 263.914 465.275 260.514 465.64L259.981 460.668C256.68 461.022 253.358 461.307 250.016 461.521L250.336 466.511C246.952 466.727 243.549 466.873 240.128 466.946L240.021 461.947C238.352 461.982 236.678 462 235 462C233.322 462 231.648 461.982 229.979 461.947L229.872 466.946C226.451 466.873 223.048 466.727 219.664 466.511L219.984 461.521C216.642 461.307 213.32 461.022 210.019 460.668L209.486 465.64C206.086 465.275 202.708 464.838 199.354 464.331L200.101 459.387C196.79 458.887 193.502 458.316 190.239 457.676L189.277 462.583C185.922 461.926 182.592 461.197 179.289 460.399L180.463 455.539C177.212 454.754 173.988 453.9 170.792 452.979L169.407 457.783C166.125 456.837 162.872 455.822 159.65 454.739L161.243 449.999C158.075 448.934 154.938 447.803 151.834 446.606L150.036 451.272C146.85 450.044 143.699 448.749 140.582 447.389L142.582 442.806C139.521 441.47 136.494 440.07 133.505 438.607L131.307 443.098C128.242 441.598 125.215 440.034 122.227 438.407L124.618 434.016C121.686 432.419 118.792 430.76 115.939 429.042L113.359 433.325C110.437 431.565 107.556 429.743 104.719 427.862L107.482 423.695C104.7 421.85 101.96 419.946 99.2651 417.986L96.3238 422.029C93.5663 420.023 90.8545 417.959 88.1902 415.839L91.3039 411.927C88.6931 409.848 86.1288 407.715 83.6129 405.528L80.3326 409.302C77.7602 407.065 75.2373 404.774 72.7657 402.43L76.2065 398.802C73.7862 396.507 71.4163 394.16 69.0986 391.762L65.5038 395.237C63.1355 392.788 60.8205 390.287 58.5606 387.737L62.3028 384.421C60.0914 381.925 57.934 379.381 55.8324 376.791L51.9496 379.941C49.8035 377.296 47.7143 374.603 45.6838 371.865L49.7001 368.887C47.7148 366.21 45.7869 363.488 43.9183 360.723L39.7759 363.523C37.8691 360.702 36.0225 357.838 34.2382 354.931L38.4992 352.315C36.7564 349.477 35.0743 346.598 33.4546 343.68L29.0829 346.106C27.4314 343.131 25.8433 340.116 24.3204 337.064L28.7946 334.832C27.3087 331.853 25.8863 328.838 24.5291 325.787L19.9609 327.82C18.5783 324.712 17.262 321.569 16.0137 318.393L20.6673 316.564C19.4507 313.468 18.3001 310.339 17.2172 307.179L12.4872 308.8C11.3853 305.584 10.352 302.337 9.38899 299.059L14.1862 297.65C13.2488 294.46 12.3796 291.241 11.5802 287.995L6.72522 289.19C5.9127 285.891 5.17073 282.564 4.50102 279.211L9.40416 278.231C8.75309 274.972 8.17178 271.687 7.66187 268.379L2.72023 269.141C2.20337 265.788 1.7583 262.411 1.38662 259.013L6.35698 258.469C5.99619 255.17 5.70605 251.85 5.48811 248.51L0.49872 248.835C0.277956 245.452 0.129719 242.049 0.0555384 238.627L5.05436 238.519C5.01818 236.85 5 235.177 5 233.5C5 231.823 5.01818 230.15 5.05436 228.481L0.0555372 228.373C0.129717 224.951 0.277954 221.548 0.498717 218.165L5.48811 218.49C5.70604 215.15 5.99618 211.83 6.35698 208.531L1.38661 207.987C1.75829 204.589 2.20336 201.212 2.72022 197.859L7.66186 198.621C8.17177 195.313 8.75308 192.028 9.40416 188.769L4.50101 187.789C5.17073 184.436 5.91269 181.109 6.72522 177.81L11.5802 179.005C12.3796 175.759 13.2488 172.54 14.1862 169.35L9.38898 167.941C10.3519 164.664 11.3853 161.416 12.4872 158.2L17.2172 159.821C18.3001 156.661 19.4507 153.532 20.6673 150.436L16.0137 148.607C17.262 145.431 18.5783 142.288 19.9609 139.18L24.5291 141.213C25.8863 138.162 27.3087 135.147 28.7946 132.168L24.3204 129.936C25.8433 126.884 27.4314 123.869 29.0829 120.894L33.4546 123.32C35.0743 120.402 36.7564 117.523 38.4992 114.685L34.2382 112.069C36.0226 109.162 37.8691 106.298 39.7759 103.477L43.9183 106.277C45.7869 103.512 47.7148 100.79 49.7001 98.1131L45.6838 95.1349C47.7143 92.3967 49.8035 89.7041 51.9496 87.059L55.8324 90.2092C57.934 87.6189 60.0914 85.0751 62.3028 82.5795L58.5606 79.2635C60.8205 76.7131 63.1355 74.2122 65.5038 71.7625L69.0986 75.2378C71.4163 72.8404 73.7862 70.4931 76.2065 68.1977L72.7657 64.5698C75.2373 62.2258 77.7602 59.9347 80.3326 57.6985L83.6129 61.472C86.1288 59.285 88.6931 57.1515 91.3039 55.0734L88.1902 51.1614C90.8545 49.0407 93.5663 46.9765 96.3238 44.9706L99.2651 49.014C101.96 47.0536 104.7 45.15 107.482 43.3052L104.719 39.1381C107.556 37.2567 110.437 35.4351 113.359 33.6749L115.939 37.9581C118.792 36.2397 121.686 34.5812 124.618 32.9844L122.227 28.5932C125.215 26.9663 128.242 25.402 131.307 23.9022L133.505 28.3933C136.494 26.9302 139.521 25.5297 142.582 24.1937L140.582 19.6111C143.699 18.251 146.85 16.9561 150.036 15.7282L151.834 20.3937C154.938 19.1971 158.075 18.0656 161.243 17.0007L159.65 12.2613C162.872 11.1784 166.125 10.1631 169.407 9.21691L170.792 14.0213C173.988 13.1003 177.212 12.2462 180.463 11.4608L179.289 6.60063C182.592 5.80284 185.922 5.07438 189.277 4.4169L190.239 9.3236C193.502 8.68425 196.79 8.11344 200.101 7.61276L199.354 2.66896C202.708 2.16173 206.086 1.72499 209.486 1.36028L210.019 6.33176C213.32 5.97765 216.642 5.6929 219.984 5.47902L219.664 0.489233C223.048 0.272665 226.451 0.127252 229.872 0.0544836L229.979 5.05335C231.648 5.01785 233.322 5 235 5C236.678 5 238.352 5.01785 240.021 5.05335L240.128 0.0544826C243.549 0.127251 246.952 0.272664 250.336 0.489231L250.016 5.47902C253.358 5.6929 256.68 5.97765 259.981 6.33176L260.514 1.36028C263.914 1.72499 267.292 2.16173 270.646 2.66896L269.899 7.61276C273.21 8.11344 276.498 8.68424 279.761 9.3236L280.723 4.4169C284.078 5.07438 287.408 5.80284 290.711 6.60064L289.537 11.4608C292.788 12.2462 296.012 13.1003 299.208 14.0213L300.593 9.21692C303.875 10.1631 307.128 11.1784 310.35 12.2613L308.757 17.0007C311.925 18.0656 315.062 19.1971 318.166 20.3937L319.964 15.7283C323.15 16.9561 326.301 18.251 329.418 19.6111L327.418 24.1937C330.479 25.5298 333.506 26.9302 336.495 28.3933L338.693 23.9022C341.758 25.4021 344.785 26.9663 347.773 28.5932L345.382 32.9844C348.314 34.5812 351.208 36.2397 354.061 37.9581L356.641 33.6749C359.564 35.4351 362.444 37.2567 365.281 39.1381L362.518 43.3052C365.3 45.15 368.04 47.0536 370.735 49.014L373.676 44.9706C376.434 46.9765 379.146 49.0407 381.81 51.1614L378.696 55.0734C381.307 57.1515 383.871 59.285 386.387 61.472L389.667 57.6985C392.24 59.9347 394.763 62.2257 397.234 64.5698L393.794 68.1977C396.214 70.4931 398.584 72.8404 400.901 75.2378L404.496 71.7625C406.864 74.2122 409.18 76.7131 411.439 79.2635L407.697 82.5795C409.909 85.0751 412.066 87.6189 414.168 90.2092L418.05 87.059C420.196 89.7041 422.286 92.3967 424.316 95.1349L420.3 98.1131C422.285 100.79 424.213 103.512 426.082 106.277L430.224 103.477C432.131 106.298 433.977 109.162 435.762 112.069L431.501 114.685C433.244 117.523 434.926 120.402 436.545 123.32L440.917 120.894C442.569 123.869 444.157 126.884 445.68 129.936L441.205 132.168C442.691 135.147 444.114 138.162 445.471 141.213L450.039 139.18C451.422 142.288 452.738 145.431 453.986 148.607L449.333 150.436C450.549 153.532 451.7 156.661 452.783 159.821L457.513 158.2C458.615 161.416 459.648 164.663 460.611 167.941L455.814 169.35C456.751 172.54 457.62 175.759 458.42 179.005L463.275 177.81C464.087 181.109 464.829 184.436 465.499 187.789L460.596 188.769C461.247 192.028 461.828 195.313 462.338 198.621L467.28 197.859C467.797 201.212 468.242 204.589 468.613 207.987L463.643 208.531C464.004 211.83 464.294 215.15 464.512 218.49L469.501 218.165Z" stroke="#DB00FF" stroke-width="10" stroke-dasharray="10 10"/>
</svg>
