<svg width="248" height="62" viewBox="0 0 248 62" fill="none" xmlns="http://www.w3.org/2000/svg">
<path d="M247.351 59.7682L1 60L0.950546 7.43494L247.302 7.20317L247.351 59.7682Z" fill="#918FFF"/>
<path d="M88.8009 38.844C86.5649 47.06 79.0249 53.144 70.0289 53.144C59.3169 53.144 50.6329 44.46 50.6329 33.748C50.6329 23.036 59.3169 14.352 70.0289 14.352C79.1289 14.352 86.7729 20.592 88.9049 29.016H83.1849C82.4569 27.092 81.3649 25.376 79.9089 23.868C77.2569 21.268 73.7729 19.812 70.0289 19.812C66.3369 19.812 62.8009 21.268 60.2009 23.868C57.5489 26.52 56.0929 30.004 56.0929 33.748C56.0929 37.492 57.5489 40.976 60.2009 43.628C62.8009 46.228 66.3369 47.684 70.0289 47.684C73.7729 47.684 77.2569 46.228 79.9089 43.628C81.3129 42.224 82.3529 40.612 83.0289 38.844H88.8009ZM97.7238 35.256V52H92.3678V15.6H97.7238V29.9H119.096V15.6H124.452V52H119.096V35.256H97.7238ZM138.821 20.956V46.904H143.553V52H128.837V46.904H133.621V20.956H128.837V15.6H143.553V20.956H138.821ZM160.777 52L157.345 20.488H153.445V52H147.725V15.6H162.233L165.821 47.164H169.773L169.721 15.6H175.285V52H160.777ZM185.248 52H179.944V15.6H203.916V52H198.56V36.504H185.248V52ZM185.248 20.956V31.148H198.56V20.956H185.248Z" fill="#0019FF"/>
</svg>
