<svg width="129" height="109" viewBox="0 0 129 109" fill="none" xmlns="http://www.w3.org/2000/svg">
<path fill-rule="evenodd" clip-rule="evenodd" d="M111.5 20.5L24.5 20.5C24.5 20.5 17.97 21.9381 12.6736 25.7449C11.3449 26.6999 10.0819 27.4257 8.89036 28.1105C6.33133 29.5812 4.10175 30.8625 2.25767 33.8183C2.15503 33.9829 2.05528 34.1412 1.95855 34.2948C1.00706 35.8054 0.347491 36.8525 0.102648 38.7326C-0.284122 41.7026 0.419499 43.709 2.25767 46.104C2.90175 46.9433 3.73299 47.3279 4.54304 47.7027C5.46907 48.1312 6.36742 48.5469 6.92687 49.6142C8.97947 53.5303 11.1117 58.044 13.3092 62.6958C19.188 75.1404 25.5335 88.5729 32.0687 94.1937C32.5792 94.6328 33.1164 94.4975 33.7089 94.3483C34.094 94.2514 34.5025 94.1485 34.9421 94.1937C37.8133 94.4891 39.4866 95.6429 41.5411 97.0595C42.1649 97.4897 42.8239 97.944 43.5622 98.406C45.7314 99.7632 47.0751 101.464 48.3703 103.104C50.0214 105.194 51.5936 107.184 54.6964 108.235C58.0367 109.365 60.5445 109.033 63.5156 108.639C64.6708 108.486 65.896 108.324 67.2674 108.235C73.8479 107.806 78.3064 106.705 83.5428 105.411C85.7979 104.854 88.1973 104.261 90.9726 103.671C92.6157 103.322 94.0473 103.109 95.3976 102.909C98.0913 102.509 100.462 102.157 103.543 100.863C110.507 97.9384 113.93 94.7407 118.629 88.9284C122.015 84.7391 123.573 82.0068 125.453 76.9938C128.459 68.9765 128.383 63.7356 127.608 55.2305C127.203 50.7851 125.453 43.9979 125.453 43.9979L111.5 20.5Z" fill="url(#paint0_linear_281_423)"/>
<path d="M19.1386 15.5653L24.5 20.5L111.5 20.5L97.0796 3.27968C97.0796 3.27968 94.9246 2.92866 90.9726 2.22657C78.2643 -0.031107 70.7507 -0.7043 57.929 0.822489C46.0711 2.23451 38.7617 2.95738 28.477 8.89594C24.5882 11.1414 19.1386 15.5653 19.1386 15.5653Z" fill="#1D0B21"/>
<defs>
<linearGradient id="paint0_linear_281_423" x1="128.063" y1="54.5043" x2="0" y2="54.5043" gradientUnits="userSpaceOnUse">
<stop offset="0.26" stop-color="#4A0094"/>
<stop offset="0.505" stop-color="#EB00FF"/>
<stop offset="0.74" stop-color="#4A0094"/>
</linearGradient>
</defs>
</svg>
