<svg width="168" height="122" viewBox="0 0 168 122" fill="none" xmlns="http://www.w3.org/2000/svg">
<path fill-rule="evenodd" clip-rule="evenodd" d="M22.0349 26.456L142.893 23.9226C145.807 25.535 148.879 27.2832 151.374 28.8131C153.117 29.8819 154.774 30.6942 156.337 31.4606C159.694 33.1066 162.619 34.5406 165.038 37.8487C165.173 38.0328 165.304 38.2101 165.431 38.3819C166.679 40.0725 167.544 41.2445 167.865 43.3487C168.373 46.6726 167.45 48.9181 165.038 51.5986C164.193 52.5378 163.103 52.9683 162.04 53.3878C160.825 53.8673 159.647 54.3326 158.913 55.5271C156.22 59.9099 153.423 64.9616 150.54 70.1678C142.828 84.0954 134.504 99.1288 125.93 105.419C125.261 105.911 124.556 105.759 123.779 105.593C123.274 105.484 122.738 105.369 122.161 105.419C118.394 105.75 116.199 107.041 113.504 108.627C112.686 109.108 111.821 109.617 110.853 110.134C108.007 111.653 106.244 113.557 104.545 115.391C102.379 117.731 100.317 119.958 96.2462 121.134C91.8643 122.399 88.5743 122.027 84.6768 121.586C83.1613 121.415 81.554 121.233 79.755 121.134C71.1222 120.654 65.2734 119.422 58.404 117.974C55.4456 117.35 52.298 116.687 48.6572 116.027C46.5016 115.636 44.6236 115.398 42.8521 115.173C39.3185 114.726 36.2088 114.332 32.166 112.884C23.0306 109.61 18.5407 106.032 12.3765 99.5267C7.93339 94.8381 5.89036 91.7802 3.42408 86.1697C-0.520196 77.1969 -0.420305 71.3315 0.597004 61.8128C1.12873 56.8375 3.42408 49.2415 3.42408 49.2415L22.0349 26.456Z" fill="url(#paint0_linear_281_432)"/>
<path d="M142.893 17.4203L132.998 18.5989C132.998 18.5989 137.692 21.0445 142.893 23.9226L22.0349 26.456L40.6456 3.67055C40.6456 3.67055 43.4727 3.27769 48.6572 2.49192C65.3286 -0.0348143 75.1854 -0.788236 92.0056 0.920511C107.561 2.50081 117.15 3.30983 130.642 9.95614C135.744 12.4692 142.893 17.4203 142.893 17.4203Z" fill="#1D0B21"/>
<defs>
<linearGradient id="paint0_linear_281_432" x1="168" y1="61" x2="0" y2="61" gradientUnits="userSpaceOnUse">
<stop offset="0.24" stop-color="#E201D9"/>
<stop offset="0.45" stop-color="#480054"/>
<stop offset="0.585" stop-color="#50004D"/>
<stop offset="0.795" stop-color="#FF00F5"/>
</linearGradient>
</defs>
</svg>
