<svg width="307" height="75" viewBox="0 0 307 75" fill="none" xmlns="http://www.w3.org/2000/svg">
<path d="M306.198 74.4013L0.654297 74.6887L0.587492 3.6803L306.131 3.39284L306.198 74.4013Z" fill="#F587FF"/>
<path d="M103.083 24.1793V54.1193H108.543V59.9993H91.5633V54.1193H97.0833V24.1793H91.5633V17.9993H108.543V24.1793H103.083ZM128.418 59.9993L124.458 23.6393H119.958V59.9993H113.358V17.9993H130.098L134.238 54.4193H138.798L138.738 17.9993H145.158V59.9993H128.418ZM180.893 30.7193C182.033 33.3593 182.633 36.1793 182.633 38.9993C182.633 41.8793 182.033 44.6393 180.893 47.2793C179.753 49.7393 178.133 52.0193 176.093 53.9393C171.893 57.8393 166.373 59.9993 160.493 59.9993H150.533V17.9993H160.493C166.373 17.9993 171.893 20.1593 176.093 24.0593C178.133 25.9793 179.753 28.1993 180.893 30.7193ZM160.493 53.6993C169.253 53.6993 176.333 47.0993 176.333 38.9993C176.333 30.8393 169.253 24.2993 160.493 24.2993H156.713V53.6993H160.493ZM194.783 24.1793V54.1193H200.243V59.9993H183.263V54.1193H188.783V24.1793H183.263V17.9993H200.243V24.1793H194.783ZM211.731 59.9993H205.611V17.9993H233.271V59.9993H227.091V42.1193H211.731V59.9993ZM211.731 24.1793V35.9393H227.091V24.1793H211.731Z" fill="#49184B"/>
</svg>
