<svg width="301" height="301" viewBox="0 0 301 301" fill="none" xmlns="http://www.w3.org/2000/svg">
<path d="M104.381 248.778C103.866 248.517 103.361 248.277 102.846 248.016C104.742 246.441 106.638 244.866 108.527 243.307C110.146 244.297 111.587 245.901 113.424 246.136C119.587 246.93 125.822 247.591 132.168 247.584C137.174 247.561 142.399 246.952 147.469 245.722C154.366 244.047 158.223 237.845 163.093 232.951C168.988 227.053 169.315 221.038 168.179 214.957C166.855 207.813 164.985 200.964 168.058 193.022C168.697 191.357 168.663 188.902 167.814 187.673C165.248 183.943 165.143 179.739 166.1 175.011C166.944 170.914 165.057 168.878 161.32 167.997C158.733 167.385 156.471 165.971 154.054 164.894C151.787 163.535 149.534 162.141 147.237 160.812C144.981 159.512 142.691 158.298 140.415 157.049C141.612 155.449 142.802 153.865 143.999 152.265C149.933 155.072 155.94 157.783 161.788 160.757C163.847 161.8 166.286 162.996 167.233 164.946C169.937 170.479 174.289 173.209 180.709 173.239C176.526 174.73 172.343 176.221 168.278 177.684C170.447 184.1 173.89 185.924 179.95 181.328C180.617 180.818 181.778 180.884 182.681 180.885C187.68 180.878 192.684 180.949 199.501 181.003C196.902 178.846 195.614 177.036 193.744 176.359C189.898 174.962 185.748 174.184 181.741 173.14C183.012 173.064 184.302 172.898 185.54 172.946C197.046 173.368 203.358 180.71 209.141 188.748C208.216 189.193 207.285 189.656 206.361 190.101C204.168 189.871 201.992 189.645 199.792 189.432C196.129 182.942 189.828 182.358 182.342 183.735C175.491 184.989 172.272 189.789 175.957 195.833C176.233 193.663 176.518 191.513 176.843 188.96C178.363 188.401 180.138 187.736 182.41 186.895C181.118 190.786 174.029 195.123 181.988 197.346C182.771 196.113 183.584 194.849 184.627 193.191C184.614 194.712 184.613 195.765 184.596 196.552C186.096 195.385 187.566 194.248 189.036 193.112L189.827 194.703C189.308 198.393 188.766 202.096 188.247 205.785C187.561 210.675 186.907 215.573 186.165 220.468C185.241 226.559 184.255 232.672 183.292 238.772C181.334 242.383 175.561 243.513 175.985 248.681C171.84 251.48 167.711 254.283 163.566 257.081C162.984 257.03 162.419 256.982 161.83 256.947C160.366 257.37 158.908 257.776 157.444 258.198C148.595 259.967 140.507 259.33 133.635 254.727C132.951 254.273 131.692 253.618 131.283 253.929C125.851 258.024 122.299 253.538 117.837 253.397C119.831 253.069 121.808 252.737 123.801 252.409C123.856 252.009 123.889 251.622 123.945 251.222C121.175 251.017 118.406 250.811 115.636 250.605C111.868 249.979 108.092 249.371 104.323 248.745L104.381 248.778ZM146.657 252.368C155.345 255.941 171.799 245.015 172.215 236.764C172.239 236.224 171.941 235.736 171.971 235.179C172.15 231.761 172.154 228.337 172.634 224.92C173.406 219.468 174.816 213.969 175.312 208.542C175.468 206.888 173.512 205.418 172.202 203.358C171.889 209.471 172.026 214.342 171.275 219.216C170.395 224.847 168.352 230.507 167.56 236.142C167.149 239.125 166.478 241.045 164.284 243.75C159.63 249.47 153.894 250.552 146.657 252.368Z" fill="#C258BE"/>
<path d="M39.8807 125.255C44.48 123.173 49.0955 121.094 54.1042 118.832C53.5764 118.078 53.2717 117.212 52.6217 116.804C44.5143 111.533 44.6288 103.94 48.8578 94.2372C55.7463 78.4461 63.1242 62.7589 74.4093 49.2379C81.6021 40.6176 90.7266 33.0465 102.506 33.669C101.994 34.6697 101.476 35.6876 100.271 38.095C105.461 37.5722 109.73 37.138 114.015 36.7078C116.685 37.7729 119.347 38.855 122.017 39.9201C120.091 40.0389 118.157 40.1748 116.231 40.2936C116.15 40.8002 116.076 41.2898 115.995 41.7963C120.089 41.751 124.175 41.7227 128.269 41.6773C144.798 44.5269 161.34 47.3041 177.844 50.2602C185.163 51.57 192.049 53.7308 196.588 59.631C195.299 59.7967 193.993 59.9583 192.703 60.124C185.217 58.2641 177.779 56.2847 170.203 54.6469C168.526 54.2824 166.389 55.1389 164.474 55.4487C162.282 55.0867 160.081 54.7036 157.888 54.3416L156.032 53.6311C152.871 52.4238 149.804 50.9392 146.518 50.0394C141.187 48.5887 135.661 47.5782 130.266 46.2431C127.129 45.456 124.145 44.2931 121.022 43.4718C116.516 42.3034 111.736 41.7248 107.428 40.1545C97.8247 36.6531 90.0017 39.6957 84.3176 49.579C83.5207 50.9786 82.5836 52.4182 81.4216 53.538C69.6078 65.0822 61.3564 78.8565 53.3829 92.7758C49.7693 99.0764 50.4643 104.275 54.8718 109.013C55.937 110.146 56.7836 111.469 57.7291 112.722C58.0821 113.601 58.4349 114.48 58.7879 115.359C59.0218 115.832 59.2396 116.301 59.4735 116.773C59.3618 117.968 59.2501 119.163 59.1384 120.359C58.8526 121.021 58.5667 121.683 58.281 122.345C57.8346 122.704 57.3815 123.079 56.9352 123.438C53.741 124.763 50.5539 126.07 47.3598 127.395C46.7571 127.79 46.1544 128.184 45.5448 128.596C44.6645 128.582 43.7682 128.564 42.8879 128.55C42.5683 128.639 42.244 128.784 41.9542 128.974C41.7977 129.142 41.5976 129.243 41.3861 129.284C41.1171 129.291 40.8643 129.303 40.5954 129.311C40.3809 127.959 40.1503 126.602 39.9359 125.25L39.8807 125.255ZM110.942 38.6088L110.524 38.7673C110.675 38.9182 110.833 39.052 110.985 39.2029C111.066 39.0914 111.208 38.9579 111.204 38.8815C111.181 38.7628 111.027 38.7054 110.942 38.6088Z" fill="#422145" fill-opacity="0.6"/>
<path d="M39.8765 125.248C40.091 126.601 40.3215 127.957 40.5429 129.292C40.4668 129.48 40.3839 129.685 40.3078 129.873C40.1513 130.041 39.9604 130.162 39.7442 130.258C39.4107 130.513 39.084 130.751 38.7504 131.006C38.4002 131.784 38.066 132.566 37.7157 133.344C36.6347 135.97 35.5536 138.597 34.4565 141.22L34.4219 141.305C33.2733 152.59 32.1248 163.875 30.9762 175.16C31.0442 179.938 30.3234 185.045 31.3756 189.449C32.8715 195.734 34.6981 202.252 38.0985 207.377C44.6216 217.218 56.9787 218.644 67.7638 222.028C70.2981 222.815 74.0653 220.862 77.2886 220.166C83.6318 218.634 87.6877 221.439 91.0892 225.511C91.3093 226.018 91.5362 226.507 91.7563 227.014C91.9419 227.475 92.1506 227.922 92.3362 228.383C91.6578 228.702 90.9725 229.038 90.3102 229.361C87.1019 225.075 83.1335 224.154 76.9595 226.406C64.0136 231.117 54.7767 224.697 44.9587 219.843C28.7431 211.841 27.1667 195.732 25.7268 178.849C24.4955 164.426 28.1483 150.194 31.8402 135.821C32.9762 131.439 34.6086 127.013 39.8604 125.244L39.8765 125.248Z" fill="#3D2C3C" fill-opacity="0.6"/>
<path d="M192.723 60.1317C194.013 59.9661 195.318 59.8045 196.608 59.6388C196.608 59.6388 196.668 59.5785 196.661 59.5956C197.95 60.0884 199.229 60.5601 200.525 61.0358C203.511 63.2904 206.489 65.5622 209.49 67.8208C210.228 68.3634 210.965 68.9059 211.695 69.4656C212.159 70.0712 212.629 70.6596 213.093 71.2652C213.571 71.4416 214.026 71.6311 214.503 71.8075C216.759 75.2527 218.676 79.0081 221.359 82.0525C227.132 88.5822 233.704 94.4089 239.175 101.202C242.783 105.683 245.471 111.08 247.841 116.474C251.784 125.423 255.152 134.699 258.773 143.831C258.598 144.089 258.625 144.284 258.885 144.386C258.995 144.903 259.088 145.416 259.198 145.933C259.5 147.157 259.802 148.38 260.104 149.604L260.106 149.642C260.198 150.117 260.312 150.578 260.403 151.053L260.417 151.282C260.495 151.659 260.566 152.053 260.636 152.447C260.884 152.622 260.914 152.856 260.757 153.155L260.766 153.308C260.873 154.182 260.98 155.055 261.087 155.929C260.337 156.644 259.596 157.38 258.846 158.095C255.819 152.311 252.799 146.51 249.787 140.73C246.358 132.963 242.922 125.213 239.492 117.446C239.55 117.084 239.592 116.718 239.595 116.361C239.538 115.538 239.491 114.736 239.434 113.912C237.744 106.751 232.725 102.255 228.016 97.3851C223.257 92.4649 218.88 87.17 214.625 81.7928C211.107 77.3533 207.996 72.5643 204.703 67.9178C204.687 67.7821 204.719 67.5267 204.671 67.5146C204.446 67.4581 204.195 67.5082 203.965 67.507C203.212 67.2238 202.449 66.9194 201.695 66.6362C201.59 66.3275 201.395 66.1092 201.108 65.9431C198.746 64.8612 196.401 63.7833 194.039 62.7014C193.624 61.8445 193.202 61.0048 192.787 60.1479L192.723 60.1317Z" fill="#4D1D51" fill-opacity="0.6"/>
<path d="M199.818 189.454C202.011 189.684 204.187 189.91 206.386 190.123C207.563 191.811 208.741 193.499 209.911 195.204C211.493 196.373 213.059 197.538 214.642 198.706C214.763 199.414 214.877 200.139 214.998 200.847C214.177 201.299 213.362 201.735 212.541 202.188C211.439 201.365 210.194 200.676 209.225 199.699C204.227 194.625 197.652 196.118 194.278 203.796C192.476 207.897 192.376 212.52 191.668 216.897C191.08 220.494 190.722 224.093 190.276 227.688C187.088 235.431 183.91 243.196 180.722 250.94L180.554 251.443L180.087 251.721C179.155 252.579 178.207 253.432 177.275 254.29L176.925 254.673C175.695 254.778 174.473 254.866 173.259 254.976C170.052 255.676 166.854 256.398 163.646 257.099C167.792 254.3 171.921 251.497 176.066 248.698C181.632 247.423 182.395 243.042 183.373 238.789C184.336 232.689 185.315 226.593 186.246 220.485C186.987 215.59 187.641 210.692 188.327 205.803C190.963 202.136 193.616 198.473 196.235 194.802C197.479 193.044 198.639 191.228 199.841 189.441L199.818 189.454Z" fill="#4D1D51" fill-opacity="0.6"/>
<path d="M163.625 257.134C166.832 256.433 170.03 255.711 173.238 255.011C173.081 255.573 172.908 256.132 172.758 256.678C172.079 257.129 171.384 257.575 170.706 258.026C169.719 258.625 168.739 259.207 167.752 259.807C164.666 261.083 161.603 262.347 158.517 263.624L158.145 263.756C156.267 264.15 154.379 264.524 152.501 264.918C148.128 263.858 143.755 262.799 139.383 261.739C135.679 260.734 131.968 259.746 128.264 258.742C122.508 257.335 116.768 255.932 111.005 254.542C107.931 253.601 103.963 253.641 104.383 248.797C108.152 249.423 111.927 250.031 115.696 250.657C116.433 251.595 117.16 252.511 117.897 253.449C122.358 253.59 125.911 258.076 131.342 253.982C131.752 253.67 133.027 254.329 133.695 254.779C140.567 259.383 148.647 260.037 157.503 258.251C158.968 257.828 160.425 257.422 161.89 256.999C162.472 257.051 163.037 257.099 163.625 257.134Z" fill="#422145" fill-opacity="0.6"/>
<path d="M263.147 167.736C264.48 179.719 266.546 191.641 260.068 204.317C258.995 206.4 257.524 208.327 256.232 210.336C257.573 207.285 256.514 206.794 253.922 208.383C252.087 209.503 250.38 210.919 248.617 212.208C248.42 212.083 248.211 212.03 247.958 212.042C248.914 210.513 249.617 208.732 250.875 207.505C256.513 201.938 257.787 195.333 258.657 188.588C259.524 181.937 260.385 175.304 261.252 168.653C261.885 168.36 262.524 168.05 263.156 167.757L263.147 167.736Z" fill="#4D1D51" fill-opacity="0.6"/>
<path d="M248.603 212.201C250.365 210.912 252.072 209.496 253.908 208.376C256.516 206.791 257.559 207.279 256.218 210.329C248.637 218.683 239.682 224.697 229.295 226.983C223.476 228.27 221.16 223.925 220.016 219.047C220.613 217.747 221.194 216.444 221.79 215.145C222.434 215.306 223.077 215.468 223.737 215.633C224.134 215.79 224.525 215.963 224.922 216.119C224.887 220.627 226.95 221.483 231.331 219.59C235.58 217.759 240.025 216.672 244.325 215.023C245.819 214.438 247.163 213.176 248.58 212.214L248.603 212.201Z" fill="#422145" fill-opacity="0.6"/>
<path d="M92.3777 228.398C92.1921 227.938 91.9834 227.49 91.7978 227.03C91.5777 226.523 91.3508 226.033 91.1468 225.53C87.7453 221.459 83.6733 218.649 77.3462 220.185C77.4272 219.678 77.5012 219.189 77.5823 218.682C79.8638 217.467 82.1453 216.252 84.4268 215.037C84.2336 219.147 86.6171 219.124 89.8411 217.769C92.9571 222.371 96.0293 227.038 99.2051 231.579C101.057 234.227 103.097 236.715 105.055 239.276C106.212 240.62 107.369 241.964 108.542 243.313C106.646 244.888 104.75 246.464 102.861 248.022C101.668 246.198 100.491 244.379 99.2981 242.555C100.991 235.396 95.1744 232.826 92.4007 228.385L92.3777 228.398Z" fill="#9E45A6"/>
<path d="M92.3701 228.402C95.1507 232.826 100.967 235.396 99.2675 242.572C92.3254 241.206 92.5632 234.359 90.3372 229.397C91.0156 229.078 91.7009 228.742 92.3632 228.419L92.3701 228.402Z" fill="#473B47"/>
<path d="M221.803 215.125C221.207 216.425 220.626 217.728 220.029 219.027C217.519 213.41 215.025 207.798 212.521 202.164C213.342 201.711 214.156 201.276 214.978 200.823C217.405 204.105 219.84 207.369 222.268 210.65C222.268 210.65 222.273 210.727 222.28 210.71C222.129 212.177 221.977 213.645 221.826 215.112L221.803 215.125Z" fill="#473B47"/>
<path d="M180.693 250.961C183.881 243.217 187.059 235.453 190.247 227.709C190.504 236.355 188.676 244.458 180.693 250.961Z" fill="#473B47"/>
<path d="M263.138 167.735C262.506 168.028 261.866 168.338 261.234 168.631C260.424 165.116 259.622 161.584 258.812 158.069C259.562 157.354 260.303 156.617 261.053 155.902C261.738 159.857 262.446 163.798 263.131 167.752L263.138 167.735Z" fill="#833B8F"/>
<path d="M172.746 256.678C172.903 256.115 173.06 255.553 173.226 255.011C174.456 254.906 175.679 254.817 176.892 254.708C175.512 255.359 174.126 256.027 172.746 256.678Z" fill="#473B47"/>
<path d="M158.148 263.756L158.518 263.623L158.348 263.957L158.148 263.756Z" fill="#473B47"/>
<path d="M258.861 144.359C258.602 144.256 258.574 144.062 258.749 143.805L259.1 143.987L258.861 144.359Z" fill="#833B8F"/>
<path d="M260.749 153.262L260.746 153.095L260.99 153.23L260.749 153.262Z" fill="#833B8F"/>
<path d="M209.149 188.772C203.366 180.734 197.061 173.375 185.549 172.97C184.31 172.922 183.013 173.105 181.749 173.164C181.411 173.079 181.08 173.109 180.724 173.246C174.288 173.211 169.952 170.486 167.248 164.952C166.294 163.019 163.862 161.807 161.804 160.763C155.955 157.79 149.964 155.082 144.014 152.272C143.561 149.016 143.098 145.738 142.651 142.464C142.281 142.635 141.917 142.788 141.547 142.959C140.643 147.38 139.749 151.823 138.845 156.244C138.348 156.552 137.86 156.881 137.364 157.189C136.379 156.077 135.394 154.964 134.4 153.83L134.371 153.465C138.144 148.39 135.224 146.848 131.405 145.777C131.655 145.03 131.92 144.288 132.162 143.558C134.649 139.252 130.245 139.539 128.967 137.751C129.094 137.35 129.237 136.953 129.371 136.535L124.579 131.738C123.858 129.054 123.028 127.209 119.822 130.751C118.149 132.609 116.233 133.84 114.234 131.25C112.896 129.521 110.473 127.935 108.246 127.922C105.948 127.909 103.298 129.86 100.71 130.999C100.791 123.228 91.857 130.809 90.4024 126.568C87.9161 129.952 85.5472 133.178 83.1692 136.382C79.5822 135.614 75.8801 134.911 72.8253 138.999C69.4183 143.564 74.1222 144.462 75.5215 146.827C75.8633 147.383 76.525 147.718 77.0255 148.145L77.0439 148.187C75.0364 148.944 73.0289 149.701 70.0603 150.819C74.1589 152.469 77.6578 153.893 81.1797 155.303C81.8713 155.477 82.5561 155.668 83.2408 155.858C82.6837 156.622 81.5468 157.898 81.6753 158.062C84.3722 161.336 87.2209 164.497 90.446 168.129C90.9886 166.045 91.2425 165.111 91.4803 164.174C93.6854 165.423 95.8905 166.673 98.424 168.118C98.586 169.118 98.446 170.908 99.1364 172.136C101.405 176.205 103.848 180.149 106.466 183.967C108.781 187.352 108.417 190.309 104.24 193.1C104.494 194.048 104.732 194.992 104.986 195.941C105.104 196.874 105.232 197.828 105.35 198.761C105.513 199.103 105.676 199.445 105.832 199.804C105.495 200.942 105.158 202.081 104.821 203.22C103.9 204.663 102.986 206.09 102.065 207.534C101.333 208.159 100.602 208.785 99.87 209.41C98.0837 209.752 96.2881 210.073 93.9294 210.516C95.2491 208.175 96.0945 206.656 96.9329 205.154C101.186 204.321 102.789 201.806 101.706 198.091C101.2 196.364 100.393 194.111 101.135 192.584C103.121 188.51 102.649 185.343 100.105 182.917C95.8486 178.857 94.4734 171.661 86.9442 171.089C86.1169 171.032 85.4812 170.195 84.7485 169.729C84.4187 168.706 84.4366 167.261 83.7016 166.757C79.9237 164.096 75.8651 161.779 72.0711 159.115C70.0455 157.684 68.3582 155.812 66.5007 154.141C66.3749 153.621 66.233 153.096 66.1072 152.575C66.3613 151.509 66.5923 150.457 66.8464 149.392C67.1549 146.966 67.4795 144.545 67.788 142.12C71.2271 137.695 73.2594 131.449 80.2444 131.527C81.7048 130.764 83.9209 130.323 84.529 129.215C89.8269 119.366 96.004 116.494 105.695 119.735C109.665 128.88 119.788 123.178 126.706 125.215C122.021 123.569 117.314 121.936 112.629 120.29C112.788 119.897 112.954 119.487 113.097 119.09C113.89 119.232 114.673 119.354 115.466 119.496C119.753 119.368 124.024 119.235 128.304 119.124C130.461 121.453 132.389 124.044 134.895 125.953C135.691 126.567 138.019 125.325 139.635 124.922C139.604 124.387 139.565 123.869 139.534 123.334C145.421 124.285 151.867 121.537 154.605 116.917C155.099 115.611 155.569 114.317 156.111 113.023C156.629 111.742 157.235 110.464 157.802 109.195C159.636 109.26 161.479 109.346 163.314 109.411C163.094 110.786 162.858 112.157 162.55 114.056C165.391 111.325 167.472 108.855 169.97 107.017C173.587 104.386 175.029 101.7 173.895 97.8022C172.833 94.1672 173.848 90.8277 177.926 88.5014C183.204 86.0998 186.844 88.8385 191.012 90.3172C203.928 94.9135 213.251 102.654 216.172 116.974C218.51 128.4 226.392 135.76 234.279 143.064C237.833 146.365 241.109 150.047 238.879 156.3C238.561 156.822 238.259 157.349 237.934 157.888C232.934 151.289 227.567 144.937 223.029 137.983C219.145 132.04 215.47 125.755 213.08 118.964C211.044 113.184 209.596 107.439 203.82 104.634C200.747 102.772 197.665 100.888 194.493 98.9628L193.608 101.149C193.11 100.498 192.596 99.8416 192.098 99.1897C189.315 96.4779 186.526 93.7831 183.759 91.0753C182.162 91.2578 180.587 91.4272 178.769 91.6295C180.116 95.1291 181.147 97.8343 182.169 100.518C181.865 101.27 181.568 102.005 181.263 102.756C180.796 103.034 180.322 103.329 179.872 103.611L179.826 103.637C178.544 105.009 177.262 106.381 175.996 107.757C168.305 110.475 167.167 112.147 167.494 119.963C167.534 120.782 167.264 122.239 166.758 122.526C161.999 125.265 161.393 130.702 157.881 134.299C155.304 136.946 153.39 140.229 151.636 142.593C152.584 145.239 153.507 147.861 154.882 151.687C155.884 147.723 156.611 144.876 157.676 140.627C158.631 143.652 159.861 145.428 159.604 147.245C159.059 151.174 160.677 153.217 163.403 155.105C169.135 159.065 176.559 161.342 178.414 169.41C178.51 169.83 179.652 169.984 180.348 169.971C183.7 169.834 187.076 169.589 190.446 169.362C192.443 170.165 194.416 170.98 196.413 171.782C197.391 172.121 198.377 172.444 199.34 172.78C202.372 173.955 205.389 175.126 208.421 176.301C208.322 176.633 208.262 176.957 208.218 177.285C207.927 178.266 207.643 179.229 207.323 180.372C209.04 180.069 210.373 179.839 211.714 179.592C212.596 179.381 213.495 179.174 214.378 178.962C214.263 184.88 216.872 187.392 222.207 186.497C220.911 190.444 223.009 192.965 226.392 190.822C229.302 188.974 231.308 185.375 233.709 182.552C234.282 179.648 233.878 175.745 235.592 174.049C239.837 169.864 240.497 166.002 239.581 161.35C239.487 160.837 241.364 159.615 242.326 158.727C242.662 160.524 242.99 162.337 243.31 164.13C242.365 168.786 241.403 173.437 240.442 178.088C239.238 181.061 238.028 184.05 236.825 187.023C232.041 195.25 227.724 197.554 220.1 195.905C216.448 193.502 212.796 191.098 209.168 188.682L209.149 188.772ZM146.371 126.01L146.286 126.045L143.766 126.843C139.496 127.935 135.233 129.011 130.433 130.234C133.033 133.22 135.797 136.416 138.568 139.595C139.145 139.571 139.722 139.546 140.282 139.518C140.504 132.667 144.73 131.77 149.372 130.809C151.689 130.336 153.955 128.591 156.255 127.418C156.193 126.913 156.139 126.391 156.077 125.886C153.374 125.735 150.679 125.567 147.976 125.415C147.433 125.618 146.907 125.824 146.371 126.01Z" fill="#5F1760"/>
<path d="M108.518 243.308C107.361 241.964 106.204 240.62 105.047 239.276C108.632 236.111 110.492 239.306 112.987 240.102C116.156 240.765 119.309 241.425 122.478 242.088C126.566 242.625 130.654 243.161 135.772 243.825C135.482 244.015 136.527 243.186 137.665 242.606C138.873 241.987 140.188 241.583 141.83 240.941C142.413 241.295 143.628 242.014 145.296 243.015C145.264 240.73 145.259 239.299 145.237 237.863C146.198 238.293 147.167 238.743 148.127 239.172C148.54 239.727 148.944 240.262 149.357 240.817C150.416 239.69 151.468 238.58 152.526 237.453C153.353 236.419 154.179 235.384 155.012 234.332C158.894 230.959 163.333 227.783 161.007 222.193C161.575 219.739 162.167 217.272 162.85 214.357C158.516 208.301 159.283 192.969 162.725 189.674C160.036 185.329 157.46 181.145 154.383 176.139C156.661 176.334 157.966 176.436 160.267 176.618C155.058 172.808 150.695 169.624 146.332 166.441C146.055 165.11 145.762 163.776 145.486 162.446C146.522 162.819 147.538 163.243 148.608 163.531C150.428 164.025 152.26 164.447 154.093 164.907C156.501 165.963 158.772 167.398 161.36 168.01C165.096 168.891 166.967 170.923 166.139 175.024C165.166 179.748 165.271 183.952 167.853 187.686C168.702 188.915 168.729 191.387 168.097 193.035C165.024 200.977 166.894 207.826 168.219 214.97C169.354 221.051 169.018 227.045 163.132 232.964C158.247 237.854 154.39 244.056 147.508 245.735C142.439 246.965 137.207 247.591 132.207 247.597C125.871 247.625 119.626 246.943 113.463 246.149C111.627 245.914 110.192 244.293 108.566 243.32L108.518 243.308Z" fill="#5F1760"/>
<path d="M199.815 189.455C198.613 191.243 197.453 193.059 196.21 194.817C193.599 198.509 190.954 202.154 188.302 205.817C188.821 202.127 189.363 198.424 189.882 194.735L189.091 193.143C187.621 194.28 186.151 195.417 184.651 196.583C184.652 195.793 184.669 194.744 184.682 193.223C183.63 194.859 182.826 196.144 182.044 197.378C174.084 195.155 181.173 190.818 182.465 186.927C180.193 187.768 178.418 188.433 176.898 188.992C176.573 191.545 176.288 193.694 176.012 195.864C172.328 189.821 175.546 185.021 182.397 183.767C189.867 182.386 196.184 182.974 199.848 189.463L199.815 189.455Z" fill="#7D2B7F"/>
<path d="M146.648 252.37C153.886 250.555 159.628 249.455 164.276 243.753C166.469 241.048 167.124 239.123 167.551 236.144C168.336 230.526 170.386 224.85 171.266 219.218C172.024 214.327 171.88 209.474 172.193 203.361C173.503 205.421 175.459 206.89 175.303 208.545C174.808 213.972 173.404 219.453 172.625 224.922C172.138 228.357 172.141 231.763 171.963 235.181C171.939 235.721 172.237 236.21 172.207 236.767C171.79 245.018 155.337 255.943 146.648 252.37Z" fill="#833B8F"/>
<path d="M180.721 173.246C181.061 173.106 181.415 173.063 181.746 173.165C185.776 174.195 189.92 174.99 193.749 176.384C195.604 177.056 196.907 178.87 199.506 181.028C192.689 180.973 187.701 180.907 182.686 180.909C181.783 180.908 180.622 180.843 179.955 181.353C173.919 185.935 170.468 184.128 168.283 177.709C172.342 176.262 176.531 174.754 180.714 173.263L180.721 173.246Z" fill="#C459D5"/>
<path d="M154.089 164.905C152.255 164.445 150.417 164.04 148.604 163.529C147.533 163.241 146.525 162.8 145.482 162.444C144.832 162.3 144.165 162.152 143.515 162.007C143.428 161.872 143.366 161.631 143.256 161.641C142.948 161.658 142.621 161.764 142.308 161.836C141.814 162.183 141.296 162.542 140.802 162.888C140.08 162.745 139.382 162.588 138.66 162.445C138.101 161.025 137.542 159.605 136.982 158.185C137.114 157.86 137.252 157.519 137.384 157.194C137.88 156.886 138.368 156.557 138.865 156.249C139.396 156.514 139.926 156.778 140.434 157.056C142.71 158.305 145.016 159.524 147.256 160.82C149.553 162.149 151.806 163.542 154.073 164.901L154.089 164.905Z" fill="#39113F"/>
<path d="M140.425 157.058C139.895 156.793 139.364 156.528 138.856 156.25C139.76 151.829 140.655 147.387 141.559 142.965C141.929 142.795 142.292 142.641 142.663 142.471C143.109 145.744 143.579 149.005 144.026 152.278C142.835 153.862 141.638 155.462 140.448 157.045L140.425 157.058Z" fill="#833B8F"/>
<path d="M209.153 188.769C212.804 191.172 216.456 193.575 220.092 195.974C216.693 195.704 213.287 195.452 209.897 195.203C208.72 193.515 207.542 191.827 206.372 190.122C207.304 189.66 208.228 189.214 209.16 188.752L209.153 188.769Z" fill="#A141B1"/>
<path d="M183.345 238.826C182.368 243.078 181.598 247.477 176.039 248.735C175.599 243.562 181.388 242.437 183.345 238.826Z" fill="#9E45A6"/>
<path d="M117.886 253.43C117.149 252.492 116.421 251.576 115.685 250.638C118.454 250.844 121.224 251.049 123.993 251.255C123.937 251.655 123.905 252.042 123.849 252.442C121.856 252.77 119.879 253.102 117.886 253.43Z" fill="#4D1D51"/>
<path d="M80.2613 131.574C73.2603 131.492 71.2511 137.725 67.8051 142.167C64.975 144.693 65.5997 147.089 66.8635 149.439C66.6094 150.504 66.3783 151.556 66.1243 152.622C66.2501 153.143 66.392 153.668 66.5178 154.188C68.3592 155.855 70.0395 157.744 72.0881 159.162C75.882 161.826 79.9246 164.139 83.7186 166.804C84.4374 167.304 84.4358 168.753 84.7656 169.776C81.3389 169.443 77.9122 169.11 74.4856 168.777L74.2766 168.725C74.0892 167.831 73.9017 166.937 73.7212 166.026C72.6403 166.508 71.5435 166.985 70.4626 167.467C68.1943 167.293 65.9419 167.123 63.6735 166.948C63.6094 166.801 63.5359 166.632 63.4718 166.484C63.1888 166.657 62.9129 166.814 62.6461 166.992C58.231 168.706 54.3718 170.843 52.7131 176.035C52.2863 177.395 49.9747 178.772 48.3327 179.546C39.5108 183.787 37.0797 189.18 40.7464 196.536C41.3953 197.865 41.9265 199.617 41.596 201.133C40.5838 205.866 42.9051 208.011 46.4154 209.494C48.6829 210.458 50.8189 211.747 53.2109 212.403C61.2874 214.6 69.4631 216.595 77.5949 218.654C77.5139 219.161 77.4398 219.65 77.3588 220.157C74.1516 220.858 70.3683 222.806 67.8501 222.024C57.0582 218.657 44.7078 217.214 38.1847 207.372C34.7844 202.247 32.9509 195.746 31.4619 189.445C30.4097 185.041 31.1236 179.951 31.0625 175.156C32.732 168.536 34.5532 161.937 36.0319 155.307C37.1595 150.246 37.4686 145.28 34.5082 141.301L34.5428 141.215C35.6238 138.588 36.7048 135.962 37.802 133.339C38.9363 132.288 40.0708 131.236 41.2143 130.206C41.3779 129.889 41.431 129.583 41.4038 129.256C41.6153 129.215 41.8085 129.132 41.965 128.964C42.3533 129.099 42.6776 128.955 42.8987 128.54C43.779 128.554 44.6753 128.572 45.5556 128.586C46.1583 128.191 46.7679 127.779 47.3706 127.385C50.5647 126.06 53.7519 124.752 56.946 123.427C57.3923 123.069 57.8455 122.693 58.2918 122.335C58.5776 121.673 58.8634 121.01 59.1653 120.352C59.277 119.157 59.3887 117.962 59.5004 116.767C59.2665 116.294 59.0487 115.825 58.8148 115.353C60.2951 115.329 61.7753 115.305 63.2647 115.303C60.9986 115.167 62.5809 108.413 57.7652 112.737C56.8127 111.501 55.9662 110.178 54.9079 109.028C50.4843 104.286 49.8054 99.0911 53.419 92.7906C61.3925 78.8713 69.637 65.1141 81.4577 53.5527C82.6036 52.4289 83.5408 50.9893 84.3537 49.5938C90.0448 39.6933 97.8677 36.6508 107.464 40.1693C111.756 41.7356 116.552 42.3182 121.058 43.4866C124.188 44.2907 127.165 45.4707 130.302 46.2578C135.69 47.61 141.207 48.5995 146.554 50.0542C149.856 50.958 152.914 52.4215 156.068 53.6459C156.684 53.8757 157.316 54.1095 157.924 54.3564C160.117 54.7183 162.318 55.1015 164.511 55.4634C164.568 55.6284 164.561 55.9088 164.666 55.9542C168.354 57.4816 173.935 57.0005 172.874 63.603C172.851 63.7477 173.453 63.88 173.77 64.016C174.294 64.693 174.655 65.7248 175.377 65.9999C185.787 69.7414 189.648 81.7378 200.843 84.4154C202.484 84.8271 204.304 84.7947 206.042 84.9673C205.29 83.3672 205 81.1493 203.7 80.3337C201.263 78.7813 197.384 78.8239 195.593 76.8127C190.509 71.0768 185.083 66.0081 177.359 63.7309C182.238 61.6999 186.799 61.1132 190.876 63.8674C191.363 64.1966 192.908 63.1355 193.962 62.7223C196.323 63.8042 198.669 64.8822 201.03 65.9641C201.218 66.1995 201.413 66.4178 201.618 66.6572C202.371 66.9404 203.134 67.2447 203.888 67.5279C204.046 67.7934 204.308 67.9345 204.648 67.9258C207.941 72.5722 211.052 77.3612 214.57 81.8007C218.825 87.1779 223.202 92.4728 227.961 97.3931C232.67 102.263 237.689 106.759 239.379 113.92C239.443 114.727 239.483 115.546 239.54 116.369C239.537 116.726 239.495 117.092 239.437 117.454C238.06 118.407 236.682 119.359 235.373 120.273C230.803 115.061 226.453 110.225 222.199 105.281C218.157 100.559 217.693 92.558 208.607 90.5791C213.375 97.4023 216.843 103.673 221.519 108.799C231.785 120.031 241.06 131.787 244.387 147.77C244.737 149.401 245.46 150.9 246.012 152.468L246.002 152.447C245.55 156.455 245.104 160.445 244.651 164.453C244.196 164.395 243.741 164.337 243.279 164.297C242.943 162.5 242.614 160.686 242.294 158.894C241.153 158.08 239.996 157.263 238.847 156.467C241.077 150.214 237.801 146.532 234.247 143.231C226.377 135.93 218.479 128.566 216.14 117.14C213.204 102.816 203.881 95.0761 190.98 90.4839C186.813 89.0052 183.173 86.2663 177.895 88.6679C175.375 85.0435 173.045 81.2596 170.3 77.8421C167.307 74.1177 163.92 70.7086 160.709 67.1741C159.759 65.9759 158.809 64.7778 157.835 63.5927C158.057 63.046 158.411 62.4764 158.428 61.9537C158.517 60.2448 158.473 58.5589 158.475 56.8469C156.886 57.5772 155.233 58.1598 153.759 59.0882C152.85 59.6694 152.219 60.7906 151.455 61.6715C147.251 59.9767 142.747 58.7148 138.93 56.4584C134.021 53.5706 130.184 48.9569 122.957 50.7001C122.013 50.9335 120.554 50.3792 120.074 49.6379C116.254 43.7112 110.446 43.7026 103.504 46.1006C101.75 46.7141 99.7694 45.7845 97.9163 46.2039C94.6953 46.9387 91.086 47.5384 88.4911 49.4841C87.4214 50.2883 88.5543 54.4492 88.7328 57.0721C88.7804 57.611 89.0695 58.0787 89.2505 58.5945C91.3578 64.9005 90.3977 66.3532 83.2685 67.7256C73.0128 69.6872 69.177 73.2974 67.7705 83.0311C67.2794 86.3892 67.9512 89.7193 68.0921 93.0478C63.3044 93.0131 59.117 94.6909 57.4698 99.9418C56.7962 102.087 57.6645 104.451 57.8458 106.717C58.3539 106.6 58.8527 106.461 59.3608 106.344C60.6499 96.7692 62.2312 94.8326 68.3837 95.3039C69.8307 96.1939 71.1416 97.4638 72.7822 97.8755C74.4711 98.2994 77.1691 98.6376 78.2758 97.6545C82.0999 94.2483 85.5035 94.5944 89.4516 95.1711C92.0736 95.5657 95.1179 94.6549 97.9592 94.3329C99.1046 91.7223 100.25 89.1116 101.395 86.501C101.624 85.4106 101.86 84.303 102.089 83.2126C103.113 82.0394 104.146 80.8873 105.17 79.7141C107.11 82.3648 109.111 84.9936 106.529 89.0503C103.642 89.5301 103.084 90.6886 105.008 92.5452C104.992 92.9362 104.959 93.3232 104.95 93.6971C104.348 95.1834 103.762 96.6736 103.177 98.1638C102.887 98.4862 102.613 98.8127 102.316 99.1522C101.943 99.4162 101.587 99.6843 101.214 99.9483C100.922 100.364 100.629 100.78 100.36 101.183C99.6968 102.296 99.0244 103.388 98.3611 104.501C98.1443 105.125 97.9114 105.744 97.6946 106.367C97.7018 108.1 97.6929 109.829 97.6932 111.579C96.5949 113.241 95.7439 115.738 94.325 116.398C87.327 119.591 84.8457 126.552 80.229 131.698L80.2613 131.574ZM34.7336 160.966C36.7915 164.286 37.5377 166.863 39.3222 168.101C42.503 170.311 44.686 166.888 46.0036 164.377C48.3832 159.856 43.8898 159.707 41.8088 158.545C40.8579 158.005 38.4725 159.608 34.7336 160.966ZM83.8755 107.02C84.7324 109.324 85.2282 111.951 85.7615 111.859C87.9271 111.499 90.1074 110.315 92.2736 109.428C91.6622 107.525 91.0276 105.634 90.4161 103.731C88.5625 104.677 86.6996 105.602 83.8755 107.02ZM222.957 123.894C225.963 126.229 228.992 128.551 232.08 130.945C232.83 124.847 230.943 123.075 222.957 123.894ZM58.2522 134.688C58.1867 133.712 58.1281 132.719 58.0465 131.739C54.8137 132.678 51.558 133.63 48.3253 134.568C48.3774 135.184 48.4296 135.799 48.4748 136.431C51.737 135.857 54.99 135.262 58.2522 134.688Z" fill="#C258BE"/>
<path d="M91.138 225.523C91.358 226.03 91.5849 226.52 91.7889 227.023C91.5689 226.516 91.342 226.026 91.138 225.523Z" fill="#473B47"/>
<path d="M258.816 158.053C259.626 161.568 260.429 165.101 261.238 168.616C260.371 175.267 259.51 181.901 258.643 188.552C257.773 195.296 256.499 201.902 250.861 207.468C249.619 208.7 248.9 210.476 247.944 212.005C248.453 209.085 248.971 206.185 249.427 203.571C246.216 203.668 242.476 203.802 239.447 203.889C239.069 200.839 238.848 198.978 238.62 197.133C238.897 196.449 239.148 195.741 239.425 195.058C243.522 189.706 248.16 184.51 245.653 177.746C245.351 176.917 246.18 175.526 246.367 174.406C247.222 169.013 248.352 163.594 248.648 158.268C248.77 156.172 246.956 154.305 246.032 152.342L246.041 152.363C246.688 150.023 247.293 147.653 248.003 145.328C248.497 143.759 249.174 142.216 249.765 140.671C252.792 146.455 255.812 152.256 258.823 158.036L258.816 158.053Z" fill="#C258BE"/>
<path d="M249.75 140.683C249.159 142.228 248.498 143.775 247.988 145.341C247.254 147.678 246.673 150.035 246.026 152.376C245.474 150.807 244.745 149.325 244.402 147.677C241.074 131.694 231.8 119.938 221.534 108.706C216.858 103.581 213.383 97.3265 208.622 90.4862C217.708 92.4652 218.172 100.467 222.214 105.188C226.451 110.128 230.794 114.981 235.387 120.18C236.689 119.284 238.074 118.314 239.452 117.361C242.882 125.128 246.318 132.878 249.747 140.645L249.75 140.683ZM240.537 125.142C239.856 125.291 239.348 125.408 238.863 125.512C238.923 125.979 238.876 126.795 239.06 126.822C239.618 126.887 240.262 126.654 240.88 126.527C240.775 126.086 240.679 125.667 240.56 125.129L240.537 125.142Z" fill="#833B8F"/>
<path d="M209.879 195.208C213.286 195.46 216.685 195.73 220.075 195.978C227.683 197.624 232.016 195.324 236.799 187.097C236.846 188.294 236.854 189.5 236.933 190.706C236.994 191.606 237.14 192.47 237.256 193.365C237.192 193.744 237.127 194.123 237.062 194.502C233.868 199.459 230.674 204.416 227.488 209.355C225.74 209.82 223.993 210.285 222.253 210.733C222.253 210.733 222.248 210.656 222.264 210.66C221.751 205.187 219.331 201.099 214.617 198.692C213.035 197.524 211.469 196.359 209.886 195.191L209.879 195.208Z" fill="#C459D5"/>
<path d="M214.621 198.705C219.335 201.111 221.739 205.196 222.268 210.673C219.833 207.408 217.406 204.127 214.978 200.845C214.863 200.121 214.742 199.413 214.621 198.705Z" fill="#C258BE"/>
<path d="M238.626 197.148C238.854 198.993 239.074 200.855 239.452 203.904C242.489 203.801 246.222 203.684 249.433 203.586C248.977 206.2 248.452 209.117 247.95 212.021C248.196 212.026 248.421 212.083 248.609 212.186C247.192 213.148 245.858 214.431 244.354 214.995C240.054 216.645 235.603 217.748 231.36 219.563C226.986 221.438 224.9 220.595 224.951 216.091C231.967 211.322 237.559 205.65 238.633 197.131L238.626 197.148Z" fill="#833B8F"/>
<path d="M227.5 209.351C226.245 211.445 224.997 213.521 223.757 215.619C223.114 215.458 222.471 215.296 221.811 215.131C221.962 213.663 222.114 212.196 222.265 210.728C224.012 210.263 225.752 209.816 227.5 209.351Z" fill="#C258BE"/>
<path d="M63.6529 166.936C65.9212 167.11 68.1736 167.28 70.4419 167.454C71.7102 167.866 72.9876 168.3 74.2559 168.712L74.465 168.764C77.3722 171.037 79.8139 174.416 83.2788 175.398C95.8243 178.942 101.295 190.815 95.9989 204.729C95.072 203.254 94.1382 201.797 93.1953 200.318C92.9152 196.108 92.4466 191.926 92.3849 187.657C92.2849 180.726 86.775 181.206 81.99 180.815C78.5748 180.541 75.0418 180.689 71.0149 180.657C72.3505 178.584 72.8663 177.791 73.4742 176.815C66.0642 176.561 59.1871 179.295 52.8428 185.017C52.4746 185.357 51.434 184.908 50.7169 184.841C49.2442 186.334 47.7714 187.828 46.3446 189.295C45.3498 188.951 44.2424 188.579 41.8323 187.749C43.7576 190.434 44.8453 191.949 45.9238 193.443C46.0154 195.667 45.5321 198.218 46.3137 200.051C47.4599 202.691 48.9065 205.858 51.3072 206.931C56.012 209.053 61.3823 210.099 66.633 211.135C69.2872 211.669 72.2941 211.2 75.5028 211.196C75.9458 211.722 76.9603 212.936 78.8011 215.129C78.2945 212.048 78.0549 210.538 77.7194 208.478C79.9006 208.518 82.4953 208.717 82.5553 208.525C84.4402 202.468 87.1351 207.454 89.3309 206.801C89.158 207.228 88.992 207.638 88.8192 208.065C88.3982 208.317 88.0004 208.555 87.5795 208.807C86.5129 210.873 85.4233 212.952 84.3567 215.018C82.0752 216.233 79.7937 217.448 77.5122 218.663C69.3803 216.604 61.2047 214.609 53.1282 212.413C50.7362 211.756 48.6001 210.467 46.3327 209.503C42.8223 208.02 40.485 205.871 41.5133 201.143C41.8438 199.626 41.3194 197.857 40.6636 196.545C37.0199 189.176 39.435 183.779 48.2499 179.555C49.8989 178.764 52.1943 177.383 52.6303 176.044C54.2889 170.852 58.1414 168.733 62.5634 167.001C62.8989 167.047 63.239 167.039 63.5907 166.958L63.6529 166.936Z" fill="#5F1760"/>
<path d="M91.501 206.969C91.1147 209.018 90.7354 211.049 90.3492 213.097C90.3206 213.956 90.299 214.797 90.2543 215.652C90.1133 216.35 89.9492 217.062 89.8082 217.76C86.6072 219.102 84.2237 219.125 84.4008 215.011C85.4674 212.945 86.5409 210.862 87.6236 208.8C88.0445 208.548 88.4425 208.309 88.8634 208.057C89.0362 207.63 89.2022 207.22 89.3751 206.793L89.329 206.819C90.053 206.869 90.777 206.919 91.501 206.969Z" fill="#C258BE"/>
<path d="M112.992 240.106C112.761 239.145 112.751 238.032 112.276 237.235C109.564 232.64 106.867 228.012 103.875 223.629C103.085 222.471 101.242 222.121 100.817 221.902C100.464 217.259 100.17 213.347 99.8687 209.451C100.6 208.825 101.332 208.2 102.064 207.574C102.985 206.13 103.899 204.704 104.82 203.26C105.157 202.122 105.494 200.983 105.831 199.844C105.668 199.502 105.505 199.16 105.349 198.801C105.231 197.868 105.103 196.914 104.985 195.981C104.731 195.033 104.493 194.089 104.239 193.141C108.416 190.35 108.773 187.41 106.465 184.008C103.863 180.193 101.411 176.228 99.1351 172.176C98.4447 170.949 98.5848 169.159 98.4228 168.158C95.8892 166.713 93.6841 165.464 91.4791 164.214C90.6699 162.318 90.2635 159.995 88.9159 158.64C87.5177 157.236 85.1692 156.778 83.2325 155.916C82.5409 155.742 81.8562 155.552 81.1715 155.361C80.4117 152.555 83.7257 146.95 77.0356 148.245L77.0174 148.203C78.0802 147.416 79.391 146.804 80.0932 145.813C80.5974 145.093 80.3115 143.873 80.3793 142.874C81.3219 140.721 82.2414 138.58 83.1679 136.423C85.5299 133.214 87.8988 129.989 90.4012 126.608C91.8718 130.854 100.79 123.269 100.709 131.039C103.296 129.901 105.953 127.933 108.245 127.962C110.472 127.976 112.895 129.562 114.233 131.29C116.232 133.881 118.148 132.649 119.821 130.792C123.027 127.25 123.864 129.078 124.578 131.779C123.559 132.106 122.557 132.438 119.899 133.314C124.145 134.775 126.757 135.675 129.369 136.575C129.242 136.976 129.099 137.373 128.966 137.791C128.791 138.18 128.606 138.548 128.431 138.937C127.118 139.116 125.813 139.277 124.484 139.452C124.582 139.909 124.665 140.363 124.77 140.803C125.984 140.167 127.198 139.531 128.413 138.895C128.721 141.023 129.028 143.151 129.329 145.297C128.614 151.572 130.204 154.21 134.346 153.519L134.376 153.884C134.027 155.49 133.685 157.079 133.343 158.668C132.01 158.503 130.67 158.355 128.979 158.156C132.652 167.64 133.341 167.907 138.606 162.473C139.328 162.616 140.027 162.773 140.748 162.916C142.449 169.045 142.754 169.253 146.29 166.471C150.654 169.655 155.017 172.839 160.225 176.648C157.925 176.466 156.626 176.347 154.342 176.169C157.434 181.179 160.011 185.364 162.683 189.704C159.241 192.999 158.467 208.349 162.809 214.387C162.125 217.302 161.557 219.756 160.965 222.224C159.72 224.339 158.345 226.421 157.253 228.594C156.324 230.449 155.72 232.424 154.978 234.345C154.151 235.38 153.325 236.415 152.492 237.466C151.02 238.038 149.564 238.614 148.093 239.185C147.132 238.756 146.163 238.306 145.203 237.877C144.042 235.666 135.833 234.585 133.073 236.282L133.08 236.265C130.861 235.576 128.625 234.883 127.616 234.574C125.208 238.072 123.829 240.078 122.45 242.084C119.281 241.421 116.128 240.761 112.96 240.098L112.992 240.106ZM116.811 181.693L117.018 181.575C117.66 188.567 118.279 195.573 119.024 203.757C119.879 201.864 120.477 201.13 120.464 200.506C120.274 192.046 120.13 183.561 119.611 175.169C119.525 173.849 117.736 172.93 115.941 170.974C116.065 165.297 114.077 159.849 109.977 154.63C109.701 154.918 109.213 155.247 109.197 155.506C109.142 156.603 109.061 157.768 109.31 158.772C112.165 170.102 114.949 181.433 112.105 194.193C111.943 194.942 111.843 195.802 112.04 196.453C112.643 198.336 113.399 200.144 114.288 202.456C115.221 194.768 116.024 188.232 116.804 181.71L116.811 181.693Z" fill="#9936B2"/>
<path d="M203.79 104.687C209.565 107.491 211.006 113.253 213.05 119.016C215.448 125.828 219.13 132.097 222.999 138.035C227.537 144.989 232.903 151.341 237.904 157.941C236.276 158.812 234.647 159.683 232.428 160.876C234.304 162.194 236.089 163.432 237.866 164.687L237.341 165.722C235.197 165.372 233.046 165.039 232.501 164.94C227.292 169.58 222.852 173.546 218.395 177.509C217.045 177.998 215.688 178.504 214.339 178.994C213.456 179.205 212.557 179.412 211.674 179.623C210.519 178.844 209.357 178.082 208.194 177.32C208.238 176.992 208.299 176.669 208.398 176.336C205.365 175.161 202.349 173.99 199.316 172.815C198.337 172.475 197.352 172.153 196.389 171.817C196.136 167.802 193.398 168.394 190.423 169.398C187.06 169.608 183.683 169.852 180.325 170.006C179.621 170.037 178.486 169.865 178.39 169.446C176.535 161.378 169.105 159.118 163.379 155.14C160.653 153.252 159.042 151.192 159.58 147.281C159.821 145.459 158.591 143.683 157.652 140.662C156.572 144.907 155.861 147.759 154.858 151.722C153.491 147.879 152.56 145.274 151.612 142.628C153.35 140.26 155.28 136.981 157.857 134.334C161.369 130.737 161.975 125.3 166.734 122.561C167.24 122.274 167.494 120.814 167.47 119.998C167.144 112.182 168.274 110.528 175.973 107.793C177.254 106.421 178.536 105.049 179.802 103.673L179.848 103.646C180.315 103.368 180.789 103.073 181.24 102.791C181.544 102.04 181.841 101.305 182.146 100.553C182.994 100.428 183.835 100.319 184.667 100.189C181.003 106.966 189.233 103.311 189.947 106.406C190.653 104.006 191.359 101.605 192.065 99.2038C192.563 99.8557 193.077 100.512 193.575 101.163C193.978 102.883 193.828 105.179 194.902 106.201C196.9 108.095 199.59 109.241 202.22 110.841C202.767 108.702 203.282 106.686 203.788 104.648L203.79 104.687Z" fill="#9936B2"/>
<path d="M157.799 109.238C157.233 110.507 156.643 111.789 156.108 113.066C155.582 114.364 155.112 115.658 154.602 116.96C151.541 117.038 148.321 114.838 145.518 119.441C145.143 120.062 142.603 119.858 141.183 119.689C137.019 119.209 132.901 118.571 128.755 118.001C124.166 116.906 119.554 115.824 114.966 114.729C112.814 113.304 110.662 111.88 108.503 110.472C108.918 109.447 109.3 108.414 109.715 107.389C110.716 105.006 112.121 102.63 112.581 100.224C112.821 98.929 111.483 97.5957 110.85 96.2702C110.833 95.4378 110.815 94.6054 110.805 93.756C112.311 93.099 113.81 92.459 115.981 91.5172C117.979 96.9113 119.77 102.423 122.014 107.691C124.377 113.233 127.577 113.208 130.12 110.515C129.135 105.639 128.277 101.848 127.631 98.0163C126.613 91.9083 125.271 86.3399 119.471 83.1155C116.537 81.4761 113.847 78.1853 113.056 74.844C110.709 65.0154 110.538 64.5207 100.446 67.6525C98.8078 69.0292 96.0113 70.3786 95.7292 71.7757C94.6378 77.4483 94.3232 83.1277 93.74 88.5516C91.0687 88.9351 88.8341 89.334 86.6135 89.5671C80.5999 90.2409 75.823 88.9104 73.2206 83.4775C71.0332 78.9015 73.5696 73.8173 79.0004 72.2633C83.3782 70.9908 87.7194 69.5021 92.0973 68.0979C97.5656 65.9699 98.0798 64.6124 94.6288 61.4505C94.5149 60.5939 94.3779 59.7504 94.264 58.8938C99.7576 58.6728 105.251 58.4519 111.669 58.1805C110.851 55.4726 110.123 53.0693 109.018 49.3669C112.005 49.9095 113.671 50.2148 115.33 50.537C117.719 51.6823 119.986 53.1732 122.571 53.8784C125.953 54.8024 131.273 53.7851 132.794 55.9358C136.874 61.7018 143.291 62.484 149.497 64.0038C156.331 65.6811 158.273 71.3436 160.022 77.3527C161.057 80.9244 162.678 84.2292 164.046 87.6776C162.909 89.6126 161.762 91.5266 160.624 93.4617C162.145 94.389 163.665 95.3163 165.836 96.6513C160.058 99.9813 156.677 103.649 157.799 109.238Z" fill="#9936B2"/>
<path d="M218.426 177.535C222.866 173.569 227.323 169.606 232.532 164.967C233.084 165.049 235.228 165.399 237.372 165.748L237.897 164.714C236.12 163.458 234.335 162.22 232.459 160.902C234.694 159.713 236.323 158.842 237.935 157.967C238.253 157.445 238.554 156.918 238.879 156.379C240.02 157.192 241.178 158.009 242.326 158.806C241.364 159.693 239.464 160.929 239.581 161.429C240.504 166.064 239.838 169.943 235.592 174.128C233.855 175.837 234.266 179.723 233.709 182.631C230.5 181.28 227.362 179.796 224.067 178.612C222.335 177.989 220.324 177.88 218.435 177.556L218.426 177.535Z" fill="#7D2B7F"/>
<path d="M160.735 67.0437C163.946 70.5783 167.333 73.9874 170.326 77.7117C173.071 81.1292 175.417 84.9172 177.921 88.5376C173.827 90.8598 172.812 94.1994 173.89 97.8385C175.03 101.719 173.581 104.423 169.965 107.053C167.458 108.87 165.37 111.357 162.544 114.092C162.861 112.214 163.081 110.839 163.308 109.447C166.258 102.378 169.216 95.2917 172.166 88.2225C169.606 83.9105 166.963 79.6718 164.525 75.2775C163.071 72.6544 161.975 69.8014 160.712 67.0568L160.735 67.0437Z" fill="#9E45A6"/>
<path d="M96.9457 205.195C96.6724 204.994 96.3623 204.841 96.0085 204.752C101.311 190.822 95.8339 178.965 83.2884 175.422C79.8235 174.439 77.3818 171.06 74.4746 168.788C77.9012 169.121 81.3278 169.454 84.7545 169.787C85.4871 170.253 86.1228 171.09 86.9502 171.147C94.4632 171.715 95.8546 178.914 100.111 182.974C102.655 185.4 103.127 188.567 101.141 192.642C100.399 194.168 101.206 196.422 101.712 198.148C102.811 201.868 101.192 204.378 96.9387 205.212L96.9457 205.195Z" fill="#9E45A6"/>
<path d="M108.491 110.447C110.643 111.872 112.795 113.296 114.954 114.704C115.12 116.307 115.286 117.911 115.452 119.514C114.659 119.372 113.875 119.25 113.083 119.108C109.507 118.267 105.925 117.443 102.349 116.603C100.807 114.898 99.255 113.173 97.7124 111.468C97.7052 109.735 97.7141 108.006 97.7138 106.256C97.9306 105.633 98.1635 105.014 98.3803 104.391C99.0436 103.278 99.716 102.186 100.379 101.072C100.672 100.656 100.964 100.241 101.233 99.8377C101.606 99.5737 101.963 99.3056 102.335 99.0416C102.625 98.7192 102.899 98.3927 103.196 98.0532C103.518 98.1339 103.853 98.1805 104.212 98.214C105.253 100.545 106.286 102.893 107.327 105.225C107.462 105.767 107.604 106.292 107.739 106.833C107.993 108.045 108.253 109.24 108.507 110.451L108.491 110.447ZM104.675 110.769C104.65 110.612 104.648 110.442 104.623 110.286C104.478 110.381 104.269 110.46 104.197 110.593C104.142 110.73 104.209 110.916 104.234 111.072C104.379 110.977 104.53 110.865 104.675 110.769Z" fill="#4D1D51"/>
<path d="M218.428 177.528C220.31 177.869 222.312 177.957 224.06 178.584C227.355 179.768 230.493 181.252 233.702 182.603C231.301 185.426 229.295 189.025 226.386 190.873C223.002 193.016 220.895 190.473 222.2 186.548C216.865 187.442 214.256 184.931 214.371 179.013C215.721 178.524 217.078 178.018 218.428 177.528Z" fill="#833B8F"/>
<path d="M147.995 125.401C150.697 125.553 153.393 125.721 156.096 125.873C156.158 126.377 156.212 126.899 156.274 127.404C153.974 128.577 151.708 130.323 149.39 130.795C144.749 131.757 140.523 132.653 140.301 139.504C139.724 139.529 139.147 139.553 138.587 139.582C135.816 136.402 133.052 133.206 130.452 130.22C135.252 128.997 139.515 127.922 143.784 126.829C144.617 126.567 145.472 126.293 146.305 126.031L146.39 125.996C146.932 125.794 147.459 125.587 147.995 125.401Z" fill="#C258BE"/>
<path d="M80.3854 142.854C80.3175 143.853 80.6195 145.076 80.0992 145.793C79.397 146.783 78.0793 147.412 77.0234 148.182C76.5067 147.752 75.8451 147.416 75.5194 146.864C74.1201 144.499 69.4162 143.601 72.8232 139.036C75.878 134.948 79.5639 135.647 83.167 136.42C82.2406 138.577 81.321 140.717 80.3945 142.875C79.914 143.055 79.4333 143.236 78.9366 143.412C79.4172 143.232 79.8979 143.051 80.3784 142.871L80.3854 142.854Z" fill="#7D2B7F"/>
<path d="M192.077 99.2245C191.371 101.625 190.665 104.026 189.958 106.427C189.236 103.31 181.014 106.987 184.679 100.21C184.365 97.1765 184.052 94.1433 183.738 91.1101C186.521 93.8219 189.31 96.5167 192.077 99.2245Z" fill="#7D2B7F"/>
<path d="M97.7375 111.47C99.2801 113.174 100.832 114.9 102.374 116.604C104.084 117.372 105.8 118.122 107.509 118.89C106.909 119.191 106.315 119.475 105.715 119.776C96.017 116.552 89.8468 119.407 84.5489 129.255C83.9569 130.368 81.7407 130.809 80.2642 131.567C84.8809 126.422 87.3622 119.461 94.3601 116.268C95.7721 115.625 96.6301 113.111 97.7284 111.449L97.7375 111.47Z" fill="#A141B1"/>
<path d="M203.789 104.681C203.267 106.714 202.768 108.734 202.221 110.874C199.607 109.277 196.901 108.127 194.903 106.233C193.829 105.211 193.979 102.915 193.576 101.196C193.867 100.478 194.164 99.7437 194.461 99.0091C197.649 100.938 200.716 102.818 203.789 104.681Z" fill="#7D2B7F"/>
<path d="M83.2433 155.912C85.1799 156.774 87.5285 157.232 88.9266 158.636C90.2742 159.991 90.6807 162.313 91.4898 164.21C91.252 165.148 90.9912 166.099 90.4486 168.183C87.2235 164.551 84.384 161.411 81.6779 158.116C81.5494 157.952 82.6862 156.675 83.2433 155.912Z" fill="#7D2B7F"/>
<path d="M105.701 119.772C106.301 119.471 106.894 119.187 107.494 118.886C109.218 119.356 110.918 119.839 112.641 120.31C117.326 121.956 122.034 123.589 126.718 125.235C119.793 123.215 109.687 128.921 105.708 119.755L105.701 119.772Z" fill="#9E45A6"/>
<path d="M237.279 193.342C237.172 192.469 237.017 191.583 236.956 190.683C236.87 189.495 236.862 188.288 236.822 187.074C238.026 184.102 239.236 181.112 240.439 178.14C241.066 178.297 241.691 178.416 242.326 178.557C245.095 184.276 241.716 188.904 237.27 193.321L237.279 193.342Z" fill="#C258BE"/>
<path d="M128.754 117.992C128.602 118.368 128.443 118.76 128.307 119.14C124.02 119.269 119.749 119.402 115.469 119.513C115.303 117.91 115.137 116.306 114.971 114.702C119.56 115.798 124.172 116.88 128.761 117.975L128.754 117.992Z" fill="#7D2B7F"/>
<path d="M77.0218 148.244C83.728 146.954 80.3979 152.554 81.1577 155.361C77.6519 153.954 74.137 152.526 70.0384 150.877C72.9909 149.754 75.0144 149.002 77.0218 148.244Z" fill="#7D2B7F"/>
<path d="M242.316 178.601C241.689 178.444 241.064 178.325 240.429 178.184C241.391 173.533 242.337 168.877 243.298 164.226C243.753 164.284 244.208 164.342 244.67 164.382C243.888 169.116 243.099 173.867 242.316 178.601Z" fill="#9E45A6"/>
<path d="M66.865 149.431C65.6013 147.082 64.9766 144.686 67.8066 142.159C67.4981 144.585 67.1735 147.006 66.865 149.431Z" fill="#A141B1"/>
<path d="M190.441 169.41C193.401 168.402 196.139 167.81 196.408 171.829C194.411 171.027 192.438 170.212 190.441 169.41Z" fill="#833B8F"/>
<path d="M208.202 177.343C209.365 178.105 210.52 178.884 211.682 179.647C210.349 179.876 209.008 180.123 207.291 180.426C207.628 179.288 207.912 178.324 208.186 177.339L208.202 177.343Z" fill="#833B8F"/>
<path d="M129.293 145.304C130.25 144.735 131.207 144.166 132.171 143.579C131.906 144.322 131.657 145.069 131.414 145.798C130.723 145.625 130.015 145.447 129.316 145.291L129.293 145.304Z" fill="#9936B2"/>
<path d="M122.494 242.073C123.873 240.067 125.252 238.06 127.661 234.562C128.669 234.872 130.905 235.565 133.141 236.257C133.324 236.943 133.5 237.646 133.683 238.332C133.844 238.24 134.005 238.149 134.182 238.062C133.822 237.463 133.471 236.886 133.111 236.288C135.871 234.59 144.096 235.676 145.24 237.882C145.261 239.318 145.274 240.732 145.305 243.017C143.638 242.015 142.423 241.297 141.839 240.943C140.175 241.598 138.882 241.989 137.675 242.608C136.537 243.188 135.499 244 135.782 243.826C130.671 243.146 126.576 242.627 122.487 242.09L122.494 242.073Z" fill="#7D2B7F"/>
<path d="M155.015 234.337C155.757 232.416 156.362 230.441 157.29 228.585C158.382 226.413 159.757 224.33 161.003 222.215C163.336 227.788 158.896 230.964 155.008 234.354L155.015 234.337Z" fill="#7D2B7F"/>
<path d="M146.304 166.451C142.775 169.216 142.463 169.024 140.762 162.896C141.264 162.532 141.775 162.19 142.269 161.844C142.669 161.906 143.069 161.969 143.469 162.032C144.112 162.193 144.785 162.325 145.436 162.469C145.712 163.799 146.005 165.133 146.281 166.464L146.304 166.451Z" fill="#7D2B7F"/>
<path d="M148.135 239.167C149.607 238.595 151.062 238.02 152.534 237.448C151.475 238.575 150.424 239.685 149.365 240.812L148.135 239.167Z" fill="#7D2B7F"/>
<path d="M133.364 158.652C134.56 158.501 135.755 158.349 136.951 158.197C137.51 159.617 138.069 161.037 138.635 162.44C133.37 167.874 132.681 167.607 129.007 158.123C130.683 158.318 132.032 158.487 133.371 158.635L133.364 158.652Z" fill="#7D2B7F"/>
<path d="M143.484 162.023C143.084 161.96 142.684 161.898 142.284 161.835C142.597 161.763 142.924 161.656 143.232 161.639C143.342 161.629 143.404 161.871 143.491 162.006L143.484 162.023Z" fill="#5F1760"/>
<path d="M172.166 88.2152C169.461 88.0256 166.749 87.8531 164.028 87.6595C162.669 84.2323 161.054 80.9103 159.997 77.3517C158.248 71.3426 156.314 65.7012 149.471 64.0029C143.256 62.4619 136.856 61.6838 132.769 55.9348C131.247 53.7841 125.927 54.8014 122.545 53.8774C119.96 53.1722 117.716 51.6683 115.32 50.5401C113.49 49.1963 111.66 47.8526 109.356 46.1455C108.445 48.702 107.903 50.2596 107.251 52.0906C104.806 51.2137 102.815 49.8295 100.615 49.8797C97.7906 49.9423 94.7966 51.167 91.8836 51.885L94.2543 58.8969C94.3682 59.7534 94.5052 60.597 94.6191 61.4536C93.7753 63.6694 92.9314 65.8852 92.0876 68.101C87.7327 69.4921 83.3845 70.9979 78.9907 72.2664C73.5691 73.8415 71.0326 78.9257 73.2109 83.4806C75.8133 88.9135 80.5902 90.244 86.6038 89.5702C88.8152 89.3159 91.0429 88.9341 93.7302 88.5546C94.2974 83.1268 94.6119 77.4473 95.7195 71.7787C95.9855 70.3776 98.7981 69.0323 100.436 67.6556C107.245 74.5582 115.975 80.4372 110.779 93.755C110.796 94.5874 110.814 95.4198 110.824 96.2692C110.526 98.0573 110.452 99.9019 109.832 101.609C109.362 102.903 108.176 104.035 107.313 105.249C106.272 102.918 105.238 100.569 104.198 98.2382C104.455 96.6844 104.705 95.1475 104.962 93.5936C104.978 93.2026 105.011 92.8156 105.02 92.4417C105.53 91.271 106.032 90.1175 106.541 88.9468C109.123 84.89 107.122 82.2613 105.182 79.6106C103.604 77.0316 102.035 74.4738 100.457 71.8948C99.9528 72.22 99.456 72.5281 98.9522 72.8533C98.8894 73.5338 98.5735 74.3579 98.7797 74.899C99.8154 77.6805 100.989 80.3837 102.094 83.1261C101.865 84.2166 101.629 85.3241 101.4 86.4146C100.255 89.0252 99.1097 91.6358 97.9643 94.2464C95.123 94.5684 92.0788 95.4793 89.4567 95.0847C85.5316 94.4949 82.1049 94.1619 78.2809 97.5681C77.1742 98.5512 74.4831 98.1959 72.7873 97.7891C71.1467 97.3774 69.8357 96.1075 68.3818 95.2346C68.2816 94.4755 68.1974 93.7205 68.0972 92.9614C67.9632 89.6158 67.2844 86.3028 67.7756 82.9447C69.1821 73.211 73.0339 69.6048 83.2736 67.6392C90.4188 66.2708 91.3628 64.8141 89.2556 58.5081C89.0907 57.9963 88.7856 57.5244 88.7379 56.9856C88.5594 54.3627 87.4265 50.2018 88.4962 49.3976C91.0911 47.4519 94.7005 46.8522 97.9215 46.1174C99.7745 45.698 101.755 46.6277 103.509 46.0142C110.444 43.6333 116.259 43.6248 120.079 49.5515C120.559 50.2928 122.018 50.8471 122.963 50.6138C130.189 48.8705 134.042 53.4883 138.935 56.372C142.759 58.6114 147.256 59.8903 151.46 61.5851C153.597 62.2154 155.711 62.8589 157.847 63.4892C158.798 64.6874 159.748 65.8855 160.721 67.0706C161.984 69.8152 163.08 72.6682 164.534 75.2913C166.956 79.6816 169.615 83.9243 172.175 88.2363L172.166 88.2152Z" fill="#5F1760"/>
<path d="M242.333 178.6C243.115 173.866 243.905 169.114 244.687 164.38C245.14 160.373 245.586 156.382 246.039 152.375C246.963 154.338 248.776 156.204 248.654 158.3C248.359 163.627 247.205 169.058 246.374 174.439C246.203 175.562 245.357 176.95 245.66 177.778C248.173 184.525 243.529 189.739 239.431 195.09C238.659 194.896 237.871 194.699 237.083 194.501C237.148 194.122 237.213 193.743 237.278 193.364C241.723 188.947 245.096 184.336 242.333 178.6Z" fill="#833B8F"/>
<path d="M83.8615 107.017C86.6857 105.599 88.5394 104.653 90.4022 103.728C91.0137 105.632 91.6482 107.522 92.2597 109.426C90.0935 110.312 87.9132 111.496 85.7476 111.856C85.2303 111.952 84.7185 109.321 83.8615 107.017Z" fill="#7D2B7F"/>
<path d="M222.956 123.894C230.941 123.075 232.829 124.847 232.079 130.944C228.991 128.551 225.978 126.233 222.956 123.894Z" fill="#833B8F"/>
<path d="M102.116 83.0927C100.988 80.3633 99.8373 77.647 98.8016 74.8655C98.5954 74.3245 98.9043 73.5175 98.9741 72.82C99.4778 72.4947 99.9746 72.1866 100.478 71.8613C102.057 74.4403 103.619 77.0152 105.204 79.5771C104.18 80.7503 103.147 81.9024 102.123 83.0756L102.116 83.0927Z" fill="#A141B1"/>
<path d="M74.2591 168.719C72.9908 168.307 71.7134 167.873 70.4451 167.461C71.5421 166.984 72.6229 166.502 73.7038 166.021C73.8912 166.914 74.0786 167.808 74.2591 168.719Z" fill="#9E45A6"/>
<path d="M97.7182 106.258C97.7254 107.991 97.7165 109.72 97.7168 111.471C97.7096 109.737 97.7185 108.009 97.7182 106.258Z" fill="#A141B1"/>
<path d="M106.551 88.9362C106.042 90.1068 105.539 91.2604 105.03 92.4311C103.106 90.5745 103.664 89.416 106.551 88.9362Z" fill="#A141B1"/>
<path d="M104.965 93.5839C104.708 95.1378 104.458 96.6746 104.201 98.2285C103.866 98.1819 103.53 98.1353 103.186 98.0677C103.787 96.5814 104.373 95.0912 104.958 93.601L104.965 93.5839Z" fill="#A141B1"/>
<path d="M100.377 101.068C99.7205 102.164 99.0412 103.274 98.3779 104.387C99.0343 103.291 99.7136 102.181 100.377 101.068Z" fill="#A141B1"/>
<path d="M63.6588 166.945C63.3141 167.008 62.9672 167.034 62.6318 166.987C62.9145 166.814 63.1902 166.658 63.4567 166.481C63.521 166.629 63.5945 166.797 63.6588 166.945Z" fill="#9E45A6"/>
<path d="M240.54 125.141C240.666 125.662 240.755 126.098 240.86 126.538C240.242 126.665 239.598 126.899 239.04 126.834C238.856 126.807 238.903 125.991 238.843 125.524C239.351 125.407 239.853 125.307 240.517 125.154L240.54 125.141Z" fill="#C258BE"/>
<path d="M93.2177 200.325C92.7383 201.466 92.2359 202.619 91.7565 203.76C90.9532 204.781 90.1498 205.803 89.3464 206.825L89.3924 206.799C87.1967 207.452 84.5018 202.466 82.6169 208.523C82.5477 208.694 79.9691 208.499 77.781 208.476C78.1095 210.554 78.3559 212.046 78.8626 215.127C77.0057 212.93 75.9913 211.716 75.5644 211.194C72.3557 211.198 69.3487 211.667 66.6946 211.133C61.4438 210.097 56.0736 209.051 51.3688 206.929C48.9681 205.856 47.5053 202.685 46.3753 200.049C45.5936 198.216 46.0701 195.682 45.9854 193.441C48.1424 192.533 50.2902 191.604 52.2702 190.784C51.6776 188.395 51.2246 186.626 50.7785 184.839C51.5116 184.91 52.5362 185.355 52.9043 185.015C59.2548 179.307 66.1319 176.573 73.5358 176.813C72.9187 177.768 72.3959 178.578 71.0765 180.655C75.0965 180.704 78.6363 180.539 82.0515 180.813C86.8364 181.204 92.3303 180.72 92.4464 187.655C92.515 191.907 92.9767 196.106 93.2568 200.316L93.2177 200.325ZM54.5131 187.169C55.1515 187.649 55.4566 188.121 55.8612 188.128C56.2266 188.144 56.6891 187.658 57.1008 187.385C56.7817 187.079 56.5157 186.599 56.1227 186.519C55.7849 186.434 55.2628 186.849 54.5062 187.186L54.5131 187.169Z" fill="#9936B2"/>
<path d="M50.7471 184.852C51.2001 186.621 51.6302 188.404 52.2388 190.796C50.268 191.638 48.111 192.546 45.954 193.453C44.8823 191.942 43.7878 190.444 41.8625 187.759C44.2726 188.59 45.3639 188.958 46.3748 189.306C47.8176 187.843 49.2743 186.345 50.7471 184.852Z" fill="#7D2B7F"/>
<path d="M89.3253 206.829C90.1286 205.807 90.9321 204.785 91.7354 203.764C91.656 204.835 91.5766 205.907 91.4903 206.996C90.7663 206.946 90.0423 206.896 89.3184 206.846L89.3253 206.829Z" fill="#5F1760"/>
<path d="M90.2676 215.658C90.2961 214.8 90.3178 213.958 90.3625 213.104C90.3339 213.962 90.3122 214.804 90.2676 215.658Z" fill="#9E45A6"/>
<path d="M116.809 181.694C116.006 188.23 115.227 194.752 114.294 202.44C113.404 200.129 112.648 198.32 112.046 196.438C111.849 195.786 111.949 194.927 112.11 194.177C114.971 181.421 112.187 170.09 109.315 158.756C109.066 157.753 109.148 156.588 109.202 155.491C109.218 155.232 109.706 154.902 109.991 154.635C114.081 159.852 116.069 165.3 115.955 170.979C117.75 172.935 119.54 173.855 119.626 175.175C120.128 183.562 120.289 192.052 120.479 200.511C120.492 201.136 119.9 201.853 119.038 203.763C118.301 195.561 117.659 188.569 117.032 181.581C117.188 179.926 117.36 178.276 117.516 176.621C116.978 176.769 116.44 176.916 115.902 177.063L116.825 181.698L116.809 181.694Z" fill="#7D2B7F"/>
<path d="M110.796 93.7469C115.976 80.4251 107.269 74.533 100.453 67.6475C110.529 64.5116 110.7 65.0063 113.063 74.839C113.855 78.1802 116.545 81.4711 119.478 83.1104C125.278 86.3348 126.614 91.9203 127.638 98.0112C128.278 101.86 129.142 105.634 130.127 110.51C127.607 113.19 124.385 113.228 122.021 107.685C119.777 102.418 117.97 96.9022 115.988 91.5121C113.817 92.454 112.318 93.0939 110.812 93.7509L110.796 93.7469Z" fill="#A141B1"/>
<path d="M107.313 105.239C108.176 104.025 109.361 102.892 109.832 101.599C110.459 99.8747 110.525 98.0472 110.824 96.2591C111.457 97.5847 112.802 98.9008 112.555 100.212C112.101 102.602 110.69 104.995 109.689 107.378C109.03 107.213 108.354 107.043 107.702 106.861C107.567 106.319 107.425 105.794 107.29 105.252L107.313 105.239Z" fill="#A141B1"/>
<path d="M107.714 106.849C108.374 107.014 109.049 107.184 109.702 107.366C109.287 108.391 108.904 109.424 108.489 110.449C108.235 109.238 107.975 108.043 107.705 106.827L107.714 106.849Z" fill="#5F1760"/>
<path d="M104.684 110.763C104.54 110.858 104.388 110.971 104.243 111.066C104.218 110.909 104.151 110.723 104.207 110.587C104.262 110.45 104.487 110.375 104.632 110.279C104.657 110.436 104.659 110.606 104.684 110.763Z" fill="#5F1760"/>
<path d="M80.3847 142.85C79.9041 143.031 79.4235 143.211 78.9429 143.392C79.4235 143.211 79.9041 143.031 80.4008 142.854L80.3847 142.85Z" fill="#9936B2"/>
<path d="M133.115 236.267C133.476 236.865 133.827 237.443 134.187 238.041C134.026 238.132 133.865 238.224 133.688 238.311C133.505 237.625 133.328 236.922 133.145 236.237L133.122 236.25L133.115 236.267Z" fill="#9936B2"/>
<path d="M54.5038 187.163C55.2604 186.826 55.7756 186.429 56.1203 186.496C56.5293 186.58 56.7793 187.057 57.0985 187.363C56.6867 187.636 56.2242 188.122 55.8588 188.105C55.4543 188.098 55.1491 187.626 54.5107 187.146L54.5038 187.163Z" fill="#5F1760"/>
<path d="M116.806 181.687L115.883 177.051C116.421 176.904 116.959 176.757 117.497 176.61C117.341 178.264 117.169 179.915 117.013 181.569L116.806 181.687Z" fill="#9936B2"/>
</svg>
