<svg width="284" height="309" viewBox="0 0 284 309" fill="none" xmlns="http://www.w3.org/2000/svg">
<path d="M114.502 109.306C120.861 109.774 127.271 109.947 133.553 110.779C143.786 112.137 152.968 115.919 162.116 119.634C166.175 121.284 170.238 122.925 174.291 124.585C178.991 126.51 183.585 125.72 187.258 123.359C191.786 120.442 195.825 117.002 199.67 113.505C202.228 111.182 205.296 109.77 208.8 108.872C211.642 108.14 214.081 109.537 214.969 111.847C215.297 112.703 216.129 113.447 216.731 114.245C217.757 116.134 218.799 118.017 219.825 119.906C220.048 120.266 220.272 120.626 220.496 120.985L220.483 120.958C219.787 121.057 219.109 121.151 218.414 121.25C216.733 118.936 215.012 116.643 213.392 114.295C212.24 112.63 210.671 111.253 208.247 111.999C205.67 112.792 203.22 113.989 200.991 115.298C196.735 117.809 195.034 121.713 192.943 125.378C191.603 127.732 192.265 130.544 194.551 132.39C196.782 134.183 199.074 134.251 201.464 132.529C204.305 130.487 207.097 128.405 209.944 126.376C210.26 126.142 210.744 125.99 211.175 125.931C213.626 125.642 219.093 128.601 220.013 130.677C219.882 131.011 219.545 131.383 219.649 131.677C221.256 136.495 218.885 140.026 214.108 142.832C208.726 146.005 202.525 147.731 196.078 148.733C190.257 149.632 184.685 150.722 179.262 152.782C172.666 155.286 167.367 158.589 163.79 163.683C162.833 165.054 161.24 166.142 159.938 167.368C157.145 167.434 164.578 167.435 165.416 169.48C165.584 169.888 154.498 174.685 154.98 175.014C152.839 177.832 151.189 181.016 147.124 182.531C143.173 183.998 139.085 185.226 135.165 186.737C133.041 187.557 131.135 188.746 129.115 189.76C126.526 191.053 123.93 192.332 121.341 193.624C121.138 189.543 121.474 185.386 120.627 181.389C119.196 174.642 112.767 158.288 110.899 151.586C130.084 152.401 116.967 159.773 117.74 158.93C118.574 158.029 119.258 157.042 120.008 156.089C120.376 156.445 120.739 156.809 121.095 157.16C121.061 157.271 121.034 157.396 121.012 157.511C120.487 158.443 119.869 159.365 119.491 160.338C119.321 160.792 120.93 157.001 121.012 157.511C121.628 157.25 122.568 159.308 123.068 158.949C123.446 158.681 122.025 160.28 122.25 159.879C122.776 160.056 123.295 160.219 123.821 160.395C123.619 161.107 124.781 159.543 124.655 160.27C124.537 160.934 125.422 158.918 125.374 159.584C126.258 159.25 125.854 161.61 126.755 161.271L125.737 163.554C127.497 164.518 129.285 165.481 131.056 166.449C130.961 165.037 132 161.535 133.101 161.828C152.52 155.13 134.526 167.05 134.588 166.915C133.906 166.56 133.243 166.2 132.561 165.845C134.908 166.145 135.611 164.997 136.368 163.677C137.851 161.094 139.141 160.67 141.331 161.676C140.494 162.027 139.589 162.398 138.691 162.782C137.778 163.923 136.854 165.06 135.942 166.201C136.173 166.295 139.912 160.688 136.643 166.496L138.716 162.814C139.674 162.853 141.011 160.142 141.838 159.91C143.571 159.432 143.471 161.611 141.66 160.864C142.189 159.9 142.706 158.931 143.24 157.958C143.735 157.81 144.236 157.653 144.731 157.505L144.743 157.509C145.067 157.311 145.409 157.109 145.738 156.902C146.044 156.686 146.368 156.466 146.679 156.241C150.91 154.505 154.706 152.457 156.175 148.536C156.99 146.331 158.327 144.233 158.939 142.011C159.425 140.214 159.541 138.24 159.147 136.442C158.733 134.503 157.519 132.67 156.657 130.795C162.039 131.709 167.402 132.683 172.803 133.514C175.69 133.963 178.696 134.454 181.496 132.509C179.933 132.03 178.562 131.764 177.39 131.222C173.49 129.416 169.786 127.287 165.759 125.681C155.985 121.766 145.867 118.512 135.027 116.892C133.742 116.702 132.494 115.965 131.256 115.993C125.044 116.149 119.028 114.594 112.656 115.084C109.374 115.335 105.886 114.918 102.407 115.444C95.959 116.423 89.411 116.973 82.9091 117.72C80.7804 117.967 78.6543 118.261 76.5269 118.531C76.5587 118.777 76.5839 119.01 76.6156 119.257C78.874 119.94 81.1179 120.674 83.3907 121.306C87.0714 122.341 90.8241 123.221 94.4484 124.381C95.9535 124.863 97.195 125.888 98.5612 126.667C99.8038 128.902 100.681 131.331 102.378 133.314C105.175 136.574 108.545 139.524 111.6 142.653C114.964 146.093 117.624 149.797 118.556 154.149C118.252 154.69 117.971 155.239 117.667 155.78L117.633 155.79C117.435 155.383 117.322 154.929 117.012 154.594C116.494 154.051 115.922 153.376 115.198 153.174C114.832 153.066 114.063 153.877 113.472 154.271C112.949 154.442 112.426 154.614 111.897 154.772C109.813 152.214 107.723 149.665 105.639 147.108C103.112 143.798 100.747 140.401 98.0174 137.198C96.2203 135.09 93.957 133.23 91.8184 131.324C86.4233 126.52 81.4313 121.279 72.6358 120.142C70.2323 120.348 67.8171 120.549 65.4084 120.764C65.206 120.77 65.0155 120.78 64.8183 120.777C64.344 120.888 63.8579 120.994 63.3835 121.104C62.5517 121.143 61.7264 121.196 60.8946 121.235C60.8338 120.888 60.5534 120.351 60.7373 120.227C62.0454 119.317 63.3635 117.884 64.834 117.771C68.1087 117.507 70.9025 112.974 74.7348 117.499C74.8962 117.288 75.0577 117.077 75.2191 116.866C74.8858 115.919 74.5577 114.962 74.2243 114.014C74.8877 113.669 75.5629 113.328 76.2262 112.982L76.2144 112.978C76.5862 112.898 76.941 112.823 77.3128 112.743C79.7515 112.248 82.1849 111.762 84.6117 111.263C87.4777 111.043 90.349 110.815 93.2032 110.591C94.0285 110.539 94.8537 110.486 95.679 110.434C100.24 110.181 104.784 109.934 109.346 109.682C111.046 109.539 112.758 109.4 114.459 109.257L114.502 109.306ZM159.466 163.841C160.753 162.867 162.099 161.915 160.876 160.302C164.882 162.74 155.949 167.558 153.909 167.446C151.567 167.315 153.254 158.242 152.922 160.093C152.68 161.407 153.019 163.151 153.999 164.162C155.578 165.8 157.341 164.258 158.938 163.618C158.961 163.828 158.973 164.034 158.997 164.244C159.157 164.111 159.318 163.978 159.478 163.845L159.466 163.841ZM146.102 170.87C147.098 170.161 148.159 169.488 149.04 168.705C149.249 168.511 147.34 171.491 147.043 171.362C146.574 171.161 147.413 167.33 146.986 167.558C146.503 167.811 146.306 168.412 145.973 168.853C143.261 167.84 144.678 166.711 145.421 165.745C147.285 165.134 141.029 170.794 142.298 168.515C143.561 166.245 142.774 165.953 142.474 164.693C142.204 163.936 147.155 161.124 146.885 160.367C146.17 160.627 148.536 171.694 148.277 172.128C147.054 174.199 148.68 169.17 148.038 171.37C147.245 174.065 142.502 171.308 146.097 170.879L146.102 170.87ZM151.127 168.633C151.127 168.633 151.127 168.633 151.115 168.629C150.616 169.514 149.982 170.363 149.672 171.293C149.489 171.844 149.806 172.494 149.893 173.096C150.652 172.808 147.047 172.774 147.373 172.297C148.537 170.608 146.07 168.933 146.944 167.128C147.119 166.766 154.843 165.717 154.422 165.555C155.455 168.249 152.952 165.669 152.676 166.007C152.004 166.797 151.625 167.748 151.132 168.624L151.127 168.633Z" fill="#9912AF"/>
<path d="M159.961 167.396C161.257 166.179 162.843 165.077 163.812 163.71C167.373 158.622 172.688 155.314 179.285 152.81C184.691 150.754 190.275 149.669 196.101 148.76C202.547 147.759 208.749 146.032 214.13 142.859C218.895 140.049 221.267 136.518 219.671 131.705C219.579 131.414 219.904 131.038 220.036 130.704C221.083 132.478 222.543 134.175 223.098 136.041C223.777 138.343 223.757 140.777 223.954 143.154C224.048 144.273 224.457 144.733 226.047 144.584C229.049 144.301 231.112 142.731 231.234 139.965C231.495 133.62 228.403 128.385 222.349 124.197C220.997 123.266 219.751 122.25 218.449 121.282C219.144 121.183 219.822 121.089 220.517 120.99C221.668 121.849 222.818 122.707 223.981 123.57C226.697 126.141 229.401 128.708 232.117 131.278C232.517 133.168 232.905 135.053 233.305 136.942C232.462 142.452 229.407 147.172 225.302 151.562C222.767 154.273 218.764 154.769 215.195 155.936C211.165 157.262 207.112 158.581 203.051 159.863C198.632 161.251 195.676 163.902 193.225 166.968C187.524 174.091 181.853 181.235 176.188 188.371C174.496 190.443 172.797 192.501 171.105 194.572C170.745 195.06 170.38 195.556 170.021 196.044C166.021 200.068 162.022 204.093 158.011 208.113C156.935 209.039 155.877 209.96 154.801 210.886L154.786 210.914C154.4 211.246 153.996 211.584 153.61 211.916C152.544 212.7 151.466 213.479 150.394 214.272C148.596 215.623 146.81 216.978 145.012 218.329C142.625 220.097 140.242 221.855 137.855 223.622C136.464 224.603 135.073 225.585 133.682 226.566C131.476 228.062 129.263 229.545 127.056 231.041C124.287 233.008 121.523 234.988 118.753 236.955C116.633 238.045 114.551 239.194 112.381 240.222C109.196 241.715 106.333 243.873 102.174 243.485C104.113 241.86 106.603 240.465 107.912 238.57C115.744 227.181 117.411 214.453 119.87 201.907L121.416 193.659C124.005 192.367 126.613 191.092 129.19 189.795C131.205 188.791 133.104 187.588 135.24 186.772C139.161 185.261 143.248 184.033 147.2 182.566C151.264 181.051 152.915 177.867 155.055 175.049C155.615 174.409 156.221 173.786 156.75 173.124C157.56 172.114 158.311 171.083 159.103 170.056C161.469 171.506 158.989 172.68 158.817 173.996C158.718 174.778 158.904 175.583 158.956 176.374C159.757 175.91 156.331 176.669 156.863 176.053C157.737 175.055 157.858 169.945 158.542 168.857C158.943 168.977 167.592 170.098 167.993 170.219C167.594 171.432 172.593 176.291 171.935 177.411C171.255 178.567 164.026 177.856 163.744 178.722C163.031 179.408 162.429 180.2 161.575 180.758C155.85 184.491 150.237 188.353 144.264 191.819C140.04 194.274 135.319 196.451 129.894 196.596C126.835 196.68 126.305 197.722 126.136 199.688C125.688 204.824 125.329 209.98 124.491 215.078C123.615 220.419 122.227 225.711 121.057 231.071C122.683 229.95 124.553 228.848 126.133 227.532C131.253 223.258 136.259 218.91 141.295 214.584C152.127 205.262 163.459 196.265 170.679 184.702C175.648 176.736 180.734 168.811 185.643 160.824C186.404 159.573 186.507 158.053 186.906 156.662C186.537 156.485 186.179 156.313 185.81 156.136C184.094 157.695 182.234 159.181 180.68 160.832C175.582 166.278 170.608 171.779 165.588 177.264C166.107 176.039 166.72 174.825 167.116 173.566C167.325 172.891 167.137 172.141 167.129 171.422C167.463 169.693 166.281 169.294 164.427 169.483C163.782 169.342 163.136 169.201 162.491 169.06C162.469 169.276 162.435 169.488 162.413 169.704C163.087 169.642 163.761 169.581 164.447 169.523C164.981 170.039 165.527 170.558 166.061 171.074C163.868 170.123 162.315 170.408 161.524 172.443C161.145 173.394 160.519 174.279 160.005 175.192C159.959 174.112 160.552 173.261 160.922 172.351C161.455 171.053 161.85 169.694 159.791 168.858C159.104 167 161.354 168.934 161.456 167.996C161.01 167.804 160.524 167.608 160.031 167.398L159.961 167.396Z" fill="#900C9B"/>
<path d="M223.935 123.562C222.784 122.703 221.634 121.845 220.471 120.982L220.484 121.009C220.26 120.649 220.037 120.289 219.813 119.929C218.788 118.041 217.745 116.157 216.72 114.268C217.681 114.175 218.751 114.243 219.609 113.956C223.183 112.758 227.41 112.039 230.044 110.035C233.083 107.717 237.972 106.126 238.378 102.274C238.824 97.9994 242.485 95.1306 244.56 91.572C244.79 91.1618 245.401 90.8089 245.952 90.6136C248.755 89.6217 251.522 88.1911 254.464 87.8869C256.727 87.6536 259.374 88.6549 261.624 89.4804C263.998 90.3616 265.154 92.0174 265.721 94.1903C266.654 97.7588 267.905 101.24 267.27 104.943C267.116 105.873 267.574 106.876 267.752 107.847C266.64 106.946 265.522 106.054 264.409 105.153C262.825 103.02 263.907 100.618 263.51 98.3716C262.766 94.1651 258.496 90.6699 253.433 91.6613C245.632 93.1753 245.386 98.887 248.288 103.248C248.706 103.868 249.012 104.537 249.374 105.181C248.92 105.635 248.022 106.143 248.098 106.539C248.649 109.244 246.634 111.234 245.084 113.255C244.492 114.029 242.622 114.246 241.269 114.58C240.344 114.81 239.149 114.585 238.376 114.947C234.624 116.742 230.885 118.587 227.3 120.587C225.959 121.329 225.046 122.548 223.94 123.553L223.935 123.562Z" fill="#F9D4FC"/>
<path d="M264.402 105.159C265.515 106.06 266.633 106.952 267.745 107.853C267.832 109.743 267.896 111.624 268.012 113.513C268.059 114.313 268.221 115.11 268.326 115.909C267.875 115.927 267.424 115.945 266.973 115.963C263.436 113.01 259.039 114.687 254.659 114.388C255.388 119.832 256.448 124.991 260.692 129.417C260.183 129.538 259.491 129.884 259.193 129.733C256.087 128.132 252.304 127.128 251.013 123.868C250.729 123.162 249.74 122.596 248.989 122.037C247.571 120.971 246.505 121.251 245.227 122.384C243.261 124.134 241.067 125.735 238.809 127.247C236.663 128.686 234.321 129.944 232.064 131.277C229.348 128.706 226.644 126.139 223.928 123.568C225.033 122.564 225.947 121.345 227.288 120.603C230.873 118.603 234.599 116.754 238.364 114.963C239.137 114.601 240.331 114.826 241.256 114.596C242.598 114.258 244.48 114.045 245.071 113.271C246.622 111.25 248.637 109.26 248.085 106.555C248.005 106.168 248.919 105.655 249.362 105.197C249.8 105.857 250.25 106.522 250.688 107.182C252.944 109.107 255.53 110.444 259.023 110.146C259.774 109.922 260.526 109.698 261.277 109.474C261.607 109.267 261.948 109.064 262.273 108.866C264.488 108.515 264.933 107.498 263.963 105.965C264.11 105.704 264.233 105.435 264.368 105.17L264.402 105.159Z" fill="#F0B7F5"/>
<path d="M232.08 131.272C234.337 129.939 236.679 128.682 238.825 127.242C241.082 125.731 243.282 124.12 245.243 122.38C246.52 121.246 247.587 120.966 249.005 122.032C249.756 122.591 250.745 123.157 251.029 123.863C252.32 127.123 256.103 128.127 259.209 129.728C259.495 129.875 260.199 129.533 260.708 129.413C261.044 129.522 261.369 129.626 261.711 129.726C262.141 129.745 262.57 129.764 263 129.783C265.255 129.514 267.585 129.439 269.745 128.934C272.11 128.367 272.919 126.652 271.977 124.793C271.151 123.155 270.133 121.582 269.222 119.969C268.466 118.636 267.739 117.301 266.989 115.959C267.44 115.941 267.891 115.922 268.341 115.904C269.567 118.144 271.13 119.911 274.579 120.449C275.415 120.579 275.882 122.627 276.318 123.846C276.498 124.359 276.13 124.988 276.013 125.574C275.205 126.908 274.408 128.247 273.6 129.582C273.198 129.943 272.785 130.299 272.377 130.668C272.157 130.758 271.936 130.847 271.715 130.936C270.055 130.276 269.655 131.163 269.33 132.144C265.074 135.64 253.812 135.907 249.594 132.621C246.456 130.169 245.449 129.988 241.716 131.925C238.782 133.452 236.079 135.275 233.269 136.959C232.869 135.069 232.481 133.184 232.081 131.295L232.08 131.272Z" fill="#E598E7"/>
<path d="M72.6757 120.172C81.4712 121.309 86.475 126.555 91.8583 131.354C93.9969 133.26 96.2721 135.125 98.0573 137.229C100.787 140.431 103.157 143.819 105.679 147.138C105.094 148.53 103.983 147.954 102.93 147.578C100.712 144.704 98.7565 141.666 96.1796 138.999C93.2213 135.95 89.886 133.091 86.3878 130.42C80.6041 126.004 74.1918 122.628 65.5212 124.425C64.6089 124.077 63.7083 123.733 62.796 123.385C62.9134 123.908 63.0308 124.432 63.1483 124.955C61.4232 125.47 59.6087 125.841 58.0086 126.512C53.3556 128.467 48.5448 130.299 45.5268 133.968C44.2174 134.855 42.4859 135.558 41.6708 136.678C40.0774 138.852 39.0427 141.27 37.6399 143.535C37.3118 144.067 36.4027 144.37 35.7775 144.773C35.6348 143.916 35.4921 143.059 35.3441 142.212C35.618 141.346 35.9037 140.486 36.1776 139.621C38.1663 137.173 40.1433 134.722 42.132 132.275C42.8963 131.674 43.637 131.066 44.4434 130.491C46.7351 128.869 49.0506 127.255 51.366 125.641C54.158 124.947 56.95 124.253 59.6908 123.575C59.6851 123.181 59.6887 122.746 59.687 122.32L59.7724 122.294C60.0837 122.069 60.3831 121.841 60.6943 121.616C60.7678 121.485 60.8531 121.359 60.9621 121.241C61.7939 121.202 62.6192 121.15 63.451 121.111C63.9253 121 64.4115 120.894 64.8858 120.784C65.0882 120.777 65.2787 120.767 65.4759 120.77C68.0915 121.223 70.6953 121.671 73.4804 122.15C73.1327 121.254 72.9153 120.706 72.698 120.158L72.6757 120.172Z" fill="#BD28F2"/>
<path d="M35.3428 142.217C35.4855 143.074 35.6282 143.931 35.7761 144.779C35.5389 149.844 35.0875 154.911 35.1223 159.973C35.2123 172.332 34.5665 184.787 39.0876 196.847C40.7067 201.164 43.4005 205.238 45.6029 209.428C46.0883 210.005 46.579 210.572 47.0526 211.144C47.3067 211.627 47.5555 212.118 47.8096 212.601C47.4612 212.488 47.1129 212.375 46.7764 212.266C46.4818 212.082 46.1873 211.899 45.9046 211.719L45.9203 211.691C44.6034 210.169 43.28 208.633 41.9631 207.11C41.7365 206.503 41.6058 205.852 41.2439 205.308C39.5516 202.711 37.7974 200.148 36.0775 197.574C35.5005 196.025 34.9353 194.48 34.3583 192.93C33.6665 190.903 32.9866 188.88 32.2896 186.862C31.8666 181.203 31.4383 175.553 31.0034 169.889C30.9782 169.656 30.936 169.428 30.9056 169.205C31.4488 163.924 31.7936 158.617 32.6049 153.364C33.1798 149.618 34.4012 145.934 35.3428 142.217Z" fill="#AB19AE"/>
<path d="M60.9329 121.265C60.8239 121.383 60.7386 121.509 60.6651 121.639C60.3538 121.864 60.0544 122.093 59.7432 122.318L59.6578 122.343C56.8898 123.449 54.1218 124.554 51.342 125.655C49.0384 127.274 46.7164 128.874 44.4194 130.506C43.6183 131.071 42.8724 131.689 42.1081 132.289C41.2146 132.463 40.3145 132.623 39.421 132.796C45.9124 126.213 55.3539 122.441 63.2553 117.19C65.5543 116.388 67.8534 115.585 70.1525 114.783C71.5112 114.54 72.8698 114.297 74.2284 114.055L75.2232 116.907C75.0618 117.118 74.9003 117.329 74.7388 117.54C70.9066 113.014 68.1128 117.547 64.8381 117.811C63.3676 117.925 62.0443 119.367 60.7414 120.267C60.5575 120.392 60.8379 120.929 60.8987 121.275L60.9329 121.265Z" fill="#AB19AE"/>
<path d="M273.606 129.575C274.414 128.24 275.211 126.901 276.019 125.566C278.582 126.593 276.352 127.7 276.059 128.726C275.771 129.743 274.993 130.316 273.606 129.575Z" fill="#F1F1F1"/>
<path d="M269.326 132.134C269.651 131.153 270.063 130.27 271.712 130.925C270.919 131.325 270.12 131.734 269.326 132.134Z" fill="#F0B7F5"/>
<path d="M118.599 154.169C117.668 149.817 115.012 146.104 111.643 142.673C108.583 139.554 105.218 136.595 102.421 133.335C100.712 131.347 99.8468 128.922 98.6042 126.687C99.5528 124.876 99.8725 122.415 101.585 121.392C105.027 119.318 109.187 117.96 113.13 116.434C113.963 116.116 115.173 116.212 116.16 116.352C120.371 116.949 124.619 117.48 128.747 118.327C132.276 119.049 135.793 119.969 139.097 121.194C145.627 123.603 152.47 125.733 156.706 130.829C157.569 132.704 158.777 134.546 159.197 136.476C159.586 138.283 159.469 140.257 158.989 142.045C158.384 144.28 157.052 146.369 156.224 148.57C154.768 152.495 150.977 154.534 146.729 156.275C146.417 156.5 146.094 156.72 145.788 156.936C145.458 157.143 145.117 157.345 144.787 157.552C144.787 157.552 144.781 157.539 144.793 157.543C144.292 157.7 143.797 157.848 143.296 158.005C141.313 158.954 139.334 159.893 137.351 160.842L137.349 160.819C135.028 161.636 132.701 162.463 130.38 163.279C131.546 161.815 133.055 160.193 131.979 158.521C131.063 157.119 134.992 161.737 133.433 160.643C133.047 160.371 131.333 163.76 130.715 163.696C129.164 164.508 122.696 156.382 121.145 157.194C120.777 156.839 120.414 156.474 120.057 156.123C119.573 155.469 119.095 154.828 118.611 154.174L118.599 154.169Z" fill="#B553CD"/>
<path d="M218.418 121.277C219.715 122.255 220.979 123.266 222.319 124.193C228.373 128.381 231.465 133.616 231.204 139.961C231.093 142.731 229.018 144.297 226.017 144.58C224.41 144.734 224.006 144.265 223.924 143.149C223.727 140.773 223.752 138.33 223.068 136.037C222.513 134.171 221.065 132.478 220.005 130.7C219.085 128.625 213.63 125.669 211.167 125.955C210.741 126.004 210.253 126.165 209.936 126.4C207.095 128.442 204.292 130.52 201.456 132.552C199.066 134.274 196.769 134.215 194.543 132.413C192.258 130.567 191.595 127.755 192.935 125.401C195.027 121.737 196.727 117.832 200.983 115.321C203.212 114.012 205.667 112.806 208.24 112.023C210.675 111.28 212.245 112.658 213.384 114.319C214.992 116.662 216.725 118.96 218.407 121.273L218.418 121.277Z" fill="#B553CD"/>
<path d="M156.701 130.829C152.476 125.738 145.621 123.603 139.091 121.194C135.783 119.979 132.265 119.059 128.741 118.327C124.602 117.476 120.366 116.948 116.155 116.352C115.168 116.212 113.957 116.116 113.124 116.434C109.182 117.96 105.026 119.309 101.58 121.392C99.8788 122.42 99.5472 124.876 98.5987 126.687C97.2326 125.908 96.0029 124.887 94.4859 124.401C90.8735 123.246 87.1089 122.361 83.4283 121.327C81.1489 120.681 78.9116 119.96 76.6532 119.277C76.6214 119.031 76.5962 118.798 76.5645 118.551C78.6919 118.281 80.8232 117.978 82.9467 117.74C89.4486 116.994 95.9966 116.443 102.444 115.465C105.936 114.942 109.412 115.355 112.693 115.105C119.065 114.614 125.082 116.169 131.294 116.014C132.532 115.985 133.779 116.722 135.065 116.912C145.904 118.532 156.005 121.791 165.797 125.702C169.824 127.307 173.516 129.432 177.427 131.242C178.6 131.784 179.971 132.05 181.534 132.53C178.728 134.484 175.728 133.983 172.84 133.534C167.439 132.703 162.077 131.729 156.694 130.815L156.701 130.829Z" fill="#760B9C"/>
<path d="M102.922 147.579C103.975 147.955 105.091 148.522 105.671 147.139C107.755 149.697 109.844 152.245 111.928 154.803C112.175 155.071 112.428 155.329 112.675 155.596C113.222 156.922 113.773 158.239 114.32 159.565L115.147 161.327C117.02 168.019 119.199 174.674 120.641 181.426C121.489 185.423 121.152 189.58 121.355 193.66C120.844 196.411 120.333 199.162 119.809 201.908C119.352 201.611 118.894 201.313 118.449 201.019C118.222 200.412 117.768 199.78 117.827 199.196C118.032 197.064 118.69 194.937 118.664 192.812C118.617 188.529 118.642 184.194 117.88 179.97C117.129 175.727 115.41 171.586 114.192 167.39C112.677 162.18 110.709 157.145 106.623 152.741C105.158 151.154 104.142 149.325 102.911 147.598L102.922 147.579Z" fill="#D530F0"/>
<path d="M121.135 157.197C122.686 156.385 124.243 155.563 125.794 154.751C126.473 155.262 127.168 155.768 127.847 156.279C127.692 156.403 127.525 156.522 127.37 156.646L125.075 155.827C127.276 157.116 127.155 158.618 126.267 160.372C127.073 159.597 127.885 158.812 128.757 157.97C130.7 158.227 131.579 158.888 130.68 160.56C130.179 161.501 129.962 162.543 129.609 163.547C128.693 163.131 127.765 162.71 126.712 162.233C126.391 162.701 126.07 163.146 125.765 163.586L125.788 163.571C125.986 162.209 126.168 160.852 123.873 160.436C123.419 160.106 122.972 159.789 122.518 159.459C122.023 158.824 121.534 158.179 121.051 157.547C121.073 157.432 121.101 157.308 121.135 157.197Z" fill="#BB54CC"/>
<path d="M125.78 163.581C126.089 163.132 126.399 162.683 126.726 162.229C127.779 162.705 128.707 163.126 129.624 163.543C129.873 163.453 130.123 163.363 130.384 163.277C132.706 162.46 135.032 161.634 137.354 160.817C136.897 161.628 136.547 162.477 135.995 163.231C135.614 163.756 134.767 164.629 134.513 164.55C131.989 163.783 131.742 165.307 131.122 166.485C129.351 165.517 127.563 164.554 125.792 163.586L125.78 163.581Z" fill="#AB19AE"/>
<path d="M72.6738 120.171C72.8911 120.719 73.1085 121.267 73.4562 122.163C70.6829 121.688 68.0672 121.236 65.4516 120.783C67.8551 120.578 70.2704 120.377 72.679 120.162L72.6738 120.171Z" fill="#D530F0"/>
<path d="M141.703 160.894C140.254 160.869 138.787 160.849 137.338 160.824C139.321 159.875 141.299 158.936 143.283 157.987C142.754 158.951 142.237 159.92 141.709 160.884L141.703 160.894Z" fill="#AB19AE"/>
<path d="M145.781 156.943C146.092 156.718 146.415 156.498 146.721 156.282C146.41 156.507 146.087 156.728 145.781 156.943Z" fill="#AB19AE"/>
<path d="M143.288 157.997C143.783 157.849 144.284 157.692 144.784 157.535C144.289 157.682 143.788 157.84 143.288 157.997Z" fill="#AB19AE"/>
<path d="M122.308 159.912C122.391 159.763 122.451 159.606 122.523 159.453C122.977 159.783 123.424 160.099 123.878 160.428C123.352 160.252 122.833 160.089 122.308 159.912Z" fill="#AB19AE"/>
<path d="M159.46 163.848C159.3 163.981 159.14 164.114 158.98 164.247C158.956 164.037 158.944 163.832 158.92 163.622C159.085 163.681 159.256 163.731 159.439 163.785L159.465 163.839L159.46 163.848Z" fill="#B22CBE"/>
<path d="M165.514 177.27C170.534 171.785 175.513 166.274 180.606 160.837C182.154 159.173 184.02 157.701 185.736 156.141C186.105 156.318 186.463 156.491 186.832 156.667C186.433 158.058 186.33 159.578 185.569 160.829C180.66 168.817 175.574 176.741 170.605 184.708C163.39 196.261 152.053 205.268 141.221 214.589C136.185 218.915 131.162 223.268 126.059 227.537C124.474 228.863 122.604 229.964 120.983 231.076C122.158 225.707 123.541 220.424 124.417 215.083C125.255 209.986 125.614 204.829 126.062 199.693C126.231 197.727 126.761 196.685 129.82 196.602C135.245 196.456 139.971 194.27 144.19 191.824C150.163 188.358 155.776 184.496 161.501 180.763C162.355 180.206 162.957 179.413 163.67 178.727C164.28 178.251 164.889 177.774 165.515 177.292L165.514 177.27Z" fill="#CD6CD5"/>
<path d="M118.463 201.005C118.92 201.303 119.378 201.6 119.823 201.894C117.364 214.44 115.697 227.168 107.865 238.557C106.551 240.461 104.078 241.851 102.128 243.472C98.238 245.308 94.2089 244.059 90.2319 243.703C89.9254 243.415 89.619 243.126 89.3007 242.833C84.9349 241.274 80.5691 239.716 76.2033 238.157C74.5425 237.094 72.887 236.021 71.2263 234.958C70.5212 234.191 69.8108 233.434 69.1057 232.667C67.5208 231.217 65.9583 229.752 64.3577 228.329C60.6184 225.002 56.8621 221.679 53.1177 218.36C51.3431 216.439 49.5751 214.531 47.8006 212.61C47.5465 212.128 47.2977 211.636 47.0489 211.144C46.5634 210.567 46.078 209.991 45.5991 209.428C46.4664 209.402 47.3338 209.376 48.2011 209.35C50.7135 211.904 53.1037 214.548 55.7947 216.987C59 219.9 62.422 222.656 65.7941 225.45C69.0806 228.168 72.186 231.057 75.7969 233.477C81.3317 237.2 87.9069 239.1 95.1775 239.714C100.184 240.136 104.684 238.35 106.156 235.282C107.655 232.19 109.832 229.283 111.102 226.143C112.61 222.404 113.483 218.506 114.591 214.67C115.907 210.113 117.164 205.557 118.456 200.991L118.463 201.005Z" fill="#BD28F2"/>
<path d="M164.352 169.489C166.201 169.31 167.4 169.704 167.054 171.428L166.986 171.448C166.643 171.326 166.317 171.198 165.979 171.066C165.445 170.551 164.899 170.032 164.365 169.516L164.352 169.489Z" fill="#AB19AE"/>
<path d="M164.37 169.526C163.696 169.587 163.022 169.649 162.336 169.706C162.358 169.49 162.392 169.279 162.414 169.063C163.059 169.203 163.705 169.344 164.35 169.485L164.363 169.512L164.37 169.526Z" fill="#AB19AE"/>
<path d="M262.31 108.859C261.98 109.066 261.638 109.269 261.314 109.467C260.562 109.691 259.811 109.915 259.059 110.14C255.561 110.447 252.975 109.109 250.725 107.175C251.627 105.952 250.504 105.573 249.398 105.19C249.036 104.546 248.726 103.886 248.312 103.257C245.405 98.9052 245.657 93.1841 253.458 91.6702C258.515 90.6881 262.797 94.1875 263.534 98.3804C263.932 100.627 262.844 103.038 264.434 105.162C264.287 105.423 264.164 105.692 264.028 105.957C263.471 106.923 262.901 107.884 262.338 108.858L262.31 108.859Z" fill="#FCF8FD"/>
<path d="M266.989 115.958C267.728 117.297 268.466 118.635 269.222 119.969C270.133 121.582 271.151 123.154 271.977 124.793C272.919 126.652 272.11 128.367 269.745 128.933C267.58 129.448 265.25 129.523 263 129.783C262.57 129.764 262.141 129.745 261.711 129.726C261.374 129.617 261.05 129.512 260.708 129.412C256.459 124.996 255.404 119.827 254.675 114.383C259.055 114.682 263.452 113.005 266.989 115.958Z" fill="#FCF8FD"/>
<path d="M262.304 108.859C262.862 107.894 263.431 106.933 263.994 105.958C264.964 107.491 264.525 108.499 262.304 108.859Z" fill="#F9D4FC"/>
<path d="M249.367 105.19C250.484 105.578 251.612 105.947 250.694 107.176C250.255 106.515 249.805 105.851 249.367 105.19Z" fill="#F9D4FC"/>
<path d="M76.2095 238.172C80.5753 239.731 84.9411 241.289 89.3068 242.848C87.9845 242.522 86.6516 242.214 85.3384 241.846C83.0709 241.204 80.8073 240.53 78.5384 239.866C77.7586 239.307 76.984 238.74 76.2042 238.181L76.2095 238.172Z" fill="#B553CD"/>
<path d="M78.5441 239.856C80.813 240.521 83.0595 241.2 85.3441 241.837C86.6573 242.205 87.9955 242.503 89.3126 242.839C89.619 243.128 89.9255 243.416 90.2438 243.709C86.3513 242.42 82.4536 241.14 78.5494 239.847L78.5441 239.856Z" fill="#AB19AE"/>
<path d="M118.465 201.008C117.179 205.565 115.916 210.129 114.601 214.687C113.492 218.523 112.619 222.421 111.111 226.16C109.841 229.3 107.664 232.206 106.165 235.298C104.682 238.363 100.193 240.152 95.1865 239.731C87.9107 239.126 81.3407 237.217 75.806 233.494C72.2003 231.065 69.0897 228.185 65.8031 225.467C62.4311 222.673 58.9972 219.913 55.8038 217.004C53.118 214.556 50.7344 211.925 48.2102 209.366C48.2255 208.935 48.417 208.444 48.2169 208.092C46.1647 204.292 44.0441 200.512 41.9354 196.736C38.0576 189.843 38.2782 182.409 37.6645 175.17C36.9924 167.228 37.2611 159.229 37.4852 151.259C37.6074 146.903 37.8571 142.446 41.5268 138.729C43.0039 137.242 44.1983 135.574 45.5308 133.99C48.5487 130.321 53.3596 128.489 58.0126 126.534C59.6179 125.853 61.4325 125.482 63.1523 124.977C63.9472 124.802 64.7421 124.626 65.5252 124.447C74.184 122.646 80.6081 126.026 86.3918 130.442C89.89 133.113 93.2253 135.972 96.1836 139.021C98.7658 141.678 100.704 144.721 102.934 147.6C104.153 149.323 105.181 151.157 106.646 152.743C110.727 157.156 112.7 162.182 114.215 167.392C115.433 171.588 117.14 175.725 117.903 179.972C118.66 184.205 118.64 188.531 118.688 192.814C118.713 194.939 118.055 197.066 117.85 199.199C117.786 199.791 118.245 200.414 118.472 201.022L118.465 201.008ZM87.3918 137.55C83.838 134.322 79.7485 131.641 74.8488 129.769C72.6166 128.938 70.4041 128.048 68.1403 127.273C64.3162 125.963 60.1871 125.978 57.0098 127.811C50.7168 131.442 46.2899 136.377 44.3281 142.461C42.2247 148.999 44.1833 155.364 46.3114 161.654C46.8649 163.296 47.8077 165.357 49.4209 166.202C54.2252 168.723 59.8736 168.836 64.829 166.9C71.5289 164.287 78.1946 163.073 85.3718 165.065C90.5943 166.515 94.696 165.136 95.8445 159.31C95.9388 158.941 96.0804 158.588 96.1169 158.221C96.5518 153.763 95.3047 149.466 93.3403 145.384C91.9762 142.557 91.1099 139.325 87.3852 137.536L87.3747 137.555L87.3918 137.55ZM88.3619 179.971C86.5939 183.818 84.8307 187.253 85.5859 191.161C86.2157 194.409 86.6852 197.689 87.0443 200.963C87.7532 207.352 87.9128 213.857 91.2392 219.837C93.3163 223.568 95.5342 227.427 100.437 229.547C104.495 231.299 106.119 230.837 107.945 227.593C108.444 226.708 109 225.82 109.323 224.894C112.484 215.543 113.394 205.926 114.107 196.306C114.647 188.986 114.218 181.645 111.362 174.58C110.164 171.633 108.493 168.696 106.288 166.151C103.865 163.338 100.531 163.48 98.2769 166.347C94.7077 170.895 91.5028 175.629 88.3685 179.984L88.3619 179.971ZM51.5793 176.881C50.4305 176.65 48.7099 176.248 46.9657 175.939C45.1741 175.613 43.9118 176.214 43.6292 177.625C43.0038 180.704 42.2864 183.796 42.0737 186.899C41.7315 192.151 45.2587 196.512 48.3654 200.812C52.7958 206.951 57.3418 213.086 62.5813 218.797C68.1181 224.838 74.7779 230.171 82.3307 234.726C82.8106 235.01 83.5651 235.134 84.1722 235.115C87.0239 235.047 88.3407 233.592 87.9727 230.662C87.4909 226.873 86.5072 223.118 86.2685 219.327C85.8083 211.841 83.2196 204.804 79.5088 197.993C78.7756 196.645 77.2381 195.312 75.6354 194.55C69.5955 191.699 64.576 187.97 60.741 183.399C58.4374 180.65 55.6837 178.626 51.5503 176.881L51.5793 176.881ZM67.3154 172.781C67.3154 172.781 67.4167 172.828 67.4587 172.855C67.2646 173.199 66.9994 173.519 66.8814 173.88C65.6576 177.821 63.0458 181.602 67.4808 185.637C70.5822 188.457 71.3318 188.994 75.2725 187.042C75.9989 186.685 76.8174 186.418 77.4163 185.96C79.1183 184.653 81.7379 183.685 81.331 181.379C80.8846 178.891 80.4656 176.278 79.1652 174.045C78.4439 172.802 75.9188 172.214 74.2043 171.322C73.5772 170.997 73.0077 170.469 72.3295 170.362C71.3647 170.207 70.0649 170.068 69.3805 170.451C68.4492 170.969 67.981 171.977 67.3154 172.781Z" fill="#EAA4F5"/>
<path d="M45.5286 133.981C44.208 135.57 43.0017 137.233 41.5246 138.721C37.8549 142.438 37.6052 146.894 37.483 151.25C37.2589 159.22 36.9902 167.219 37.6623 175.162C38.276 182.401 38.0554 189.835 41.9332 196.727C44.0537 200.508 46.1625 204.283 48.2147 208.084C48.4095 208.444 48.2181 208.936 48.208 209.358C47.3406 209.384 46.4733 209.41 45.606 209.436C43.4036 205.246 40.7045 201.181 39.0908 196.855C34.5814 184.799 35.2102 172.349 35.1254 159.981C35.0906 154.919 35.542 149.852 35.7793 144.787C36.4215 144.378 37.3188 144.071 37.6417 143.548C39.0445 141.284 40.0844 138.856 41.6726 136.691C42.4995 135.576 44.2191 134.869 45.5286 133.981Z" fill="#D530F0"/>
<path d="M47.8159 212.615C49.5905 214.536 51.3585 216.443 53.133 218.364C53.0149 218.524 52.9139 218.678 52.7957 218.837C51.7186 217.949 50.6363 217.07 49.5473 216.177C48.5029 215.155 47.4756 214.128 46.4312 213.105C46.5427 212.832 46.6542 212.558 46.7709 212.275C47.1192 212.388 47.4676 212.501 47.8041 212.61L47.8159 212.615Z" fill="#B22CBE"/>
<path d="M45.6123 209.435C46.0978 210.011 46.5832 210.587 47.0621 211.15C46.5766 210.574 46.0912 209.997 45.6123 209.435Z" fill="#D530F0"/>
<path d="M52.7957 218.841C52.9086 218.691 53.0149 218.527 53.133 218.368C56.8775 221.687 60.6338 225.01 64.373 228.338C65.9802 229.773 67.548 231.229 69.121 232.675C66.8829 231.148 64.6986 229.551 62.3844 228.109C61.1221 227.322 59.6418 226.771 58.2482 226.117C57.5349 225.012 56.8164 223.915 56.1031 222.81C54.9588 221.763 53.8264 220.721 52.6769 219.683C52.7121 219.393 52.7539 219.117 52.7891 218.828L52.7957 218.841Z" fill="#AB19AE"/>
<path d="M112.699 155.589C112.987 155.177 113.27 154.752 113.558 154.34C116.518 154.534 117.019 155.183 115.778 157.136C115.274 157.93 114.829 158.746 114.344 159.557C113.797 158.232 113.245 156.915 112.699 155.589Z" fill="#9912AF"/>
<path d="M145.977 168.855C146.501 168.605 147.008 168.361 148.293 167.745C147.304 169.149 146.693 170.006 146.095 170.867C141.854 169.465 140.355 169.68 145.84 162.738C145.724 163.121 145.678 163.531 145.485 163.898C144.793 165.23 143.679 166.5 143.418 167.874C143.13 169.394 144.262 169.933 145.972 168.864L145.977 168.855Z" fill="#9912AF"/>
<path d="M159.719 159.972C156.488 158.998 155.486 159.39 155.078 161.932C155.974 161.3 156.768 160.721 157.57 160.156C157.877 160.266 158.185 160.376 158.498 160.477C158.229 161.332 158.201 162.341 157.59 162.997C157.258 163.359 155.349 163.394 155.153 163.111C154.544 162.3 153.855 161.025 154.28 160.37C154.796 159.58 156.346 159.048 157.572 158.814C158.145 158.705 159.022 159.544 159.759 159.953L159.725 159.963L159.719 159.972Z" fill="#AB19AE"/>
<path d="M159.439 163.793C159.273 163.733 159.102 163.684 158.92 163.63C159.179 162.412 159.45 161.199 159.709 159.982L159.743 159.971C160.064 160.108 160.373 160.241 160.699 160.369C160.273 161.504 159.853 162.653 159.439 163.793Z" fill="#AB19AE"/>
<path d="M150.151 171.983L153.295 166.399C153.461 166.459 153.614 166.513 153.78 166.573L150.636 172.157C150.471 172.097 150.317 172.042 150.151 171.983Z" fill="#AB19AE"/>
<path d="M165.992 171.078C166.335 171.201 166.661 171.328 166.999 171.46C166.17 173.336 165.341 175.212 164.513 177.088C164.242 177.014 163.959 176.935 163.694 176.852C164.462 174.932 165.224 172.998 165.992 171.078Z" fill="#900C9B"/>
<path d="M95.8496 159.309C94.701 165.135 90.5994 166.514 85.3769 165.064C78.1997 163.072 71.5458 164.29 64.834 166.899C59.8787 168.835 54.2303 168.722 49.426 166.2C47.8127 165.356 46.8699 163.295 46.3165 161.653C44.1884 155.362 42.2298 148.998 44.3331 142.46C46.2831 136.372 50.7219 131.441 57.0148 127.809C60.1922 125.977 64.3213 125.962 68.1454 127.272C70.4091 128.046 72.6269 128.928 74.8539 129.768C75.6986 130.842 76.24 132.278 77.4483 132.933C80.6131 134.656 84.0588 136.032 87.3969 137.549L87.3955 137.526C88.422 139.034 89.4536 140.534 90.48 142.042C87.9835 142.438 86.2343 142.441 85.6238 143.096C84.2728 144.562 83.2901 146.282 84.7388 148.277C85.2309 148.968 84.9388 150.017 85.0067 150.981C87.7294 152.178 89.8122 150.447 92.7485 149.547C93.3959 151.906 93.9577 154.088 94.6233 156.262C94.9384 157.293 95.4426 158.29 95.8667 159.304L95.8496 159.309Z" fill="#C254CC"/>
<path d="M88.3586 179.967C91.493 175.611 94.6979 170.877 98.267 166.33C100.521 163.462 103.855 163.32 106.278 166.134C108.466 168.684 110.149 171.625 111.352 174.562C114.226 181.623 114.637 188.969 114.097 196.288C113.384 205.909 112.474 215.526 109.313 224.876C109.002 225.807 108.434 226.69 107.936 227.575C106.109 230.82 104.485 231.281 100.427 229.53C95.5244 227.41 93.3065 223.55 91.2293 219.819C87.903 213.84 87.7434 207.334 87.0345 200.945C86.6754 197.671 86.2059 194.391 85.5761 191.143C84.8209 187.235 86.5722 183.796 88.352 179.953L88.3586 179.967Z" fill="#BB54CC"/>
<path d="M51.5738 176.88C55.7019 178.634 58.4556 180.658 60.7644 183.397C64.5994 187.968 69.6071 191.693 75.6589 194.548C77.2668 195.301 78.799 196.643 79.5322 197.991C83.2378 204.811 85.8265 211.848 86.2919 219.326C86.5306 223.117 87.5091 226.881 87.9961 230.66C88.3641 233.59 87.0473 235.046 84.1956 235.114C83.5767 235.128 82.8222 235.004 82.3541 234.725C74.8014 230.17 68.1297 224.832 62.6047 218.795C57.3652 213.084 52.8245 206.94 48.3888 200.81C45.2822 196.51 41.7497 192.159 42.0971 186.898C42.298 183.79 43.0272 180.703 43.6526 177.623C43.9352 176.212 45.1976 175.611 46.9891 175.937C48.7333 176.246 50.4591 176.638 51.6027 176.879L51.5738 176.88Z" fill="#BB54CC"/>
<path d="M67.3138 172.782C67.9794 171.978 68.4529 170.961 69.3789 170.451C70.0633 170.069 71.3631 170.208 72.3279 170.362C73.0061 170.47 73.5756 170.998 74.2028 171.323C75.9172 172.215 78.4423 172.803 79.1636 174.046C80.4759 176.283 80.883 178.892 81.3294 181.38C81.7363 183.686 79.1285 184.658 77.4147 185.961C76.8158 186.419 75.9973 186.686 75.2709 187.043C71.3302 188.995 70.5806 188.458 67.4792 185.638C63.0442 181.602 65.6731 177.816 66.8799 173.881C66.9926 173.529 67.263 173.2 67.4572 172.855C67.4098 172.839 67.3559 172.808 67.3138 172.782ZM69.1174 177.68C66.9918 181.456 67.6361 183.264 71.601 184.702C74.5365 185.773 76.8396 185.039 78.1975 182.602C79.8245 179.712 78.1947 176.6 74.1682 175.296C71.5588 174.454 70.501 174.592 69.1055 177.676L69.1174 177.68Z" fill="#F0B7F5"/>
<path d="M95.8369 159.308C95.4128 158.295 94.9086 157.297 94.5935 156.267C93.9398 154.096 93.378 151.914 92.7187 149.551C89.7824 150.451 87.6996 152.182 84.9769 150.986C84.9024 150.008 85.2064 148.963 84.709 148.281C83.2603 146.286 84.2549 144.57 85.594 143.1C86.2045 142.445 87.9537 142.443 90.4502 142.046C89.4238 140.538 88.3921 139.039 87.3657 137.53C91.0904 139.319 91.9567 142.551 93.3208 145.378C95.2918 149.474 96.5271 153.766 96.0974 158.214C96.0609 158.582 95.9141 158.944 95.825 159.304L95.8369 159.308ZM88.0166 145.208C86.833 145.771 86.0307 146.413 87.3826 147.445C87.5539 147.999 87.5165 148.746 87.9741 149.044C88.3423 149.299 89.2764 149.028 90.2751 148.97C89.0024 148.303 88.1899 147.879 87.3826 147.445C87.5935 146.692 87.811 145.952 88.0219 145.199C88.4869 145.029 88.952 144.859 89.4223 144.68C89.2868 144.542 89.1448 144.39 89.0093 144.252C88.6744 144.57 88.3567 144.882 88.0219 145.199L88.0166 145.208Z" fill="#BB54CC"/>
<path d="M87.3926 137.551C84.0545 136.034 80.597 134.654 77.444 132.935C76.2357 132.28 75.6943 130.844 74.8496 129.77C79.7374 131.638 83.8387 134.323 87.3926 137.551Z" fill="#BB54CC"/>
<path d="M69.1139 177.678C70.5041 174.602 71.5619 174.465 74.1765 175.298C78.1965 176.588 79.821 179.709 78.2058 182.603C76.836 185.036 74.5448 185.774 71.6093 184.704C67.6444 183.266 67.0001 181.457 69.1257 177.682L69.1139 177.678Z" fill="#FCF8FD"/>
<path d="M87.3862 147.446C88.1988 147.871 89.0113 148.295 90.2788 148.972C89.2919 149.034 88.363 149.295 87.9777 149.046C87.5372 148.743 87.5576 148 87.3862 147.446Z" fill="#CD6CD5"/>
<path d="M87.3986 147.445C86.0467 146.414 86.8439 145.781 88.0327 145.209C87.827 145.953 87.6043 146.702 87.3986 147.445Z" fill="#CD6CD5"/>
<path d="M88.0138 145.21C88.3486 144.893 88.6663 144.581 89.0012 144.264C89.1367 144.402 89.2787 144.554 89.4142 144.691C88.9492 144.861 88.4841 145.031 88.0138 145.21Z" fill="#CD6CD5"/>
</svg>
