<svg width="290" height="312" viewBox="0 0 290 312" fill="none" xmlns="http://www.w3.org/2000/svg">
<path d="M58.2112 153.145C58.4898 152.838 58.7444 152.537 59.0231 152.23C59.5991 152.088 60.175 151.945 60.7384 151.816C61.9816 152.173 63.2248 152.53 64.468 152.887C64.4413 153.33 64.4145 153.773 64.3877 154.216C60.1861 155.671 55.9845 157.127 51.7829 158.582L51.6983 158.613L48.2114 159.783C48.6134 160.368 49.0268 160.96 49.4288 161.545C48.0547 161.983 46.692 162.43 45.3179 162.869C44.9423 161.652 44.554 160.449 44.1784 159.233C43.6682 158.873 43.1581 158.513 42.6479 158.154C46.3011 156.774 49.943 155.388 53.5962 154.008L53.5368 154.013C55.0908 153.728 56.6573 153.43 58.1998 153.138L58.2112 153.145Z" fill="#D1BAD0"/>
<path d="M63.1181 162.778C62.0796 163.531 61.0298 164.276 59.9914 165.029C57.9191 164.698 55.8229 164.374 53.7506 164.043L53.7648 163.613C54.1935 163.17 54.6108 162.72 55.0407 162.256C57.737 162.433 60.4344 162.589 63.1307 162.765L63.1181 162.778Z" fill="#473B47"/>
<path d="M134.52 257.232C136.708 257.405 138.895 257.598 141.083 257.771C138.884 257.591 136.708 257.405 134.52 257.232Z" fill="#883B8F"/>
<path d="M48.9651 165.326C49.8395 164.158 50.714 162.989 51.5644 161.827C51.7125 161.919 51.7154 162.067 51.5742 162.251C52.3033 162.705 53.0323 163.16 53.7373 163.62L53.7232 164.05C52.1253 164.475 50.5515 164.894 48.9537 165.319L48.9651 165.326Z" fill="#473B47"/>
<path d="M60.7424 151.809C60.1664 151.951 59.603 152.081 59.027 152.223C59.1018 151.768 59.1892 151.3 59.264 150.846C59.7652 151.158 60.2538 151.483 60.7424 151.809Z" fill="#CAB8CE"/>
<path d="M249.331 179.205C248.652 179.869 247.973 180.553 247.294 181.216C244.681 182.408 242.067 183.6 239.478 184.786C239.569 185.239 239.671 185.7 239.774 186.14C242.382 185.238 244.99 184.335 247.598 183.432C240.211 198.072 229.776 211.522 216.045 223.565C206.496 231.926 197.298 240.944 184.62 244.763C185.086 243.507 185.528 242.258 186.379 239.925C183.407 241.562 181.133 242.819 179.213 243.879C171.65 244.807 164.341 243.907 156.131 249.279C155.233 249.868 153.686 249.447 152.43 249.5C149.056 248.024 147.725 243.057 141.272 247.539C140.138 245.558 139.156 243.817 138.142 242.015C136.541 243.482 135.313 244.619 134.187 245.651C132.934 244.87 131.99 244.261 131.02 243.677C125.826 240.628 120.644 237.585 115.45 234.536C114.795 233.25 114.49 231.639 113.435 230.71C109.607 227.363 105.529 224.236 101.538 221.038L101.896 219.025C102.062 218.419 102.562 217.581 102.348 217.217C99.0822 211.797 96.3502 205.957 92.243 201.161C84.7889 192.482 82.4434 181.033 78.0202 170.712C75.4317 164.648 79.8063 157.596 87.2568 154.802C91.6109 153.17 96.0703 151.165 100.338 150.377C110.143 148.528 119.849 147.327 129.595 145.86C130.305 146.824 131.016 147.769 131.913 148.976C132.638 147.735 133.075 146.963 133.523 146.197C134.905 145.429 136.3 144.648 137.693 143.887L137.642 143.959C137.396 145.289 137.163 146.606 136.917 147.937L137.721 149.483C137.873 153.819 138.024 158.155 138.165 162.484C138.895 162.333 139.601 162.188 140.331 162.037C140.712 159.642 141.395 157.143 141.391 154.863C141.375 152.199 140.758 149.704 140.393 147.137C140.839 144.844 141.273 142.545 141.707 140.266C143.895 138.872 146.083 137.478 148.283 136.091C151.281 132.653 154.266 129.227 157.264 125.788C159.287 129.076 161.31 132.364 163.334 135.652C168.62 139.908 173.755 144.321 179.242 148.389C188.315 155.131 197.372 161.925 206.961 168.153C211.044 170.802 215.939 173.122 221.408 173.773C231.291 174.939 241.868 174.972 251.998 164.821C253.047 164.66 254.11 164.487 255.16 164.326C253.735 167.951 252.321 171.583 250.884 175.222C249.565 176.113 248.247 177.004 246.311 178.326C247.716 178.742 248.529 178.977 249.342 179.213L249.331 179.205ZM179.967 200.513C179.891 198.062 179.815 195.612 179.75 193.169C179.268 193.307 178.786 193.466 178.305 193.605C176.272 196.141 174.228 198.67 172.195 201.205C169.135 204.312 166.625 203.207 164.213 202.624C160.835 201.793 157.661 203.262 156.245 206.349C153.976 211.224 151.299 210.349 148.448 209.596C147.087 209.229 145.837 208.596 144.882 207.771C137.905 201.771 130.815 195.868 124.161 189.589C120.527 186.154 118.774 186.211 113.36 190.901C111.975 192.107 109.494 193.256 107.945 193.272C99.3584 193.352 94.4353 186.606 95.9264 178.76C96.4983 175.752 96.2472 172.086 94.3843 170.444C92.4428 168.732 88.2004 168.909 84.7747 168.675C84.0213 168.623 82.4667 170.287 79.9912 172.129C82.4678 171.834 83.1415 171.836 83.8261 171.656C91.4215 169.788 93.0822 170.865 92.7076 177.255C92.607 179.115 92.6023 180.95 92.6823 182.755C93.0735 191.336 98.0444 195.73 107.663 195.394C109.464 195.326 112.485 194.242 113.663 192.929C117.652 188.541 119.666 189.838 121.743 192.052C126.22 196.786 130.497 201.708 135.31 206.171C137.538 208.228 140.888 209.314 143.588 210.996C150.172 215.1 154.023 213.97 159.422 206.01C162.746 206.16 166.169 206.246 169.499 206.503C174.158 206.858 177.754 205.255 179.955 200.526L179.967 200.513ZM188.297 234.79C186.509 234.637 184.427 234.864 183.021 234.26C177.505 231.845 172.219 229.156 166.855 226.565C166.351 227.086 165.846 227.608 165.353 228.136C167.901 232.336 170.412 236.555 174.882 239.257C175.377 238.897 175.871 238.537 176.378 238.163C174.833 236.155 173.301 234.134 171.8 232.175C176.092 233.722 180.359 235.275 184.616 236.821C186.444 237.479 187.935 237.448 188.297 234.79C210.213 221.685 225.187 204.524 235.141 184.569C234.362 184.752 233.415 184.956 232.241 185.227C232.912 183.89 233.411 182.884 234.028 181.661C225.456 182.293 217.273 182.918 208.736 183.551C207.197 191.409 207.115 199.026 203.828 206.464C200.542 213.881 194.029 221.125 188.695 228.791C189.155 229.203 190.278 230.174 191.389 231.159C191.031 231.605 190.685 232.037 190.316 232.476C188.252 232.213 186.187 231.95 183.125 231.566C185.335 232.944 186.816 233.867 188.285 234.783L188.297 234.79ZM241.639 180.512C241.475 180.305 241.31 180.098 241.132 179.904C240.243 180.54 239.377 181.171 238.488 181.807C238.687 182.036 238.862 182.27 239.061 182.499L241.639 180.512ZM243.57 178.686C243.478 179.235 243.421 179.596 243.363 179.957C243.841 179.879 244.383 179.903 244.764 179.66C245.01 179.5 245.032 178.95 245.137 178.576C244.686 178.609 244.235 178.641 243.558 178.699L243.57 178.686ZM240.895 192.23C240.578 192.199 240.284 192.183 239.978 192.159C239.916 192.393 239.705 192.762 239.819 192.833C240 192.967 240.369 192.926 240.651 192.955C240.736 192.716 240.821 192.476 240.895 192.23Z" fill="#DF7BEF"/>
<path d="M137.702 143.889C136.32 144.658 134.926 145.439 133.543 146.207C133.822 143.351 134.09 140.488 134.37 137.613C134.124 137.584 133.889 137.563 133.642 137.535C132.292 140.308 130.954 143.089 129.617 145.849C119.871 147.317 110.152 148.53 100.36 150.367C96.0908 151.174 91.6326 153.159 87.2785 154.791C79.828 157.586 75.4295 164.643 78.0419 170.701C82.4651 181.022 84.8106 192.472 92.2647 201.151C96.3719 205.947 99.1039 211.787 102.37 217.207C102.595 217.578 102.084 218.408 101.917 219.015C96.313 212.199 90.7085 205.383 84.8391 198.256C84.7646 198.315 83.5407 199.202 82.3408 200.084C81.7723 198.539 81.2049 196.973 80.6364 195.428C80.6642 195.947 80.7033 196.473 80.731 196.991C79.3658 196.893 77.988 196.807 76.6228 196.708C75.3095 192.233 73.9835 187.771 72.7068 183.277C72.4724 182.462 72.5548 181.49 72.2838 180.694C70.9974 176.946 69.6504 173.223 68.3148 169.507C69.2532 168.65 71.0824 167.137 70.9949 167.019C68.5244 163.892 74.1491 160.795 74.5022 157.693C74.6757 156.192 75.6868 154.524 76.315 152.93C75.8574 152.875 75.3998 152.82 74.9421 152.764L70.5921 157.261C71.4693 155.656 72.358 154.058 73.2226 152.466C74.333 151.695 75.4308 150.938 76.5413 150.167C79.1991 148.439 81.8694 146.698 84.5158 144.962C84.6757 145.25 84.8357 145.538 84.9956 145.825C84.7902 146.094 84.5949 146.391 84.4009 146.667C84.3046 147.087 84.2208 147.495 84.1131 147.908C77.5733 152.649 77.2385 153.297 79.5107 158.14C80.6095 155.607 81.4607 153.651 82.3672 151.563C83.5855 150.964 85.108 150.221 86.6305 149.477C87.6052 149.583 88.5925 149.676 90.4951 149.88C89.5939 148.169 89.062 147.19 87.8649 144.898C91.3451 145.207 93.4853 145.392 96.3068 145.646C99.118 141.381 102.686 136.919 108.329 134.105C109.731 133.015 111.072 131.553 112.575 130.943C113.859 130.427 115.321 130.879 116.714 130.911C116.677 131.327 116.651 131.75 116.602 132.179L119.661 129.28C119.905 129.348 120.125 129.423 120.369 129.492C119.81 130.731 119.249 131.99 118.375 133.932C120.918 131.567 122.908 129.737 124.887 127.898L125.636 128.219C125.238 129.121 124.854 130.009 124.797 130.162C128.087 128.932 131.546 127.64 135.004 126.349C135.037 126.787 135.081 127.232 135.126 127.657L135.141 127.604C132.378 132.254 129.614 136.904 126.851 141.555C127.446 141.675 128.066 141.79 128.661 141.91C129.628 140.382 130.631 138.855 131.54 137.311C133.265 134.395 134.954 131.478 136.644 128.561L136.596 128.573C135.998 130.833 135.4 133.094 134.803 135.354C135.122 135.344 135.442 135.334 135.773 135.332C137.142 132.445 138.499 129.551 139.867 126.663C140.294 127.807 140.71 128.944 141.15 130.075C140.009 134.671 138.857 139.26 137.704 143.869L137.702 143.889Z" fill="#C15BDA"/>
<path d="M154.576 117.76C155.024 116.222 156.116 114.395 155.797 113.214C154.252 107.487 157.668 101.823 162.799 96.7258C171.326 88.2504 181.379 81.8967 193.592 83.4288C199.634 84.1859 204.188 86.4812 209.553 87.8617C207.952 89.5172 206.363 91.1596 204.762 92.8151C202.177 92.1651 199.592 91.515 197.007 90.865C195.717 91.2932 194.426 91.7215 193.147 92.1568C189.171 93.3978 185.195 94.6388 181.243 95.8739C178.963 97.2312 176.644 99.2128 174.372 99.8441C167.905 101.622 165.424 106.093 162.613 110.547C163.576 113.194 164.379 115.951 165.55 118.478C166.49 120.527 167.858 122.34 169.041 124.269C169.342 125.355 169.643 126.441 169.931 127.54L169.954 127.554C170.164 128.187 170.375 128.799 170.585 129.431C168.048 129.166 165.523 128.888 162.974 128.616C162.311 128.056 161.659 127.503 160.995 126.943C160.874 126.596 160.765 126.256 160.644 125.909L154.598 117.795L154.576 117.76Z" fill="#C759E2"/>
<path d="M252.446 162.283C252.152 162.643 251.859 163.003 251.565 163.364C244.585 167.956 237.589 172.036 230.17 170.588C228.613 170.537 227.057 170.465 225.5 170.414L225.466 170.393C223.389 169.746 222.651 166.11 218.561 170.017C218.007 169.797 217.465 169.584 216.911 169.364C217.148 168.76 217.779 167.712 217.573 167.604C211.686 164.478 205.37 161.795 199.9 158.239C197.159 156.447 192.258 155.398 194.917 149.931C196.947 149.796 199.549 148.994 200.856 149.662C205.178 151.876 209.032 154.612 213.062 157.166C213.269 158.235 213.465 159.298 213.672 160.367C213.27 165.068 218.517 167.043 225.009 164.655L225.047 164.615C225.813 164.654 226.58 164.673 227.334 164.704L227.382 164.692C228.175 164.288 228.957 163.877 229.749 163.472L229.786 163.453C230.325 163.33 230.876 163.214 231.403 163.103C232.19 162.591 232.965 162.092 233.742 161.573C235.172 159.811 236.602 158.049 238.033 156.287C238.583 156.567 239.134 156.848 239.684 157.128C240.076 157.874 240.48 158.627 240.872 159.373C240.876 159.501 240.88 159.629 240.897 159.744C240.869 159.622 240.841 159.5 240.813 159.378C244.156 156.865 247.5 154.353 250.843 151.84C251.289 151.512 251.734 151.183 252.192 150.842L252.206 150.809C252.933 150.322 253.66 149.834 254.387 149.347C254.554 152.44 254.709 155.545 254.888 158.644C254.058 159.861 253.24 161.085 252.422 162.289L252.446 162.283Z" fill="#C759E2"/>
<path d="M217.701 90.501C224.47 94.6784 231.464 98.6412 237.906 103.137C241.547 105.678 244.728 108.789 247.225 112.268C250.122 116.351 252.032 121.115 254.374 125.584C251.912 124.864 249.426 124.15 246.951 123.443C246.705 122.809 246.696 121.988 246.213 121.562C242.081 117.963 236.73 115.17 233.95 110.701C229.962 104.328 222.627 101.888 215.863 98.6116C215.679 97.1596 215.507 95.6946 215.323 94.2426C215.198 93.9762 215.059 93.7228 214.945 93.4635C215.868 92.4717 216.802 91.4869 217.712 90.5081L217.701 90.501Z" fill="#C459D5"/>
<path d="M230.169 170.567C237.587 172.015 244.595 167.942 251.564 163.342C251.7 163.824 251.835 164.327 251.972 164.809C241.831 174.952 231.265 174.927 221.382 173.761C215.925 173.117 211.018 170.79 206.935 168.141C197.346 161.913 188.289 155.118 179.216 148.377C173.73 144.309 168.594 139.896 163.308 135.64C164.09 134.832 164.87 134.044 165.663 133.243L167.756 134.798C167.901 135.139 168.058 135.467 168.203 135.808C171.803 139.034 175.401 142.279 179 145.505C179.422 145.768 179.843 146.03 180.252 146.306C181.596 147.541 182.75 148.971 184.309 149.984C190.542 154.016 196.814 158.009 203.225 161.858C207.639 164.505 212.343 166.853 216.921 169.35C217.475 169.57 218.017 169.783 218.572 170.003C220.868 170.14 223.166 170.256 225.463 170.392L225.497 170.413C227.055 170.464 228.611 170.536 230.168 170.587L230.169 170.567Z" fill="#721D79"/>
<path d="M76.5937 196.732C77.9589 196.831 79.3367 196.917 80.7019 197.016C80.6742 196.497 80.6351 195.971 80.6073 195.452C81.1758 196.998 81.7431 198.563 82.3116 200.108C83.2158 201.967 83.8739 203.986 85.0493 205.659C89.0981 211.422 93.3198 217.062 97.6875 223.023C97.6623 223.049 98.8769 222.511 100.103 221.98C101.376 224.779 102.637 227.571 103.868 230.281C105.481 230.785 107.198 231.312 109.773 232.123C106.938 233.073 105.466 233.575 103.982 234.071C100.591 230.725 97.2361 227.359 93.8198 224.039C92.1123 222.369 90.3417 220.764 88.609 219.119C85.3798 213.095 82.1747 207.064 78.9456 201.04C78.1814 199.602 77.3933 198.171 76.6051 196.739L76.5937 196.732Z" fill="#A445A6"/>
<path d="M83.1731 148.088C83.2694 147.668 83.3532 147.26 83.4609 146.847C84.1988 146.763 84.9494 146.667 85.6873 146.584C85.1434 146.391 84.5881 146.191 84.0441 145.998C83.8842 145.711 83.7243 145.423 83.5644 145.135C87.0828 141.687 90.787 138.876 95.484 139.589C96.2382 139.433 97.0037 139.283 97.7579 139.126C97.7737 138.864 97.777 138.616 97.7928 138.354C97.0326 138.611 96.2849 138.856 95.5132 139.106C94.3278 135.839 98.3022 135.6 100.12 134.476C102.895 132.759 105.875 131.754 107.378 134.278C101.734 137.092 98.1667 141.554 95.3555 145.819C92.5339 145.565 90.3937 145.38 86.9136 145.071C88.1233 147.35 88.6425 148.342 89.5438 150.053C87.6412 149.849 86.6538 149.756 85.6791 149.65C84.8362 149.125 84.0046 148.606 83.1617 148.081L83.1731 148.088Z" fill="#A445A6"/>
<path d="M246.95 123.437C249.425 124.144 251.899 124.871 254.374 125.578C257.002 132.733 257.285 140.577 254.427 149.326C253.7 149.814 252.973 150.301 252.258 150.795L251.925 150.818C251.722 150.858 251.531 150.885 251.328 150.926C251.173 150.746 251.042 150.56 250.948 150.355C250.885 147.306 250.749 144.276 250.817 141.184C250.843 140.176 251.035 138.959 251.686 137.965C254.813 133.165 252.967 130.468 250.175 127.955C248.796 126.719 248.029 124.945 246.974 123.431L246.95 123.437Z" fill="#BA58C2"/>
<path d="M157.257 125.786C154.259 129.224 151.274 132.65 148.276 136.089C147.43 135.039 146.584 133.968 145.738 132.918C145.542 131.856 145.358 130.781 145.163 129.718C146.259 127.226 147.357 124.713 148.453 122.221C149.532 123.332 150.612 124.444 151.691 125.555C152.089 125.427 152.488 125.279 152.886 125.151C152.509 123.558 152.133 121.965 151.756 120.372C152.436 120.085 153.115 119.798 153.794 119.511C154.944 121.607 156.094 123.703 157.257 125.786Z" fill="#C15BDA"/>
<path d="M157.252 125.785C156.103 123.69 154.953 121.594 153.79 119.511C153.111 119.798 152.432 120.085 151.752 120.372C152.129 121.965 152.505 123.558 152.882 125.151C152.484 125.279 152.085 125.427 151.687 125.555C150.608 124.444 149.528 123.332 148.449 122.22C149.473 120.331 150.509 118.448 151.667 116.307C152.779 116.875 153.663 117.321 154.546 117.767C156.569 120.47 158.568 123.179 160.592 125.882C160.713 126.229 160.822 126.569 160.943 126.916C161.607 127.476 162.259 128.028 162.922 128.588C163.833 130.138 164.744 131.688 165.655 133.238C164.874 134.046 164.093 134.834 163.3 135.635L157.23 125.771L157.252 125.785Z" fill="#732B7F"/>
<path d="M145.164 129.715C145.36 130.777 145.543 131.853 145.739 132.915C144.722 133.305 142.921 133.77 142.831 134.09C142.244 136.169 142.038 138.213 141.7 140.28C141.254 142.572 140.82 144.872 140.386 147.151C139.5 147.935 138.613 148.72 137.715 149.497C137.451 148.977 137.174 148.471 136.91 147.951C137.156 146.621 137.389 145.303 137.635 143.973L137.687 143.901C138.828 139.305 139.992 134.703 141.133 130.107C142.476 129.983 143.808 129.852 145.164 129.715Z" fill="#511760"/>
<path d="M69.6055 157.436L73.9556 152.939C74.4132 152.995 74.8708 153.05 75.3285 153.106C74.7002 154.699 73.6892 156.367 73.5157 157.868C73.1626 160.97 67.5265 164.06 70.0083 167.194C70.0958 167.312 68.2666 168.825 67.3283 169.682C65.6978 166.346 65.2828 162.849 69.5894 158.68C69.6035 158.25 69.6051 157.833 69.6079 157.396L69.6169 157.444L69.6055 157.436Z" fill="#732B7F"/>
<path d="M51.7715 158.566C55.9731 157.111 60.1747 155.655 64.3763 154.2C64.6383 154.363 64.8637 154.545 65.1257 154.709L65.118 154.641C64.3392 156.768 63.5479 158.907 62.7577 161.026C59.0957 160.206 55.4336 159.386 51.7715 158.566Z" fill="#A790A9"/>
<path d="M217.699 90.4952C216.776 91.487 215.842 92.4717 214.919 93.4636C212.49 90.8213 208.378 92.1654 204.457 93.0854L204.722 92.8116C206.334 91.1633 207.912 89.5138 209.513 87.8583C212.238 88.7416 214.975 89.6119 217.699 90.4952Z" fill="#BA58C2"/>
<path d="M51.7824 158.573C55.4445 159.393 59.1066 160.213 62.7687 161.033C63.0551 161.378 63.329 161.737 63.6154 162.083C63.4592 162.32 63.2916 162.55 63.1241 162.78C60.4152 162.616 57.7304 162.447 55.0215 162.284C53.8751 162.28 52.7414 162.263 51.5836 162.252C51.7248 162.068 51.7219 161.92 51.5738 161.828C50.8583 161.737 50.1427 161.646 49.4271 161.555C49.0251 160.97 48.6117 160.378 48.2097 159.793C49.3678 159.408 50.5386 159.009 51.6967 158.624L51.7812 158.593L51.7824 158.573Z" fill="#CAB8CE"/>
<path d="M139.874 126.693C138.505 129.58 137.148 132.474 135.78 135.361C135.46 135.371 135.14 135.38 134.809 135.383C135.407 133.123 136.004 130.862 136.602 128.602C137.167 127.868 137.72 127.126 138.297 126.378C138.823 126.476 139.349 126.574 139.886 126.679L139.874 126.693Z" fill="#883B8F"/>
<path d="M138.281 126.384C137.716 127.119 137.163 127.861 136.586 128.609L136.634 128.597C136.133 128.284 135.62 127.965 135.119 127.652L135.104 127.706C135.381 127.419 135.671 127.119 135.937 126.825C136.714 126.683 137.491 126.54 138.268 126.398L138.281 126.384Z" fill="#C15BDA"/>
<path d="M252.448 162.287C253.278 161.07 254.097 159.846 254.914 158.643C254.084 159.859 253.265 161.083 252.448 162.287Z" fill="#721D79"/>
<path d="M65.1197 154.709C65.2555 154.607 65.3912 154.504 65.5269 154.402C65.3923 154.484 65.2577 154.566 65.1117 154.642L65.1072 154.722L65.1197 154.709Z" fill="#A790A9"/>
<path d="M69.6153 157.387C69.6011 157.817 69.5995 158.234 69.5967 158.671C69.6109 158.241 69.6125 157.824 69.6153 157.387Z" fill="#C15BDA"/>
<path d="M135.954 126.816C135.676 127.103 135.386 127.402 135.12 127.696C135.088 127.258 135.044 126.813 134.998 126.388C135.321 126.526 135.631 126.677 135.954 126.816Z" fill="#732B7F"/>
<path d="M115.459 234.543C120.653 237.593 125.849 240.622 131.03 243.685C132.012 244.255 132.932 244.87 134.197 245.659C135.323 244.626 136.537 243.503 138.152 242.023C139.177 243.832 140.172 245.559 141.281 247.546C147.723 243.057 149.065 248.031 152.44 249.508C151.455 249.751 150.47 250.014 149.499 250.245C147.388 250.747 145.278 251.229 143.18 251.718C141.641 251.95 140.09 252.194 138.551 252.426C129.306 248.147 120.048 243.881 110.803 239.602C112.359 237.918 113.902 236.247 115.458 234.564L115.459 234.543Z" fill="#C15BDA"/>
<path d="M143.168 251.698C145.277 251.216 147.376 250.727 149.487 250.225C150.458 249.994 151.454 249.738 152.427 249.488C153.683 249.435 155.23 249.856 156.128 249.267C164.338 243.894 171.648 244.794 179.21 243.866C181.13 242.807 183.392 241.563 186.376 239.913C185.525 242.245 185.071 243.508 184.617 244.751C174.312 248.628 163.994 252.518 153.772 253.042C153.321 253.075 152.883 253.094 152.432 253.126L152.276 253.155C151.863 253.148 151.45 253.141 151.036 253.134C150.685 253.082 150.333 253.03 149.982 252.978C147.912 253.192 145.842 253.407 143.785 253.608L143.751 253.587C143.554 252.941 143.368 252.303 143.158 251.671L143.168 251.698Z" fill="#C375CA"/>
<path d="M115.461 234.543C113.905 236.227 112.362 237.898 110.806 239.582C108.529 237.745 106.253 235.908 103.987 234.078C105.471 233.582 106.944 233.079 109.779 232.13C107.215 231.326 105.486 230.792 103.874 230.288C102.643 227.578 101.382 224.786 100.109 221.986C100.588 221.679 101.069 221.352 101.549 221.045C105.527 224.256 109.618 227.37 113.446 230.718C114.513 231.654 114.818 233.245 115.461 234.543Z" fill="#883B8F"/>
<path d="M143.173 251.695C143.37 252.341 143.569 252.966 143.766 253.611C142.028 253.218 140.292 252.804 138.555 252.411C140.094 252.179 141.645 251.934 143.184 251.702L143.173 251.695Z" fill="#883B8F"/>
<path d="M143.791 253.622C145.861 253.408 147.918 253.207 149.988 252.992C147.918 253.207 145.848 253.421 143.791 253.622Z" fill="#883B8F"/>
<path d="M42.6345 158.164C43.1447 158.524 43.6548 158.883 44.165 159.243C43.5419 159.774 42.9313 160.292 42.3082 160.823C41.5459 161.309 40.7963 161.782 40.0454 162.275C39.6741 162.942 39.3154 163.596 38.9441 164.263C32.5215 166.089 29.8499 171.173 26.1767 175.423C20.7362 181.727 13.9368 182.942 11.4868 177.717C10.66 175.948 11.3926 172.435 12.9991 170.302C16.148 166.122 20.3618 162.313 24.238 158.419C26.4157 156.224 29.514 154.248 27.6855 151.646C27.792 150.667 27.8984 149.689 28.0049 148.711C28.242 148.503 28.445 148.274 28.5898 148.03C36.178 144.131 36.7813 144.319 36.7907 150.614C36.7953 151.515 37.1689 152.375 36.8663 153.273C35.2874 158.076 37.9374 159.018 42.6573 158.178L42.6345 158.164Z" fill="#F2F0EF"/>
<path d="M42.6387 158.159C37.9187 158.999 35.2801 158.064 36.8477 153.254C37.1388 152.349 36.7653 151.489 36.7721 150.595C36.7501 144.313 36.1594 144.112 28.5711 148.011C26.4465 145.224 24.4785 142.389 27.1094 137.781C30.8275 134.938 34.3337 131.691 38.2919 129.373C42.8989 126.687 45.7552 128.321 44.9243 132.483C44.2621 135.811 43.5404 139.143 42.8416 142.489C41.3078 149.87 42.751 152.002 50.2451 153.372C51.3553 153.583 52.4654 153.795 53.5756 154.006C49.9224 155.386 46.2805 156.772 42.6273 158.152L42.6387 158.159Z" fill="#CAB8CE"/>
<path d="M42.3082 160.82C42.9313 160.289 43.5418 159.771 44.165 159.24C44.5406 160.456 44.9289 161.659 45.3045 162.875C44.0098 163.176 42.6909 163.482 41.3847 163.775C41.4006 163.513 41.3924 163.258 41.3716 163.015C41.6758 162.285 41.98 161.555 42.3082 160.82Z" fill="#CAB8CE"/>
<path d="M38.9278 164.248C39.2991 163.581 39.6578 162.927 40.0291 162.26C40.4746 162.516 40.9213 162.753 41.3668 163.01C41.3876 163.253 41.3957 163.508 41.3799 163.77C40.5663 163.932 39.7414 164.086 38.9278 164.248Z" fill="#CAB8CE"/>
<path d="M58.2173 153.143C56.6633 153.428 55.0969 153.726 53.5543 154.018C55.1083 153.733 56.6747 153.435 58.2173 153.143Z" fill="#CAB8CE"/>
<path d="M51.5897 162.238C52.736 162.242 53.8812 162.266 55.0275 162.271C54.5988 162.714 54.1815 163.164 53.7642 163.614C53.0351 163.16 52.3187 162.692 51.6023 162.225L51.5897 162.238Z" fill="#3C2C3D"/>
<path d="M188.289 234.808L183.129 231.591C186.202 231.982 188.255 232.237 190.32 232.5C190.678 232.055 191.023 231.622 191.392 231.184C190.269 230.212 189.158 229.227 188.698 228.815C194.02 221.163 200.533 213.919 203.832 206.489C207.118 199.051 207.201 191.434 208.74 183.576C217.277 182.943 225.447 182.331 234.032 181.685C233.414 182.909 232.916 183.915 232.244 185.251C233.406 184.994 234.354 184.769 235.144 184.594C225.19 204.549 210.229 221.696 188.3 234.815L188.289 234.808Z" fill="#E199F3"/>
<path d="M179.972 200.513C177.783 205.25 174.176 206.846 169.516 206.49C166.186 206.233 162.751 206.16 159.439 205.997C154.041 213.957 150.19 215.088 143.605 210.984C140.906 209.301 137.555 208.215 135.327 206.158C130.514 201.695 126.236 196.793 121.76 192.039C119.671 189.838 117.67 188.528 113.681 192.916C112.491 194.222 109.469 195.326 107.68 195.382C98.0618 195.717 93.0784 191.336 92.6997 182.743C92.6198 180.938 92.613 179.095 92.7251 177.242C93.0997 170.852 91.439 169.775 83.8435 171.644C83.1475 171.816 82.4738 171.814 80.0087 172.116C82.4716 170.287 84.0262 168.623 84.7922 168.662C88.2178 168.896 92.4603 168.719 94.4018 170.431C96.2647 172.073 96.5158 175.74 95.9438 178.747C94.4414 186.586 99.3644 193.332 107.962 193.259C109.512 193.243 111.993 192.094 113.378 190.889C118.804 186.185 120.544 186.141 124.178 189.576C130.832 195.855 137.909 201.771 144.9 207.758C145.855 208.583 147.116 209.223 148.466 209.583C151.316 210.336 153.994 211.211 156.263 206.336C157.703 203.243 160.864 201.787 164.23 202.611C166.642 203.195 169.152 204.299 172.212 201.192C173.844 204.508 176.787 202.957 179.985 200.5L179.972 200.513Z" fill="#A445A6"/>
<path d="M101.542 221.046C101.062 221.353 100.582 221.68 100.102 221.987C98.8761 222.519 97.6501 223.05 97.6867 223.031C93.3189 217.07 89.0973 211.43 85.0485 205.667C83.873 203.994 83.215 201.975 82.3108 200.116C83.5347 199.228 84.7347 198.347 84.8091 198.289C90.6785 205.416 96.283 212.231 101.888 219.047C101.764 219.722 101.653 220.384 101.529 221.059L101.542 221.046Z" fill="#732B7F"/>
<path d="M188.288 234.81C187.927 237.468 186.435 237.499 184.608 236.841C180.351 235.295 176.095 233.749 171.791 232.195C173.292 234.155 174.837 236.163 176.37 238.184C175.876 238.544 175.381 238.904 174.874 239.278C170.416 236.562 167.905 232.343 165.345 228.156C165.849 227.635 166.354 227.114 166.847 226.585C172.21 229.176 177.51 231.852 183.013 234.28C184.406 234.897 186.512 234.664 188.288 234.81Z" fill="#A445A6"/>
<path d="M137.711 149.502C138.597 148.718 139.484 147.933 140.382 147.156C140.747 149.723 141.364 152.219 141.381 154.882C141.396 157.169 140.701 159.662 140.32 162.057C139.59 162.208 138.884 162.352 138.154 162.503C138.002 158.167 137.851 153.831 137.711 149.502Z" fill="#732B7F"/>
<path d="M179.98 200.513C176.782 202.97 173.828 204.514 172.207 201.205C174.24 198.67 176.284 196.141 178.317 193.605C178.798 193.467 179.281 193.308 179.762 193.169C179.838 195.619 179.915 198.07 179.98 200.513Z" fill="#471D51"/>
<path d="M141.702 140.269C142.028 138.215 142.247 136.158 142.833 134.079C142.924 133.759 144.736 133.301 145.741 132.904C146.588 133.954 147.433 135.024 148.28 136.074C146.092 137.468 143.903 138.862 141.704 140.249L141.702 140.269Z" fill="#A445A6"/>
<path d="M129.596 145.863C130.946 143.089 132.284 140.309 133.621 137.549C133.868 137.577 134.103 137.598 134.349 137.626C134.082 140.489 133.803 143.345 133.522 146.221C133.074 146.986 132.626 147.751 131.912 148.999C131.016 147.793 130.306 146.828 129.595 145.883L129.596 145.863Z" fill="#883B8F"/>
<path d="M241.638 180.522L239.059 182.508C238.86 182.28 238.685 182.045 238.486 181.817C239.376 181.18 240.241 180.55 241.131 179.913C241.296 180.12 241.461 180.327 241.638 180.522Z" fill="#883B8F"/>
<path d="M135.119 127.659C135.621 127.971 136.133 128.291 136.634 128.603C134.945 131.52 133.256 134.437 131.531 137.353C130.622 138.897 129.608 140.417 128.652 141.952C128.057 141.832 127.437 141.717 126.841 141.597C129.605 136.946 132.368 132.296 135.132 127.646L135.119 127.659Z" fill="#732B7F"/>
<path d="M83.1624 148.09C84.0053 148.616 84.8369 149.134 85.6798 149.659C84.1573 150.403 82.6348 151.146 81.4165 151.745C80.4974 153.847 79.6589 155.789 78.5601 158.322C76.2879 153.479 76.6225 152.831 83.1624 148.09Z" fill="#732B7F"/>
<path d="M84.0468 146.01C84.5907 146.203 85.146 146.402 85.6899 146.595C84.952 146.679 84.2015 146.775 83.4636 146.858C83.6462 146.575 83.8528 146.286 84.0582 146.017L84.0468 146.01Z" fill="#732B7F"/>
<path d="M169 124.27C167.828 122.348 166.46 120.535 165.508 118.479C164.35 115.939 163.535 113.195 162.572 110.547C164.852 110.569 167.143 110.597 169.411 110.631C171.199 110.388 172.963 110.15 174.751 109.906C174.911 111.741 175.084 113.582 175.232 115.43C174.758 117.788 167.859 119.673 171.99 122.707C173.165 121.663 174.165 120.761 175.153 119.873C175.669 120.132 176.161 120.397 176.677 120.656C176.376 124.271 176.468 127.63 181.471 128.366C179.414 129.152 177.368 129.946 175.311 130.732C173.508 129.671 171.717 128.596 169.925 127.542L169.902 127.528C169.602 126.442 169.301 125.356 169.013 124.257L169 124.27Z" fill="#883B8F"/>
<path d="M165.661 133.247C164.75 131.697 163.839 130.147 162.928 128.597C165.465 128.862 167.99 129.14 170.539 129.413C176.854 132.68 179.993 137.855 178.998 145.509C175.399 142.283 171.801 139.037 168.201 135.812C168.056 135.471 167.899 135.143 167.754 134.802C167.053 134.281 166.363 133.767 165.661 133.247Z" fill="#BA58C2"/>
<path d="M169.422 110.618C167.142 110.596 164.85 110.568 162.583 110.534C165.392 106.1 167.886 101.616 174.341 99.831C176.614 99.1997 178.919 97.2312 181.213 95.8608C181.213 95.8608 181.181 96.196 181.169 96.1889C177.25 100.996 173.343 105.79 169.423 110.597L169.422 110.618Z" fill="#721D79"/>
<path d="M179.007 145.507C180.002 137.853 176.863 132.679 170.548 129.411C170.338 128.779 170.126 128.167 169.916 127.534C171.72 128.596 173.511 129.67 175.303 130.725C178.012 130.491 180.721 130.257 183.716 129.993C181.304 132.731 179.535 135.41 183.645 136.447C184.087 136.555 183.591 138.126 183.526 139.005C183.302 140.161 183.077 141.337 182.854 142.493L182.902 142.482C182.911 142.906 182.921 143.33 182.918 143.767C183.073 143.947 183.229 144.106 183.396 144.273C182.351 144.938 181.294 145.616 180.249 146.281C179.827 146.019 179.406 145.756 178.997 145.48L179.007 145.507Z" fill="#732B7F"/>
<path d="M181.214 95.8809C185.189 94.6399 189.165 93.3989 193.117 92.1639C193.08 92.3913 193.09 92.6069 193.174 92.7845C191.53 93.7862 189.898 94.7748 187.664 96.1404C189.833 98.3908 191.912 100.564 193.991 102.738C193.204 103.626 192.418 104.515 191.529 105.528C190.549 104.918 189.843 104.477 189.137 104.037C188.738 103.204 188.339 102.37 187.952 101.544C184.531 100.832 181.411 99.8486 181.181 96.2161L181.214 95.8809Z" fill="#721D79"/>
<path d="M196.979 90.8725C199.564 91.5226 202.149 92.1726 204.734 92.8227L204.458 93.0893C201.978 92.4629 199.486 91.8294 196.994 91.216L196.967 90.8856L196.979 90.8725Z" fill="#883B8F"/>
<path d="M193.119 92.1605C194.41 91.7323 195.7 91.304 196.98 90.8686C196.98 90.8686 197.007 91.1991 196.995 91.192C196.747 91.789 196.485 92.3992 196.236 92.9963C195.212 92.9222 194.188 92.8481 193.177 92.761C193.093 92.5834 193.07 92.3808 193.12 92.1404L193.119 92.1605Z" fill="#883B8F"/>
<path d="M168.995 124.269C169.295 125.355 169.596 126.441 169.884 127.54C169.584 126.454 169.283 125.368 168.995 124.269Z" fill="#732B7F"/>
<path d="M180.258 146.308C181.303 145.643 182.36 144.965 183.405 144.3C183.516 145.205 183.318 146.335 183.799 146.97C184.806 148.308 185.9 149.763 187.565 150.382C188.258 150.647 190.467 148.911 191.994 148.087C192.974 148.698 193.954 149.308 194.945 149.926C192.273 155.406 197.174 156.456 199.927 158.234C205.386 161.783 211.702 164.466 217.6 167.599C217.794 167.72 217.188 168.743 216.938 169.36C212.359 166.882 207.668 164.522 203.242 161.867C196.819 158.031 190.547 154.038 184.326 149.993C182.768 148.98 181.613 147.55 180.269 146.315L180.258 146.308Z" fill="#BA58C2"/>
<path d="M213.705 160.341C213.498 159.272 213.302 158.209 213.095 157.14C213.559 156.886 214.446 156.498 214.429 156.384C214.43 155.005 214.274 153.675 214.166 152.333C214.897 152.559 215.802 153.228 216.316 152.942C222.829 149.417 222.908 153.979 224.766 156.287C221.37 160.251 217.6 160.826 213.694 160.334L213.705 160.341Z" fill="#BA58C2"/>
<path d="M214.18 152.329C214.288 153.671 214.432 155.014 214.444 156.379C214.437 156.5 213.574 156.882 213.11 157.136C209.067 154.595 205.226 151.846 200.904 149.632C199.596 148.963 196.971 149.771 194.965 149.9C193.986 149.29 192.995 148.672 192.015 148.061C191.876 147.035 191.75 145.995 191.55 144.408C199.608 147.215 206.912 149.763 214.217 152.31L214.18 152.329Z" fill="#883B8F"/>
<path d="M213.695 160.339C217.601 160.831 221.384 160.243 224.767 156.292C225.308 156.525 225.839 156.751 226.38 156.984C226.172 157.294 225.929 157.602 225.757 157.912C225.69 158.038 225.775 158.195 225.79 158.33C226.87 157.875 227.961 157.426 228.761 157.09C227.443 159.736 226.231 162.178 225.02 164.62C218.528 167.009 213.281 165.033 213.683 160.332L213.695 160.339ZM220.55 161.917C220.659 162.068 220.767 162.24 220.876 162.392C221.538 161.99 222.189 161.581 222.852 161.179C222.723 160.973 222.605 160.774 222.475 160.568C221.846 161.011 221.192 161.461 220.562 161.904L220.55 161.917Z" fill="#A836B2"/>
<path d="M239.723 157.111C239.172 156.831 238.622 156.55 238.071 156.27C236.759 155.89 235.445 155.531 234.132 155.151C235.826 153.533 237.565 151.942 239.19 150.281C240.565 148.86 242.046 147.422 243.109 145.87C244.406 143.983 245.283 141.981 246.347 140.032C246.399 141.715 246.451 143.398 246.502 145.081C245.517 146.515 244.368 147.929 243.57 149.396C242.174 151.953 241.001 154.544 239.735 157.098L239.723 157.111Z" fill="#BA58C2"/>
<path d="M239.713 157.111C240.98 154.537 242.165 151.953 243.548 149.41C244.346 147.943 245.495 146.528 246.48 145.094C246.782 146.557 246.75 148.251 247.533 149.386C248.055 150.13 249.749 150.078 250.925 150.372C251.03 150.584 251.161 150.77 251.315 150.95C251.12 151.246 250.96 151.543 250.871 151.843C247.528 154.356 244.184 156.869 240.841 159.381L240.913 159.363C240.52 158.617 240.117 157.864 239.724 157.118L239.713 157.111Z" fill="#732B7F"/>
<path d="M225.038 164.629C226.25 162.187 227.461 159.746 228.78 157.099C227.992 157.423 226.9 157.891 225.809 158.34C225.793 158.204 225.708 158.047 225.775 157.921C225.947 157.611 226.191 157.303 226.399 156.994C229.248 153.859 230.535 155.832 232.176 156.646C235.511 159.352 228.223 158.883 229.316 160.943C230.746 161.145 232.258 161.356 233.794 161.562C233.006 162.074 232.232 162.573 231.444 163.085C230.905 163.208 230.354 163.325 229.827 163.435L229.79 163.454C228.998 163.858 228.216 164.27 227.423 164.674L227.375 164.686C226.621 164.654 225.854 164.636 225.099 164.604L225.061 164.643L225.038 164.629Z" fill="#BA58C2"/>
<path d="M233.783 161.554C232.26 161.336 230.735 161.138 229.305 160.936C228.212 158.876 235.488 159.358 232.177 156.646C232.845 156.143 233.49 155.647 234.147 155.137C235.46 155.517 236.774 155.876 238.087 156.256C236.657 158.018 235.226 159.779 233.796 161.541L233.783 161.554Z" fill="#883B8F"/>
<path d="M225.476 170.372C223.167 170.249 220.881 170.12 218.584 169.984C222.674 166.076 223.412 169.712 225.476 170.372Z" fill="#BA58C2"/>
<path d="M229.819 163.427C230.358 163.303 230.909 163.187 231.436 163.077C230.896 163.2 230.346 163.316 229.819 163.427Z" fill="#A836B2"/>
<path d="M240.863 159.367C240.891 159.488 240.919 159.609 240.947 159.73C240.943 159.603 240.939 159.476 240.922 159.362L240.851 159.38L240.863 159.367Z" fill="#732B7F"/>
<path d="M250.889 151.829C250.978 151.529 251.127 151.225 251.333 150.936C251.537 150.896 251.74 150.855 251.931 150.828L252.249 150.838C251.804 151.167 251.358 151.495 250.9 151.836L250.889 151.829Z" fill="#BA58C2"/>
<path d="M252.233 150.846C252.233 150.846 251.907 150.828 251.918 150.835C251.929 150.842 252.258 150.82 252.247 150.813L252.222 150.839L252.233 150.846Z" fill="#732B7F"/>
<path d="M250.931 150.367C249.755 150.073 248.061 150.125 247.539 149.381C246.757 148.246 246.788 146.552 246.487 145.09C246.435 143.407 246.383 141.724 246.331 140.041C246.39 139.451 246.437 138.874 246.496 138.284C246.918 137.168 247.353 136.039 247.775 134.923C247.739 134.545 247.714 134.175 247.678 133.797C247.101 132.392 246.536 130.975 245.959 129.571C245.97 128.804 245.957 128.044 245.968 127.278C244.871 127.827 243.774 128.376 242.688 128.932C242.184 128.66 241.681 128.387 241.177 128.115C242.396 125.364 243.988 122.491 241.152 120.912L234.638 116.225C233.231 115.264 231.823 114.303 230.416 113.342C230.004 112.521 229.593 111.701 229.193 110.887C228.168 109.455 227.144 108.022 226.132 106.577C222.457 104.599 218.795 102.609 215.12 100.632C214.554 100.802 213.976 100.984 213.41 101.154C212.982 100.804 212.553 100.474 212.125 100.123C213.372 99.6262 214.621 99.1092 215.869 98.6123C222.62 101.901 229.979 104.336 233.956 110.701C236.748 115.158 242.099 117.95 246.219 121.563C246.701 121.989 246.735 122.804 246.956 123.443C247.999 124.971 248.779 126.731 250.158 127.967C252.949 130.48 254.796 133.177 251.669 137.977C251.017 138.971 250.814 140.181 250.8 141.197C250.744 144.275 250.88 147.306 250.931 150.367Z" fill="#721D79"/>
<path d="M215.856 98.5993C214.608 99.0962 213.359 99.6132 212.112 100.11C209.5 99.9031 206.864 99.702 204.253 99.4949C205.703 97.5991 207.142 95.6962 208.208 94.2921C210.928 94.2741 213.128 94.2457 215.316 94.2303C215.5 95.6823 215.671 97.1473 215.856 98.5993Z" fill="#883B8F"/>
<path d="M215.32 94.2433C213.133 94.2587 210.932 94.2871 208.213 94.3051C207.147 95.7092 205.696 97.605 204.257 99.5079C203.994 99.3647 203.731 99.2215 203.455 99.0914C202.158 97.4683 200.838 95.8511 199.541 94.2279C198.43 93.8282 197.344 93.4225 196.233 93.0228C196.494 92.4127 196.743 91.8156 196.992 91.2186C199.484 91.8521 201.963 92.4785 204.456 93.0919C208.377 92.1719 212.489 90.8278 214.918 93.4701C215.044 93.7365 215.182 93.9899 215.296 94.2492L215.32 94.2433Z" fill="#721D79"/>
<path d="M167.755 134.799C167.9 135.14 168.045 135.481 168.202 135.81C168.057 135.468 167.9 135.14 167.755 134.799Z" fill="#732B7F"/>
<path d="M41.4001 163.016C40.9546 162.759 40.5079 162.523 40.0624 162.266C40.8247 161.78 41.5743 161.307 42.3366 160.821C42.0324 161.551 41.7282 162.281 41.4127 163.003L41.4001 163.016Z" fill="#D1BAD0"/>
<path d="M203.454 99.0871C203.717 99.2303 203.98 99.3734 204.256 99.5036C206.868 99.7107 209.503 99.9118 212.115 100.119C212.543 100.469 212.972 100.799 213.4 101.15C213.966 100.98 214.544 100.797 215.11 100.628C218.785 102.605 222.447 104.595 226.122 106.572C224.52 106.869 222.876 107.286 221.306 107.436C219.796 107.581 218.361 107.46 216.884 107.458L216.503 107.305L216.173 107.099C212.202 101.615 204.093 108.449 198.132 108.119L201.697 110.341C202.244 112.06 202.778 113.773 203.324 115.492C204.584 123.591 211.078 127.033 219.578 128.382C221.276 128.646 224.141 126.817 226.451 125.958C231.246 122.7 231.939 116.905 227.809 114.456L226.635 113.725C225.435 111.681 227.599 111.463 229.169 110.916C229.581 111.737 229.992 112.557 230.392 113.371C231.8 114.332 233.207 115.293 234.615 116.254C236.79 117.818 238.953 119.376 241.128 120.941C239.791 122.531 237.407 124.429 237.418 125.607C237.44 126.811 239.808 127.326 241.142 128.137C241.646 128.409 242.15 128.681 242.653 128.953C242.914 129.137 243.162 129.333 243.423 129.517C243.462 129.646 243.49 129.768 243.53 129.897C243.49 129.768 243.451 129.639 243.412 129.51C244.25 129.531 245.099 129.559 245.937 129.579C246.514 130.984 247.078 132.401 247.655 133.806C247.68 134.176 247.717 134.554 247.753 134.932C247.331 136.048 246.896 137.177 246.474 138.293C246.415 138.883 246.368 139.459 246.309 140.049C245.245 141.998 244.367 144 243.071 145.888C242.021 147.427 240.55 148.871 239.152 150.298C237.527 151.96 235.787 153.55 234.094 155.169C233.436 155.678 232.78 156.168 232.123 156.677C230.482 155.863 229.207 153.878 226.345 157.025C225.804 156.792 225.262 156.559 224.732 156.333C222.874 154.026 222.795 149.463 216.282 152.988C215.768 153.274 214.852 152.598 214.132 152.379C206.827 149.832 199.522 147.285 191.465 144.477C191.665 146.064 191.803 147.091 191.93 148.131C190.402 148.955 188.193 150.691 187.5 150.426C185.835 149.806 184.754 148.338 183.735 147.014C183.253 146.379 183.451 145.249 183.34 144.344C183.173 144.177 183.03 144.004 182.863 143.838C182.853 143.414 182.843 142.99 182.846 142.552L182.798 142.564C183.022 141.408 183.246 140.232 183.47 139.076C183.524 138.19 184.032 136.626 183.589 136.518C179.479 135.481 181.261 132.789 183.66 130.064C180.678 130.315 177.956 130.562 175.247 130.795C177.304 130.009 179.35 129.216 181.407 128.429C176.417 127.68 176.312 124.334 176.613 120.719C180.807 117.629 184.283 114.3 184.544 109.594C183.784 110.04 183.159 110.403 182.533 110.786C181.745 110.336 180.943 109.9 180.166 109.457C179.927 109.308 179.713 109.133 179.523 108.952C179.803 108.625 180.082 108.318 180.362 107.991C180.626 107.717 180.914 107.457 181.213 107.205C182.017 106.808 182.821 106.411 183.614 106.006C185.833 109.771 187.26 104.936 189.048 104.107L191.44 105.598C192.342 104.572 193.128 103.683 193.902 102.808L193.818 102.838C197.427 104.524 200.413 102.06 203.355 99.1511L203.454 99.0871ZM190.213 140.751C193.833 138.933 196.041 138.199 197.647 136.859C198.406 136.225 197.993 134.463 198.116 133.203C196.306 133.809 194.186 134.076 192.786 135.146C191.696 135.971 191.478 137.82 190.225 140.738L190.213 140.751Z" fill="#C759E2"/>
<path d="M181.272 107.138C180.973 107.39 180.696 107.657 180.42 107.923C180.14 108.25 179.862 108.557 179.582 108.884C179.796 109.06 179.999 109.228 180.225 109.39C179.744 109.925 179.262 110.461 178.756 111.003C177.407 110.642 176.082 110.276 174.732 109.915C172.945 110.159 171.181 110.397 169.393 110.64C173.312 105.833 177.232 101.026 181.139 96.2318C181.367 99.8843 184.476 100.861 187.909 101.559C186.485 103.032 185.072 104.492 183.648 105.965C182.843 106.362 182.039 106.759 181.246 107.164L181.272 107.138ZM176.246 106.387C176.004 106.863 175.677 107.391 175.747 107.413C176.093 107.545 176.53 107.546 176.929 107.607C177.089 107.309 177.436 106.837 177.335 106.752C177.088 106.536 176.641 106.508 176.246 106.387Z" fill="#A445A6"/>
<path d="M182.612 110.704C183.249 110.328 183.874 109.965 184.623 109.513C184.362 114.218 180.874 117.56 176.692 120.637C176.176 120.378 175.684 120.113 175.167 119.854C177.645 116.802 180.134 113.756 182.612 110.704Z" fill="#A841B1"/>
<path d="M182.617 110.706C180.139 113.758 177.65 116.803 175.172 119.855C174.184 120.744 173.197 121.633 172.01 122.69C167.89 119.663 174.777 117.791 175.263 115.42C176.44 113.939 177.617 112.458 178.782 110.989C179.263 110.454 179.769 109.912 180.25 109.377C181.039 109.826 181.84 110.263 182.617 110.706Z" fill="#BA58C2"/>
<path d="M178.771 110.991C177.594 112.472 176.417 113.953 175.252 115.421C175.092 113.586 174.932 111.732 174.771 109.897C176.109 110.251 177.446 110.624 178.795 110.985L178.771 110.991Z" fill="#511760"/>
<path d="M182.908 142.511C182.918 142.935 182.928 143.359 182.925 143.796C182.915 143.372 182.905 142.948 182.908 142.511Z" fill="#BA58C2"/>
<path d="M196.243 93.0069C197.354 93.4067 198.441 93.8123 199.551 94.2121C197.478 95.657 195.429 97.0959 193.392 98.5218C194.189 98.8305 195.354 99.306 196.74 99.856L193.928 102.763C193.928 102.763 194 102.745 194.012 102.732C191.933 100.559 189.854 98.3851 187.685 96.1347C189.919 94.7691 191.564 93.7674 193.196 92.7788C194.22 92.8528 195.231 92.94 196.255 93.014L196.243 93.0069Z" fill="#BA58C2"/>
<path d="M183.681 105.944C185.106 104.471 186.518 103.011 187.943 101.538C188.342 102.371 188.741 103.205 189.128 104.031C187.328 104.873 185.913 109.696 183.681 105.944Z" fill="#BA58C2"/>
<path d="M220.562 161.919C221.192 161.476 221.845 161.027 222.475 160.584C222.604 160.79 222.722 160.989 222.852 161.195C222.189 161.596 221.538 162.005 220.875 162.407C220.766 162.256 220.658 162.084 220.549 161.933L220.562 161.919Z" fill="#BA58C2"/>
<path d="M229.193 110.868C227.624 111.415 225.447 111.646 226.647 113.689C223.393 111.598 220.137 109.527 216.883 107.436C218.36 107.438 219.795 107.559 221.305 107.414C222.875 107.264 224.519 106.847 226.121 106.55C227.146 107.983 228.17 109.415 229.182 110.861L229.193 110.868Z" fill="#C459D5"/>
<path d="M241.182 128.099C239.836 127.281 237.467 126.786 237.458 125.569C237.435 124.384 239.83 122.493 241.168 120.902C244.004 122.482 242.413 125.335 241.193 128.106L241.182 128.099ZM239.809 124.799C239.954 125.14 240.038 125.506 240.26 125.748C240.316 125.804 241.131 125.414 241.149 125.32C241.196 124.932 241.062 124.598 241.001 124.246C240.673 124.397 240.344 124.547 239.809 124.799Z" fill="#BA58C2"/>
<path d="M243.474 129.483C243.213 129.299 242.965 129.103 242.705 128.92C243.802 128.371 244.899 127.822 245.984 127.266C245.973 128.032 245.974 128.805 245.976 129.559C245.138 129.538 244.288 129.51 243.45 129.489L243.474 129.483Z" fill="#BA58C2"/>
<path d="M193.921 102.757L196.732 99.8504C195.347 99.3004 194.169 98.838 193.385 98.5162C195.409 97.1034 197.482 95.6585 199.544 94.2065C200.841 95.8296 202.162 97.4468 203.458 99.0699C200.529 101.966 197.543 104.43 193.921 102.757Z" fill="#883B8F"/>
<path d="M226.478 125.935C224.156 126.807 221.303 128.623 219.605 128.358C211.105 127.009 204.611 123.567 203.351 115.469C205.999 112.543 208.307 108.779 212.779 110.48C212.33 111.057 211.87 111.627 211.421 112.204C209.008 116.341 211.134 123.789 215.337 123.483C217.701 123.306 221.204 125.97 223.643 120.825C224.692 122.043 225.742 123.241 226.78 124.452C226.68 124.933 226.579 125.434 226.479 125.915L226.478 125.935Z" fill="#ECB1F1"/>
<path d="M212.774 110.488C208.315 108.775 205.995 112.552 203.347 115.477C202.801 113.758 202.266 112.045 201.72 110.326C206.549 109.241 211.379 108.156 216.195 107.084L216.526 107.29L216.894 107.456C220.148 109.548 223.404 111.619 226.658 113.71C227.057 113.958 227.444 114.2 227.831 114.441C227.177 115.287 226.499 116.139 225.845 116.985C223.71 115.738 221.574 114.511 219.45 113.271C217.225 112.343 214.998 111.436 212.773 110.508L212.774 110.488Z" fill="#883B8F"/>
<path d="M216.197 107.076C211.368 108.161 206.538 109.246 201.722 110.318C200.525 109.573 199.341 108.834 198.156 108.096C204.117 108.427 212.226 101.592 216.197 107.076Z" fill="#C459D5"/>
<path d="M190.227 140.748C191.491 137.838 191.698 135.982 192.788 135.157C194.188 134.086 196.308 133.82 198.118 133.214C198.007 134.461 198.421 136.223 197.649 136.87C196.055 138.197 193.835 138.944 190.215 140.761L190.227 140.748Z" fill="#732B7F"/>
<path d="M225.842 116.969C226.496 116.123 227.174 115.271 227.828 114.425C231.946 116.887 231.266 122.669 226.458 125.94C226.558 125.459 226.659 124.958 226.759 124.477C226.449 121.985 226.14 119.474 225.842 116.969Z" fill="#C459D5"/>
<path d="M181.276 107.135C182.08 106.738 182.885 106.341 183.677 105.937C182.873 106.334 182.069 106.731 181.276 107.135Z" fill="#BA58C2"/>
<path d="M243.455 129.491C243.495 129.62 243.534 129.748 243.573 129.876C243.534 129.748 243.506 129.627 243.467 129.498L243.455 129.491Z" fill="#BA58C2"/>
<path d="M179.588 108.868C179.868 108.541 180.147 108.234 180.426 107.907C180.135 108.227 179.868 108.541 179.588 108.868Z" fill="#BA58C2"/>
<path d="M176.253 106.394C176.648 106.514 177.096 106.542 177.342 106.759C177.445 106.823 177.085 107.309 176.936 107.613C176.525 107.566 176.101 107.552 175.754 107.42C175.708 107.391 176.012 106.87 176.253 106.394Z" fill="#511760"/>
<path d="M239.813 124.802C240.348 124.55 240.676 124.4 241.004 124.249C241.066 124.601 241.198 124.955 241.152 125.323C241.135 125.417 240.319 125.807 240.263 125.751C240.042 125.509 239.957 125.143 239.813 124.802Z" fill="#721D79"/>
<path d="M223.636 120.836C221.197 125.981 217.694 123.317 215.331 123.495C211.128 123.8 209.001 116.353 211.403 112.208C214.849 114.252 218.283 116.309 221.729 118.352C222.353 119.18 222.988 120.015 223.624 120.829L223.636 120.836Z" fill="#3C2C3D"/>
<path d="M221.741 118.357C218.295 116.313 214.849 114.269 211.415 112.213C211.864 111.636 212.323 111.066 212.772 110.489C214.997 111.416 217.235 112.33 219.449 113.251C220.209 114.957 220.969 116.663 221.741 118.357Z" fill="#C375CA"/>
<path d="M221.726 118.361C220.967 116.654 220.207 114.948 219.435 113.255C221.558 114.495 223.706 115.729 225.83 116.969C226.14 119.461 226.449 121.973 226.759 124.465C225.721 123.254 224.66 122.049 223.622 120.838C222.987 120.003 222.363 119.175 221.726 118.361Z" fill="#732B7F"/>
</svg>
