<svg width="858" height="209" viewBox="0 0 858 209" fill="none" xmlns="http://www.w3.org/2000/svg">
<path d="M2.4 23.08V5H27.52V23.08H17.04V33H12.92V23.08H2.4ZM12.92 9.12H6.56V18.96H12.92V9.12ZM23.4 18.96V9.12H17.04V18.96H23.4ZM59.0497 24.88C56.7697 30.2 51.4897 33.92 45.3297 33.92C37.0497 33.92 30.3697 27.24 30.3697 18.96C30.3697 10.68 37.0497 4 45.3297 4C53.6097 4 60.2897 10.68 60.2897 18.96C60.2897 19.44 60.2497 19.92 60.2097 20.36H34.6897C34.9697 22.72 36.0497 24.88 37.7297 26.56C39.7697 28.6 42.4497 29.72 45.3297 29.72C48.2097 29.72 50.8897 28.6 52.9297 26.56C53.5297 25.92 54.0897 25.24 54.5297 24.52L59.0497 24.88ZM45.3297 8.2C42.4497 8.2 39.7697 9.32 37.7297 11.36C36.3697 12.72 35.4097 14.44 34.9297 16.24H55.7297C55.2497 14.44 54.2897 12.72 52.9297 11.36C50.8897 9.32 48.2097 8.2 45.3297 8.2ZM65.1791 28.8V5H83.7791V28.8H89.0191V32.92H59.9391V28.8H65.1791ZM69.2991 9.08V28.8H79.6991V9.08H69.2991ZM118.962 18.96C118.962 27.2 112.242 33.92 104.002 33.92C95.7216 33.92 89.0416 27.2 89.0416 18.96C89.0416 10.68 95.7216 4 104.002 4C112.242 4 118.962 10.68 118.962 18.96ZM93.2416 18.96C93.2416 21.8 94.3616 24.52 96.4016 26.52C98.4416 28.56 101.122 29.68 104.002 29.68C106.882 29.68 109.562 28.56 111.602 26.52C113.642 24.52 114.722 21.8 114.722 18.96C114.722 16.08 113.642 13.36 111.602 11.36C109.562 9.32 106.882 8.2 104.002 8.2C101.122 8.2 98.4416 9.32 96.4016 11.36C94.3616 13.36 93.2416 16.08 93.2416 18.96ZM137.882 9.12H130.602V33H126.522V9.12H119.242V5H137.882V9.12ZM167.79 18.96C167.79 27.2 161.07 33.92 152.83 33.92C144.55 33.92 137.87 27.2 137.87 18.96C137.87 10.68 144.55 4 152.83 4C161.07 4 167.79 10.68 167.79 18.96ZM142.07 18.96C142.07 21.8 143.19 24.52 145.23 26.52C147.27 28.56 149.95 29.68 152.83 29.68C155.71 29.68 158.39 28.56 160.43 26.52C162.47 24.52 163.55 21.8 163.55 18.96C163.55 16.08 162.47 13.36 160.43 11.36C158.39 9.32 155.71 8.2 152.83 8.2C149.95 8.2 147.27 9.32 145.23 11.36C143.19 13.36 142.07 16.08 142.07 18.96ZM194.473 32.92H170.633V5H186.593V16H194.433V16.28H194.473V32.92ZM182.473 16V9.12H174.753V16H182.473ZM174.753 28.8H190.353V20.08H174.753V28.8ZM202.123 33H198.043V5H216.483V33H212.363V21.08H202.123V33ZM202.123 9.12V16.96H212.363V9.12H202.123ZM265.042 22.88C263.322 29.2 257.522 33.88 250.602 33.88C242.362 33.88 235.682 27.2 235.682 18.96C235.682 10.72 242.362 4.04 250.602 4.04C257.602 4.04 263.482 8.84 265.122 15.32H260.722C260.162 13.84 259.322 12.52 258.202 11.36C256.162 9.36 253.482 8.24 250.602 8.24C247.762 8.24 245.042 9.36 243.042 11.36C241.002 13.4 239.882 16.08 239.882 18.96C239.882 21.84 241.002 24.52 243.042 26.56C245.042 28.56 247.762 29.68 250.602 29.68C253.482 29.68 256.162 28.56 258.202 26.56C259.282 25.48 260.082 24.24 260.602 22.88H265.042ZM297.516 18.96C297.516 27.2 290.796 33.92 282.556 33.92C274.276 33.92 267.596 27.2 267.596 18.96C267.596 10.68 274.276 4 282.556 4C290.796 4 297.516 10.68 297.516 18.96ZM271.796 18.96C271.796 21.8 272.916 24.52 274.956 26.52C276.996 28.56 279.676 29.68 282.556 29.68C285.436 29.68 288.116 28.56 290.156 26.52C292.196 24.52 293.276 21.8 293.276 18.96C293.276 16.08 292.196 13.36 290.156 11.36C288.116 9.32 285.436 8.2 282.556 8.2C279.676 8.2 276.996 9.32 274.956 11.36C272.916 13.36 271.796 16.08 271.796 18.96ZM299.939 23.08V5H325.059V23.08H314.579V33H310.459V23.08H299.939ZM310.459 9.12H304.099V18.96H310.459V9.12ZM320.939 18.96V9.12H314.579V18.96H320.939ZM346.299 22.76C346.299 25.48 345.219 28.04 343.299 30C341.379 31.92 338.779 33 336.059 33H328.259V5H332.499V12.48H336.059C338.779 12.48 341.379 13.56 343.299 15.48C345.219 17.44 346.299 20 346.299 22.76ZM336.059 28.76C339.379 28.76 342.099 26.08 342.099 22.76C342.099 19.44 339.379 16.72 336.059 16.72H332.499V28.76H336.059ZM359.047 25.44L352.967 33H347.527L354.247 24.72C352.967 24.2 351.767 23.48 350.767 22.48C348.807 20.52 347.767 17.96 347.767 15.2C347.767 12.52 348.807 9.88 350.767 8C352.687 6.04 355.247 5 358.007 5H365.727V33H361.527V25.44H359.047ZM358.007 9.2C354.687 9.2 351.927 11.84 351.927 15.2C351.927 18.52 354.687 21.24 358.007 21.24H361.527V9.2H358.007ZM388.568 33H384.488V5H402.928V33H398.808V21.08H388.568V33ZM388.568 9.12V16.96H398.808V9.12H388.568ZM409.952 33H405.472L410.832 5H424.712V33H420.592V9.12H414.512L409.952 33ZM456.237 24.88C453.957 30.2 448.677 33.92 442.517 33.92C434.237 33.92 427.557 27.24 427.557 18.96C427.557 10.68 434.237 4 442.517 4C450.797 4 457.477 10.68 457.477 18.96C457.477 19.44 457.437 19.92 457.397 20.36H431.877C432.157 22.72 433.237 24.88 434.917 26.56C436.957 28.6 439.637 29.72 442.517 29.72C445.397 29.72 448.077 28.6 450.117 26.56C450.717 25.92 451.277 25.24 451.717 24.52L456.237 24.88ZM442.517 8.2C439.637 8.2 436.957 9.32 434.917 11.36C433.557 12.72 432.597 14.44 432.117 16.24H452.917C452.437 14.44 451.477 12.72 450.117 11.36C448.077 9.32 445.397 8.2 442.517 8.2ZM486.37 4.64V9.32L465.25 18.96L486.37 28.56V33.28L464.45 23.36V33H460.33V5H464.45V14.6L486.37 4.64ZM516.175 22.88C514.455 29.2 508.655 33.88 501.735 33.88C493.495 33.88 486.815 27.2 486.815 18.96C486.815 10.72 493.495 4.04 501.735 4.04C508.735 4.04 514.615 8.84 516.255 15.32H511.855C511.295 13.84 510.455 12.52 509.335 11.36C507.295 9.36 504.615 8.24 501.735 8.24C498.895 8.24 496.175 9.36 494.175 11.36C492.135 13.4 491.015 16.08 491.015 18.96C491.015 21.84 492.135 24.52 494.175 26.56C496.175 28.56 498.895 29.68 501.735 29.68C504.615 29.68 507.295 28.56 509.335 26.56C510.415 25.48 511.215 24.24 511.735 22.88H516.175ZM547.409 24.88C545.129 30.2 539.849 33.92 533.689 33.92C525.409 33.92 518.729 27.24 518.729 18.96C518.729 10.68 525.409 4 533.689 4C541.969 4 548.649 10.68 548.649 18.96C548.649 19.44 548.609 19.92 548.569 20.36H523.049C523.329 22.72 524.409 24.88 526.089 26.56C528.129 28.6 530.809 29.72 533.689 29.72C536.569 29.72 539.249 28.6 541.289 26.56C541.889 25.92 542.449 25.24 542.889 24.52L547.409 24.88ZM533.689 8.2C530.809 8.2 528.129 9.32 526.089 11.36C524.729 12.72 523.769 14.44 523.289 16.24H544.089C543.609 14.44 542.649 12.72 541.289 11.36C539.249 9.32 536.569 8.2 533.689 8.2ZM579.792 24.88C577.512 30.2 572.232 33.92 566.072 33.92C557.792 33.92 551.112 27.24 551.112 18.96C551.112 10.68 557.792 4 566.072 4C574.352 4 581.032 10.68 581.032 18.96C581.032 19.44 580.992 19.92 580.952 20.36H555.432C555.712 22.72 556.792 24.88 558.472 26.56C560.512 28.6 563.192 29.72 566.072 29.72C568.952 29.72 571.632 28.6 573.672 26.56C574.272 25.92 574.832 25.24 575.272 24.52L579.792 24.88ZM566.072 8.2C563.192 8.2 560.512 9.32 558.472 11.36C557.112 12.72 556.152 14.44 555.672 16.24H576.472C575.992 14.44 575.032 12.72 573.672 11.36C571.632 9.32 568.952 8.2 566.072 8.2ZM607.715 32.92H583.875V5H599.835V16H607.675V16.28H607.715V32.92ZM595.715 16V9.12H587.995V16H595.715ZM587.995 28.8H603.595V20.08H587.995V28.8ZM615.265 20.12V33H611.145V5H615.265V16H631.705V5H635.825V33H631.705V20.12H615.265ZM643.646 33H639.566V5H658.006V33H653.886V21.08H643.646V33ZM643.646 9.12V16.96H653.886V9.12H643.646Z" fill="#F7C9FF"/>
<path d="M2.4 112.422V84.4219H16.12V88.1019H6.6V112.422H2.4ZM26.6434 84.4219C29.4034 84.4219 32.0034 85.5019 33.8834 87.4219C35.8034 89.3019 36.8834 91.9019 36.8834 94.6619C36.8834 97.3819 35.8034 99.9019 33.8834 101.862C32.0034 103.822 29.4034 104.822 26.6434 104.822H23.1234V112.342H18.9234V84.4219H26.6434ZM26.6434 100.622C29.9634 100.622 32.7234 97.9819 32.7234 94.6619C32.7234 91.3419 29.9634 88.5819 26.6434 88.5819H23.1234V100.622H26.6434ZM39.3141 102.502V84.4219H43.4341V98.4219H54.0341V84.4219H58.1541V102.502H50.7941V112.422H46.6741V102.502H39.3141ZM65.8347 112.422H61.7147V84.4219H80.1147V112.422H76.0347V88.5419H65.8347V112.422ZM87.7097 112.422H83.5897V84.4219H101.99V112.422H97.9097V88.5419H87.7097V112.422ZM109.545 112.422H105.465V84.4219H123.905V112.422H119.785V100.502H109.545V112.422ZM109.545 88.5419V96.3819H119.785V88.5419H109.545ZM132.381 92.8219C132.381 94.0219 131.421 95.0619 130.141 95.0619C128.901 95.0619 127.861 94.0219 127.861 92.8219C127.861 91.5419 128.901 90.5019 130.141 90.5019C131.421 90.5019 132.381 91.5419 132.381 92.8219ZM132.381 105.142C132.381 106.342 131.421 107.382 130.141 107.382C128.901 107.382 127.861 106.342 127.861 105.142C127.861 103.862 128.901 102.822 130.141 102.822C131.421 102.822 132.381 103.862 132.381 105.142ZM153.017 88.5819V95.3019H169.297V112.422H148.897V84.4219H169.297V88.5819H153.017ZM153.017 99.4219V108.262H165.137V99.4219H153.017ZM177.358 112.422H173.238V84.4219H191.638V112.422H187.558V88.5419H177.358V112.422ZM195.213 112.422V96.8219H215.173V88.5019H195.213V84.4219H219.693V100.902H199.773V108.342H219.693V112.422H195.213ZM236.778 84.4219H240.898V112.422H236.778V102.502H223.298V84.4219H227.418V98.4219H236.778V84.4219ZM249.32 108.222V84.4219H267.92V108.222H273.16V112.342H244.08V108.222H249.32ZM253.44 88.5019V108.222H263.84V88.5019H253.44ZM290.164 100.462H276.764V96.3419H290.164V88.5419H276.764V84.4219H294.284V112.422H276.764V108.302H290.164V100.462ZM324.313 98.3819C324.313 106.622 317.593 113.342 309.353 113.342C301.073 113.342 294.393 106.622 294.393 98.3819C294.393 90.1019 301.073 83.4219 309.353 83.4219C317.593 83.4219 324.313 90.1019 324.313 98.3819ZM298.593 98.3819C298.593 101.222 299.713 103.942 301.753 105.942C303.793 107.982 306.473 109.102 309.353 109.102C312.233 109.102 314.913 107.982 316.953 105.942C318.993 103.942 320.073 101.222 320.073 98.3819C320.073 95.5019 318.993 92.7819 316.953 90.7819C314.913 88.7419 312.233 87.6219 309.353 87.6219C306.473 87.6219 303.793 88.7419 301.753 90.7819C299.713 92.7819 298.593 95.5019 298.593 98.3819ZM345.485 100.902H325.525V84.4219H350.005V112.422H325.525V108.342H345.485V100.902ZM345.485 96.8219V88.5019H330.085V96.8219H345.485Z" fill="#F7C9FF"/>
<path d="M28.44 163.483V168.163L7.32 177.803L28.44 187.403V192.123L6.52 182.203V191.843H2.4V163.843H6.52V173.443L28.44 163.483ZM31.2281 181.923V163.843H35.3481V177.843H45.9481V163.843H50.0681V181.923H42.7081V191.843H38.5881V181.923H31.2281ZM60.9794 163.843C63.7394 163.843 66.3394 164.923 68.2194 166.843C70.1394 168.723 71.2194 171.323 71.2194 174.083C71.2194 176.803 70.1394 179.323 68.2194 181.283C66.3394 183.243 63.7394 184.243 60.9794 184.243H57.4594V191.763H53.2594V163.843H60.9794ZM60.9794 180.043C64.2994 180.043 67.0594 177.403 67.0594 174.083C67.0594 170.763 64.2994 168.003 60.9794 168.003H57.4594V180.043H60.9794ZM78.0603 191.843H73.9803V163.843H92.4203V191.843H88.3003V179.923H78.0603V191.843ZM78.0603 167.963V175.803H88.3003V167.963H78.0603ZM114.053 167.963H106.773V191.843H102.693V167.963H95.4134V163.843H114.053V167.963ZM143.962 177.803C143.962 186.043 137.242 192.763 129.002 192.763C120.722 192.763 114.042 186.043 114.042 177.803C114.042 169.523 120.722 162.843 129.002 162.843C137.242 162.843 143.962 169.523 143.962 177.803ZM118.242 177.803C118.242 180.643 119.362 183.363 121.402 185.363C123.442 187.403 126.122 188.523 129.002 188.523C131.882 188.523 134.562 187.403 136.602 185.363C138.642 183.363 139.722 180.643 139.722 177.803C139.722 174.923 138.642 172.203 136.602 170.203C134.562 168.163 131.882 167.043 129.002 167.043C126.122 167.043 123.442 168.163 121.402 170.203C119.362 172.203 118.242 174.923 118.242 177.803ZM154.534 163.843C157.294 163.843 159.894 164.923 161.774 166.843C163.694 168.723 164.774 171.323 164.774 174.083C164.774 176.803 163.694 179.323 161.774 181.283C159.894 183.243 157.294 184.243 154.534 184.243H151.014V191.763H146.814V163.843H154.534ZM154.534 180.043C157.854 180.043 160.614 177.403 160.614 174.083C160.614 170.763 157.854 168.003 154.534 168.003H151.014V180.043H154.534ZM170.506 172.243C170.506 173.443 169.546 174.483 168.266 174.483C167.026 174.483 165.986 173.443 165.986 172.243C165.986 170.963 167.026 169.923 168.266 169.923C169.546 169.923 170.506 170.963 170.506 172.243ZM170.506 184.563C170.506 185.763 169.546 186.803 168.266 186.803C167.026 186.803 165.986 185.763 165.986 184.563C165.986 183.283 167.026 182.243 168.266 182.243C169.546 182.243 170.506 183.283 170.506 184.563ZM190.422 178.963V191.843H186.302V163.843H190.422V174.843H206.862V163.843H210.982V191.843H206.862V178.963H190.422ZM218.803 191.843H214.723V163.843H233.163V191.843H229.043V179.923H218.803V191.843ZM218.803 167.963V175.803H229.043V167.963H218.803ZM237.127 163.843H241.247V187.723H247.287V163.843H251.407V187.723H257.487V163.843H261.607V187.723H266.927V196.403H262.807V191.843H237.127V163.843ZM271.477 157.483C271.917 159.003 270.797 160.483 269.197 160.483H269.077C267.997 160.483 267.077 159.803 266.797 158.803C266.357 157.283 267.477 155.803 269.077 155.803H269.197C270.277 155.803 271.197 156.483 271.477 157.483ZM280.957 155.803C282.517 155.803 283.637 157.283 283.197 158.803C282.917 159.803 281.997 160.483 280.957 160.483H280.797C279.237 160.483 278.117 159.003 278.557 157.483C278.837 156.483 279.757 155.803 280.797 155.803H280.957ZM292.677 155.803C294.277 155.803 295.397 157.283 294.957 158.803C294.677 159.803 293.717 160.483 292.677 160.483H292.517C290.957 160.483 289.837 159.003 290.277 157.483C290.557 156.483 291.477 155.803 292.517 155.803H292.677ZM294.637 183.723C292.317 189.043 287.037 192.763 280.877 192.763C272.637 192.763 265.917 186.083 265.917 177.803C265.917 169.523 272.717 162.843 280.877 162.843C289.237 162.843 295.837 169.523 295.837 177.803C295.837 178.283 295.837 178.763 295.797 179.203H270.237C270.557 181.563 271.597 183.723 273.277 185.403C275.317 187.443 278.037 188.563 280.877 188.563C283.757 188.563 286.477 187.443 288.477 185.403C289.117 184.763 289.637 184.083 290.077 183.363L294.637 183.723ZM280.877 167.043C278.037 167.043 275.317 168.163 273.277 170.203C271.917 171.563 270.957 173.283 270.477 175.083H291.277C290.837 173.283 289.877 171.563 288.477 170.203C286.477 168.163 283.757 167.043 280.877 167.043ZM324.729 163.483V168.163L303.609 177.803L324.729 187.403V192.123L302.809 182.203V191.843H298.689V163.843H302.809V173.443L324.729 163.483ZM327.908 163.843H332.188L332.148 188.123H335.188L337.948 163.843H349.108V191.843H344.708V167.603H341.708L339.068 191.843H327.908V163.843ZM356.633 178.963V191.843H352.513V163.843H356.633V174.843H373.073V163.843H377.193V191.843H373.073V178.963H356.633ZM398.898 178.963V191.843H394.778V163.843H398.898V174.843H415.338V163.843H419.458V191.843H415.338V178.963H398.898ZM422.83 163.843H427.11L427.07 188.123H430.11L432.87 163.843H444.03V191.843H439.63V167.603H436.63L433.99 191.843H422.83V163.843ZM473.674 163.483V168.163L452.554 177.803L473.674 187.403V192.123L451.754 182.203V191.843H447.634V163.843H451.754V173.443L473.674 163.483ZM476.853 163.843H481.133L481.093 188.123H484.133L486.893 163.843H498.053V191.843H493.653V167.603H490.653L488.013 191.843H476.853V163.843ZM519.366 167.963H512.086V191.843H508.006V167.963H500.726V163.843H519.366V167.963ZM526.537 191.843H522.457V163.843H540.897V191.843H536.777V179.923H526.537V191.843ZM526.537 167.963V175.803H536.777V167.963H526.537Z" fill="#F7C9FF"/>
</svg>
