<svg width="72" height="66" viewBox="0 0 72 66" fill="none" xmlns="http://www.w3.org/2000/svg">
<path d="M59.7356 51.1336C59.4551 49.6198 58.8239 48.7526 57.9062 47.4593C56.0261 44.8098 54.1694 44.4795 51.653 43.2484C49.9478 42.4142 48.9482 41.8699 47.2552 41.6257C43.3815 41.0668 40.5862 41.9024 39.0379 45.6137C38.1017 47.8577 38.0125 49.662 38.5325 52.5681C39.2013 56.3063 40.1884 59.3971 43.052 61.6458C45.1226 63.2718 46.5954 63.2359 48.6969 63.1846L48.7302 63.1838C51.4376 63.1179 52.7236 62.0665 54.665 60.3036C56.2089 58.9016 56.8482 57.7743 57.8943 55.7843C58.7738 54.1113 60.1657 53.4558 59.7356 51.1336Z" fill="#914DFF"/>
<path d="M54.5421 26.2813C54.5421 26.2813 57.5639 24.0288 59.0073 21.9673C60.3388 20.0655 61.0442 18.8687 61.6985 16.3674C62.0897 14.8722 62.5404 14.0577 62.3224 12.3075C62.0141 9.83251 61.2014 7.80092 59.3094 6.2557C57.1085 4.45812 55.8002 6.42784 53.516 6.38377C51.4063 6.34307 50.0202 5.57491 48.0714 6.07415L47.9746 6.09894C45.5273 6.7254 43.56 7.22898 42.9345 10.1774C42.6375 11.5772 42.9313 12.5864 43.0269 14.158C43.1929 16.887 44.1238 18.651 43.9095 21.2437C43.7588 23.0677 42.6055 23.5817 42.8291 25.5252C43.1937 28.6934 45.5845 30.1233 47.8128 32.4991C50.3093 35.161 52.3205 35.3481 54.8638 37.933C57.1047 40.2105 57.5069 43.1195 60.0443 44.5432C63.9105 46.7123 65.8306 43.3447 68.2616 40.5551C70.1156 38.4276 71.7128 37.1378 71.5876 33.5737C71.5146 31.493 71.5363 29.8523 70.1779 28.0855C69.0185 26.5777 67.9213 26.5422 66.4333 25.8774C61.5708 23.7051 54.5421 26.2813 54.5421 26.2813Z" fill="#914DFF"/>
<path d="M39.3976 10.2838C39.0458 7.16511 37.2289 5.11453 34.8704 3.08823C32.6823 1.20825 31.0775 0.80381 28.7618 0.685673C25.7968 0.53441 24.1832 1.5208 22.3705 3.78749C21.053 5.43509 20.5457 6.74024 20.1358 9.16585C19.7186 11.634 19.5413 13.2784 20.3466 16.0409C20.9688 18.1752 21.3927 19.7196 22.9292 21.2282C24.8509 23.115 26.3836 22.4561 28.4999 22.5501C31.9724 22.7043 34.6675 23.0062 36.4944 20.012C37.3922 18.5404 37.2414 17.1587 37.7715 15.3667C38.3672 13.353 39.6683 12.6833 39.3976 10.2838Z" fill="#914DFF"/>
<path d="M34.3031 36.1037L31.7205 30.9164C31.7205 30.9164 18.5973 27.1836 10.1804 24.4635C8.5051 23.9221 7.50061 23.0699 5.89022 23.0569C3.86164 23.0406 2.58199 23.4665 1.47721 25.1987C0.262316 27.1035 0.174768 29.0926 0.864184 31.9369C1.40464 34.1666 2.15896 35.4845 3.5544 37.3403C6.59989 41.3905 13.6674 42.0933 13.6674 42.0933L16.4652 47.7128C16.4652 47.7128 13.8381 53.1275 14.9946 57.2825C15.6141 59.5083 16.1628 60.9869 17.6848 62.6859C18.9399 64.087 19.8845 64.6358 21.3848 65.184C24.8779 66.4603 26.2672 63.7613 28.6891 61.6391C35.1965 55.9369 34.3031 36.1037 34.3031 36.1037Z" fill="#914DFF"/>
</svg>
