<svg width="64" height="76" viewBox="0 0 64 76" fill="none" xmlns="http://www.w3.org/2000/svg">
<path d="M22.1728 67.1696C23.4868 66.515 24.126 65.6545 25.085 64.3955C27.0497 61.8162 26.9032 59.8205 27.4198 56.9269C27.7698 54.9661 28.0254 53.8033 27.8399 51.9973C27.4156 47.8651 25.9786 45.1822 22.2179 44.4797C19.9441 44.055 18.2757 44.3982 15.7489 45.6358C12.4984 47.2277 9.91562 48.9919 8.55401 52.4893C7.56949 55.0182 7.95755 56.5294 8.51125 58.6856L8.52003 58.7198C9.23331 61.4977 10.5031 62.5711 12.5804 64.1492C14.2324 65.4042 15.4155 65.792 17.484 66.3914C19.2231 66.8953 20.1572 68.1736 22.1728 67.1696Z" fill="#914DFF"/>
<path d="M43.6023 55.8153C43.6023 55.8153 46.387 58.3902 48.6166 59.3824C50.6736 60.2977 51.9361 60.7368 54.3768 60.8087C55.8358 60.8517 56.6879 61.1203 58.2326 60.4732C60.4172 59.558 62.0753 58.2292 63.0292 55.9041C64.1389 53.1993 62.0256 52.3244 61.5148 49.9567C61.0431 47.7699 61.4098 46.1542 60.484 44.2637L60.4381 44.1697C59.2759 41.7954 58.3418 39.8868 55.4999 39.9526C54.1507 39.9838 53.3005 40.5304 51.8892 41.0082C49.4385 41.8378 48.0531 43.2239 45.6351 43.6282C43.934 43.9127 43.1867 42.8465 41.4669 43.5461C38.6632 44.6866 37.9349 47.4986 36.3041 50.3711C34.4769 53.5894 34.7913 55.71 33.0455 58.958C31.5075 61.8198 28.9495 62.9365 28.2623 65.8983C27.2151 70.4112 30.7519 71.5802 33.8843 73.4159C36.2732 74.8159 37.8357 76.1529 41.0585 75.164C42.9399 74.5867 44.4425 74.2134 45.7273 72.3853C46.8238 70.8252 46.5916 69.6844 46.8393 67.9886C47.649 62.4469 43.6023 55.8153 43.6023 55.8153Z" fill="#914DFF"/>
<path d="M54.5497 36.3285C57.3111 35.2131 58.7444 32.8436 60.0248 29.9211C61.2128 27.2096 61.1948 25.456 60.744 23.0379C60.1668 19.9417 58.8773 18.5146 56.3713 17.1909C54.5498 16.2287 53.2362 16.0201 50.9235 16.1822C48.5702 16.3471 47.0266 16.5608 44.6996 18.0582C42.9018 19.2151 41.5945 20.0251 40.5883 21.9746C39.3298 24.4128 40.3009 25.8354 40.7256 28.0419C41.4225 31.6624 41.7971 34.5164 44.9706 35.6793C46.5302 36.2508 47.7549 35.7619 49.5183 35.8766C51.4999 36.0056 52.4249 37.1866 54.5497 36.3285Z" fill="#914DFF"/>
<path d="M29.7554 37.2998L33.8667 33.3835C33.8667 33.3835 34.108 18.941 34.5601 9.5993C34.6501 7.73992 35.1856 6.4978 34.809 4.83288C34.3345 2.73562 33.6371 1.51787 31.7897 0.795668C29.7582 0.00148379 27.9216 0.390979 25.492 1.7885C23.5874 2.88407 22.5665 3.98039 21.2094 5.86802C18.2475 9.98772 19.3109 17.4503 19.3109 17.4503L14.857 21.693C14.857 21.693 9.28142 20.2882 5.76818 22.4839C3.88618 23.6601 2.66906 24.583 1.48552 26.5634C0.509555 28.1965 0.23648 29.3037 0.0980784 30.9841C-0.224167 34.8966 2.57435 35.6791 5.09546 37.6664C11.8695 43.0059 29.7554 37.2998 29.7554 37.2998Z" fill="#914DFF"/>
</svg>
