<svg width="69" height="69" viewBox="0 0 69 69" fill="none" xmlns="http://www.w3.org/2000/svg">
<path d="M33.3734 66.2594C34.4076 65.1771 34.7411 64.1395 35.2514 62.6129C36.2969 59.4855 35.5342 57.6553 35.1158 54.7438C34.8322 52.7709 34.7093 51.5839 33.9692 49.9465C32.2758 46.2 30.0811 44.1784 26.3149 44.8468C24.0377 45.2508 22.5719 46.1648 20.5764 48.2259C18.0093 50.8773 16.1259 53.4549 15.9365 57.2348C15.7995 59.9679 16.6384 61.2556 17.8353 63.093L17.8543 63.1222C19.3963 65.4893 20.9297 66.0522 23.3824 66.8053C25.3331 67.4043 26.5701 67.3513 28.7083 67.1846C30.506 67.0445 31.7869 67.9194 33.3734 66.2594Z" fill="#914DFF"/>
<path d="M50.0281 47.9695C50.0281 47.9695 53.4599 49.4123 55.873 49.5589C58.0992 49.6942 59.4271 49.6616 61.7512 48.8657C63.1405 48.39 64.0282 48.3418 65.2823 47.1849C67.056 45.5489 68.2037 43.7092 68.3756 41.179C68.5755 38.2357 66.3089 38.1585 65.0862 36.1064C63.9569 34.2112 63.7971 32.5579 62.3325 31.1027L62.2597 31.0303C60.4208 29.2026 58.9425 27.7333 56.2832 28.8009C55.0207 29.3078 54.39 30.124 53.2087 31.0739C51.1573 32.7235 50.2846 34.5208 48.1309 35.7577C46.6159 36.6278 45.5774 35.8869 44.1746 37.1551C41.8877 39.2227 42.0809 42.1322 41.442 45.418C40.7262 49.0995 41.6863 50.9879 41.0566 54.6685C40.5017 57.9114 38.4391 59.8697 38.7179 62.9058C39.1428 67.532 42.8439 67.3829 46.3723 68.0056C49.0632 68.4805 50.955 69.1884 53.6846 67.1155C55.2781 65.9054 56.5783 65.0216 57.2177 62.8432C57.7635 60.984 57.1875 59.9904 56.8904 58.3036C55.9196 52.7912 50.0281 47.9695 50.0281 47.9695Z" fill="#914DFF"/>
<path d="M54.2529 25.7196C56.5079 23.6906 57.1179 20.949 57.4107 17.74C57.6824 14.7627 57.1167 13.1154 55.9348 10.9946C54.4215 8.27918 52.7589 7.38965 49.9814 7.02813C47.9626 6.76536 46.6586 7.03341 44.5284 8.00462C42.3609 8.99287 40.9722 9.74058 39.2464 11.976C37.9131 13.7031 36.9338 14.9295 36.595 17.124C36.1713 19.8685 37.5323 20.8665 38.6234 22.7968C40.4136 25.9644 41.6601 28.5232 45.0166 28.4969C46.6662 28.484 47.6681 27.5896 49.3669 27.0738C51.2759 26.4942 52.5179 27.2806 54.2529 25.7196Z" fill="#914DFF"/>
<path d="M31.1757 35.4089L33.8271 30.261C33.8271 30.261 29.5347 16.5563 27.0375 7.58704C26.5404 5.80179 26.6567 4.44097 25.7805 3.00422C24.6767 1.19438 23.6379 0.292798 21.6698 0.265454C19.5055 0.235385 17.8955 1.25255 16.0417 3.43012C14.5885 5.13719 13.9689 6.53227 13.2799 8.79253C11.7761 13.7255 15.1145 20.3864 15.1145 20.3864L12.2421 25.9634C12.2421 25.9634 6.54473 26.6116 3.91887 29.9252C2.51223 31.7003 1.65331 33.0012 1.15703 35.2876C0.747789 37.173 0.836773 38.3137 1.23216 39.9473C2.15276 43.7509 5.03666 43.4985 8.03601 44.4804C16.0951 47.1187 31.1757 35.4089 31.1757 35.4089Z" fill="#914DFF"/>
</svg>
