<svg width="69" height="69" viewBox="0 0 69 69" fill="none" xmlns="http://www.w3.org/2000/svg">
<path d="M33.3734 66.1051C34.4076 65.0229 34.7411 63.9852 35.2514 62.4586C36.2969 59.3312 35.5342 57.501 35.1158 54.5895C34.8322 52.6166 34.7093 51.4297 33.9692 49.7922C32.2758 46.0457 30.0811 44.0241 26.3149 44.6925C24.0377 45.0965 22.5719 46.0105 20.5764 48.0716C18.0093 50.723 16.1259 53.3006 15.9365 57.0805C15.7995 59.8136 16.6384 61.1013 17.8353 62.9387L17.8543 62.9679C19.3963 65.3351 20.9297 65.8979 23.3824 66.651C25.3331 67.25 26.5701 67.197 28.7083 67.0303C30.506 66.8902 31.7869 67.7651 33.3734 66.1051Z" fill="#914DFF"/>
<path d="M50.0281 47.8152C50.0281 47.8152 53.4599 49.258 55.873 49.4046C58.0992 49.5399 59.4271 49.5073 61.7512 48.7114C63.1405 48.2357 64.0282 48.1875 65.2823 47.0307C67.056 45.3946 68.2037 43.5549 68.3756 41.0248C68.5755 38.0814 66.3089 38.0042 65.0862 35.9521C63.9569 34.0569 63.7971 32.4036 62.3325 30.9484L62.2597 30.876C60.4208 29.0483 58.9425 27.579 56.2832 28.6466C55.0207 29.1535 54.39 29.9697 53.2087 30.9196C51.1573 32.5692 50.2846 34.3665 48.1309 35.6034C46.6159 36.4735 45.5774 35.7326 44.1746 37.0008C41.8877 39.0684 42.0809 41.9779 41.442 45.2637C40.7262 48.9452 41.6863 50.8336 41.0566 54.5142C40.5017 57.7571 38.4391 59.7154 38.7179 62.7515C39.1428 67.3777 42.8439 67.2286 46.3723 67.8513C49.0632 68.3262 50.955 69.0341 53.6846 66.9612C55.2781 65.7511 56.5783 64.8673 57.2177 62.6889C57.7635 60.8297 57.1875 59.8361 56.8904 58.1493C55.9196 52.6369 50.0281 47.8152 50.0281 47.8152Z" fill="#914DFF"/>
<path d="M54.2529 25.5653C56.5079 23.5363 57.1179 20.7947 57.4107 17.5857C57.6824 14.6084 57.1167 12.9611 55.9348 10.8403C54.4215 8.12488 52.7589 7.23535 49.9814 6.87384C47.9626 6.61106 46.6586 6.87911 44.5284 7.85032C42.3609 8.83858 40.9722 9.58629 39.2464 11.8217C37.9131 13.5488 36.9338 14.7752 36.595 16.9697C36.1713 19.7142 37.5323 20.7122 38.6234 22.6425C40.4136 25.8101 41.6601 28.3689 45.0166 28.3426C46.6662 28.3297 47.6681 27.4353 49.3669 26.9195C51.2759 26.3399 52.5179 27.1263 54.2529 25.5653Z" fill="#914DFF"/>
<path d="M31.1757 35.2546L33.8271 30.1067C33.8271 30.1067 29.5347 16.402 27.0375 7.43274C26.5404 5.64749 26.6567 4.28667 25.7805 2.84992C24.6767 1.04008 23.6379 0.138501 21.6698 0.111157C19.5055 0.0810878 17.8955 1.09826 16.0417 3.27582C14.5885 4.98289 13.9689 6.37798 13.2799 8.63823C11.7761 13.5712 15.1145 20.2322 15.1145 20.2322L12.2421 25.8091C12.2421 25.8091 6.54473 26.4573 3.91887 29.7709C2.51223 31.546 1.65331 32.847 1.15703 35.1333C0.747789 37.0187 0.836773 38.1594 1.23216 39.793C2.15276 43.5966 5.03666 43.3442 8.03601 44.3261C16.0951 46.9644 31.1757 35.2546 31.1757 35.2546Z" fill="#914DFF"/>
</svg>
