<svg width="68" height="69" viewBox="0 0 68 69" fill="none" xmlns="http://www.w3.org/2000/svg">
<path d="M32.5609 66.3414C33.5951 65.2592 33.9286 64.2215 34.4389 62.695C35.4844 59.5675 34.7217 57.7374 34.3033 54.8259C34.0197 52.8529 33.8968 51.666 33.1567 50.0286C31.4633 46.2821 29.2686 44.2605 25.5024 44.9288C23.2252 45.3329 21.7594 46.2468 19.7639 48.308C17.1968 50.9593 15.3134 53.5369 15.124 57.3168C14.987 60.0499 15.8259 61.3376 17.0228 63.175L17.0418 63.2042C18.5838 65.5714 20.1172 66.1343 22.5699 66.8874C24.5206 67.4863 25.7576 67.4333 27.8958 67.2667C29.6935 67.1265 30.9744 68.0014 32.5609 66.3414Z" fill="#914DFF"/>
<path d="M49.2156 48.0515C49.2156 48.0515 52.6474 49.4943 55.0605 49.6409C57.2867 49.7762 58.6146 49.7436 60.9387 48.9478C62.328 48.472 63.2157 48.4238 64.4698 47.267C66.2435 45.631 67.3912 43.7912 67.5631 41.2611C67.763 38.3178 65.4964 38.2405 64.2737 36.1885C63.1444 34.2932 62.9846 32.6399 61.52 31.1847L61.4472 31.1124C59.6083 29.2846 58.13 27.8153 55.4707 28.8829C54.2082 29.3898 53.5775 30.2061 52.3962 31.156C50.3448 32.8055 49.4721 34.6028 47.3184 35.8397C45.8034 36.7098 44.7649 35.9689 43.3621 37.2372C41.0752 39.3048 41.2684 42.2142 40.6295 45.5001C39.9137 49.1815 40.8738 51.0699 40.2441 54.7506C39.6892 57.9934 37.6266 59.9517 37.9054 62.9879C38.3303 67.6141 42.0314 67.465 45.5598 68.0876C48.2507 68.5625 50.1425 69.2705 52.8721 67.1975C54.4656 65.9874 55.7658 65.1037 56.4052 62.9252C56.951 61.066 56.375 60.0724 56.0779 58.3856C55.1071 52.8732 49.2156 48.0515 49.2156 48.0515Z" fill="#914DFF"/>
<path d="M53.4404 25.8016C55.6954 23.7727 56.3054 21.0311 56.5982 17.822C56.8699 14.8447 56.3042 13.1974 55.1223 11.0767C53.609 8.36121 51.9464 7.47168 49.1689 7.11016C47.1501 6.84739 45.8461 7.11544 43.7159 8.08665C41.5484 9.0749 40.1597 9.82261 38.4339 12.0581C37.1006 13.7852 36.1213 15.0116 35.7825 17.206C35.3588 19.9505 36.7198 20.9485 37.8109 22.8789C39.6011 26.0465 40.8476 28.6053 44.2041 28.5789C45.8537 28.566 46.8556 27.6716 48.5544 27.1558C50.4634 26.5763 51.7054 27.3627 53.4404 25.8016Z" fill="#914DFF"/>
<path d="M30.3632 35.491L33.0146 30.343C33.0146 30.343 28.7222 16.6383 26.225 7.66907C25.7279 5.88382 25.8442 4.523 24.968 3.08625C23.8642 1.27641 22.8254 0.374829 20.8573 0.347485C18.693 0.317416 17.083 1.33458 15.2292 3.51215C13.776 5.21922 13.1564 6.6143 12.4674 8.87456C10.9636 13.8075 14.302 20.4685 14.302 20.4685L11.4296 26.0454C11.4296 26.0454 5.73223 26.6936 3.10637 30.0072C1.69973 31.7823 0.840807 33.0833 0.34453 35.3696C-0.0647112 37.255 0.0242728 38.3957 0.41966 40.0293C1.34026 43.8329 4.22416 43.5805 7.22351 44.5624C15.2826 47.2007 30.3632 35.491 30.3632 35.491Z" fill="#914DFF"/>
</svg>
