<svg width="67" height="66" viewBox="0 0 67 66" fill="none" xmlns="http://www.w3.org/2000/svg">
<path d="M39.2391 62.1809C39.9566 60.8398 40.0114 59.7448 40.1109 58.1281C40.3148 54.816 39.1117 53.2764 37.9625 50.5965C37.1837 48.7806 36.7611 47.6742 35.6292 46.3134C33.0392 43.1998 30.4093 41.8912 26.9571 43.6261C24.8699 44.6751 23.6939 45.9795 22.3026 48.541C20.5127 51.8362 19.3616 54.8622 20.1487 58.5538C20.7177 61.223 21.855 62.2188 23.4778 63.6395L23.5036 63.662C25.5942 65.4925 27.2138 65.5894 29.7667 65.6029C31.797 65.6135 32.9736 65.204 34.988 64.4236C36.6817 63.7676 38.1384 64.238 39.2391 62.1809Z" fill="#914DFF"/>
<path d="M50.5725 39.7553C50.5725 39.7553 54.2443 40.1484 56.6036 39.5898C58.7801 39.0746 60.0494 38.6582 62.0813 37.2186C63.296 36.3581 64.1376 36.0544 65.0476 34.5778C66.3345 32.4895 66.967 30.3867 66.4836 27.9026C65.9212 25.0128 63.7206 25.5957 62.018 23.9759C60.4455 22.4799 59.8678 20.9356 58.0855 19.9601L57.9969 19.9116C55.759 18.6863 53.96 17.7013 51.6752 19.4995C50.5905 20.3532 50.193 21.3214 49.3001 22.5778C47.7494 24.7596 47.3707 26.7418 45.6158 28.5563C44.3813 29.8327 43.1922 29.4209 42.1677 31.0478C40.4977 33.7001 41.4297 36.4433 41.6576 39.7899C41.9129 43.5394 43.3209 45.0779 43.6588 48.8016C43.9566 52.0825 42.4743 54.5646 43.5211 57.4048C45.1162 61.7326 48.6388 60.5161 52.1932 60.0921C54.9039 59.7688 56.9056 59.9014 59.0002 57.1157C60.223 55.4894 61.2473 54.2622 61.3039 51.9809C61.3522 50.0339 60.5432 49.2449 59.8248 47.7082C57.4772 42.6861 50.5725 39.7553 50.5725 39.7553Z" fill="#914DFF"/>
<path d="M48.9317 17.1235C50.581 14.5177 50.4648 11.7031 49.9236 8.53076C49.4215 5.58749 48.4548 4.16668 46.7739 2.46892C44.6216 0.295118 42.7939 -0.0786471 40.029 0.378814C38.0192 0.71133 36.8334 1.3473 35.033 2.89931C33.201 4.47856 32.0566 5.60057 30.9695 8.25168C30.1296 10.2999 29.502 11.7637 29.7387 13.9732C30.0348 16.7366 31.6002 17.3022 33.1449 18.8431C35.6796 21.3716 37.535 23.472 40.7576 22.4736C42.3414 21.9828 43.0759 20.8319 44.5781 19.8431C46.2661 18.732 47.6627 19.1285 48.9317 17.1235Z" fill="#914DFF"/>
<path d="M29.2136 33.1366L30.4444 27.415C30.4444 27.415 22.8003 15.4741 18.0977 7.56876C17.1617 5.99526 16.9246 4.65231 15.7132 3.52405C14.1871 2.10281 12.9565 1.53656 11.056 2.08088C8.96596 2.67945 7.67778 4.12488 6.45268 6.75739C5.49229 8.82111 5.2539 10.343 5.17059 12.7174C4.98877 17.8994 9.9087 23.3401 9.9087 23.3401L8.57533 29.5384C8.57533 29.5384 3.26002 31.8139 1.58338 35.7633C0.685234 37.879 0.192466 39.3797 0.301291 41.7233C0.391031 43.6559 0.76915 44.7276 1.56846 46.1846C3.42954 49.5772 6.13946 48.4982 9.27694 48.5733C17.7072 48.775 29.2136 33.1366 29.2136 33.1366Z" fill="#914DFF"/>
</svg>
