<svg width="66" height="68" viewBox="0 0 66 68" fill="none" xmlns="http://www.w3.org/2000/svg">
<path d="M42.0971 62.6451C42.6408 61.2146 42.5583 60.1215 42.4551 58.5051C42.2436 55.1936 40.8589 53.8374 39.3852 51.3436C38.3866 49.6536 37.8296 48.6168 36.5377 47.4278C33.5819 44.7075 30.8118 43.7818 27.6069 45.9888C25.6691 47.3232 24.6665 48.782 23.6073 51.5173C22.2448 55.036 21.4817 58.1977 22.7228 61.7455C23.6201 64.3108 24.8717 65.1371 26.6576 66.3162L26.6859 66.3349C28.9865 67.8539 30.6039 67.7213 33.1359 67.3742C35.1496 67.0981 36.2646 66.526 38.1638 65.4682C39.7605 64.5789 41.263 64.8394 42.0971 62.6451Z" fill="#914DFF"/>
<path d="M50.5298 38.8179C50.5298 38.8179 54.2181 38.6891 56.4868 37.8024C58.5796 36.9844 59.7857 36.3925 61.6199 34.6788C62.7163 33.6544 63.5126 33.2345 64.2301 31.6425C65.2449 29.391 65.6092 27.2175 64.8198 24.8237C63.9015 22.0389 61.7932 22.9274 59.9034 21.5623C58.1581 20.3015 57.3926 18.8524 55.5043 18.1373L55.4105 18.1017C53.0393 17.2032 51.1332 16.481 49.0933 18.5858C48.1247 19.5851 47.8517 20.6008 47.1235 21.9722C45.859 24.3536 45.7312 26.3718 44.2185 28.4179C43.1543 29.8573 41.9243 29.6171 41.1121 31.3742C39.788 34.2389 41.0543 36.8261 41.6981 40.1109C42.4194 43.7912 44.007 45.1173 44.807 48.7603C45.5118 51.9701 44.3526 54.6395 45.7448 57.3068C47.8662 61.371 51.2057 59.6679 54.6757 58.7459C57.322 58.0427 59.3226 57.8915 61.0507 54.8347C62.0596 53.0502 62.9216 51.6892 62.6928 49.4201C62.4976 47.4835 61.5972 46.8158 60.6933 45.3941C57.7393 40.7479 50.5298 38.8179 50.5298 38.8179Z" fill="#914DFF"/>
<path d="M46.0773 16.6182C47.3866 13.8026 46.92 11.0294 45.9874 7.96151C45.1223 5.11518 43.9867 3.84345 42.1086 2.39805C39.704 0.547373 37.8457 0.434979 35.1624 1.27877C33.212 1.8921 32.1161 2.68986 30.5254 4.48232C28.9069 6.30625 27.9128 7.5799 27.1663 10.361C26.5896 12.5097 26.1503 14.0492 26.6609 16.2057C27.2995 18.9028 28.9216 19.2423 30.645 20.5515C33.473 22.6997 35.5743 24.5196 38.6436 23.075C40.1522 22.365 40.7365 21.1205 42.1019 19.9284C43.6362 18.5888 45.0699 18.7846 46.0773 16.6182Z" fill="#914DFF"/>
<path d="M28.5335 35.2735L29.0389 29.4288C29.0389 29.4288 19.9713 18.6729 14.3232 11.5015C13.199 10.0741 12.7963 8.77652 11.4547 7.8293C9.76465 6.63611 8.47425 6.24862 6.65849 7.05646C4.66175 7.94482 3.56547 9.55933 2.67997 12.3415C1.98579 14.5225 1.93955 16.0646 2.15348 18.4297C2.62038 23.5915 8.17616 28.2894 8.17616 28.2894L7.62861 34.6211C7.62861 34.6211 2.64453 37.6269 1.47593 41.7781C0.849924 44.0018 0.548921 45.5588 0.949444 47.8663C1.27972 49.7691 1.78832 50.7779 2.76251 52.1092C5.03075 55.209 7.58195 53.757 10.701 53.3884C19.0818 52.3981 28.5335 35.2735 28.5335 35.2735Z" fill="#914DFF"/>
</svg>
