<svg width="69" height="69" viewBox="0 0 69 69" fill="none" xmlns="http://www.w3.org/2000/svg">
<path d="M33.3734 66.1793C34.4076 65.0971 34.7411 64.0594 35.2514 62.5329C36.2969 59.4054 35.5342 57.5753 35.1158 54.6638C34.8322 52.6908 34.7093 51.5039 33.9692 49.8665C32.2758 46.1199 30.0811 44.0984 26.3149 44.7667C24.0377 45.1708 22.5719 46.0847 20.5764 48.1458C18.0093 50.7972 16.1259 53.3748 15.9365 57.1547C15.7995 59.8878 16.6384 61.1755 17.8353 63.0129L17.8543 63.0421C19.3963 65.4093 20.9297 65.9721 23.3824 66.7252C25.3331 67.3242 26.5701 67.2712 28.7083 67.1046C30.506 66.9644 31.7869 67.8393 33.3734 66.1793Z" fill="#914DFF"/>
<path d="M50.0281 47.8894C50.0281 47.8894 53.4599 49.3322 55.873 49.4788C58.0992 49.6141 59.4271 49.5815 61.7512 48.7857C63.1405 48.3099 64.0282 48.2617 65.2823 47.1049C67.056 45.4689 68.2037 43.6291 68.3756 41.099C68.5755 38.1556 66.3089 38.0784 65.0862 36.0264C63.9569 34.1311 63.7971 32.4778 62.3325 31.0226L62.2597 30.9503C60.4208 29.1225 58.9425 27.6532 56.2832 28.7208C55.0207 29.2277 54.39 30.0439 53.2087 30.9939C51.1573 32.6434 50.2846 34.4407 48.1309 35.6776C46.6159 36.5477 45.5774 35.8068 44.1746 37.0751C41.8877 39.1427 42.0809 42.0521 41.442 45.338C40.7262 49.0194 41.6863 50.9078 41.0566 54.5885C40.5017 57.8313 38.4391 59.7896 38.7179 62.8257C39.1428 67.4519 42.8439 67.3029 46.3723 67.9255C49.0632 68.4004 50.955 69.1084 53.6846 67.0354C55.2781 65.8253 56.5783 64.9416 57.2177 62.7631C57.7635 60.9039 57.1875 59.9103 56.8904 58.2235C55.9196 52.7111 50.0281 47.8894 50.0281 47.8894Z" fill="#914DFF"/>
<path d="M54.2529 25.6395C56.5079 23.6106 57.1179 20.8689 57.4107 17.6599C57.6824 14.6826 57.1167 13.0353 55.9348 10.9145C54.4215 8.1991 52.7589 7.30957 49.9814 6.94805C47.9626 6.68528 46.6586 6.95333 44.5284 7.92454C42.3609 8.9128 40.9722 9.66051 39.2464 11.896C37.9131 13.623 36.9338 14.8495 36.595 17.0439C36.1713 19.7884 37.5323 20.7864 38.6234 22.7168C40.4136 25.8843 41.6601 28.4431 45.0166 28.4168C46.6662 28.4039 47.6681 27.5095 49.3669 26.9937C51.2759 26.4141 52.5179 27.2006 54.2529 25.6395Z" fill="#914DFF"/>
<path d="M31.1757 35.3288L33.8271 30.1809C33.8271 30.1809 29.5347 16.4762 27.0375 7.50696C26.5404 5.72171 26.6567 4.36089 25.7805 2.92414C24.6767 1.1143 23.6379 0.212719 21.6698 0.185376C19.5055 0.155307 17.8955 1.17248 16.0417 3.35004C14.5885 5.05711 13.9689 6.45219 13.2799 8.71245C11.7761 13.6454 15.1145 20.3064 15.1145 20.3064L12.2421 25.8833C12.2421 25.8833 6.54473 26.5315 3.91887 29.8451C2.51223 31.6202 1.65331 32.9212 1.15703 35.2075C0.747789 37.0929 0.836773 38.2336 1.23216 39.8672C2.15276 43.6708 5.03666 43.4184 8.03601 44.4003C16.0951 47.0386 31.1757 35.3288 31.1757 35.3288Z" fill="#914DFF"/>
</svg>
