<svg width="68" height="71" viewBox="0 0 68 71" fill="none" xmlns="http://www.w3.org/2000/svg">
<path d="M31.0291 67.1969C32.1323 66.1946 32.5335 65.1844 33.1434 63.6997C34.3929 60.6581 33.753 58.7755 33.5279 55.8399C33.3754 53.8507 33.3312 52.6575 32.7011 50.9688C31.2594 47.1051 29.2037 44.9246 25.4026 45.3099C23.1044 45.5429 21.5818 46.3451 19.455 48.2521C16.7192 50.7052 14.6701 53.1357 14.2315 56.8922C13.9143 59.6083 14.666 60.9555 15.7386 62.8778L15.7556 62.9083C17.1374 65.3848 18.6298 66.0608 21.0268 66.9952C22.933 67.7384 24.1705 67.778 26.3144 67.7714C28.117 67.7659 29.3369 68.7343 31.0291 67.1969Z" fill="#914DFF"/>
<path d="M48.8509 50.1961C48.8509 50.1961 52.179 51.8917 54.5764 52.2182C56.7881 52.5194 58.115 52.5861 60.4859 51.9658C61.9032 51.595 62.7919 51.6132 64.1193 50.5529C65.9967 49.0534 67.2631 47.3039 67.6017 44.7929C67.9956 41.8718 65.7396 41.6255 64.6555 39.4871C63.6543 37.5122 63.6041 35.8511 62.2392 34.29L62.1714 34.2124C60.4577 32.2518 59.0802 30.6758 56.357 31.5421C55.064 31.9534 54.381 32.7206 53.1398 33.5799C50.9845 35.0721 49.9953 36.7998 47.7652 37.8728C46.1964 38.6276 45.2095 37.811 43.7264 38.9713C41.3085 40.863 41.3091 43.7796 40.4546 47.0097C39.4974 50.6285 40.3303 52.584 39.459 56.2085C38.6914 59.402 36.5044 61.2013 36.582 64.2508C36.7002 68.8973 40.402 69.025 43.8805 69.9097C46.5334 70.5844 48.3738 71.4319 51.2336 69.568C52.9031 68.4799 54.2584 67.6954 55.0403 65.5701C55.7075 63.7563 55.1985 62.7221 55.0136 61.0173C54.4093 55.446 48.8509 50.1961 48.8509 50.1961Z" fill="#914DFF"/>
<path d="M54.5352 28.3167C56.9187 26.4613 57.7083 23.772 58.2124 20.5927C58.6801 17.6431 58.2245 15.9576 57.1857 13.7538C55.8555 10.932 54.2558 9.92052 51.509 9.35244C49.5125 8.93952 48.1941 9.10952 46.005 9.91922C43.7775 10.7431 42.3429 11.3853 40.4737 13.4863C39.0296 15.1095 37.9717 16.2598 37.4888 18.4235C36.8848 21.1296 38.1765 22.2267 39.1373 24.2338C40.7139 27.5273 41.7883 30.1729 45.1382 30.3973C46.7846 30.5076 47.8431 29.6903 49.5718 29.3027C51.5144 28.8671 52.7013 29.7444 54.5352 28.3167Z" fill="#914DFF"/>
<path d="M30.8749 36.2585L33.8598 31.3213C33.8598 31.3213 30.4834 17.3299 28.5849 8.19623C28.207 6.37827 28.4129 5.02949 27.6337 3.53085C26.6522 1.64303 25.6756 0.66609 23.7141 0.491809C21.5571 0.300159 19.8839 1.19456 17.8909 3.22829C16.3285 4.8226 15.6183 6.16795 14.7816 8.37116C12.9557 13.1796 15.8458 20.0735 15.8458 20.0735L12.6121 25.4221C12.6121 25.4221 6.88595 25.6431 4.04767 28.7524C2.52724 30.4181 1.58449 31.6517 0.938398 33.8953C0.405616 35.7455 0.419024 36.89 0.705515 38.5491C1.37257 42.412 4.26602 42.3757 7.19309 43.5792C15.0579 46.8129 30.8749 36.2585 30.8749 36.2585Z" fill="#914DFF"/>
</svg>
