<svg width="70" height="70" viewBox="0 0 70 70" fill="none" xmlns="http://www.w3.org/2000/svg">
<path d="M63.5889 43.1375C62.8584 41.8044 61.9952 41.2043 60.7302 40.3012C58.1386 38.451 56.2824 38.7845 53.5258 38.4961C51.6578 38.3006 50.5458 38.1339 48.8707 38.4917C45.0381 39.3105 42.6534 41.0721 42.3316 45.1177C42.137 47.5638 42.6076 49.3 43.9926 51.8655C45.7743 55.1657 47.6577 57.7433 51.0554 58.8727C53.5121 59.6893 54.8929 59.1433 56.8632 58.3642L56.8944 58.3518C59.4327 57.3481 60.3246 55.9073 61.6171 53.5663C62.645 51.7046 62.9025 50.417 63.2791 48.1727C63.5957 46.2859 64.7096 45.1824 63.5889 43.1375Z" fill="#914DFF"/>
<path d="M51.0381 21.4572C51.0381 21.4572 53.2011 18.2779 53.9312 15.8278C54.6047 13.5676 54.9032 12.1913 54.7523 9.6C54.6622 8.05098 54.8376 7.1245 54.0934 5.54641C53.0409 3.31464 51.6481 1.67735 49.3849 0.874927C46.7521 -0.058551 46.1216 2.25778 43.9494 3.01037C41.9432 3.70544 40.3971 3.46146 38.7089 4.61086L38.625 4.66796C36.5049 6.11093 34.8007 7.27086 35.1163 10.2747C35.2661 11.7008 35.8541 12.5523 36.4277 14.0043C37.4239 16.5256 38.8461 17.8689 39.4409 20.3936C39.8594 22.1697 38.9275 23.0565 39.7366 24.8153C41.0555 27.6826 43.7545 28.2026 46.591 29.673C49.7688 31.3205 51.727 30.798 54.9255 32.3565C57.7435 33.7296 59.0182 36.3389 61.8539 36.802C66.1747 37.5076 66.9535 33.6575 68.393 30.1759C69.4908 27.5208 70.6036 25.7465 69.3892 22.4218C68.6803 20.4809 68.1963 18.9229 66.3692 17.7256C64.8098 16.7038 63.762 17.0517 62.1514 16.9409C56.8881 16.5787 51.0381 21.4572 51.0381 21.4572Z" fill="#914DFF"/>
<path d="M31.8065 11.605C30.5149 8.78014 28.1673 7.47403 25.3154 6.37917C22.6694 5.36338 21.0284 5.53917 18.8037 6.23272C15.9552 7.12072 14.7336 8.61395 13.7177 11.3863C12.9793 13.4014 12.9013 14.8112 13.2598 17.246C13.6247 19.7235 13.9628 21.3392 15.5734 23.6698C16.8177 25.4704 17.6933 26.7825 19.6093 27.6739C22.0056 28.7888 23.2514 27.6332 25.2802 26.9862C28.6092 25.9245 31.249 25.2727 32.0546 21.8079C32.4505 20.105 31.8831 18.8517 31.833 16.9739C31.7767 14.8637 32.8003 13.7785 31.8065 11.605Z" fill="#914DFF"/>
<path d="M34.9325 37.7768L30.8966 33.7727C30.8966 33.7727 17.3469 34.8081 8.55628 35.1642C6.80657 35.2351 5.59522 34.779 4.06938 35.3267C2.14731 36.0166 1.06898 36.864 0.557626 38.8851C-0.00469708 41.1076 0.524296 43.0178 2.0505 45.466C3.24694 47.3852 4.3651 48.3684 6.25453 49.637C10.3781 52.4056 17.2732 50.6123 17.2732 50.6123L21.6454 54.9501C21.6454 54.9501 20.8279 60.9805 23.1986 64.505C24.4685 66.393 25.4418 67.5995 27.4026 68.6759C29.0196 69.5636 30.081 69.7538 31.6674 69.7502C35.3611 69.7418 35.8439 66.708 37.48 63.8604C41.876 56.209 34.9325 37.7768 34.9325 37.7768Z" fill="#914DFF"/>
</svg>
