<svg width="72" height="65" viewBox="0 0 72 65" fill="none" xmlns="http://www.w3.org/2000/svg">
<path d="M59.7356 50.5047C59.4551 48.9909 58.8239 48.1237 57.9062 46.8304C56.0261 44.1808 54.1694 43.8506 51.653 42.6195C49.9478 41.7853 48.9482 41.241 47.2552 40.9968C43.3815 40.4379 40.5862 41.2735 39.0379 44.9848C38.1017 47.2288 38.0125 49.0331 38.5325 51.9392C39.2013 55.6774 40.1884 58.7682 43.052 61.0169C45.1226 62.6429 46.5954 62.607 48.6969 62.5557L48.7302 62.5549C51.4376 62.489 52.7236 61.4376 54.665 59.6747C56.2089 58.2727 56.8482 57.1454 57.8943 55.1554C58.7738 53.4824 60.1657 52.8269 59.7356 50.5047Z" fill="#914DFF"/>
<path d="M54.5421 25.6524C54.5421 25.6524 57.5639 23.3999 59.0073 21.3384C60.3388 19.4366 61.0442 18.2398 61.6985 15.7385C62.0897 14.2433 62.5404 13.4287 62.3224 11.6786C62.0141 9.2036 61.2014 7.17202 59.3094 5.6268C57.1085 3.82921 55.8002 5.79894 53.516 5.75487C51.4063 5.71416 50.0202 4.94601 48.0714 5.44524L47.9746 5.47003C45.5273 6.0965 43.56 6.60008 42.9345 9.54847C42.6375 10.9483 42.9313 11.9575 43.0269 13.5291C43.1929 16.2581 44.1238 18.0221 43.9095 20.6148C43.7588 22.4388 42.6055 22.9528 42.8291 24.8962C43.1937 28.0645 45.5845 29.4944 47.8128 31.8702C50.3093 34.5321 52.3205 34.7192 54.8638 37.3041C57.1047 39.5816 57.5069 42.4906 60.0443 43.9143C63.9105 46.0834 65.8306 42.7158 68.2616 39.9262C70.1156 37.7987 71.7128 36.5089 71.5876 32.9448C71.5146 30.8641 71.5363 29.2234 70.1779 27.4566C69.0185 25.9488 67.9213 25.9133 66.4333 25.2485C61.5708 23.0762 54.5421 25.6524 54.5421 25.6524Z" fill="#914DFF"/>
<path d="M39.3976 9.65485C39.0458 6.53621 37.2289 4.48563 34.8704 2.45933C32.6823 0.57934 31.0775 0.174904 28.7618 0.0567663C25.7968 -0.0944959 24.1832 0.891896 22.3705 3.15859C21.053 4.80618 20.5457 6.11133 20.1358 8.53695C19.7186 11.0051 19.5413 12.6495 20.3466 15.412C20.9688 17.5463 21.3927 19.0907 22.9292 20.5993C24.8509 22.4861 26.3836 21.8272 28.4999 21.9212C31.9724 22.0754 34.6675 22.3773 36.4944 19.3831C37.3922 17.9115 37.2414 16.5298 37.7715 14.7378C38.3672 12.7241 39.6683 12.0544 39.3976 9.65485Z" fill="#914DFF"/>
<path d="M34.3031 35.4748L31.7205 30.2875C31.7205 30.2875 18.5973 26.5547 10.1804 23.8346C8.5051 23.2932 7.50061 22.441 5.89022 22.428C3.86164 22.4117 2.58199 22.8376 1.47721 24.5698C0.262316 26.4746 0.174768 28.4637 0.864184 31.308C1.40464 33.5377 2.15896 34.8556 3.5544 36.7114C6.59989 40.7616 13.6674 41.4644 13.6674 41.4644L16.4652 47.0839C16.4652 47.0839 13.8381 52.4986 14.9946 56.6536C15.6141 58.8794 16.1628 60.358 17.6848 62.057C18.9399 63.4581 19.8845 64.0069 21.3848 64.5551C24.8779 65.8314 26.2672 63.1324 28.6891 61.0102C35.1965 55.308 34.3031 35.4748 34.3031 35.4748Z" fill="#914DFF"/>
</svg>
