<svg width="62" height="66" viewBox="0 0 62 66" fill="none" xmlns="http://www.w3.org/2000/svg">
<path d="M59.7356 50.6454C59.4551 49.1315 58.8239 48.2643 57.9062 46.971C56.0261 44.3215 54.1694 43.9912 51.653 42.7601C49.9478 41.9259 48.9482 41.3816 47.2552 41.1374C43.3815 40.5785 40.5862 41.4141 39.0379 45.1254C38.1017 47.3694 38.0125 49.1738 38.5325 52.0798C39.2013 55.818 40.1884 58.9088 43.052 61.1575C45.1226 62.7835 46.5954 62.7476 48.6969 62.6964L48.7302 62.6955C51.4376 62.6296 52.7236 61.5782 54.665 59.8153C56.2089 58.4133 56.8482 57.286 57.8943 55.296C58.7738 53.623 60.1657 52.9675 59.7356 50.6454Z" fill="#914DFF"/>
<path d="M54.5421 25.793C54.5421 25.793 57.5639 23.5406 59.0073 21.479C60.3388 19.5772 61.0442 18.3804 61.6985 15.8791C62.0897 14.3839 62.5404 13.5694 62.3224 11.8193C62.0141 9.34423 61.2014 7.31264 59.3094 5.76742C57.1085 3.96983 55.8002 5.93956 53.516 5.89549C51.4063 5.85479 50.0202 5.08663 48.0714 5.58587L47.9746 5.61066C45.5273 6.23712 43.56 6.7407 42.9345 9.6891C42.6375 11.0889 42.9313 12.0981 43.0269 13.6697C43.1929 16.3987 44.1238 18.1627 43.9095 20.7555C43.7588 22.5794 42.6055 23.0935 42.8291 25.0369C43.1937 28.2051 45.5845 29.635 47.8128 32.0108C50.3093 34.6727 52.3205 34.8598 54.8638 37.4447C57.1047 39.7222 57.5069 42.6312 60.0443 44.0549C63.9105 46.2241 65.8306 42.8564 68.2616 40.0668C70.1156 37.9394 71.7128 36.6495 71.5876 33.0854C71.5146 31.0047 71.5363 29.364 70.1779 27.5973C69.0185 26.0894 67.9213 26.0539 66.4333 25.3891C61.5708 23.2168 54.5421 25.793 54.5421 25.793Z" fill="#914DFF"/>
<path d="M39.3976 9.79548C39.0458 6.67683 37.2289 4.62625 34.8704 2.59995C32.6823 0.719965 31.0775 0.315529 28.7618 0.197391C25.7968 0.0461291 24.1832 1.03252 22.3705 3.29921C21.053 4.94681 20.5457 6.25196 20.1358 8.67757C19.7186 11.1458 19.5413 12.7901 20.3466 15.5526C20.9688 17.6869 21.3927 19.2313 22.9292 20.7399C24.8509 22.6268 26.3836 21.9678 28.4999 22.0618C31.9724 22.216 34.6675 22.5179 36.4944 19.5237C37.3922 18.0521 37.2414 16.6704 37.7715 14.8784C38.3672 12.8647 39.6683 12.195 39.3976 9.79548Z" fill="#914DFF"/>
<path d="M34.3031 35.6154L31.7205 30.4281C31.7205 30.4281 18.5973 26.6953 10.1804 23.9752C8.5051 23.4338 7.50061 22.5816 5.89022 22.5687C3.86164 22.5523 2.58199 22.9782 1.47721 24.7104C0.262316 26.6152 0.174768 28.6043 0.864184 31.4486C1.40464 33.6783 2.15896 34.9962 3.5544 36.852C6.59989 40.9022 13.6674 41.605 13.6674 41.605L16.4652 47.2245C16.4652 47.2245 13.8381 52.6392 14.9946 56.7942C15.6141 59.02 16.1628 60.4986 17.6848 62.1976C18.9399 63.5987 19.8845 64.1476 21.3848 64.6957C24.8779 65.9721 26.2672 63.273 28.6891 61.1508C35.1965 55.4486 34.3031 35.6154 34.3031 35.6154Z" fill="#914DFF"/>
</svg>
