<svg width="68" height="71" viewBox="0 0 68 71" fill="none" xmlns="http://www.w3.org/2000/svg">
<path d="M31.0291 67.1598C32.1323 66.1575 32.5335 65.1473 33.1434 63.6626C34.3929 60.621 33.753 58.7384 33.5279 55.8028C33.3754 53.8136 33.3312 52.6204 32.7011 50.9317C31.2594 47.068 29.2037 44.8875 25.4026 45.2728C23.1044 45.5058 21.5818 46.308 19.455 48.215C16.7192 50.6681 14.6701 53.0986 14.2315 56.8551C13.9143 59.5712 14.666 60.9184 15.7386 62.8407L15.7556 62.8711C17.1374 65.3477 18.6298 66.0237 21.0268 66.9581C22.933 67.7013 24.1705 67.7409 26.3144 67.7343C28.117 67.7288 29.3369 68.6972 31.0291 67.1598Z" fill="#914DFF"/>
<path d="M48.8509 50.159C48.8509 50.159 52.179 51.8546 54.5764 52.1811C56.7881 52.4823 58.115 52.549 60.4859 51.9287C61.9032 51.5579 62.7919 51.5761 64.1193 50.5158C65.9967 49.0163 67.2631 47.2668 67.6017 44.7558C67.9956 41.8347 65.7396 41.5883 64.6555 39.45C63.6543 37.4751 63.6041 35.814 62.2392 34.2529L62.1714 34.1753C60.4577 32.2147 59.0802 30.6387 56.357 31.505C55.064 31.9163 54.381 32.6835 53.1398 33.5428C50.9845 35.035 49.9953 36.7627 47.7652 37.8357C46.1964 38.5905 45.2095 37.7738 43.7264 38.9342C41.3085 40.8259 41.3091 43.7425 40.4546 46.9726C39.4974 50.5914 40.3303 52.5469 39.459 56.1714C38.6914 59.3649 36.5044 61.1642 36.582 64.2137C36.7002 68.8602 40.402 68.9879 43.8805 69.8726C46.5334 70.5473 48.3738 71.3948 51.2336 69.5309C52.9031 68.4428 54.2584 67.6583 55.0403 65.533C55.7075 63.7192 55.1985 62.685 55.0136 60.9802C54.4093 55.4088 48.8509 50.159 48.8509 50.159Z" fill="#914DFF"/>
<path d="M54.5352 28.2796C56.9187 26.4242 57.7083 23.7349 58.2124 20.5556C58.6801 17.606 58.2245 15.9205 57.1857 13.7167C55.8555 10.8949 54.2558 9.88341 51.509 9.31533C49.5125 8.90241 48.1941 9.07241 46.005 9.88211C43.7775 10.706 42.3429 11.3482 40.4737 13.4492C39.0296 15.0724 37.9717 16.2227 37.4888 18.3864C36.8848 21.0925 38.1765 22.1896 39.1373 24.1967C40.7139 27.4902 41.7883 30.1358 45.1382 30.3602C46.7846 30.4705 47.8431 29.6532 49.5718 29.2656C51.5144 28.83 52.7013 29.7073 54.5352 28.2796Z" fill="#914DFF"/>
<path d="M30.8749 36.2214L33.8598 31.2842C33.8598 31.2842 30.4834 17.2927 28.5849 8.15912C28.207 6.34116 28.4129 4.99238 27.6337 3.49374C26.6522 1.60592 25.6756 0.62898 23.7141 0.4547C21.5571 0.263049 19.8839 1.15745 17.8909 3.19118C16.3285 4.78549 15.6183 6.13084 14.7816 8.33405C12.9557 13.1425 15.8458 20.0364 15.8458 20.0364L12.6121 25.3849C12.6121 25.3849 6.88595 25.606 4.04767 28.7153C2.52724 30.381 1.58449 31.6146 0.938398 33.8582C0.405616 35.7084 0.419024 36.8529 0.705515 38.512C1.37257 42.3749 4.26602 42.3386 7.19309 43.5421C15.0579 46.7758 30.8749 36.2214 30.8749 36.2214Z" fill="#914DFF"/>
</svg>
