<svg width="68" height="71" viewBox="0 0 68 71" fill="none" xmlns="http://www.w3.org/2000/svg">
<path d="M31.0291 66.7574C32.1323 65.7551 32.5335 64.7449 33.1434 63.2603C34.3929 60.2186 33.753 58.336 33.5279 55.4005C33.3754 53.4112 33.3312 52.218 32.7011 50.5294C31.2594 46.6656 29.2037 44.4851 25.4026 44.8705C23.1044 45.1035 21.5818 45.9057 19.455 47.8127C16.7192 50.2658 14.6701 52.6963 14.2315 56.4527C13.9143 59.1688 14.666 60.516 15.7386 62.4383L15.7556 62.4688C17.1374 64.9453 18.6298 65.6213 21.0268 66.5558C22.933 67.2989 24.1705 67.3385 26.3144 67.3319C28.117 67.3264 29.3369 68.2949 31.0291 66.7574Z" fill="#914DFF"/>
<path d="M48.8509 49.7567C48.8509 49.7567 52.179 51.4522 54.5764 51.7788C56.7881 52.08 58.115 52.1467 60.4859 51.5264C61.9032 51.1555 62.7919 51.1738 64.1193 50.1135C65.9967 48.614 67.2631 46.8645 67.6017 44.3534C67.9956 41.4323 65.7396 41.186 64.6555 39.0477C63.6543 37.0728 63.6041 35.4116 62.2392 33.8506L62.1714 33.773C60.4577 31.8124 59.0802 30.2363 56.357 31.1027C55.064 31.514 54.381 32.2811 53.1398 33.1404C50.9845 34.6327 49.9953 36.3604 47.7652 37.4333C46.1964 38.1882 45.2095 37.3715 43.7264 38.5319C41.3085 40.4235 41.3091 43.3402 40.4546 46.5702C39.4974 50.1891 40.3303 52.1446 39.459 55.7691C38.6914 58.9625 36.5044 60.7619 36.582 63.8113C36.7002 68.4579 40.402 68.5856 43.8805 69.4702C46.5334 70.1449 48.3738 70.9925 51.2336 69.1285C52.9031 68.0404 54.2584 67.256 55.0403 65.1307C55.7075 63.3168 55.1985 62.2827 55.0136 60.5778C54.4093 55.0065 48.8509 49.7567 48.8509 49.7567Z" fill="#914DFF"/>
<path d="M54.5352 27.8773C56.9187 26.0218 57.7083 23.3325 58.2124 20.1533C58.6801 17.2036 58.2245 15.5182 57.1857 13.3143C55.8555 10.4926 54.2558 9.48106 51.509 8.91299C49.5125 8.50006 48.1941 8.67006 46.005 9.47977C43.7775 10.3037 42.3429 10.9458 40.4737 13.0469C39.0296 14.6701 37.9717 15.8203 37.4888 17.984C36.8848 20.6901 38.1765 21.7873 39.1373 23.7944C40.7139 27.0879 41.7883 29.7334 45.1382 29.9579C46.7846 30.0682 47.8431 29.2509 49.5718 28.8633C51.5144 28.4277 52.7013 29.3049 54.5352 27.8773Z" fill="#914DFF"/>
<path d="M30.8749 35.819L33.8598 30.8819C33.8598 30.8819 30.4834 16.8904 28.5849 7.75678C28.207 5.93881 28.4129 4.59004 27.6337 3.09139C26.6522 1.20358 25.6756 0.226636 23.7141 0.0523563C21.5571 -0.139295 19.8839 0.755105 17.8909 2.78883C16.3285 4.38314 15.6183 5.7285 14.7816 7.93171C12.9557 12.7402 15.8458 19.634 15.8458 19.634L12.6121 24.9826C12.6121 24.9826 6.88595 25.2037 4.04767 28.313C2.52724 29.9786 1.58449 31.2122 0.938398 33.4559C0.405616 35.306 0.419024 36.4505 0.705515 38.1096C1.37257 41.9726 4.26602 41.9363 7.19309 43.1398C15.0579 46.3735 30.8749 35.819 30.8749 35.819Z" fill="#914DFF"/>
</svg>
