<svg width="68" height="71" viewBox="0 0 68 71" fill="none" xmlns="http://www.w3.org/2000/svg">
<path d="M31.0291 67.4039C32.1323 66.4016 32.5335 65.3914 33.1434 63.9067C34.3929 60.8651 33.753 58.9825 33.5279 56.047C33.3754 54.0577 33.3312 52.8645 32.7011 51.1759C31.2594 47.3121 29.2037 45.1316 25.4026 45.517C23.1044 45.75 21.5818 46.5522 19.455 48.4592C16.7192 50.9123 14.6701 53.3428 14.2315 57.0992C13.9143 59.8153 14.666 61.1625 15.7386 63.0848L15.7556 63.1153C17.1374 65.5918 18.6298 66.2678 21.0268 67.2023C22.933 67.9454 24.1705 67.985 26.3144 67.9784C28.117 67.9729 29.3369 68.9413 31.0291 67.4039Z" fill="#914DFF"/>
<path d="M48.8509 50.4032C48.8509 50.4032 52.179 52.0987 54.5764 52.4252C56.7881 52.7265 58.115 52.7931 60.4859 52.1728C61.9032 51.802 62.7919 51.8202 64.1193 50.7599C65.9967 49.2605 67.2631 47.5109 67.6017 44.9999C67.9956 42.0788 65.7396 41.8325 64.6555 39.6942C63.6543 37.7193 63.6041 36.0581 62.2392 34.497L62.1714 34.4195C60.4577 32.4589 59.0802 30.8828 56.357 31.7492C55.064 32.1605 54.381 32.9276 53.1398 33.7869C50.9845 35.2792 49.9953 37.0069 47.7652 38.0798C46.1964 38.8347 45.2095 38.018 43.7264 39.1783C41.3085 41.07 41.3091 43.9867 40.4546 47.2167C39.4974 50.8356 40.3303 52.7911 39.459 56.4156C38.6914 59.609 36.5044 61.4083 36.582 64.4578C36.7002 69.1043 40.402 69.2321 43.8805 70.1167C46.5334 70.7914 48.3738 71.6389 51.2336 69.775C52.9031 68.6869 54.2584 67.9025 55.0403 65.7771C55.7075 63.9633 55.1985 62.9291 55.0136 61.2243C54.4093 55.653 48.8509 50.4032 48.8509 50.4032Z" fill="#914DFF"/>
<path d="M54.5352 28.5238C56.9187 26.6683 57.7083 23.979 58.2124 20.7998C58.6801 17.8501 58.2245 16.1647 57.1857 13.9608C55.8555 11.1391 54.2558 10.1275 51.509 9.55947C49.5125 9.14655 48.1941 9.31655 46.005 10.1263C43.7775 10.9502 42.3429 11.5923 40.4737 13.6933C39.0296 15.3166 37.9717 16.4668 37.4888 18.6305C36.8848 21.3366 38.1765 22.4338 39.1373 24.4409C40.7139 27.7343 41.7883 30.3799 45.1382 30.6044C46.7846 30.7147 47.8431 29.8973 49.5718 29.5097C51.5144 29.0742 52.7013 29.9514 54.5352 28.5238Z" fill="#914DFF"/>
<path d="M30.8749 36.4655L33.8598 31.5284C33.8598 31.5284 30.4834 17.5369 28.5849 8.40326C28.207 6.5853 28.4129 5.23652 27.6337 3.73788C26.6522 1.85006 25.6756 0.873121 23.7141 0.698841C21.5571 0.50719 19.8839 1.40159 17.8909 3.43532C16.3285 5.02963 15.6183 6.37498 14.7816 8.57819C12.9557 13.3866 15.8458 20.2805 15.8458 20.2805L12.6121 25.6291C12.6121 25.6291 6.88595 25.8501 4.04767 28.9595C2.52724 30.6251 1.58449 31.8587 0.938398 34.1023C0.405616 35.9525 0.419024 37.097 0.705515 38.7561C1.37257 42.6191 4.26602 42.5827 7.19309 43.7862C15.0579 47.0199 30.8749 36.4655 30.8749 36.4655Z" fill="#914DFF"/>
</svg>
