<svg width="68" height="71" viewBox="0 0 68 71" fill="none" xmlns="http://www.w3.org/2000/svg">
<path d="M31.0291 67.2418C32.1323 66.2395 32.5335 65.2293 33.1434 63.7446C34.3929 60.703 33.753 58.8204 33.5279 55.8849C33.3754 53.8956 33.3312 52.7024 32.7011 51.0138C31.2594 47.15 29.2037 44.9695 25.4026 45.3549C23.1044 45.5879 21.5818 46.3901 19.455 48.2971C16.7192 50.7502 14.6701 53.1807 14.2315 56.9371C13.9143 59.6532 14.666 61.0004 15.7386 62.9227L15.7556 62.9532C17.1374 65.4297 18.6298 66.1057 21.0268 67.0402C22.933 67.7833 24.1705 67.8229 26.3144 67.8163C28.117 67.8108 29.3369 68.7792 31.0291 67.2418Z" fill="#914DFF"/>
<path d="M48.8509 50.241C48.8509 50.241 52.179 51.9366 54.5764 52.2631C56.7881 52.5644 58.115 52.631 60.4859 52.0107C61.9032 51.6399 62.7919 51.6581 64.1193 50.5978C65.9967 49.0983 67.2631 47.3488 67.6017 44.8378C67.9956 41.9167 65.7396 41.6704 64.6555 39.532C63.6543 37.5572 63.6041 35.896 62.2392 34.3349L62.1714 34.2574C60.4577 32.2968 59.0802 30.7207 56.357 31.587C55.064 31.9983 54.381 32.7655 53.1398 33.6248C50.9845 35.117 49.9953 36.8448 47.7652 37.9177C46.1964 38.6725 45.2095 37.8559 43.7264 39.0162C41.3085 40.9079 41.3091 43.8246 40.4546 47.0546C39.4974 50.6735 40.3303 52.6289 39.459 56.2535C38.6914 59.4469 36.5044 61.2462 36.582 64.2957C36.7002 68.9422 40.402 69.07 43.8805 69.9546C46.5334 70.6293 48.3738 71.4768 51.2336 69.6129C52.9031 68.5248 54.2584 67.7403 55.0403 65.615C55.7075 63.8012 55.1985 62.767 55.0136 61.0622C54.4093 55.4909 48.8509 50.241 48.8509 50.241Z" fill="#914DFF"/>
<path d="M54.5352 28.3617C56.9187 26.5062 57.7083 23.8169 58.2124 20.6377C58.6801 17.688 58.2245 16.0025 57.1857 13.7987C55.8556 10.977 54.2558 9.96544 51.5091 9.39736C49.5125 8.98444 48.1941 9.15443 46.005 9.96414C43.7775 10.7881 42.3429 11.4302 40.4737 13.5312C39.0296 15.1545 37.9717 16.3047 37.4888 18.4684C36.8848 21.1745 38.1765 22.2717 39.1373 24.2788C40.7139 27.5722 41.7883 30.2178 45.1382 30.4423C46.7846 30.5526 47.8431 29.7352 49.5718 29.3476C51.5144 28.9121 52.7013 29.7893 54.5352 28.3617Z" fill="#914DFF"/>
<path d="M30.8749 36.3034L33.8598 31.3662C33.8598 31.3662 30.4834 17.3748 28.5849 8.24115C28.207 6.42319 28.4129 5.07441 27.6337 3.57576C26.6522 1.68795 25.6756 0.71101 23.7141 0.53673C21.5572 0.345079 19.8839 1.23948 17.8909 3.27321C16.3285 4.86752 15.6183 6.21287 14.7816 8.41608C12.9557 13.2245 15.8458 20.1184 15.8458 20.1184L12.6121 25.467C12.6121 25.467 6.88595 25.688 4.04767 28.7974C2.52724 30.463 1.58449 31.6966 0.938398 33.9402C0.405617 35.7904 0.419026 36.9349 0.705517 38.594C1.37257 42.457 4.26602 42.4206 7.19309 43.6241C15.0579 46.8578 30.8749 36.3034 30.8749 36.3034Z" fill="#914DFF"/>
</svg>
