<svg width="68" height="71" viewBox="0 0 68 71" fill="none" xmlns="http://www.w3.org/2000/svg">
<path d="M31.0291 67.0035C32.1323 66.0012 32.5335 64.991 33.1434 63.5064C34.3929 60.4647 33.753 58.5821 33.5279 55.6466C33.3754 53.6573 33.3312 52.4641 32.7011 50.7755C31.2594 46.9117 29.2037 44.7312 25.4026 45.1166C23.1044 45.3496 21.5818 46.1518 19.455 48.0588C16.7192 50.5119 14.6701 52.9424 14.2315 56.6988C13.9143 59.4149 14.666 60.7621 15.7386 62.6844L15.7556 62.7149C17.1374 65.1914 18.6298 65.8674 21.0268 66.8019C22.933 67.545 24.1705 67.5846 26.3144 67.578C28.117 67.5725 29.3369 68.541 31.0291 67.0035Z" fill="#914DFF"/>
<path d="M48.8509 50.0028C48.8509 50.0028 52.179 51.6983 54.5764 52.0248C56.7881 52.3261 58.115 52.3928 60.4859 51.7724C61.9032 51.4016 62.7919 51.4199 64.1193 50.3596C65.9967 48.8601 67.2631 47.1106 67.6017 44.5995C67.9956 41.6784 65.7396 41.4321 64.6555 39.2938C63.6543 37.3189 63.6041 35.6577 62.2392 34.0967L62.1714 34.0191C60.4577 32.0585 59.0802 30.4824 56.357 31.3488C55.064 31.7601 54.381 32.5272 53.1398 33.3865C50.9845 34.8788 49.9953 36.6065 47.7652 37.6794C46.1964 38.4343 45.2095 37.6176 43.7264 38.7779C41.3085 40.6696 41.3091 43.5863 40.4546 46.8163C39.4974 50.4352 40.3303 52.3907 39.459 56.0152C38.6914 59.2086 36.5044 61.0079 36.582 64.0574C36.7002 68.704 40.402 68.8317 43.8805 69.7163C46.5334 70.391 48.3738 71.2385 51.2336 69.3746C52.9031 68.2865 54.2584 67.5021 55.0403 65.3767C55.7075 63.5629 55.1985 62.5287 55.0136 60.8239C54.4093 55.2526 48.8509 50.0028 48.8509 50.0028Z" fill="#914DFF"/>
<path d="M54.5352 28.1234C56.9187 26.2679 57.7083 23.5786 58.2124 20.3994C58.6801 17.4497 58.2245 15.7643 57.1857 13.5604C55.8555 10.7387 54.2558 9.72716 51.509 9.15908C49.5125 8.74616 48.1941 8.91616 46.005 9.72586C43.7775 10.5498 42.3429 11.1919 40.4737 13.2929C39.0296 14.9162 37.9717 16.0664 37.4888 18.2301C36.8848 20.9362 38.1765 22.0334 39.1373 24.0405C40.7139 27.334 41.7883 29.9795 45.1382 30.204C46.7846 30.3143 47.8431 29.497 49.5718 29.1093C51.5144 28.6738 52.7013 29.551 54.5352 28.1234Z" fill="#914DFF"/>
<path d="M30.8749 36.0651L33.8598 31.128C33.8598 31.128 30.4834 17.1365 28.5849 8.00287C28.207 6.18491 28.4129 4.83613 27.6337 3.33749C26.6522 1.44967 25.6756 0.47273 23.7141 0.29845C21.5571 0.106799 19.8839 1.0012 17.8909 3.03493C16.3285 4.62924 15.6183 5.97459 14.7816 8.1778C12.9557 12.9863 15.8458 19.8801 15.8458 19.8801L12.6121 25.2287C12.6121 25.2287 6.88595 25.4497 4.04767 28.5591C2.52724 30.2247 1.58449 31.4583 0.938398 33.702C0.405616 35.5521 0.419024 36.6966 0.705515 38.3557C1.37257 42.2187 4.26602 42.1823 7.19309 43.3858C15.0579 46.6196 30.8749 36.0651 30.8749 36.0651Z" fill="#914DFF"/>
</svg>
