<svg width="64" height="76" viewBox="0 0 64 76" fill="none" xmlns="http://www.w3.org/2000/svg">
<path d="M22.6415 67.4899C23.9555 66.8353 24.5947 65.9748 25.5537 64.7158C27.5184 62.1366 27.372 60.1409 27.8885 57.2472C28.2386 55.2864 28.4942 54.1236 28.3087 52.3176C27.8843 48.1855 26.4474 45.5025 22.6866 44.8001C20.4128 44.3753 18.7445 44.7185 16.2176 45.9561C12.9671 47.548 10.3844 49.3122 9.02276 52.8097C8.03824 55.3385 8.42629 56.8497 8.98 59.0059L8.98878 59.0401C9.70206 61.818 10.9719 62.8914 13.0491 64.4695C14.7012 65.7245 15.8843 66.1123 17.9528 66.7117C19.6919 67.2157 20.6259 68.4939 22.6415 67.4899Z" fill="#914DFF"/>
<path d="M44.071 56.1356C44.071 56.1356 46.8557 58.7105 49.0854 59.7027C51.1423 60.618 52.4048 61.0571 54.8455 61.129C56.3046 61.172 57.1567 61.4406 58.7014 60.7935C60.8859 59.8783 62.5441 58.5495 63.498 56.2244C64.6077 53.5196 62.4944 52.6447 61.9836 50.277C61.5118 48.0902 61.8785 46.4746 60.9528 44.584L60.9068 44.49C59.7447 42.1157 58.8105 40.2072 55.9687 40.2729C54.6195 40.3041 53.7693 40.8507 52.358 41.3285C49.9073 42.1581 48.5218 43.5442 46.1038 43.9485C44.4028 44.233 43.6554 43.1668 41.9356 43.8664C39.132 45.007 38.4037 47.8189 36.7728 50.6915C34.9456 53.9098 35.26 56.0303 33.5143 59.2783C31.9762 62.1401 29.4182 63.2568 28.731 66.2186C27.6839 70.7315 31.2206 71.9005 34.3531 73.7362C36.742 75.1362 38.3045 76.4732 41.5272 75.4843C43.4086 74.907 44.9112 74.5337 46.196 72.7057C47.2926 71.1455 47.0603 70.0048 47.3081 68.3089C48.1177 62.7672 44.071 56.1356 44.071 56.1356Z" fill="#914DFF"/>
<path d="M55.0184 36.6488C57.7799 35.5334 59.2131 33.1639 60.4936 30.2414C61.6815 27.5299 61.6635 25.7763 61.2128 23.3582C60.6356 20.2621 59.3461 18.8349 56.8401 17.5112C55.0185 16.549 53.7049 16.3404 51.3922 16.5025C49.039 16.6675 47.4954 16.8812 45.1684 18.3786C43.3706 19.5354 42.0633 20.3454 41.057 22.2949C39.7985 24.7331 40.7696 26.1557 41.1943 28.3622C41.8913 31.9827 42.2659 34.8367 45.4393 35.9996C46.999 36.5711 48.2236 36.0822 49.987 36.1969C51.9686 36.3259 52.8937 37.5069 55.0184 36.6488Z" fill="#914DFF"/>
<path d="M30.2241 37.6201L34.3355 33.7038C34.3355 33.7038 34.5767 19.2613 35.0289 9.91962C35.1189 8.06024 35.6544 6.81811 35.2777 5.1532C34.8033 3.05594 34.1059 1.83818 32.2585 1.11598C30.2269 0.321798 28.3904 0.711293 25.9608 2.10881C24.0561 3.20438 23.0352 4.3007 21.6781 6.18833C18.7162 10.308 19.7797 17.7706 19.7797 17.7706L15.3257 22.0133C15.3257 22.0133 9.75017 20.6086 6.23693 22.8042C4.35493 23.9804 3.1378 24.9033 1.95427 26.8837C0.978303 28.5168 0.705227 29.624 0.566826 31.3044C0.24458 35.2169 3.0431 35.9994 5.56421 37.9867C12.3383 43.3262 30.2241 37.6201 30.2241 37.6201Z" fill="#914DFF"/>
</svg>
