<svg width="64" height="76" viewBox="0 0 64 76" fill="none" xmlns="http://www.w3.org/2000/svg">
<path d="M22.1728 67.154C23.4868 66.4994 24.126 65.6388 25.085 64.3799C27.0497 61.8006 26.9032 59.8049 27.4198 56.9113C27.7698 54.9505 28.0254 53.7877 27.8399 51.9817C27.4156 47.8495 25.9786 45.1666 22.2179 44.4641C19.9441 44.0394 18.2757 44.3826 15.7489 45.6201C12.4984 47.2121 9.91562 48.9763 8.55401 52.4737C7.56949 55.0026 7.95754 56.5137 8.51125 58.67L8.52003 58.7042C9.23331 61.4821 10.5031 62.5555 12.5804 64.1335C14.2324 65.3886 15.4155 65.7764 17.484 66.3758C19.2231 66.8797 20.1572 68.158 22.1728 67.154Z" fill="#914DFF"/>
<path d="M43.6023 55.7997C43.6023 55.7997 46.387 58.3746 48.6166 59.3667C50.6736 60.282 51.9361 60.7212 54.3768 60.7931C55.8358 60.836 56.6879 61.1047 58.2326 60.4575C60.4172 59.5424 62.0753 58.2136 63.0292 55.8885C64.1389 53.1837 62.0256 52.3088 61.5148 49.941C61.0431 47.7543 61.4098 46.1386 60.484 44.248L60.4381 44.1541C59.2759 41.7798 58.3418 39.8712 55.4999 39.937C54.1507 39.9682 53.3005 40.5148 51.8892 40.9925C49.4385 41.8222 48.0531 43.2083 45.6351 43.6126C43.934 43.897 43.1867 42.8309 41.4669 43.5305C38.6632 44.671 37.9349 47.483 36.3041 50.3555C34.4769 53.5738 34.7913 55.6944 33.0455 58.9424C31.5075 61.8041 28.9495 62.9209 28.2622 65.8827C27.2151 70.3956 30.7519 71.5646 33.8843 73.4003C36.2732 74.8002 37.8357 76.1373 41.0585 75.1484C42.9399 74.5711 44.4425 74.1977 45.7273 72.3697C46.8238 70.8096 46.5916 69.6688 46.8393 67.973C47.649 62.4312 43.6023 55.7997 43.6023 55.7997Z" fill="#914DFF"/>
<path d="M54.5496 36.3128C57.3111 35.1975 58.7444 32.828 60.0248 29.9054C61.2128 27.1939 61.1948 25.4404 60.744 23.0223C60.1668 19.9261 58.8773 18.499 56.3713 17.1753C54.5497 16.2131 53.2362 16.0045 50.9235 16.1666C48.5702 16.3315 47.0266 16.5452 44.6996 18.0426C42.9018 19.1995 41.5945 20.0095 40.5883 21.959C39.3298 24.3971 40.3009 25.8198 40.7256 28.0262C41.4225 31.6468 41.7971 34.5008 44.9706 35.6636C46.5302 36.2352 47.7549 35.7463 49.5183 35.861C51.4999 35.9899 52.4249 37.171 54.5496 36.3128Z" fill="#914DFF"/>
<path d="M29.7554 37.2842L33.8667 33.3678C33.8667 33.3678 34.108 18.9254 34.5601 9.58368C34.6501 7.7243 35.1856 6.48217 34.809 4.81726C34.3345 2.72 33.6371 1.50225 31.7897 0.780044C29.7582 -0.0141395 27.9216 0.375356 25.492 1.77288C23.5874 2.86844 22.5665 3.96476 21.2094 5.85239C18.2475 9.9721 19.3109 17.4347 19.3109 17.4347L14.857 21.6774C14.857 21.6774 9.28142 20.2726 5.76818 22.4683C3.88618 23.6444 2.66905 24.5673 1.48552 26.5478C0.509553 28.1809 0.236477 29.288 0.0980757 30.9684C-0.22417 34.881 2.57435 35.6635 5.09546 37.6507C11.8695 42.9903 29.7554 37.2842 29.7554 37.2842Z" fill="#914DFF"/>
</svg>
