<svg width="64" height="76" viewBox="0 0 64 76" fill="none" xmlns="http://www.w3.org/2000/svg">
<path d="M22.1728 67.1422C23.4868 66.4877 24.126 65.6271 25.085 64.3682C27.0497 61.7889 26.9032 59.7932 27.4198 56.8996C27.7698 54.9387 28.0254 53.776 27.8399 51.97C27.4156 47.8378 25.9786 45.1548 22.2179 44.4524C19.9441 44.0277 18.2757 44.3709 15.7489 45.6084C12.4984 47.2004 9.91562 48.9646 8.55401 52.462C7.56949 54.9908 7.95754 56.502 8.51125 58.6583L8.52003 58.6925C9.23331 61.4704 10.5031 62.5437 12.5804 64.1218C14.2324 65.3768 15.4155 65.7646 17.484 66.364C19.2231 66.868 20.1572 68.1463 22.1728 67.1422Z" fill="#914DFF"/>
<path d="M43.6023 55.788C43.6023 55.788 46.387 58.3629 48.6166 59.355C50.6736 60.2703 51.9361 60.7095 54.3768 60.7813C55.8358 60.8243 56.6879 61.0929 58.2326 60.4458C60.4172 59.5306 62.0753 58.2019 63.0292 55.8768C64.1389 53.1719 62.0256 52.2971 61.5148 49.9293C61.0431 47.7425 61.4098 46.1269 60.484 44.2363L60.4381 44.1424C59.2759 41.7681 58.3418 39.8595 55.4999 39.9253C54.1507 39.9565 53.3005 40.5031 51.8892 40.9808C49.4385 41.8105 48.0531 43.1966 45.6351 43.6009C43.934 43.8853 43.1867 42.8192 41.4669 43.5188C38.6632 44.6593 37.9349 47.4713 36.3041 50.3438C34.4769 53.5621 34.7913 55.6826 33.0455 58.9307C31.5075 61.7924 28.9495 62.9092 28.2622 65.871C27.2151 70.3839 30.7519 71.5529 33.8843 73.3885C36.2732 74.7885 37.8357 76.1256 41.0585 75.1367C42.9399 74.5593 44.4425 74.186 45.7273 72.358C46.8238 70.7979 46.5916 69.6571 46.8393 67.9613C47.649 62.4195 43.6023 55.788 43.6023 55.788Z" fill="#914DFF"/>
<path d="M54.5496 36.3011C57.3111 35.1857 58.7444 32.8162 60.0248 29.8937C61.2128 27.1822 61.1948 25.4287 60.744 23.0105C60.1668 19.9144 58.8773 18.4872 56.3713 17.1635C54.5497 16.2014 53.2362 15.9927 50.9235 16.1549C48.5702 16.3198 47.0266 16.5335 44.6996 18.0309C42.9018 19.1878 41.5945 19.9978 40.5883 21.9472C39.3298 24.3854 40.3009 25.8081 40.7256 28.0145C41.4225 31.635 41.7971 34.4891 44.9706 35.6519C46.5302 36.2234 47.7549 35.7345 49.5183 35.8493C51.4999 35.9782 52.4249 37.1593 54.5496 36.3011Z" fill="#914DFF"/>
<path d="M29.7554 37.2725L33.8667 33.3561C33.8667 33.3561 34.108 18.9136 34.5601 9.57196C34.6501 7.71258 35.1856 6.47046 34.809 4.80554C34.3345 2.70828 33.6371 1.49053 31.7897 0.768326C29.7582 -0.0258583 27.9216 0.363637 25.492 1.76116C23.5874 2.85672 22.5665 3.95304 21.2094 5.84067C18.2475 9.96038 19.3109 17.423 19.3109 17.423L14.857 21.6657C14.857 21.6657 9.28142 20.2609 5.76818 22.4565C3.88618 23.6327 2.66905 24.5556 1.48552 26.5361C0.509553 28.1692 0.236477 29.2763 0.0980757 30.9567C-0.22417 34.8693 2.57435 35.6518 5.09546 37.639C11.8695 42.9786 29.7554 37.2725 29.7554 37.2725Z" fill="#914DFF"/>
</svg>
