<svg width="80" height="86" viewBox="0 0 80 86" fill="none" xmlns="http://www.w3.org/2000/svg">
<path d="M30.2534 84.4212C28.5869 83.2224 27.9717 82.0837 27.3135 80.1732C25.9378 76.1806 28.1139 73.2967 29.9817 69.2036C31.4729 65.9357 32.2317 63.7989 35.0492 61.3638C38.5699 58.3209 41.8302 56.282 46.2214 57.1112C48.6822 57.576 49.8132 58.5971 51.6391 60.1325C54.0648 62.1722 55.9662 63.5384 56.2349 66.7057C56.5046 69.8846 54.986 71.8946 52.8343 74.573C50.401 77.6019 48.0197 78.4975 44.5004 80.2987C39.3162 82.952 34.5791 87.533 30.2534 84.4212Z" fill="#FC6AFF"/>
<path d="M1.85718 54.3974C0.412856 52.1584 0.044562 50.4506 0.279757 47.7156C0.780728 41.89 5.6181 39.1375 11.0571 35.9292C15.708 33.1857 19.0056 32.1502 24.2679 32.1064C29.4763 32.0631 31.582 36.9484 36.7248 35.6401C38.9028 35.0861 40.0354 34.3337 41.9392 33.1115C47.3101 29.6637 46.3315 23.8704 51.6577 20.3568C56.5152 17.1523 60.3538 15.5145 65.9047 16.2342C69.9037 16.7527 72.1492 17.9137 74.9378 20.5037C79.9348 25.1445 80.3484 30.5481 78.9377 37.4468C77.8947 42.5478 76.9497 46.3823 72.384 49.5408C69.0792 51.827 66.474 52.1181 62.5406 52.3891C54.6142 52.9351 52.5274 45.3187 44.6997 44.8047C42.4672 44.6581 41.1442 44.3663 38.922 44.9469C33.8416 46.2743 34.0925 51.8121 29.5635 54.5382C24.9376 57.3228 21.6246 58.184 16.3527 58.3609C10.3031 58.564 4.87601 59.0772 1.85718 54.3974Z" fill="#FC6AFF"/>
<path d="M17.8013 14.0925C16.6625 11.1236 15.5529 8.8209 17.2374 5.8427C19.0494 2.63912 22.1917 2.223 25.853 1.31018C28.2532 0.711747 29.6817 0.651596 32.0925 0.779383C37.7584 1.07971 42.3135 1.69791 45.0001 6.22215C46.3114 8.43041 46.8136 10.0282 46.5212 12.6653C46.0373 17.0301 43.6366 20.1398 39.3477 22.1343C36.7282 23.3524 34.9289 23.3193 32.1284 23.2035C25.1395 22.9145 20.1256 20.1515 17.8013 14.0925Z" fill="#FC6AFF"/>
</svg>
