<svg width="76" height="77" viewBox="0 0 76 77" fill="none" xmlns="http://www.w3.org/2000/svg">
<path d="M1.02123 66.2023C0.635772 64.1024 0.955428 62.834 1.75669 60.9863C3.43121 57.1248 6.88692 56.7139 10.9265 55.2147C14.1516 54.0177 16.1073 53.0728 19.7197 53.461C24.2337 53.9462 27.897 54.9473 30.4585 58.8295C31.8939 61.005 32.0179 62.5772 32.2929 65.035C32.6583 68.3004 33.0992 70.695 31.1879 73.141C29.2696 75.5961 26.8598 75.8811 23.5577 76.1648C19.8235 76.4856 17.5417 75.3337 13.8527 73.9697C8.41837 71.9605 2.02173 71.6527 1.02123 66.2023Z" fill="#FC6AFF"/>
<path d="M0.821366 23.6221C1.28359 20.9518 2.15584 19.4653 4.13734 17.7036C8.35799 13.9513 13.6124 15.63 19.5955 17.4371C24.7119 18.9823 27.7357 20.7226 31.4938 24.6396C35.2134 28.5165 33.4639 33.5582 37.9764 36.4895C39.8874 37.7309 41.1893 38.0475 43.3494 38.6098C49.4432 40.196 52.5939 35.3566 58.6998 36.8627C64.2683 38.2362 68.0752 39.9555 71.5313 44.6301C74.021 47.9977 74.8418 50.5052 75.0994 54.4327C75.5609 61.4703 72.2683 65.6097 66.691 69.4401C62.5671 72.2723 59.353 74.2805 54.0217 73.0933C50.1628 72.2339 48.1235 70.4857 45.1564 67.7267C39.1771 62.1668 42.7523 55.2039 37.5464 48.967C36.0617 47.1882 35.3177 45.9888 33.3577 44.733C28.8768 41.8621 25.3799 45.9745 20.3616 44.5086C15.2357 43.0112 12.3165 41.1359 8.46333 37.306C4.04169 32.9112 -0.144735 29.2032 0.821366 23.6221Z" fill="#FC6AFF"/>
<path d="M38.8648 7.02276C40.0278 4.06453 40.7694 1.60022 43.9394 0.753605C47.3492 -0.157083 49.8521 1.90554 53.0523 4.00554C55.1503 5.38227 56.2024 6.41132 57.826 8.3106C61.6418 12.7743 64.4594 16.6298 63.3612 21.8515C62.8251 24.4002 62.1207 25.9091 60.1636 27.5585C56.9244 30.2885 53.1597 30.691 48.797 28.8866C46.1324 27.7846 44.8794 26.4112 42.9717 24.2281C38.2108 18.7798 36.4912 13.0601 38.8648 7.02276Z" fill="#FC6AFF"/>
</svg>
