<svg width="74" height="83" viewBox="0 0 74 83" fill="none" xmlns="http://www.w3.org/2000/svg">
<path d="M39.7967 82.4439C37.8718 81.8209 36.9682 80.9257 35.8094 79.3065C33.3877 75.9227 34.6674 72.4847 35.3171 67.988C35.8358 64.3979 35.9683 62.1181 37.9853 58.908C40.5057 54.8965 43.0556 51.926 47.4815 51.3416C49.9618 51.0142 51.3257 51.6353 53.4961 52.5299C56.3796 53.7185 58.5753 54.4277 59.7104 57.3699C60.8496 60.323 59.9559 62.7197 58.6426 65.9537C57.1574 69.6109 55.1303 71.2133 52.267 74.0377C48.0491 78.1985 44.7929 84.061 39.7967 82.4439Z" fill="#FC6AFF"/>
<path d="M4.33719 62.658C2.33619 60.9714 1.51069 59.455 0.977006 56.7679C-0.159757 51.0442 3.69925 46.8974 8.00672 42.1264C11.6901 38.0467 14.554 36.0234 19.5701 34.3317C24.5349 32.6573 27.9018 36.6651 32.4531 33.8026C34.3807 32.5903 35.2542 31.5163 36.7345 29.7515C40.9105 24.7731 38.3689 19.5442 42.484 14.5168C46.2369 9.93184 49.4507 7.16336 54.9543 6.11065C58.9193 5.35226 61.3869 5.75767 64.7698 7.35812C70.8315 10.2259 72.7251 15.2596 73.2903 22.2939C73.7082 27.4951 73.8684 31.4554 70.3816 35.9049C67.8577 39.1257 65.4491 40.2207 61.7657 41.7128C54.3431 44.7197 50.237 38.0962 42.6148 40.0593C40.4409 40.6192 39.0958 40.7552 37.1334 42.0067C32.647 44.8679 34.4223 50.0809 30.8508 54.1058C27.2026 58.217 24.2758 60.0786 19.2874 61.9006C13.563 63.9913 8.51953 66.1833 4.33719 62.658Z" fill="#FC6AFF"/>
<path d="M8.39574 19.1461C6.48427 16.6663 4.78541 14.8138 5.56919 11.4399C6.41229 7.81062 9.29947 6.4278 12.5448 4.40765C14.6724 3.08327 16.0206 2.57793 18.3597 1.94417C23.857 0.454688 28.381 -0.382756 32.2028 3.098C34.0682 4.79693 34.991 6.16623 35.443 8.77779C36.1909 13.1002 34.7593 16.8244 31.2142 20.0748C29.0489 22.0602 27.3204 22.5926 24.6124 23.36C17.854 25.2752 12.2968 24.207 8.39574 19.1461Z" fill="#FC6AFF"/>
</svg>
