<svg width="74" height="83" viewBox="0 0 74 83" fill="none" xmlns="http://www.w3.org/2000/svg">
<path d="M39.7967 82.4126C37.8718 81.7896 36.9682 80.8944 35.8094 79.2752C33.3877 75.8914 34.6674 72.4535 35.3171 67.9568C35.8358 64.3667 35.9683 62.0869 37.9853 58.8768C40.5057 54.8653 43.0556 51.8948 47.4815 51.3104C49.9618 50.9829 51.3257 51.604 53.4961 52.4987C56.3796 53.6872 58.5753 54.3965 59.7104 57.3387C60.8496 60.2917 59.9559 62.6885 58.6426 65.9224C57.1574 69.5796 55.1303 71.182 52.267 74.0065C48.0491 78.1672 44.7929 84.0298 39.7967 82.4126Z" fill="#FC6AFF"/>
<path d="M4.33719 62.6268C2.33619 60.9402 1.51069 59.4238 0.977006 56.7366C-0.159757 51.013 3.69925 46.8661 8.00672 42.0952C11.6901 38.0154 14.554 35.9921 19.5701 34.3004C24.5349 32.626 27.9018 36.6339 32.4531 33.7713C34.3807 32.5591 35.2542 31.485 36.7345 29.7203C40.9105 24.7418 38.3689 19.5129 42.484 14.4855C46.2369 9.90059 49.4507 7.13211 54.9543 6.0794C58.9193 5.32101 61.3869 5.72642 64.7698 7.32687C70.8315 10.1947 72.7251 15.2283 73.2903 22.2626C73.7082 27.4638 73.8684 31.4241 70.3816 35.8737C67.8577 39.0944 65.4491 40.1894 61.7657 41.6815C54.3431 44.6884 50.237 38.065 42.6148 40.0281C40.4409 40.5879 39.0958 40.724 37.1334 41.9755C32.647 44.8367 34.4223 50.0496 30.8508 54.0745C27.2026 58.1857 24.2758 60.0474 19.2874 61.8693C13.563 63.96 8.51953 66.152 4.33719 62.6268Z" fill="#FC6AFF"/>
<path d="M8.39574 19.1148C6.48427 16.635 4.78541 14.7826 5.56919 11.4087C6.41229 7.77937 9.29947 6.39655 12.5448 4.3764C14.6724 3.05202 16.0206 2.54668 18.3597 1.91292C23.857 0.423438 28.381 -0.414006 32.2028 3.06675C34.0682 4.76568 34.991 6.13498 35.443 8.74654C36.1909 13.0689 34.7593 16.7931 31.2142 20.0436C29.0489 22.0289 27.3204 22.5614 24.6124 23.3288C17.854 25.2439 12.2968 24.1757 8.39574 19.1148Z" fill="#FC6AFF"/>
</svg>
