<svg width="74" height="83" viewBox="0 0 74 83" fill="none" xmlns="http://www.w3.org/2000/svg">
<path d="M39.7967 82.5806C37.8718 81.9576 36.9682 81.0624 35.8094 79.4432C33.3877 76.0594 34.6674 72.6215 35.3171 68.1248C35.8358 64.5346 35.9683 62.2548 37.9853 59.0447C40.5057 55.0332 43.0556 52.0627 47.4815 51.4784C49.9618 51.1509 51.3257 51.772 53.4961 52.6666C56.3796 53.8552 58.5753 54.5645 59.7104 57.5067C60.8496 60.4597 59.9559 62.8565 58.6426 66.0904C57.1574 69.7476 55.1303 71.35 52.267 74.1745C48.0491 78.3352 44.7929 84.1977 39.7967 82.5806Z" fill="#FC6AFF"/>
<path d="M4.33719 62.7948C2.33619 61.1081 1.51069 59.5917 0.977006 56.9046C-0.159757 51.181 3.69925 47.0341 8.00672 42.2632C11.6901 38.1834 14.554 36.1601 19.5701 34.4684C24.5349 32.794 27.9018 36.8018 32.4531 33.9393C34.3807 32.727 35.2542 31.653 36.7345 29.8882C40.9105 24.9098 38.3689 19.6809 42.484 14.6535C46.2369 10.0686 49.4507 7.30008 54.9543 6.24737C58.9193 5.48898 61.3869 5.89439 64.7698 7.49484C70.8315 10.3627 72.7251 15.3963 73.2903 22.4306C73.7082 27.6318 73.8684 31.5921 70.3816 36.0416C67.8577 39.2624 65.4491 40.3574 61.7657 41.8495C54.3431 44.8564 50.237 38.233 42.6148 40.196C40.4409 40.7559 39.0958 40.8919 37.1334 42.1435C32.647 45.0047 34.4223 50.2176 30.8508 54.2425C27.2026 58.3537 24.2758 60.2153 19.2874 62.0373C13.563 64.128 8.51953 66.32 4.33719 62.7948Z" fill="#FC6AFF"/>
<path d="M8.39574 19.2828C6.48427 16.803 4.78541 14.9506 5.56919 11.5766C6.41229 7.94734 9.29947 6.56452 12.5448 4.54436C14.6724 3.21998 16.0206 2.71465 18.3597 2.08088C23.857 0.591407 28.381 -0.246037 32.2028 3.23471C34.0682 4.93365 34.991 6.30295 35.443 8.91451C36.1909 13.2369 34.7593 16.9611 31.2142 20.2116C29.0489 22.1969 27.3204 22.7294 24.6124 23.4968C17.854 25.4119 12.2968 24.3437 8.39574 19.2828Z" fill="#FC6AFF"/>
</svg>
