<svg width="74" height="83" viewBox="0 0 74 83" fill="none" xmlns="http://www.w3.org/2000/svg">
<path d="M39.7967 82.4829C37.8718 81.8599 36.9682 80.9647 35.8094 79.3456C33.3877 75.9617 34.6674 72.5238 35.3171 68.0271C35.8358 64.437 35.9683 62.1572 37.9853 58.9471C40.5057 54.9356 43.0556 51.9651 47.4815 51.3807C49.9618 51.0532 51.3257 51.6744 53.4961 52.569C56.3796 53.7575 58.5753 54.4668 59.7104 57.409C60.8496 60.362 59.9559 62.7588 58.6426 65.9927C57.1574 69.6499 55.1303 71.2523 52.267 74.0768C48.0491 78.2375 44.7929 84.1001 39.7967 82.4829Z" fill="#FC6AFF"/>
<path d="M4.33719 62.6971C2.33619 61.0105 1.51069 59.4941 0.977006 56.8069C-0.159757 51.0833 3.69925 46.9365 8.00672 42.1655C11.6901 38.0858 14.554 36.0624 19.5701 34.3707C24.5349 32.6964 27.9018 36.7042 32.4531 33.8417C34.3807 32.6294 35.2542 31.5553 36.7345 29.7906C40.9105 24.8121 38.3689 19.5832 42.484 14.5559C46.2369 9.97091 49.4507 7.20242 54.9543 6.14972C58.9193 5.39133 61.3869 5.79674 64.7698 7.39719C70.8315 10.265 72.7251 15.2987 73.2903 22.3329C73.7082 27.5341 73.8684 31.4945 70.3816 35.944C67.8577 39.1647 65.4491 40.2597 61.7657 41.7519C54.3431 44.7588 50.237 38.1353 42.6148 40.0984C40.4409 40.6582 39.0958 40.7943 37.1334 42.0458C32.647 44.907 34.4223 50.1199 30.8508 54.1448C27.2026 58.256 24.2758 60.1177 19.2874 61.9396C13.563 64.0303 8.51953 66.2224 4.33719 62.6971Z" fill="#FC6AFF"/>
<path d="M8.39574 19.1851C6.48427 16.7054 4.78541 14.8529 5.56919 11.479C6.41229 7.84968 9.29947 6.46686 12.5448 4.44671C14.6724 3.12233 16.0206 2.61699 18.3597 1.98323C23.857 0.49375 28.381 -0.343694 32.2028 3.13706C34.0682 4.83599 34.991 6.2053 35.443 8.81686C36.1909 13.1393 34.7593 16.8634 31.2142 20.1139C29.0489 22.0992 27.3204 22.6317 24.6124 23.3991C17.854 25.3142 12.2968 24.2461 8.39574 19.1851Z" fill="#FC6AFF"/>
</svg>
