<svg width="74" height="84" viewBox="0 0 74 84" fill="none" xmlns="http://www.w3.org/2000/svg">
<path d="M39.7967 82.7642C37.8718 82.1412 36.9682 81.246 35.8094 79.6268C33.3877 76.243 34.6674 72.805 35.3171 68.3084C35.8358 64.7182 35.9683 62.4384 37.9853 59.2283C40.5057 55.2168 43.0556 52.2463 47.4815 51.662C49.9618 51.3345 51.3257 51.9556 53.4961 52.8502C56.3796 54.0388 58.5753 54.748 59.7104 57.6902C60.8496 60.6433 59.9559 63.0401 58.6426 66.274C57.1574 69.9312 55.1303 71.5336 52.267 74.3581C48.0491 78.5188 44.7929 84.3813 39.7967 82.7642Z" fill="#FC6AFF"/>
<path d="M4.33719 62.9784C2.33619 61.2917 1.51069 59.7753 0.977006 57.0882C-0.159757 51.3645 3.69925 47.2177 8.00672 42.4468C11.6901 38.367 14.554 36.3437 19.5701 34.652C24.5349 32.9776 27.9018 36.9854 32.4531 34.1229C34.3807 32.9106 35.2542 31.8366 36.7345 30.0718C40.9105 25.0934 38.3689 19.8645 42.484 14.8371C46.2369 10.2522 49.4507 7.48367 54.9543 6.43097C58.9193 5.67258 61.3869 6.07799 64.7698 7.67844C70.8315 10.5462 72.7251 15.5799 73.2903 22.6142C73.7082 27.8154 73.8684 31.7757 70.3816 36.2252C67.8577 39.446 65.4491 40.541 61.7657 42.0331C54.3431 45.04 50.237 38.4166 42.6148 40.3796C40.4409 40.9395 39.0958 41.0755 37.1334 42.3271C32.647 45.1883 34.4223 50.4012 30.8508 54.4261C27.2026 58.5373 24.2758 60.3989 19.2874 62.2209C13.563 64.3116 8.51953 66.5036 4.33719 62.9784Z" fill="#FC6AFF"/>
<path d="M8.39574 19.4664C6.48427 16.9866 4.78541 15.1342 5.56919 11.7602C6.41229 8.13093 9.29947 6.74811 12.5448 4.72796C14.6724 3.40358 16.0206 2.89824 18.3597 2.26448C23.857 0.775 28.381 -0.0624437 32.2028 3.41831C34.0682 5.11724 34.991 6.48655 35.443 9.09811C36.1909 13.4205 34.7593 17.1447 31.2142 20.3951C29.0489 22.3805 27.3204 22.913 24.6124 23.6803C17.854 25.5955 12.2968 24.5273 8.39574 19.4664Z" fill="#FC6AFF"/>
</svg>
