<svg width="75" height="76" viewBox="0 0 75 76" fill="none" xmlns="http://www.w3.org/2000/svg">
<path d="M0.564199 65.8038C0.17874 63.704 0.498397 62.4355 1.29966 60.5878C2.97418 56.7264 6.42989 56.3154 10.4695 54.8162C13.6946 53.6193 15.6503 52.6743 19.2626 53.0626C23.7767 53.5477 27.44 54.5489 30.0015 58.431C31.4369 60.6066 31.5608 62.1788 31.8359 64.6366C32.2013 67.902 32.6422 70.2966 30.7309 72.7426C28.8126 75.1977 26.4027 75.4827 23.1007 75.7664C19.3664 76.0871 17.0847 74.9352 13.3956 73.5713C7.96134 71.562 1.5647 71.2543 0.564199 65.8038Z" fill="#FC6AFF"/>
<path d="M0.364335 23.2236C0.826556 20.5534 1.69881 19.0668 3.68031 17.3052C7.90096 13.5528 13.1554 15.2315 19.1385 17.0386C24.2548 18.5839 27.2787 20.3241 31.0368 24.2412C34.7563 28.1181 33.0069 33.1597 37.5193 36.0911C39.4304 37.3325 40.7322 37.649 42.8923 38.2113C48.9861 39.7976 52.1369 34.9581 58.2428 36.4642C63.8113 37.8378 67.6182 39.5571 71.0742 44.2316C73.564 47.5993 74.3848 50.1067 74.6423 54.0343C75.1039 61.0719 71.8113 65.2113 66.234 69.0417C62.1101 71.8739 58.8959 73.8821 53.5647 72.6949C49.7057 71.8355 47.6664 70.0873 44.6993 67.3283C38.7201 61.7684 42.2952 54.8055 37.0894 48.5686C35.6046 46.7897 34.8607 45.5904 32.9007 44.3346C28.4198 41.4636 24.9229 45.5761 19.9046 44.1101C14.7787 42.6127 11.8595 40.7375 8.0063 36.9076C3.58466 32.5128 -0.601767 28.8048 0.364335 23.2236Z" fill="#FC6AFF"/>
<path d="M38.4077 6.62432C39.5707 3.66609 40.3124 1.20178 43.4823 0.355167C46.8922 -0.55552 49.395 1.5071 52.5952 3.6071C54.6932 4.98383 55.7454 6.01288 57.369 7.91216C61.1848 12.3759 64.0024 16.2314 62.9041 21.4531C62.3681 24.0017 61.6637 25.5107 59.7066 27.1601C56.4674 29.8901 52.7027 30.2926 48.34 28.4882C45.6754 27.3861 44.4223 26.0127 42.5146 23.8296C37.7538 18.3814 36.0342 12.6617 38.4077 6.62432Z" fill="#FC6AFF"/>
</svg>
