<svg width="75" height="76" viewBox="0 0 75 76" fill="none" xmlns="http://www.w3.org/2000/svg">
<path d="M0.564199 65.8663C0.17874 63.7665 0.498397 62.498 1.29966 60.6503C2.97418 56.7889 6.42989 56.3779 10.4695 54.8787C13.6946 53.6818 15.6503 52.7368 19.2626 53.1251C23.7767 53.6102 27.44 54.6114 30.0015 58.4935C31.4369 60.6691 31.5608 62.2413 31.8359 64.6991C32.2013 67.9645 32.6422 70.3591 30.7309 72.8051C28.8126 75.2602 26.4027 75.5452 23.1007 75.8289C19.3664 76.1496 17.0847 74.9977 13.3956 73.6338C7.96134 71.6245 1.5647 71.3168 0.564199 65.8663Z" fill="#FC6AFF"/>
<path d="M0.364335 23.2861C0.826556 20.6159 1.69881 19.1293 3.68031 17.3677C7.90096 13.6153 13.1554 15.294 19.1385 17.1011C24.2548 18.6464 27.2787 20.3866 31.0368 24.3037C34.7563 28.1806 33.0069 33.2222 37.5193 36.1536C39.4304 37.395 40.7322 37.7115 42.8923 38.2738C48.9861 39.8601 52.1369 35.0206 58.2428 36.5267C63.8113 37.9003 67.6182 39.6196 71.0742 44.2941C73.564 47.6618 74.3848 50.1692 74.6423 54.0968C75.1039 61.1344 71.8113 65.2738 66.234 69.1042C62.1101 71.9364 58.8959 73.9446 53.5647 72.7574C49.7057 71.898 47.6664 70.1498 44.6993 67.3908C38.7201 61.8309 42.2952 54.868 37.0894 48.6311C35.6046 46.8522 34.8607 45.6529 32.9007 44.3971C28.4198 41.5261 24.9229 45.6386 19.9046 44.1726C14.7787 42.6752 11.8595 40.8 8.0063 36.9701C3.58466 32.5753 -0.601767 28.8673 0.364335 23.2861Z" fill="#FC6AFF"/>
<path d="M38.4077 6.68682C39.5707 3.72859 40.3124 1.26428 43.4823 0.417667C46.8922 -0.49302 49.395 1.5696 52.5952 3.6696C54.6932 5.04633 55.7454 6.07538 57.369 7.97466C61.1848 12.4384 64.0024 16.2939 62.9041 21.5156C62.3681 24.0642 61.6637 25.5732 59.7066 27.2226C56.4674 29.9526 52.7027 30.3551 48.34 28.5507C45.6754 27.4486 44.4223 26.0752 42.5146 23.8921C37.7538 18.4439 36.0342 12.7242 38.4077 6.68682Z" fill="#FC6AFF"/>
</svg>
