<svg width="75" height="83" viewBox="0 0 75 83" fill="none" xmlns="http://www.w3.org/2000/svg">
<path d="M66.6786 77.9872C64.749 78.5934 63.5312 78.3747 61.7257 77.7008C57.9524 76.2926 57.2415 72.6732 55.4568 68.5385C54.0318 65.2374 52.9626 63.2563 52.9852 59.3958C53.0135 54.5715 53.6052 50.5992 56.9982 47.5214C58.8997 45.7966 60.36 45.5171 62.6352 44.994C65.6579 44.2991 67.8583 43.6065 70.3287 45.3989C72.8083 47.1979 73.3025 49.722 73.8797 53.1907C74.5324 57.1134 73.6692 59.6375 72.7402 63.6713C71.3718 69.6135 71.6872 76.4139 66.6786 77.9872Z" fill="#FC6AFF"/>
<path d="M26.8314 82.2164C24.2877 81.979 22.8137 81.196 20.9773 79.2646C17.0659 75.1508 18.1419 69.4302 19.2692 62.9261C20.2332 57.3643 21.5772 53.9991 24.89 49.6514C28.1688 45.3482 33.0542 46.7244 35.3729 41.671C36.3549 39.5309 36.5284 38.1229 36.8511 35.7833C37.7613 29.1829 32.933 26.3042 33.767 19.6986C34.5275 13.6743 35.7781 9.48214 39.8286 5.38265C42.7467 2.42928 45.0168 1.32384 48.6697 0.680617C55.2152 -0.471968 59.4014 2.62287 63.5139 8.16549C66.5546 12.2637 68.7381 15.4766 68.1296 21.2322C67.6891 25.3982 66.2448 27.7219 63.9416 31.1231C59.3002 37.9772 52.4438 34.8496 47.0957 40.9489C45.5703 42.6884 44.5176 43.5891 43.5268 45.7824C41.2616 50.7967 45.4419 54.1104 44.5429 59.5609C43.6246 65.1283 42.1442 68.3954 38.9221 72.8357C35.2246 77.931 32.1479 82.7125 26.8314 82.2164Z" fill="#FC6AFF"/>
<path d="M7.70062 43.5109C4.82122 42.5589 2.44401 42.0063 1.35227 38.7306C0.177899 35.2069 1.87289 32.3628 3.53709 28.7771C4.6281 26.4263 5.49229 25.2154 7.11732 23.3175C10.9365 18.8571 14.2804 15.5106 19.2728 16.1805C21.7096 16.5075 23.1889 17.1108 24.9178 19.0269C27.7794 22.1982 28.5114 26.1455 27.2337 30.9339C26.4533 33.8586 25.2857 35.3146 23.4217 37.54C18.7699 43.0938 13.5771 45.4538 7.70062 43.5109Z" fill="#FC6AFF"/>
</svg>
