<svg width="74" height="83" viewBox="0 0 74 83" fill="none" xmlns="http://www.w3.org/2000/svg">
<path d="M39.7967 82.6841C37.8718 82.0611 36.9682 81.1659 35.8094 79.5467C33.3877 76.1629 34.6674 72.725 35.3171 68.2283C35.8358 64.6382 35.9683 62.3584 37.9853 59.1482C40.5057 55.1367 43.0556 52.1662 47.4815 51.5819C49.9618 51.2544 51.3257 51.8755 53.4961 52.7701C56.3796 53.9587 58.5753 54.668 59.7104 57.6102C60.8496 60.5632 59.9559 62.96 58.6426 66.1939C57.1574 69.8511 55.1303 71.4535 52.267 74.278C48.0491 78.4387 44.7929 84.3013 39.7967 82.6841Z" fill="#FC6AFF"/>
<path d="M4.33719 62.8983C2.33619 61.2117 1.51069 59.6953 0.977006 57.0081C-0.159757 51.2845 3.69925 47.1376 8.00672 42.3667C11.6901 38.2869 14.554 36.2636 19.5701 34.5719C24.5349 32.8975 27.9018 36.9053 32.4531 34.0428C34.3807 32.8305 35.2542 31.7565 36.7345 29.9918C40.9105 25.0133 38.3689 19.7844 42.484 14.757C46.2369 10.1721 49.4507 7.40359 54.9543 6.35089C58.9193 5.5925 61.3869 5.99791 64.7698 7.59836C70.8315 10.4662 72.7251 15.4998 73.2903 22.5341C73.7082 27.7353 73.8684 31.6956 70.3816 36.1452C67.8577 39.3659 65.4491 40.4609 61.7657 41.953C54.3431 44.9599 50.237 38.3365 42.6148 40.2995C40.4409 40.8594 39.0958 40.9954 37.1334 42.247C32.647 45.1082 34.4223 50.3211 30.8508 54.346C27.2026 58.4572 24.2758 60.3188 19.2874 62.1408C13.563 64.2315 8.51953 66.4235 4.33719 62.8983Z" fill="#FC6AFF"/>
<path d="M8.39574 19.3863C6.48427 16.9065 4.78541 15.0541 5.56919 11.6801C6.41229 8.05086 9.29947 6.66803 12.5448 4.64788C14.6724 3.3235 16.0206 2.81817 18.3597 2.1844C23.857 0.694922 28.381 -0.142522 32.2028 3.33823C34.0682 5.03716 34.991 6.40647 35.443 9.01803C36.1909 13.3404 34.7593 17.0646 31.2142 20.3151C29.0489 22.3004 27.3204 22.8329 24.6124 23.6003C17.854 25.5154 12.2968 24.4472 8.39574 19.3863Z" fill="#FC6AFF"/>
</svg>
