<svg width="81" height="86" viewBox="0 0 81 86" fill="none" xmlns="http://www.w3.org/2000/svg">
<path d="M28.9482 83.9009C27.3369 82.6195 26.7732 81.4511 26.2007 79.5096C25.0045 75.4521 27.3066 72.6811 29.3547 68.6867C30.9898 65.4976 31.843 63.4014 34.7657 61.111C38.4181 58.2488 41.7655 56.3764 46.1148 57.4259C48.5522 58.0141 49.6365 59.091 51.3918 60.7166C53.724 62.8763 55.5624 64.3367 55.6897 67.5139C55.8174 70.7029 54.211 72.6341 51.9424 75.2011C49.3769 78.1041 46.9583 78.8788 43.3628 80.5006C38.0663 82.8898 33.1304 87.2271 28.9482 83.9009Z" fill="#FC6AFF"/>
<path d="M1.92135 52.4805C0.57839 50.1713 0.286592 48.4468 0.643366 45.7267C1.4033 39.9329 6.35787 37.4271 11.9337 34.4964C16.7016 31.9902 20.0416 31.122 25.3 31.3434C30.5044 31.5625 32.3902 36.5483 37.5855 35.5005C39.7857 35.0568 40.9505 34.3623 42.9067 33.2374C48.4251 30.064 47.7057 24.228 53.1825 20.9865C58.1773 18.0303 62.0845 16.5877 67.5971 17.5862C71.5685 18.3055 73.7598 19.5784 76.4299 22.3059C81.2145 27.1932 81.3869 32.6115 79.6705 39.4315C78.4014 44.4742 77.2866 48.2568 72.5854 51.1817C69.1824 53.2989 66.5672 53.4585 62.6262 53.531C54.6843 53.6772 52.9391 45.9642 45.1432 45.0565C42.9197 44.7976 41.6111 44.4395 39.3655 44.9076C34.2317 45.9775 34.2356 51.5217 29.5903 54.0167C24.8455 56.5652 21.4979 57.2586 16.224 57.1697C10.1722 57.0678 4.7283 57.3071 1.92135 52.4805Z" fill="#FC6AFF"/>
<path d="M19.6432 13.0239C18.6379 10.001 17.6321 7.645 19.4474 4.755C21.4001 1.64628 24.5574 1.38891 28.2552 0.661529C30.6794 0.184671 32.1089 0.196537 34.5114 0.445614C40.1576 1.031 44.68 1.87793 47.162 6.53243C48.3735 8.80426 48.8039 10.4255 48.3944 13.045C47.7166 17.3804 45.18 20.3658 40.8071 22.142C38.1363 23.2268 36.3405 23.1031 33.5483 22.8464C26.58 22.2057 21.6949 19.1932 19.6432 13.0239Z" fill="#FC6AFF"/>
</svg>
