<svg width="74" height="83" viewBox="0 0 74 83" fill="none" xmlns="http://www.w3.org/2000/svg">
<path d="M39.7967 82.6255C37.8718 82.0025 36.9682 81.1073 35.8094 79.4881C33.3877 76.1043 34.6674 72.6664 35.3171 68.1697C35.8358 64.5796 35.9683 62.2998 37.9853 59.0896C40.5057 55.0781 43.0556 52.1076 47.4815 51.5233C49.9618 51.1958 51.3257 51.8169 53.4961 52.7116C56.3796 53.9001 58.5753 54.6094 59.7104 57.5516C60.8496 60.5046 59.9559 62.9014 58.6426 66.1353C57.1574 69.7925 55.1303 71.3949 52.267 74.2194C48.0491 78.3801 44.7929 84.2427 39.7967 82.6255Z" fill="#FC6AFF"/>
<path d="M4.33719 62.8397C2.33619 61.1531 1.51069 59.6367 0.977006 56.9495C-0.159757 51.2259 3.69925 47.079 8.00672 42.3081C11.6901 38.2283 14.554 36.205 19.5701 34.5133C24.5349 32.8389 27.9018 36.8467 32.4531 33.9842C34.3807 32.7719 35.2542 31.6979 36.7345 29.9332C40.9105 24.9547 38.3689 19.7258 42.484 14.6984C46.2369 10.1135 49.4507 7.345 54.9543 6.29229C58.9193 5.5339 61.3869 5.93931 64.7698 7.53976C70.8315 10.4076 72.7251 15.4412 73.2903 22.4755C73.7082 27.6767 73.8684 31.637 70.3816 36.0866C67.8577 39.3073 65.4491 40.4023 61.7657 41.8944C54.3431 44.9013 50.237 38.2779 42.6148 40.2409C40.4409 40.8008 39.0958 40.9368 37.1334 42.1884C32.647 45.0496 34.4223 50.2625 30.8508 54.2874C27.2026 58.3986 24.2758 60.2602 19.2874 62.0822C13.563 64.1729 8.51953 66.3649 4.33719 62.8397Z" fill="#FC6AFF"/>
<path d="M8.39574 19.3277C6.48427 16.8479 4.78541 14.9955 5.56919 11.6215C6.41229 7.99226 9.29947 6.60944 12.5448 4.58929C14.6724 3.26491 16.0206 2.75957 18.3597 2.12581C23.857 0.636328 28.381 -0.201116 32.2028 3.27964C34.0682 4.97857 34.991 6.34788 35.443 8.95943C36.1909 13.2818 34.7593 17.006 31.2142 20.2565C29.0489 22.2418 27.3204 22.7743 24.6124 23.5417C17.854 25.4568 12.2968 24.3886 8.39574 19.3277Z" fill="#FC6AFF"/>
</svg>
