<svg width="74" height="83" viewBox="0 0 74 83" fill="none" xmlns="http://www.w3.org/2000/svg">
<path d="M39.7967 82.6411C37.8718 82.0181 36.9682 81.1229 35.8094 79.5038C33.3877 76.1199 34.6674 72.682 35.3171 68.1853C35.8358 64.5952 35.9683 62.3154 37.9853 59.1053C40.5057 55.0938 43.0556 52.1233 47.4815 51.5389C49.9618 51.2114 51.3257 51.8326 53.4961 52.7272C56.3796 53.9157 58.5753 54.625 59.7104 57.5672C60.8496 60.5203 59.9559 62.917 58.6426 66.1509C57.1574 69.8081 55.1303 71.4105 52.267 74.235C48.0491 78.3957 44.7929 84.2583 39.7967 82.6411Z" fill="#FC6AFF"/>
<path d="M4.33719 62.8553C2.33619 61.1687 1.51069 59.6523 0.977006 56.9652C-0.159757 51.2415 3.69925 47.0947 8.00672 42.3237C11.6901 38.244 14.554 36.2206 19.5701 34.5289C24.5349 32.8546 27.9018 36.8624 32.4531 33.9999C34.3807 32.7876 35.2542 31.7135 36.7345 29.9488C40.9105 24.9703 38.3689 19.7414 42.484 14.7141C46.2369 10.1291 49.4507 7.36062 54.9543 6.30792C58.9193 5.54953 61.3869 5.95494 64.7698 7.55539C70.8315 10.4232 72.7251 15.4569 73.2903 22.4912C73.7082 27.6923 73.8684 31.6527 70.3816 36.1022C67.8577 39.3229 65.4491 40.4179 61.7657 41.9101C54.3431 44.917 50.237 38.2935 42.6148 40.2566C40.4409 40.8165 39.0958 40.9525 37.1334 42.204C32.647 45.0652 34.4223 50.2781 30.8508 54.303C27.2026 58.4142 24.2758 60.2759 19.2874 62.0978C13.563 64.1885 8.51953 66.3806 4.33719 62.8553Z" fill="#FC6AFF"/>
<path d="M8.39574 19.3433C6.48427 16.8636 4.78541 15.0111 5.56919 11.6372C6.41229 8.00789 9.29947 6.62506 12.5448 4.60491C14.6724 3.28053 16.0206 2.7752 18.3597 2.14143C23.857 0.651953 28.381 -0.185491 32.2028 3.29526C34.0682 4.99419 34.991 6.3635 35.443 8.97506C36.1909 13.2975 34.7593 17.0216 31.2142 20.2721C29.0489 22.2574 27.3204 22.7899 24.6124 23.5573C17.854 25.4724 12.2968 24.4043 8.39574 19.3433Z" fill="#FC6AFF"/>
</svg>
