<svg width="71" height="81" viewBox="0 0 71 81" fill="none" xmlns="http://www.w3.org/2000/svg">
<path d="M54.3495 80.4073C52.3385 80.4788 51.2114 79.942 49.6229 78.8076C46.3031 76.4369 46.4698 72.7437 45.7187 68.2649C45.1191 64.6891 44.552 62.4859 45.4856 58.7552C46.6524 54.0931 48.1632 50.406 52.1744 48.3329C54.4223 47.1711 55.9018 47.2905 58.2276 47.3917C61.3176 47.5262 63.6111 47.4433 65.579 49.8379C67.5543 52.2414 67.4365 54.8167 67.176 58.3283C66.8813 62.2996 65.4497 64.5123 63.5978 68.1688C60.8699 73.5551 59.5692 80.2218 54.3495 80.4073Z" fill="#FC6AFF"/>
<path d="M14.7803 73.8608C12.3743 72.9519 11.1324 71.8003 9.81101 69.4405C6.99651 64.414 9.38898 59.1641 12.0163 53.1694C14.263 48.0433 16.3586 45.1448 20.5921 41.821C24.7821 38.5312 29.1859 41.1678 32.6238 36.8955C34.0797 35.0862 34.5802 33.7697 35.4451 31.5911C37.8849 25.4453 33.8912 21.3696 36.2585 15.1983C38.4175 9.57018 40.618 5.84631 45.5069 2.95976C49.029 0.880234 51.4874 0.416408 55.1752 0.769199C61.7831 1.40136 65.1043 5.51484 67.776 11.978C69.7514 16.7568 71.1061 20.4498 69.1578 25.8584C67.7476 29.7734 65.8007 31.6369 62.768 34.3141C56.6567 39.7092 50.7587 34.8511 44.1414 39.3268C42.2541 40.6033 41.0224 41.194 39.5453 43.0524C36.1686 47.3011 39.4323 51.6249 37.2748 56.6607C35.0711 61.8045 32.8666 64.5716 28.699 68.0092C23.9167 71.9539 19.8094 75.7607 14.7803 73.8608Z" fill="#FC6AFF"/>
<path d="M5.40371 31.2872C2.84142 29.5969 0.670898 28.4272 0.387768 24.9649C0.0832113 21.2406 2.39557 18.9403 4.85329 15.9138C6.46453 13.9297 7.587 12.9884 9.60817 11.5852C14.3584 8.2875 18.3854 5.94117 23.0597 7.92274C25.3412 8.88993 26.6306 9.86887 27.8516 12.1852C29.8725 16.019 29.6488 20.0353 27.2812 24.3291C25.8351 26.9517 24.361 28.0493 22.0312 29.7056C16.2168 33.8393 10.633 34.7371 5.40371 31.2872Z" fill="#FC6AFF"/>
</svg>
