<svg width="74" height="83" viewBox="0 0 74 83" fill="none" xmlns="http://www.w3.org/2000/svg">
<path d="M39.7967 82.3404C37.8718 81.7173 36.9682 80.8221 35.8094 79.203C33.3877 75.8192 34.6674 72.3812 35.3171 67.8845C35.8358 64.2944 35.9683 62.0146 37.9853 58.8045C40.5057 54.793 43.0556 51.8225 47.4815 51.2381C49.9618 50.9107 51.3257 51.5318 53.4961 52.4264C56.3796 53.615 58.5753 54.3242 59.7104 57.2664C60.8496 60.2195 59.9559 62.6162 58.6426 65.8502C57.1574 69.5073 55.1303 71.1098 52.267 73.9342C48.0491 78.0949 44.7929 83.9575 39.7967 82.3404Z" fill="#FC6AFF"/>
<path d="M4.33719 62.5545C2.33619 60.8679 1.51069 59.3515 0.977006 56.6644C-0.159757 50.9407 3.69925 46.7939 8.00672 42.0229C11.6901 37.9432 14.554 35.9198 19.5701 34.2281C24.5349 32.5538 27.9018 36.5616 32.4531 33.6991C34.3807 32.4868 35.2542 31.4127 36.7345 29.648C40.9105 24.6696 38.3689 19.4407 42.484 14.4133C46.2369 9.82833 49.4507 7.05984 54.9543 6.00714C58.9193 5.24875 61.3869 5.65416 64.7698 7.25461C70.8315 10.1224 72.7251 15.1561 73.2903 22.1904C73.7082 27.3915 73.8684 31.3519 70.3816 35.8014C67.8577 39.0222 65.4491 40.1172 61.7657 41.6093C54.3431 44.6162 50.237 37.9927 42.6148 39.9558C40.4409 40.5157 39.0958 40.6517 37.1334 41.9032C32.647 44.7644 34.4223 49.9773 30.8508 54.0023C27.2026 58.1134 24.2758 59.9751 19.2874 61.797C13.563 63.8878 8.51953 66.0798 4.33719 62.5545Z" fill="#FC6AFF"/>
<path d="M8.39574 19.0426C6.48427 16.5628 4.78541 14.7103 5.56919 11.3364C6.41229 7.70711 9.29947 6.32428 12.5448 4.30413C14.6724 2.97975 16.0206 2.47442 18.3597 1.84065C23.857 0.351172 28.381 -0.486272 32.2028 2.99448C34.0682 4.69341 34.991 6.06272 35.443 8.67428C36.1909 12.9967 34.7593 16.7209 31.2142 19.9713C29.0489 21.9567 27.3204 22.4891 24.6124 23.2565C17.854 25.1717 12.2968 24.1035 8.39574 19.0426Z" fill="#FC6AFF"/>
</svg>
