<svg width="74" height="83" viewBox="0 0 74 83" fill="none" xmlns="http://www.w3.org/2000/svg">
<path d="M39.7967 81.9068C37.8718 81.2837 36.9682 80.3885 35.8094 78.7694C33.3877 75.3856 34.6674 71.9476 35.3171 67.4509C35.8358 63.8608 35.9683 61.581 37.9853 58.3709C40.5057 54.3594 43.0556 51.3889 47.4815 50.8045C49.9618 50.4771 51.3257 51.0982 53.4961 51.9928C56.3796 53.1814 58.5753 53.8906 59.7104 56.8328C60.8496 59.7859 59.9559 62.1826 58.6426 65.4166C57.1574 69.0738 55.1303 70.6762 52.267 73.5006C48.0491 77.6614 44.7929 83.5239 39.7967 81.9068Z" fill="#FC6AFF"/>
<path d="M4.33719 62.1209C2.33619 60.4343 1.51069 58.9179 0.977006 56.2308C-0.159757 50.5071 3.69925 46.3603 8.00672 41.5893C11.6901 37.5096 14.554 35.4862 19.5701 33.7946C24.5349 32.1202 27.9018 36.128 32.4531 33.2655C34.3807 32.0532 35.2542 30.9792 36.7345 29.2144C40.9105 24.236 38.3689 19.0071 42.484 13.9797C46.2369 9.39473 49.4507 6.62625 54.9543 5.57354C58.9193 4.81515 61.3869 5.22056 64.7698 6.82101C70.8315 9.68883 72.7251 14.7225 73.2903 21.7568C73.7082 26.9579 73.8684 30.9183 70.3816 35.3678C67.8577 38.5886 65.4491 39.6836 61.7657 41.1757C54.3431 44.1826 50.237 37.5591 42.6148 39.5222C40.4409 40.0821 39.0958 40.2181 37.1334 41.4696C32.647 44.3308 34.4223 49.5437 30.8508 53.5687C27.2026 57.6798 24.2758 59.5415 19.2874 61.3634C13.563 63.4542 8.51953 65.6462 4.33719 62.1209Z" fill="#FC6AFF"/>
<path d="M8.39574 18.609C6.48427 16.1292 4.78541 14.2767 5.56919 10.9028C6.41229 7.27351 9.29947 5.89069 12.5448 3.87054C14.6724 2.54616 16.0206 2.04082 18.3597 1.40706C23.857 -0.0824216 28.381 -0.919866 32.2028 2.56089C34.0682 4.25982 34.991 5.62913 35.443 8.24068C36.1909 12.5631 34.7593 16.2873 31.2142 19.5377C29.0489 21.5231 27.3204 22.0555 24.6124 22.8229C17.854 24.7381 12.2968 23.6699 8.39574 18.609Z" fill="#FC6AFF"/>
</svg>
