<svg width="257" height="59" viewBox="0 0 257 59" fill="none" xmlns="http://www.w3.org/2000/svg">
<path d="M256.675 58.5343L0.0639648 58.73L-0.000177077 3.47927L256.611 3.28362L256.675 58.5343Z" fill="#9500A2"/>
<path d="M69.2321 48H63.9821V13H73.6321C77.0821 13 80.1821 14.4 82.6821 16.75C85.1321 19.1 86.4321 22.4 86.4321 25.75C86.4321 29.2 85.1321 32.4 82.6821 34.85C81.4321 36.1 79.9321 37 78.3321 37.65L86.7321 48H79.9321L72.3321 38.55H69.2321V48ZM69.2321 18.25V33.3H73.6321C77.7821 33.3 81.2321 29.9 81.2321 25.75C81.2321 21.55 77.7821 18.25 73.6321 18.25H69.2321ZM107.516 13H112.666V48H89.6657V13H94.7657V42.85H107.516V13ZM138.995 32.45H116.645V13H144.145V18.1H121.745V27.35H144.145V48H116.645V42.9H138.995V32.45ZM170.978 32.45H148.628V13H176.128V18.1H153.728V27.35H176.128V48H148.628V42.9H170.978V32.45ZM189.724 18.15V43.1H194.274V48H180.124V43.1H184.724V18.15H180.124V13H194.274V18.15H189.724ZM203.848 48H198.748V13H221.798V48H216.648V33.1H203.848V48ZM203.848 18.15V27.95H216.648V18.15H203.848Z" fill="#FD96FF"/>
</svg>
