<svg width="699" height="474" viewBox="0 0 699 474" fill="none" xmlns="http://www.w3.org/2000/svg">
<path fill-rule="evenodd" clip-rule="evenodd" d="M682.635 80.1341L682.626 80.1377C681.033 80.7486 679.44 81.3596 677.844 81.972C679.443 81.3584 681.039 80.7462 682.635 80.1341ZM174.757 256.905L175.25 256.904L175.252 256.904" fill="black"/>
<path fill-rule="evenodd" clip-rule="evenodd" d="M44.9411 144.205C45.2201 145.621 45.4791 147.037 45.7581 148.452C38.1814 150.472 30.585 152.468 22.0847 154.719C22.9258 156.903 23.1289 158.461 23.7563 158.786C33.402 163.788 35.7537 173.65 31.1898 182.851C26.9648 191.392 19.1526 186.555 12.4364 184.007C9.26764 182.828 2.19274 184.408 2.03331 185.612C0.658186 196.771 0.29948 208.096 0.00054084 219.397C-0.0393177 220.53 2.13295 222.111 3.528 222.889L13.6919 228.669C20.428 225.343 25.2709 222.936 30.1336 220.553C31.3493 219.94 33.5017 219.751 33.7209 218.855C36.9295 205.642 47.8109 199.131 53.1918 189.693C60.3066 186.603 66.9629 183.347 73.8385 180.94C75.8115 180.256 79.04 181.223 80.6144 182.875C86.5733 189.151 92.1536 195.946 97.7537 202.693C100.294 205.771 102.562 209.147 106.499 214.462C108.055 211.283 109.645 208.033 111.385 204.486H117.743C109.891 192.194 92.2333 193.94 90.0211 172.966C100.225 180.586 109.054 186.249 116.826 193.515C119.596 196.111 118.998 203.283 121.39 207.105C124.339 211.847 129.481 214.584 128.863 222.134C128.784 223.219 132.889 225.555 135.141 225.72C136.058 225.791 138.27 221.45 138.031 219.421C137.453 214.608 135.759 209.984 133.945 203.047C138.37 202.221 142.814 200.051 146.76 200.947C154.153 202.622 156.166 200.381 155.887 191.486C155.728 186.485 158.179 180.893 160.571 176.387C166.43 165.321 168.004 165.864 175.577 175.231C177.829 178.015 182.911 177.59 186.698 178.628C187.095 177.453 187.492 176.254 187.889 175.055L187.894 175.042C186.618 173.154 185.343 171.267 183.21 168.082C187.455 166.831 191.122 165.746 196.623 164.118C189.03 185.753 207.504 184.173 212.746 194.506C208.002 203.118 201.824 204.227 194.909 199.508C181.357 190.26 169.399 195.993 157.302 203.826C154.632 205.548 151.084 205.359 147.956 206.067C156.592 220.601 171.731 227.167 193.374 225.768C191.441 235.299 189.927 244.123 187.734 252.711C187.236 254.622 184.386 257.005 182.672 256.958C180.203 256.899 177.727 256.9 175.252 256.904L175.25 256.904L174.757 256.905H174.754L174.355 256.906L174.163 256.906C188.411 266.117 201.892 294.174 209.841 310.719C210.098 311.253 210.348 311.775 210.593 312.284C212.134 315.485 213.897 318.536 215.658 321.585C217.519 324.806 219.379 328.025 220.976 331.418C225.002 339.983 232.625 357.081 236.332 365.857C237.309 365.574 238.284 365.301 239.253 365.029C239.557 364.944 239.861 364.858 240.164 364.773C244.711 363.493 249.123 362.185 253.142 359.919C270.501 350.128 287.52 339.935 297.485 318.348C301.989 308.58 302.627 306.079 294.854 300.393C290.908 297.515 287.58 293.433 284.611 290.531C279.967 294.023 275.025 297.727 269.225 302.068C267.511 296.17 266.594 293.008 265.598 289.587C263.007 290.13 260.895 290.578 259.719 290.814C256.092 281.919 252.784 273.874 249.495 265.805C250.233 264.72 250.99 263.635 251.747 262.549C254.896 264.885 259.041 266.395 260.994 269.722C266.096 278.38 271.637 284.397 281.442 282.557C283.993 282.061 288.018 283.123 289.433 285.27C295.054 293.811 302.846 293.598 310.28 292.961C322.157 291.947 334.195 288.195 342.366 303.319C343.382 305.183 346.391 305.56 349.062 306.928C345.694 311.954 344.757 317.05 351.513 317.003C355.539 316.979 359.545 314.054 363.172 312.591C363.869 322.972 363.092 332.621 365.384 341.091C369.509 356.333 375.548 370.819 380.69 385.683C383.201 392.973 387.705 394.2 390.714 387.759C394.381 379.903 395.856 370.654 398.387 362.042C400.36 355.365 401.217 347.532 404.784 342.366C411.102 333.235 419.352 325.968 426.368 317.451C432.027 310.562 444.782 307.872 448.11 313.44C454.687 324.388 461.363 335.217 468.518 346.943C469.813 346.636 472.663 345.952 477.964 344.678C479.12 359.541 480.077 373.697 481.432 387.783C481.691 390.496 482.887 394.365 484.621 395.38C496.937 402.552 494.306 418.124 499.568 429.354C489.185 424.258 484.9 408.733 470.83 408.639C472.105 411.588 472.663 413.381 473.56 414.868C483.644 431.784 493.928 448.535 503.793 465.617C507.38 471.822 511.645 476.682 517.564 472.341C524.041 467.599 518.501 461.842 516.209 457.336C512.043 449.125 507.181 441.41 502.597 433.506C503.952 433.247 505.307 433.011 506.663 432.751C507.42 428.056 509.871 422.536 508.576 418.831C506.304 412.343 502.517 405.855 497.973 401.349C488.248 391.699 484.92 374.712 492.632 361.712C500.305 370.041 507.818 378.204 516.029 387.098C516.607 386.579 518.54 384.598 520.673 382.946C533.667 372.872 535.261 366.431 527.489 351.402C524.579 345.787 519.437 341.611 517.165 335.783C515.232 330.805 515.93 324.411 515.471 318.631C519.238 318.418 523.064 318.442 526.811 317.923C529.402 317.569 531.973 316.625 534.484 315.658C538.729 314.006 542.914 312.142 547.119 310.349C551.025 308.674 556.007 308.25 558.678 305.112C573.226 288.03 574.223 261.842 560.591 244.359C554.493 236.526 549.092 230.392 559.395 220.931C551.284 218.336 544.429 216.118 537.553 213.924C537.613 212.555 537.672 211.21 537.732 209.842C541.28 206.279 544.807 202.717 548.913 198.588C551.065 203.566 552.5 206.822 553.118 208.261C558.718 208.261 564.736 206.185 566.69 208.639C573.705 217.463 579.365 227.82 586.559 239.216C589.15 236.243 594.391 231.312 593.973 230.533C589.708 222.394 584.546 214.915 579.305 206.775C580.122 205.1 581.876 202.269 582.872 199.083C583.869 195.898 584.088 192.383 584.805 188.136C595.527 192.265 598.457 185.659 601.147 175.089C604.794 160.721 605.412 148.523 594.491 138.425C593.694 137.67 593.514 135.995 593.036 134.745C607.545 149.49 619.442 165.911 621.535 189.387C621.834 192.666 623.926 195.662 624.863 198.918C626.756 205.619 631.48 214.395 629.467 218.642C626.756 224.328 618.765 226.499 613.105 230.297C610.036 232.35 607.086 234.662 603.12 237.564C607.345 239.853 609.498 241.032 611.65 242.212C611.411 242.778 611.192 243.368 610.953 243.934C608.481 243.722 605.99 243.533 602.144 243.203C605.093 248.865 607.206 252.923 609.697 257.689C613.157 250.775 615.928 245.235 618.89 239.313L619.682 237.729C621.376 239.098 623.408 240.726 625.441 242.354C629.188 234.002 647.802 240.325 640.189 221.049C636.362 211.376 632.775 201.608 629.347 192.619C632.277 191.864 636.601 190.779 640.906 189.693C640.846 188.301 640.806 186.909 640.747 185.517C637.777 184.149 634.848 182.662 631.838 181.412C626.278 179.1 620.837 178.18 620.997 167.893C621.096 160.98 618.645 151.873 614.52 147.414C602.184 134.084 589.07 121.108 570.137 123.939C567.845 124.293 562.963 120.565 562.883 118.536C562.265 102.021 568.264 95.3202 582.593 95.4145C586.579 95.4381 590.844 94.7067 594.471 96.1223C604.954 100.228 611.411 98.1041 611.59 83.3583C611.59 82.8865 612.527 82.4146 613.045 81.9427C621.269 86.3783 628.145 84.774 633.672 77.1297C634.011 84.8683 635.246 89.8229 634.21 93.9989C631.719 104.097 631.021 112.921 638.614 120.73C643.537 125.803 647.363 132.385 652.385 137.269C654.259 139.109 659.958 139.534 660.796 138.095C665.539 129.861 658.982 108.532 651.17 103.696C648.32 101.95 646.028 99.0007 642.401 95.5796C655.26 90.6357 666.645 86.2673 677.844 81.972L682.626 80.1377L682.635 80.1341L682.648 80.1292L682.718 80.1024C682.798 79.0643 682.877 78.0498 682.957 77.0117L682.794 76.9461L682.769 76.9362C676.674 74.4841 670.579 72.0322 664.562 69.6035C671.876 58.1371 679.728 61.3694 688.099 66.3947C690.769 67.9991 694.317 67.5272 699 68.235C693.659 56.4148 686.923 57.1697 679.011 56.0609C663.486 53.8903 648.459 47.0483 633.014 43.4857C624.903 41.5982 615.676 32.7507 608.103 45.5147C607.824 45.9629 606.229 45.3023 605.253 45.1608C597.221 43.9103 588.951 43.7452 581.238 41.1971C559.276 33.9304 535.52 40.1118 514.176 27.3242C506.902 22.9595 496.937 20.6237 494.805 36.1481C488.945 34.8741 482.369 30.8633 479.12 33.2462C471.786 38.6255 467.701 33.5293 462.041 30.6037C455.564 27.2535 448.509 24.0683 441.593 23.6909C423.956 22.7235 406.259 23.3606 387.804 23.3606C391.113 20.4114 393.823 18.0049 396.454 15.6691C395.736 14.112 395.557 13.2155 395.079 12.8144C394.022 11.9178 392.846 10.7146 391.651 10.5966C377.003 9.08663 362.315 8.26088 348.723 0.14479C347.248 -0.728162 343.98 2.57486 341.548 3.94328C341.847 4.65107 342.146 5.38248 342.445 6.09027C345.614 6.37339 348.763 6.63291 352.609 6.96321C351.473 9.01583 351.154 10.1483 350.776 10.1719C338.021 11.1629 325.804 12.2246 314.405 21.6855C307.051 27.7961 296.907 29.2117 287.221 33.0339C289.812 37.3042 293.061 42.0464 295.751 47.2134C299.956 55.3059 298.88 57.2169 293.2 57.3821C289.414 48.6761 286.962 40.6073 282.777 34.0955C279.489 28.9758 273.849 21.4495 268.209 29.5184C263.107 36.8087 268.528 42.2588 274.068 46.1517C274.367 46.3641 274.227 47.4729 274.227 47.6853C261.214 44.3822 248.08 41.1971 235.046 37.5873C233.153 37.0683 230.483 34.591 230.343 32.7979C230.204 30.7925 232.117 27.5838 233.851 26.5221C241.643 21.8034 249.674 17.6274 257.606 13.2627C235.126 9.29898 223.587 15.5512 218.545 36.3133C227.028 38.8824 235.447 41.4325 243.859 43.9806L244.576 44.1976L246.665 44.8305C246.526 46.1045 246.366 47.3786 246.227 48.6526C240.846 48.6526 235.465 48.5583 230.084 48.6762C225.56 48.7706 220.498 47.6145 216.652 49.6199C209.397 53.3949 202.841 57.1462 195.288 47.0718C196.703 68.2586 177.491 59.8594 172.03 76.7994C166.49 70.0517 162.125 64.7432 157.741 59.4111L160.371 55.1644C164.935 56.6508 169.459 58.9157 174.123 59.3875C177.551 59.7414 181.138 57.7596 184.645 56.8159C182.294 54.0083 180.36 49.7615 177.531 48.6526C170.396 45.8686 162.484 45.7034 155.608 42.3532C130.577 30.179 107.479 36.2426 89.6624 59.2932C84.3413 66.1589 77.2664 71.892 70.0719 75.7613C62.8575 79.6306 61.6617 84.7975 63.3557 92.4889C66.5843 107.093 75.0143 102.563 83.2451 98.7412C84.8195 102.54 85.7363 105.984 87.51 108.65C89.6026 111.812 92.3528 116.318 94.9236 116.436C97.3949 116.554 100.225 111.977 102.497 109.051C104.649 106.291 105.845 102.304 108.256 100.039C112.541 96.0044 113.518 92.772 109.333 87.6287C107.758 85.7177 106.722 79.9845 107.698 78.9464C113.837 72.4582 120.593 66.7958 127.149 60.8503C127.03 66.5363 124.399 70.4764 123.383 74.9591C122.426 79.2295 121.888 84.7031 123.363 88.4309C125.694 94.3764 129.86 99.2838 132.191 102.964C127.827 106.126 122.047 108.32 121.988 110.703C121.729 121.296 116.687 121.839 109.99 121.273C107.898 121.084 105.725 122.736 103.573 122.783C96.7373 122.971 89.8816 123.089 83.0858 122.452C82.0096 122.358 80.8536 118.229 80.3952 115.799C79.9369 113.393 80.2956 110.774 80.2956 108.249C79.4586 107.848 78.6415 107.424 77.8045 106.999C76.1902 109.618 73.4998 112.119 73.2208 114.926C72.862 118.654 74.3767 122.641 75.0941 126.51C74.1408 125.782 73.1677 125.053 72.1946 124.324L72.1844 124.316C63.6746 130.734 55.1449 137.175 47.6116 142.861C44.9212 136.325 43.6058 132.149 41.6129 128.469C38.484 122.712 34.7771 117.403 31.5885 111.694C30.2133 109.24 29.5358 106.22 28.5592 103.46C26.8055 104.875 23.5968 106.291 23.5968 107.707C23.5769 111.482 24.4936 115.516 25.9286 118.937C26.8054 121.013 29.3165 122.122 30.1934 122.877C27.2239 130.899 24.653 137.906 21.2252 147.202C30.0539 146.069 37.5075 145.149 44.9411 144.205ZM251.289 187.499C254.018 190.762 257.736 192.877 262.007 195.306C264.098 196.495 266.322 197.76 268.627 199.272V199.296C267.071 200.511 265.913 201.421 264.91 202.211C264.062 202.877 263.324 203.457 262.549 204.062C262.682 204.394 262.806 204.735 262.93 205.078C263.158 205.709 263.388 206.344 263.685 206.94C263.987 207.542 264.305 208.154 264.628 208.773C267.537 214.359 270.746 220.521 264.861 225.555C259.353 230.255 255.056 226.063 250.91 222.017C249.79 220.924 248.681 219.842 247.562 218.949C246.625 218.218 245.569 215.74 245.928 214.985C250.659 205.169 246.11 199.8 241.568 194.439C239.069 191.489 236.572 188.541 235.624 184.857C235.323 183.687 234.463 182.719 233.626 181.775C233.247 181.348 232.872 180.926 232.555 180.492C239.431 164.047 249.396 160.744 256.969 173.131C249.475 174.924 244.712 179.619 251.289 187.499Z" fill="#9500A2"/>
<path d="M97.7537 202.693C92.1536 195.946 86.5733 189.151 80.6144 182.875C79.04 181.223 75.8115 180.256 73.8385 180.94C66.9629 183.347 60.3066 186.603 53.1918 189.693C47.8109 199.131 36.9295 205.642 33.7209 218.855C33.5017 219.751 31.3493 219.94 30.1336 220.553C25.2709 222.936 20.428 225.343 13.6919 228.669C18.2757 230.698 22.0623 234.19 24.4936 233.152C40.3573 226.522 56.5598 224.564 73.3204 223.573C83.0658 223.007 84.8794 221.12 83.9228 232.657C83.1455 242.07 86.6531 245.374 93.6283 246.766C97.0561 247.45 100.524 248.983 103.593 250.965C108.615 254.245 113.119 258.798 118.321 261.511C119.935 262.361 125.256 259.01 125.276 257.453C125.575 243.061 132.989 246.907 138.868 250.305C150.301 256.88 162.326 256.929 174.355 256.906L174.754 256.905H174.757L175.25 256.904L175.252 256.904C177.727 256.9 180.203 256.899 182.672 256.958C184.386 257.005 187.236 254.622 187.734 252.711C189.927 244.123 191.441 235.299 193.374 225.768C171.731 227.167 156.592 220.601 147.956 206.067C151.084 205.359 154.632 205.548 157.302 203.826C169.399 195.993 181.357 190.26 194.909 199.508C201.824 204.227 208.002 203.118 212.746 194.506C207.504 184.173 189.03 185.753 196.623 164.118C191.122 165.746 187.455 166.831 183.21 168.082C185.343 171.267 186.618 173.154 187.894 175.042L187.889 175.055C187.492 176.254 187.095 177.453 186.698 178.628C182.911 177.59 177.829 178.015 175.577 175.231C168.004 165.864 166.43 165.321 160.571 176.387C158.179 180.893 155.728 186.485 155.887 191.486C156.166 200.381 154.153 202.622 146.76 200.947C142.814 200.051 138.37 202.221 133.945 203.047C135.759 209.984 137.453 214.608 138.031 219.421C138.27 221.45 136.058 225.791 135.141 225.72C132.889 225.555 128.784 223.219 128.863 222.134C129.481 214.584 124.339 211.847 121.39 207.105C118.998 203.283 119.596 196.111 116.826 193.515C109.054 186.249 100.225 180.586 90.0211 172.966C92.2333 193.94 109.891 192.194 117.743 204.486H111.385C109.645 208.033 108.055 211.283 106.499 214.462L106.602 214.6L106.682 214.584L106.642 214.655L106.602 214.6L106.413 214.638L105.999 215.485C104.271 219.015 102.572 222.488 100.743 226.216C97.1103 223.24 94.7159 221.272 90.7192 217.988L90.5393 217.84C94.0059 217.147 96.626 216.617 99.5765 216.019L100.361 215.861C102.146 215.499 104.082 215.108 106.413 214.638L106.499 214.462C102.562 209.147 100.294 205.771 97.7537 202.693Z" fill="#9500A2"/>
<path d="M251.289 187.499C244.712 179.619 249.475 174.924 256.969 173.131C249.396 160.744 239.431 164.047 232.555 180.492C232.872 180.926 233.247 181.348 233.626 181.775C234.463 182.719 235.323 183.687 235.624 184.857C236.572 188.541 239.069 191.489 241.568 194.439C246.11 199.8 250.659 205.169 245.928 214.985C245.569 215.74 246.625 218.218 247.562 218.949C248.681 219.842 249.79 220.924 250.91 222.017C255.056 226.063 259.353 230.255 264.861 225.555C270.746 220.521 267.537 214.359 264.628 208.773C264.305 208.154 263.987 207.542 263.685 206.94C263.388 206.344 263.158 205.709 262.93 205.078C262.806 204.735 262.682 204.394 262.549 204.062C263.324 203.457 264.062 202.877 264.91 202.211C265.913 201.421 267.071 200.511 268.627 199.296V199.272C266.322 197.76 264.098 196.495 262.007 195.306C257.736 192.877 254.018 190.762 251.289 187.499Z" fill="#9500A2"/>
<path d="M174.163 256.906C174.921 258.959 181.078 275.007 181.995 276.989C184.678 282.762 187.333 288.557 189.987 294.352C197.367 310.464 204.748 326.579 212.765 342.248C215.956 348.489 224.156 357.739 229.814 364.121L229.817 364.123C230.767 365.195 231.645 366.186 232.416 367.068C232.988 366.571 233.636 366.51 234.287 366.468C234.97 366.258 235.652 366.055 236.332 365.857C232.625 357.081 225.002 339.983 220.976 331.418C219.379 328.025 217.519 324.806 215.658 321.585C213.897 318.536 212.134 315.485 210.593 312.284C210.348 311.775 210.098 311.253 209.841 310.719C201.892 294.174 188.411 266.117 174.163 256.906Z" fill="#9500A2"/>
</svg>
