<svg width="41" height="170" viewBox="0 0 41 170" fill="none" xmlns="http://www.w3.org/2000/svg">
<path d="M18.139 0C21.028 6.97696 25.7646 13.7403 26.4365 20.9665C28.8887 47.3081 29.2582 73.8277 31.8784 100.134C33.1886 113.126 39.739 125.656 40.2093 138.578C40.5788 148.367 35.0696 158.37 32.1807 168.301L32.3486 169.191C24.4208 167.376 14.9478 167.839 8.93474 163.211C0.670989 156.839 -3.42741 146.338 3.55982 135.09L3.76157 134.876C5.70993 130.142 7.65826 125.372 9.60663 120.637C9.94255 105.402 10.2448 90.2021 10.5807 74.9667C12.5963 52.2916 14.6118 29.5809 16.661 6.90578C17.1648 4.59199 17.6687 2.31379 18.139 0Z" fill="#49184B"/>
</svg>
