<svg width="341" height="58" viewBox="0 0 341 58" fill="none" xmlns="http://www.w3.org/2000/svg">
<path d="M3.4434 22H0.353399V0.999999H14.1534V22H11.0934V4.09H3.4434V22ZM22.6242 0.999999C24.6942 0.999999 26.6442 1.81 28.0542 3.25C29.4942 4.66 30.3042 6.61 30.3042 8.68C30.3042 10.72 29.4942 12.61 28.0542 14.08C26.6442 15.55 24.6942 16.3 22.6242 16.3H19.9842V21.94H16.8342V0.999999H22.6242ZM22.6242 13.15C25.1142 13.15 27.1842 11.17 27.1842 8.68C27.1842 6.19 25.1142 4.12 22.6242 4.12H19.9842V13.15H22.6242ZM54.2749 11.47C54.2749 17.65 49.2349 22.69 43.0549 22.69C36.8449 22.69 31.8349 17.65 31.8349 11.47C31.8349 5.26 36.8449 0.249999 43.0549 0.249999C49.2349 0.249999 54.2749 5.26 54.2749 11.47ZM34.9849 11.47C34.9849 13.6 35.8249 15.64 37.3549 17.14C38.8849 18.67 40.8949 19.51 43.0549 19.51C45.2149 19.51 47.2249 18.67 48.7549 17.14C50.2849 15.64 51.0949 13.6 51.0949 11.47C51.0949 9.31 50.2849 7.27 48.7549 5.77C47.2249 4.24 45.2149 3.4 43.0549 3.4C40.8949 3.4 38.8849 4.24 37.3549 5.77C35.8249 7.27 34.9849 9.31 34.9849 11.47ZM57.9419 18.85V0.999999H71.8919V18.85H75.8219V21.94H54.0119V18.85H57.9419ZM61.0319 4.06V18.85H68.8319V4.06H61.0319ZM98.2788 11.47C98.2788 17.65 93.2388 22.69 87.0588 22.69C80.8488 22.69 75.8388 17.65 75.8388 11.47C75.8388 5.26 80.8488 0.249999 87.0588 0.249999C93.2388 0.249999 98.2788 5.26 98.2788 11.47ZM78.9888 11.47C78.9888 13.6 79.8288 15.64 81.3588 17.14C82.8888 18.67 84.8988 19.51 87.0588 19.51C89.2188 19.51 91.2288 18.67 92.7588 17.14C94.2888 15.64 95.0988 13.6 95.0988 11.47C95.0988 9.31 94.2888 7.27 92.7588 5.77C91.2288 4.24 89.2188 3.4 87.0588 3.4C84.8988 3.4 82.8888 4.24 81.3588 5.77C79.8288 7.27 78.9888 9.31 78.9888 11.47ZM102.127 22H98.767L102.787 0.999999H113.197V22H110.107V4.09H105.547L102.127 22ZM128.321 14.56V22H125.231V14.56H119.201V22H116.111V11.5H120.131L115.301 0.999999H118.631L123.461 11.5H125.231V0.999999H128.321V11.5H130.121L134.951 0.999999H138.281L133.451 11.5H137.441V22H134.351V14.56H128.321ZM140.262 0.999999H143.472L143.442 19.21H145.722L147.792 0.999999H156.162V22H152.862V3.82H150.612L148.632 22H140.262V0.999999ZM172.147 4.09H166.687V22H163.627V4.09H158.167V0.999999H172.147V4.09ZM188.055 4.09H182.595V22H179.535V4.09H174.075V0.999999H188.055V4.09ZM209.556 15.91C207.846 19.9 203.886 22.69 199.266 22.69C193.056 22.69 188.046 17.68 188.046 11.47C188.046 5.26 193.056 0.249999 199.266 0.249999C205.476 0.249999 210.486 5.26 210.486 11.47C210.486 11.83 210.456 12.19 210.426 12.52H191.286C191.496 14.29 192.306 15.91 193.566 17.17C195.096 18.7 197.106 19.54 199.266 19.54C201.426 19.54 203.436 18.7 204.966 17.17C205.416 16.69 205.836 16.18 206.166 15.64L209.556 15.91ZM199.266 3.4C197.106 3.4 195.096 4.24 193.566 5.77C192.546 6.79 191.826 8.08 191.466 9.43H207.066C206.706 8.08 205.986 6.79 204.966 5.77C203.436 4.24 201.426 3.4 199.266 3.4ZM214.334 22H210.974L214.994 0.999999H225.404V22H222.314V4.09H217.754L214.334 22ZM241.624 14.32C241.624 16.36 240.814 18.28 239.374 19.75C237.934 21.19 235.984 22 233.944 22H228.094V0.999999H231.274V6.61H233.944C235.984 6.61 237.934 7.42 239.374 8.86C240.814 10.33 241.624 12.25 241.624 14.32ZM233.944 18.82C236.434 18.82 238.474 16.81 238.474 14.32C238.474 11.83 236.434 9.79 233.944 9.79H231.274V18.82H233.944ZM246.678 12.34V22H243.588V0.999999H246.678V9.25H259.008V0.999999H262.098V22H259.008V12.34H246.678ZM286.511 11.47C286.511 17.65 281.471 22.69 275.291 22.69C269.081 22.69 264.071 17.65 264.071 11.47C264.071 5.26 269.081 0.249999 275.291 0.249999C281.471 0.249999 286.511 5.26 286.511 11.47ZM267.221 11.47C267.221 13.6 268.061 15.64 269.591 17.14C271.121 18.67 273.131 19.51 275.291 19.51C277.451 19.51 279.461 18.67 280.991 17.14C282.521 15.64 283.331 13.6 283.331 11.47C283.331 9.31 282.521 7.27 280.991 5.77C279.461 4.24 277.451 3.4 275.291 3.4C273.131 3.4 271.121 4.24 269.591 5.77C268.061 7.27 267.221 9.31 267.221 11.47ZM310.378 14.41C309.088 19.15 304.738 22.66 299.548 22.66C293.368 22.66 288.358 17.65 288.358 11.47C288.358 5.29 293.368 0.279999 299.548 0.279999C304.798 0.279999 309.208 3.88 310.438 8.74H307.138C306.718 7.63 306.088 6.64 305.248 5.77C303.718 4.27 301.708 3.43 299.548 3.43C297.418 3.43 295.378 4.27 293.878 5.77C292.348 7.3 291.508 9.31 291.508 11.47C291.508 13.63 292.348 15.64 293.878 17.17C295.378 18.67 297.418 19.51 299.548 19.51C301.708 19.51 303.718 18.67 305.248 17.17C306.058 16.36 306.658 15.43 307.048 14.41H310.378ZM324.637 4.09H319.177V22H316.117V4.09H310.657V0.999999H324.637V4.09ZM340.208 14.32C340.208 16.36 339.398 18.28 337.958 19.75C336.518 21.19 334.568 22 332.528 22H326.678V0.999999H329.858V6.61H332.528C334.568 6.61 336.518 7.42 337.958 8.86C339.398 10.33 340.208 12.25 340.208 14.32ZM332.528 18.82C335.018 18.82 337.058 16.81 337.058 14.32C337.058 11.83 335.018 9.79 332.528 9.79H329.858V18.82H332.528ZM134.898 50.56V58H131.808V50.56H125.778V58H122.688V47.5H126.708L121.878 37H125.208L130.038 47.5H131.808V37H134.898V47.5H136.698L141.528 37H144.858L140.028 47.5H144.018V58H140.928V50.56H134.898ZM146.839 37H150.049L150.019 55.21H152.299L154.369 37H162.739V58H159.439V39.82H157.189L155.209 58H146.839V37ZM175.191 49.03H165.141V45.94H175.191V40.09H165.141V37H178.281V58H165.141V54.91H175.191V49.03ZM184.261 48.34V58H181.171V37H184.261V45.25H196.591V37H199.681V58H196.591V48.34H184.261ZM202.21 37H205.42L205.39 55.21H207.67L209.74 37H218.11V58H214.81V39.82H212.56L210.58 58H202.21V37Z" fill="#7D69F7"/>
</svg>
