<svg width="428" height="82" viewBox="0 0 428 82" fill="none" xmlns="http://www.w3.org/2000/svg">
<path d="M108.006 0.639998V5.32L86.8864 14.96L108.006 24.56V29.28L86.0864 19.36V29H81.9664V0.999998H86.0864V10.6L108.006 0.639998ZM138.372 14.96C138.372 23.2 131.652 29.92 123.412 29.92C115.132 29.92 108.452 23.2 108.452 14.96C108.452 6.68 115.132 -9.53674e-07 123.412 -9.53674e-07C131.652 -9.53674e-07 138.372 6.68 138.372 14.96ZM112.652 14.96C112.652 17.8 113.772 20.52 115.812 22.52C117.852 24.56 120.532 25.68 123.412 25.68C126.292 25.68 128.972 24.56 131.012 22.52C133.052 20.52 134.132 17.8 134.132 14.96C134.132 12.08 133.052 9.36 131.012 7.36C128.972 5.32 126.292 4.2 123.412 4.2C120.532 4.2 117.852 5.32 115.812 7.36C113.772 9.36 112.652 12.08 112.652 14.96ZM143.503 29H139.023L144.383 0.999998H158.263V29H154.143V5.12H148.063L143.503 29ZM161.849 0.999998H166.129L166.089 25.28H169.129L171.889 0.999998H183.049V29H178.649V4.76H175.649L173.009 29H161.849V0.999998ZM199.743 0.999998H203.863V29H199.743V19.08H186.263V0.999998H190.383V15H199.743V0.999998ZM235.374 20.88C233.094 26.2 227.814 29.92 221.654 29.92C213.374 29.92 206.694 23.24 206.694 14.96C206.694 6.68 213.374 -9.53674e-07 221.654 -9.53674e-07C229.934 -9.53674e-07 236.614 6.68 236.614 14.96C236.614 15.44 236.574 15.92 236.534 16.36H211.014C211.294 18.72 212.374 20.88 214.054 22.56C216.094 24.6 218.774 25.72 221.654 25.72C224.534 25.72 227.214 24.6 229.254 22.56C229.854 21.92 230.414 21.24 230.854 20.52L235.374 20.88ZM221.654 4.2C218.774 4.2 216.094 5.32 214.054 7.36C212.694 8.72 211.734 10.44 211.254 12.24H232.054C231.574 10.44 230.614 8.72 229.254 7.36C227.214 5.32 224.534 4.2 221.654 4.2ZM268.437 18.88C266.717 25.2 260.917 29.88 253.997 29.88C245.757 29.88 239.077 23.2 239.077 14.96C239.077 6.72 245.757 0.0399985 253.997 0.0399985C260.997 0.0399985 266.877 4.84 268.517 11.32H264.117C263.557 9.84 262.717 8.52 261.597 7.36C259.557 5.36 256.877 4.24 253.997 4.24C251.157 4.24 248.437 5.36 246.437 7.36C244.397 9.4 243.277 12.08 243.277 14.96C243.277 17.84 244.397 20.52 246.437 22.56C248.437 24.56 251.157 25.68 253.997 25.68C256.877 25.68 259.557 24.56 261.597 22.56C262.677 21.48 263.477 20.24 263.997 18.88H268.437ZM287.448 5.12H280.168V29H276.088V5.12H268.808V0.999998H287.448V5.12ZM314.43 28.92H290.59V0.999998H306.55V12H314.39V12.28H314.43V28.92ZM302.43 12V5.12H294.71V12H302.43ZM294.71 24.8H310.31V16.08H294.71V24.8ZM347.2 14.96C347.2 23.2 340.48 29.92 332.24 29.92C323.96 29.92 317.28 23.2 317.28 14.96C317.28 6.68 323.96 -9.53674e-07 332.24 -9.53674e-07C340.48 -9.53674e-07 347.2 6.68 347.2 14.96ZM321.48 14.96C321.48 17.8 322.6 20.52 324.64 22.52C326.68 24.56 329.36 25.68 332.24 25.68C335.12 25.68 337.8 24.56 339.84 22.52C341.88 20.52 342.96 17.8 342.96 14.96C342.96 12.08 341.88 9.36 339.84 7.36C337.8 5.32 335.12 4.2 332.24 4.2C329.36 4.2 326.68 5.32 324.64 7.36C322.6 9.36 321.48 12.08 321.48 14.96ZM5.01047 77H0.890469V49H19.2905V77H15.2105V53.12H5.01047V77ZM52.0045 62.96C52.0045 71.2 45.2845 77.92 37.0445 77.92C28.7645 77.92 22.0845 71.2 22.0845 62.96C22.0845 54.68 28.7645 48 37.0445 48C45.2845 48 52.0045 54.68 52.0045 62.96ZM26.2845 62.96C26.2845 65.8 27.4045 68.52 29.4445 70.52C31.4845 72.56 34.1645 73.68 37.0445 73.68C39.9245 73.68 42.6045 72.56 44.6445 70.52C46.6845 68.52 47.7645 65.8 47.7645 62.96C47.7645 60.08 46.6845 57.36 44.6445 55.36C42.6045 53.32 39.9245 52.2 37.0445 52.2C34.1645 52.2 31.4845 53.32 29.4445 55.36C27.4045 57.36 26.2845 60.08 26.2845 62.96ZM70.9245 53.12H63.6445V77H59.5645V53.12H52.2845V49H70.9245V53.12ZM80.9755 49C83.7355 49 86.3355 50.08 88.2155 52C90.1355 53.88 91.2155 56.48 91.2155 59.24C91.2155 61.96 90.1355 64.48 88.2155 66.44C86.3355 68.4 83.7355 69.4 80.9755 69.4H77.4555V76.92H73.2555V49H80.9755ZM80.9755 65.2C84.2955 65.2 87.0555 62.56 87.0555 59.24C87.0555 55.92 84.2955 53.16 80.9755 53.16H77.4555V65.2H80.9755ZM121.936 68.88C119.656 74.2 114.376 77.92 108.216 77.92C99.9364 77.92 93.2564 71.24 93.2564 62.96C93.2564 54.68 99.9364 48 108.216 48C116.496 48 123.176 54.68 123.176 62.96C123.176 63.44 123.136 63.92 123.096 64.36H97.5764C97.8564 66.72 98.9364 68.88 100.616 70.56C102.656 72.6 105.336 73.72 108.216 73.72C111.096 73.72 113.776 72.6 115.816 70.56C116.416 69.92 116.976 69.24 117.416 68.52L121.936 68.88ZM108.216 52.2C105.336 52.2 102.656 53.32 100.616 55.36C99.2564 56.72 98.2964 58.44 97.8164 60.24H118.616C118.136 58.44 117.176 56.72 115.816 55.36C113.776 53.32 111.096 52.2 108.216 52.2ZM129.849 53.16V59.88H146.129V77H125.729V49H146.129V53.16H129.849ZM129.849 64V72.84H141.969V64H129.849ZM153.19 77H148.71L154.07 49H167.95V77H163.83V53.12H157.75L153.19 77ZM181.855 69.44L175.775 77H170.335L177.055 68.72C175.775 68.2 174.575 67.48 173.575 66.48C171.615 64.52 170.575 61.96 170.575 59.2C170.575 56.52 171.615 53.88 173.575 52C175.495 50.04 178.055 49 180.815 49H188.535V77H184.335V69.44H181.855ZM180.815 53.2C177.495 53.2 174.735 55.84 174.735 59.2C174.735 62.52 177.495 65.24 180.815 65.24H184.335V53.2H180.815ZM219.241 68.88C216.961 74.2 211.681 77.92 205.521 77.92C197.241 77.92 190.561 71.24 190.561 62.96C190.561 54.68 197.241 48 205.521 48C213.801 48 220.481 54.68 220.481 62.96C220.481 63.44 220.441 63.92 220.401 64.36H194.881C195.161 66.72 196.241 68.88 197.921 70.56C199.961 72.6 202.641 73.72 205.521 73.72C208.401 73.72 211.081 72.6 213.121 70.56C213.721 69.92 214.281 69.24 214.721 68.52L219.241 68.88ZM205.521 52.2C202.641 52.2 199.961 53.32 197.921 55.36C196.561 56.72 195.601 58.44 195.121 60.24H215.921C215.441 58.44 214.481 56.72 213.121 55.36C211.081 53.32 208.401 52.2 205.521 52.2ZM232.774 77L229.974 52.68H227.574V77H223.334V49H233.854L236.454 73.16H238.774L241.374 49H251.894V77H247.494L247.574 52.76H245.214L242.334 77H232.774ZM284.661 62.96C284.661 71.2 277.941 77.92 269.701 77.92C261.421 77.92 254.741 71.2 254.741 62.96C254.741 54.68 261.421 48 269.701 48C277.941 48 284.661 54.68 284.661 62.96ZM258.941 62.96C258.941 65.8 260.061 68.52 262.101 70.52C264.141 72.56 266.821 73.68 269.701 73.68C272.581 73.68 275.261 72.56 277.301 70.52C279.341 68.52 280.421 65.8 280.421 62.96C280.421 60.08 279.341 57.36 277.301 55.36C275.261 53.32 272.581 52.2 269.701 52.2C266.821 52.2 264.141 53.32 262.101 55.36C260.061 57.36 258.941 60.08 258.941 62.96ZM294.913 42V45.72H300.953V42H294.913ZM301.313 52.76L298.673 77H287.513V49H291.793L291.753 73.28H294.793L297.553 49H308.713V77H304.353V52.76H301.313ZM331.612 77H327.492V49H345.892V77H341.812V53.12H331.612V77ZM349.466 49H353.746L353.706 73.28H356.746L359.506 49H370.666V77H366.266V52.76H363.266L360.626 77H349.466V49ZM374.271 49H378.391V72.88H384.431V49H388.551V72.88H394.631V49H398.751V72.88H404.071V81.56H399.951V77H374.271V49ZM406.654 49H410.934L410.894 73.28H413.934L416.694 49H427.854V77H423.454V52.76H420.454L417.814 77H406.654V49Z" fill="#7D69F7"/>
</svg>
