<svg width="498" height="159" viewBox="0 0 498 159" fill="none" xmlns="http://www.w3.org/2000/svg">
<path d="M116.008 1.55V7.4L89.608 19.45L116.008 31.45V37.35L88.608 24.95V37H83.458V2H88.608V14L116.008 1.55ZM153.965 19.45C153.965 29.75 145.565 38.15 135.265 38.15C124.915 38.15 116.565 29.75 116.565 19.45C116.565 9.1 124.915 0.749999 135.265 0.749999C145.565 0.749999 153.965 9.1 153.965 19.45ZM121.815 19.45C121.815 23 123.215 26.4 125.765 28.9C128.315 31.45 131.665 32.85 135.265 32.85C138.865 32.85 142.215 31.45 144.765 28.9C147.315 26.4 148.665 23 148.665 19.45C148.665 15.85 147.315 12.45 144.765 9.95C142.215 7.4 138.865 6 135.265 6C131.665 6 128.315 7.4 125.765 9.95C123.215 12.45 121.815 15.85 121.815 19.45ZM160.378 37H154.778L161.478 2H178.828V37H173.678V7.15H166.078L160.378 37ZM183.312 2H188.662L188.612 32.35H192.412L195.862 2H209.812V37H204.312V6.7H200.562L197.262 37H183.312V2ZM230.679 2H235.829V37H230.679V24.6H213.829V2H218.979V19.5H230.679V2ZM275.217 26.85C272.367 33.5 265.767 38.15 258.067 38.15C247.717 38.15 239.367 29.8 239.367 19.45C239.367 9.1 247.717 0.749999 258.067 0.749999C268.417 0.749999 276.767 9.1 276.767 19.45C276.767 20.05 276.717 20.65 276.667 21.2H244.767C245.117 24.15 246.467 26.85 248.567 28.95C251.117 31.5 254.467 32.9 258.067 32.9C261.667 32.9 265.017 31.5 267.567 28.95C268.317 28.15 269.017 27.3 269.567 26.4L275.217 26.85ZM258.067 6C254.467 6 251.117 7.4 248.567 9.95C246.867 11.65 245.667 13.8 245.067 16.05H271.067C270.467 13.8 269.267 11.65 267.567 9.95C265.017 7.4 261.667 6 258.067 6ZM316.546 24.35C314.396 32.25 307.146 38.1 298.496 38.1C288.196 38.1 279.846 29.75 279.846 19.45C279.846 9.15 288.196 0.799998 298.496 0.799998C307.246 0.799998 314.596 6.8 316.646 14.9H311.146C310.446 13.05 309.396 11.4 307.996 9.95C305.446 7.45 302.096 6.05 298.496 6.05C294.946 6.05 291.546 7.45 289.046 9.95C286.496 12.5 285.096 15.85 285.096 19.45C285.096 23.05 286.496 26.4 289.046 28.95C291.546 31.45 294.946 32.85 298.496 32.85C302.096 32.85 305.446 31.45 307.996 28.95C309.346 27.6 310.346 26.05 310.996 24.35H316.546ZM340.31 7.15H331.21V37H326.11V7.15H317.01V2H340.31V7.15ZM374.037 36.9H344.237V2H364.187V15.75H373.987V16.1H374.037V36.9ZM359.037 15.75V7.15H349.387V15.75H359.037ZM349.387 31.75H368.887V20.85H349.387V31.75ZM415 19.45C415 29.75 406.6 38.15 396.3 38.15C385.95 38.15 377.6 29.75 377.6 19.45C377.6 9.1 385.95 0.749999 396.3 0.749999C406.6 0.749999 415 9.1 415 19.45ZM382.85 19.45C382.85 23 384.25 26.4 386.8 28.9C389.35 31.45 392.7 32.85 396.3 32.85C399.9 32.85 403.25 31.45 405.8 28.9C408.35 26.4 409.7 23 409.7 19.45C409.7 15.85 408.35 12.45 405.8 9.95C403.25 7.4 399.9 6 396.3 6C392.7 6 389.35 7.4 386.8 9.95C384.25 12.45 382.85 15.85 382.85 19.45ZM5.73965 97H0.139649L6.83965 62H24.1896V97H19.0396V67.15H11.4396L5.73965 97ZM63.5963 86.85C60.7463 93.5 54.1463 98.15 46.4463 98.15C36.0963 98.15 27.7463 89.8 27.7463 79.45C27.7463 69.1 36.0963 60.75 46.4463 60.75C56.7963 60.75 65.1463 69.1 65.1463 79.45C65.1463 80.05 65.0963 80.65 65.0463 81.2H33.1463C33.4963 84.15 34.8463 86.85 36.9463 88.95C39.4963 91.5 42.8463 92.9 46.4463 92.9C50.0463 92.9 53.3963 91.5 55.9463 88.95C56.6963 88.15 57.3963 87.3 57.9463 86.4L63.5963 86.85ZM46.4463 66C42.8463 66 39.4963 67.4 36.9463 69.95C35.2463 71.65 34.0463 73.8 33.4463 76.05H59.4463C58.8463 73.8 57.6463 71.65 55.9463 69.95C53.3963 67.4 50.0463 66 46.4463 66ZM105.625 79.45C105.625 89.75 97.2248 98.15 86.9248 98.15C76.5748 98.15 68.2248 89.75 68.2248 79.45C68.2248 69.1 76.5748 60.75 86.9248 60.75C97.2248 60.75 105.625 69.1 105.625 79.45ZM73.4748 79.45C73.4748 83 74.8748 86.4 77.4248 88.9C79.9748 91.45 83.3248 92.85 86.9248 92.85C90.5248 92.85 93.8748 91.45 96.4248 88.9C98.9748 86.4 100.325 83 100.325 79.45C100.325 75.85 98.9748 72.45 96.4248 69.95C93.8748 67.4 90.5248 66 86.9248 66C83.3248 66 79.9748 67.4 77.4248 69.95C74.8748 72.45 73.4748 75.85 73.4748 79.45ZM114.265 97H109.115V62H132.115V97H127.015V67.15H114.265V97ZM141.559 97H136.459V62H159.509V97H154.359V82.1H141.559V97ZM141.559 67.15V76.95H154.359V67.15H141.559ZM173.626 62C177.076 62 180.326 63.35 182.676 65.75C185.076 68.1 186.426 71.35 186.426 74.8C186.426 78.2 185.076 81.35 182.676 83.8C180.326 86.25 177.076 87.5 173.626 87.5H169.226V96.9H163.976V62H173.626ZM173.626 82.25C177.776 82.25 181.226 78.95 181.226 74.8C181.226 70.65 177.776 67.2 173.626 67.2H169.226V82.25H173.626ZM190.008 91.75V62H213.258V91.75H219.808V96.9H183.458V91.75H190.008ZM195.158 67.1V91.75H208.158V67.1H195.158ZM257.236 79.45C257.236 89.75 248.836 98.15 238.536 98.15C228.186 98.15 219.836 89.75 219.836 79.45C219.836 69.1 228.186 60.75 238.536 60.75C248.836 60.75 257.236 69.1 257.236 79.45ZM225.086 79.45C225.086 83 226.486 86.4 229.036 88.9C231.586 91.45 234.936 92.85 238.536 92.85C242.136 92.85 245.486 91.45 248.036 88.9C250.586 86.4 251.936 83 251.936 79.45C251.936 75.85 250.586 72.45 248.036 69.95C245.486 67.4 242.136 66 238.536 66C234.936 66 231.586 67.4 229.036 69.95C226.486 72.45 225.086 75.85 225.086 79.45ZM290.59 96.9H260.79V62H280.74V75.75H290.54V76.1H290.59V96.9ZM275.59 75.75V67.15H265.94V75.75H275.59ZM265.94 91.75H285.44V80.85H265.94V91.75ZM341.908 96.9H312.108V62H332.058V75.75H341.858V76.1H341.908V96.9ZM326.908 75.75V67.15H317.258V75.75H326.908ZM317.258 91.75H336.758V80.85H317.258V91.75ZM375.727 97L372.227 66.6H369.227V97H363.927V62H377.077L380.327 92.2H383.227L386.477 62H399.627V97H394.127L394.227 66.7H391.277L387.677 97H375.727ZM404.161 62H409.511L409.461 92.35H413.261L416.711 62H430.661V97H425.161V66.7H421.411L418.111 97H404.161V62ZM444.817 62C448.267 62 451.517 63.35 453.867 65.75C456.267 68.1 457.617 71.35 457.617 74.8C457.617 78.2 456.267 81.35 453.867 83.8C451.517 86.25 448.267 87.5 444.817 87.5H440.417V96.9H435.167V62H444.817ZM444.817 82.25C448.967 82.25 452.417 78.95 452.417 74.8C452.417 70.65 448.967 67.2 444.817 67.2H440.417V82.25H444.817ZM496.018 86.85C493.168 93.5 486.568 98.15 478.868 98.15C468.518 98.15 460.168 89.8 460.168 79.45C460.168 69.1 468.518 60.75 478.868 60.75C489.218 60.75 497.568 69.1 497.568 79.45C497.568 80.05 497.518 80.65 497.468 81.2H465.568C465.918 84.15 467.268 86.85 469.368 88.95C471.918 91.5 475.268 92.9 478.868 92.9C482.468 92.9 485.818 91.5 488.368 88.95C489.118 88.15 489.818 87.3 490.368 86.4L496.018 86.85ZM478.868 66C475.268 66 471.918 67.4 469.368 69.95C467.668 71.65 466.468 73.8 465.868 76.05H491.868C491.268 73.8 490.068 71.65 488.368 69.95C485.818 67.4 482.468 66 478.868 66ZM92.3863 140.9V157H87.2363V122H92.3863V135.75H112.936V122H118.086V157H112.936V140.9H92.3863ZM127.863 157H122.763V122H145.813V157H140.663V142.1H127.863V157ZM127.863 127.15V136.95H140.663V127.15H127.863ZM169.762 157V137.5H194.712V127.1H169.762V122H200.362V142.6H175.462V151.9H200.362V157H169.762ZM238.364 139.45C238.364 149.75 229.964 158.15 219.664 158.15C209.314 158.15 200.964 149.75 200.964 139.45C200.964 129.1 209.314 120.75 219.664 120.75C229.964 120.75 238.364 129.1 238.364 139.45ZM206.214 139.45C206.214 143 207.614 146.4 210.164 148.9C212.714 151.45 216.064 152.85 219.664 152.85C223.264 152.85 226.614 151.45 229.164 148.9C231.714 146.4 233.064 143 233.064 139.45C233.064 135.85 231.714 132.45 229.164 129.95C226.614 127.4 223.264 126 219.664 126C216.064 126 212.714 127.4 210.164 129.95C207.614 132.45 206.214 135.85 206.214 139.45ZM240.416 157V137.5H265.366V127.1H240.416V122H271.016V142.6H246.116V151.9H271.016V157H240.416ZM292.373 122H297.523V157H292.373V144.6H275.523V122H280.673V139.5H292.373V122ZM320.006 157V122H337.156V127.15H325.256V157H320.006ZM373.618 139.45C373.618 149.75 365.218 158.15 354.918 158.15C344.568 158.15 336.218 149.75 336.218 139.45C336.218 129.1 344.568 120.75 354.918 120.75C365.218 120.75 373.618 129.1 373.618 139.45ZM341.468 139.45C341.468 143 342.868 146.4 345.418 148.9C347.968 151.45 351.318 152.85 354.918 152.85C358.518 152.85 361.868 151.45 364.418 148.9C366.968 146.4 368.318 143 368.318 139.45C368.318 135.85 366.968 132.45 364.418 129.95C361.868 127.4 358.518 126 354.918 126C351.318 126 347.968 127.4 345.418 129.95C342.868 132.45 341.468 135.85 341.468 139.45ZM379.73 151.75V122H402.98V151.75H409.53V156.9H373.18V151.75H379.73ZM384.88 127.1V151.75H397.88V127.1H384.88Z" fill="#7D69F7"/>
</svg>
